<?xml version="1.0" encoding="UTF-8"?>
<svg id="D-RA" xmlns="http://www.w3.org/2000/svg" width="2880" height="1220" viewBox="0 0 2880 1220">
  <path d="M41.74,83.22h279.37c244.45,0,371.86,107.6,371.86,328.45v6.61c0,222.74-132.14,339.77-370.92,339.77H41.74V83.22ZM313.56,566.46c84.94,0,117.03-37.75,117.03-142.52v-7.55c0-114.2-37.75-141.57-118.92-141.57h-17.93v291.64h19.82Z" style="fill: #211e27;"/>
  <path d="M1463.35,83.22h296.36c201.03,0,294.47,81.17,294.47,227.46v3.78c0,88.72-38.7,141.57-99.1,174.61l138.74,268.99h-261.44l-104.76-214.25h-14.16v214.25h-250.11V83.22ZM1741.77,386.19c49.08,0,70.79-19.82,70.79-59.46v-3.78c0-36.81-21.71-52.85-68.9-52.85h-30.2v116.09h28.31Z" style="fill: #211e27;"/>
  <path d="M2308.99,83.22h323.73l206.7,674.83h-268.05l-22.65-89.66h-190.65l-22.65,89.66h-234.07l207.64-674.83ZM2399.6,500.39h107.6l-52.86-215.19-54.74,215.19Z" style="fill: #211e27;"/>
</svg>