<?xml version="1.0" encoding="UTF-8"?>
<svg width="141px" height="26px" viewBox="0 0 141 26" version="1.1" xmlns="http://www.w3.org/2000/svg" xmlns:xlink="http://www.w3.org/1999/xlink">
    <!-- Generator: Sketch 49 (51002) - http://www.bohemiancoding.com/sketch -->
    <title>Google Cloud Logo</title>
    <desc>Created with Sketch.</desc>
    <defs></defs>
    <g id="Symbols" stroke="none" stroke-width="1" fill="none" fill-rule="evenodd">
        <g id="footer-desktop" transform="translate(-137.000000, -41.000000)" fill="#6B6B6B">
            <g transform="translate(0.410980, 0.446920)" id="Google-Cloud-Logo">
                <g transform="translate(137.334187, 40.979609)">
                    <path d="M90.5049807,19.3488849 C85.5429085,19.3488849 81.7568229,15.5535177 81.7568229,10.5323772 C81.7568229,5.51123657 85.5429085,1.71568523 90.5049807,1.71568523 C93.0448989,1.71568523 95.185044,2.7294897 96.6900718,4.47404369 L95.185044,5.93535859 C94.0090573,4.47404369 92.4334813,3.79025514 90.5049807,3.79025514 C86.9540558,3.79025514 83.9673325,6.38342149 83.9673325,10.5323772 C83.9673325,14.6813328 86.9540558,17.2744992 90.5049807,17.2744992 C92.6216098,17.2744992 94.409014,16.2842673 95.6788812,14.8227682 L97.183909,16.3314124 C95.7023973,18.0993548 93.3270916,19.3488849 90.5049807,19.3488849" id="Fill-70"></path>
                    <polygon id="Fill-71" points="98.8761467 2.09303043 101.039808 2.09303043 101.039808 18.9717239 98.8761467 18.9717239"></polygon>
                    <path d="M108.588463,19.3488849 C105.131419,19.3488849 102.662049,16.7085734 102.662049,13.1962612 C102.662049,9.6837648 105.131419,7.04345332 108.588463,7.04345332 C112.045507,7.04345332 114.514694,9.6837648 114.514694,13.1962612 C114.514694,16.7085734 112.045507,19.3488849 108.588463,19.3488849 M108.588463,9.02373297 C106.659962,9.02373297 104.82571,10.5559497 104.82571,13.1962612 C104.82571,15.8363885 106.659962,17.3687894 108.588463,17.3687894 C110.516964,17.3687894 112.351216,15.8363885 112.351216,13.1962612 C112.351216,10.5559497 110.516964,9.02373297 108.588463,9.02373297" id="Fill-72"></path>
                    <path d="M120.55777,19.3488849 C117.59493,19.3488849 116.16045,17.3450327 116.16045,14.4927523 L116.16045,7.42061437 L118.323928,7.42061437 L118.323928,14.1391638 C118.323928,16.5435655 119.523431,17.3687894 121.169555,17.3687894 C123.05084,17.3687894 124.202759,15.5535177 124.202759,13.7855753 L124.202759,7.42061437 L126.366971,7.42061437 L126.366971,18.9717239 L124.296456,18.9717239 L124.296456,17.3687894 L124.202759,17.3687894 C123.568928,18.4295549 122.134081,19.3488849 120.55777,19.3488849" id="Fill-73"></path>
                    <path d="M133.585299,19.3488849 C130.669675,19.3488849 128.106792,16.732146 128.106792,13.1962612 C128.106792,9.66019224 130.669675,7.04345332 133.585299,7.04345332 C135.420654,7.04345332 136.853664,7.96278337 137.513216,9.02373297 L137.606913,9.02373297 L137.513216,7.42061437 L137.513216,2.09303043 L139.677428,2.09303043 L139.677428,18.9717239 L137.606913,18.9717239 L137.606913,17.3687894 L137.513216,17.3687894 C136.853664,18.4295549 135.420654,19.3488849 133.585299,19.3488849 M133.93804,9.02373297 C132.010826,9.02373297 130.269167,10.6030949 130.269167,13.1962612 C130.269167,15.7892434 132.010826,17.3687894 133.93804,17.3687894 C135.867092,17.3687894 137.606913,15.8363885 137.606913,13.1962612 C137.606913,10.5559497 135.867092,9.02373297 133.93804,9.02373297" id="Fill-74"></path>
                    <path d="M9.98525832,19.3488849 C4.67026145,19.3488849 0.201842717,15.0113487 0.201842717,9.68358064 C0.201842717,4.35599671 4.67026145,0.0184605193 9.98525832,0.0184605193 C12.9247658,0.0184605193 15.0178788,1.17351622 16.5934547,2.68234457 L14.735686,4.54457723 C13.6067315,3.48381179 12.0781876,2.658772 9.98525832,2.658772 C6.10474108,2.658772 3.07116941,5.79410736 3.07116941,9.68358064 C3.07116941,13.5734222 6.10474108,16.7085734 9.98525832,16.7085734 C12.5014767,16.7085734 13.93614,15.6949531 14.8532663,14.7756231 C15.6057802,14.021301 16.0996175,12.936963 16.287746,11.4517072 L9.98525832,11.4517072 L9.98525832,8.81157988 L18.8511802,8.81157988 C18.9452444,9.28303119 18.9922765,9.84877276 18.9922765,10.4616595 C18.9922765,12.4417549 18.4514072,14.8934859 16.711035,16.6380399 C15.0178788,18.4059823 12.8542176,19.3488849 9.98525832,19.3488849" id="Fill-83"></path>
                    <path d="M26.1573259,19.3488849 C22.7237975,19.3488849 19.9253864,16.7085734 19.9253864,13.1253593 C19.9253864,9.51857268 22.7237975,6.90201793 26.1573259,6.90201793 C29.5908543,6.90201793 32.3892654,9.51857268 32.3892654,13.1253593 C32.3892654,16.7085734 29.5908543,19.3488849 26.1573259,19.3488849 M26.1573259,9.35356473 C24.2758574,9.35356473 22.6532493,10.8859656 22.6532493,13.1253593 C22.6532493,15.3413646 24.2758574,16.8973381 26.1573259,16.8973381 C28.0387944,16.8973381 29.6614025,15.3413646 29.6614025,13.1253593 C29.6614025,10.8859656 28.0387944,9.35356473 26.1573259,9.35356473" id="Fill-84"></path>
                    <path d="M39.7525478,19.3488849 C36.3188356,19.3488849 33.5204246,16.7085734 33.5204246,13.1253593 C33.5204246,9.51857268 36.3188356,6.90201793 39.7525478,6.90201793 C43.1858924,6.90201793 45.9846709,9.51857268 45.9846709,13.1253593 C45.9846709,16.7085734 43.1858924,19.3488849 39.7525478,19.3488849 M39.7525478,9.35356473 C37.871263,9.35356473 36.2484712,10.8859656 36.2484712,13.1253593 C36.2484712,15.3413646 37.871263,16.8973381 39.7525478,16.8973381 C41.6338325,16.8973381 43.2564406,15.3413646 43.2564406,13.1253593 C43.2564406,10.8859656 41.6338325,9.35356473 39.7525478,9.35356473" id="Fill-85"></path>
                    <path d="M53.1238159,24.9359512 C50.1135766,24.9359512 48.30284,22.9085265 47.6208743,21.2582627 L49.99618,20.268215 C50.4192853,21.2818353 51.4543594,22.4842203 53.1238159,22.4842203 C55.1698968,22.4842203 56.439764,21.2113017 56.439764,18.8302885 L56.439764,17.934531 L56.3456998,17.934531 C55.7342822,18.6888531 54.5584792,19.3488849 53.0769675,19.3488849 C49.9726639,19.3488849 47.127037,16.6380399 47.127037,13.1489319 C47.127037,9.63643551 49.9726639,6.90201793 53.0769675,6.90201793 C54.5584792,6.90201793 55.7342822,7.56204976 56.3456998,8.29279928 L56.439764,8.29279928 L56.439764,7.27917897 L59.0267143,7.27917897 L59.0267143,18.4531274 C59.0267143,23.0499618 56.3221837,24.9359512 53.1238159,24.9359512 M53.3121281,9.35356473 C51.4306596,9.35356473 49.8548999,10.9566833 49.8548999,13.1489319 C49.8548999,15.3177921 51.4306596,16.8973381 53.3121281,16.8973381 C55.1698968,16.8973381 56.6280762,15.3177921 56.6280762,13.1489319 C56.6280762,10.9566833 55.1698968,9.35356473 53.3121281,9.35356473" id="Fill-86"></path>
                    <polygon id="Fill-87" points="60.907999 0.67867651 63.6360456 0.67867651 63.6360456 18.9717239 60.907999 18.9717239"></polygon>
                    <path d="M71.11452,19.3488849 C67.5869273,19.3488849 64.9531287,16.6142832 64.9531287,13.1253593 C64.9531287,9.42446658 67.6104434,6.90201793 70.8088112,6.90201793 C74.0306951,6.90201793 75.606271,9.47142755 76.1236243,10.8623931 L76.4060008,11.56957 L68.1042806,15.0113487 C68.7392142,16.2606947 69.7268887,16.8973381 71.11452,16.8973381 C72.5021512,16.8973381 73.4663096,16.2137337 74.1716077,15.1763567 L76.2882368,16.5907106 C75.606271,17.6045151 73.9601469,19.3488849 71.11452,19.3488849 M70.9028754,9.30660376 C69.5154279,9.30660376 67.5869273,10.5323772 67.6576592,12.936963 L73.207633,10.6266674 C72.9017405,9.84877276 71.9846142,9.30660376 70.9028754,9.30660376" id="Fill-88"></path>
                </g>
            </g>
        </g>
    </g>
</svg>