<?xml version="1.0" encoding="UTF-8"?>
<svg xmlns="http://www.w3.org/2000/svg" width="1.96in" height=".37in" viewBox="0 0 141 26.68">
    <path d="M91.25,20.45c-4.96,0-8.75-3.8-8.75-8.82s3.79-8.82,8.75-8.82c2.54,0,4.68,1.01,6.19,2.76l-1.51,1.46c-1.18-1.46-2.75-2.15-4.68-2.15-3.55,0-6.54,2.59-6.54,6.74s2.99,6.74,6.54,6.74c2.12,0,3.9-.99,5.17-2.45l1.51,1.51c-1.48,1.77-3.86,3.02-6.68,3.02" style="fill: #6b6b6b; fill-rule: evenodd;"/>
    <polygon points="99.62 3.2 101.78 3.2 101.78 20.07 99.62 20.07 99.62 3.2" style="fill: #6b6b6b; fill-rule: evenodd;"/>
    <path d="M109.33,20.45c-3.46,0-5.93-2.64-5.93-6.15s2.47-6.15,5.93-6.15,5.93,2.64,5.93,6.15-2.47,6.15-5.93,6.15m0-10.33c-1.93,0-3.76,1.53-3.76,4.17s1.83,4.17,3.76,4.17,3.76-1.53,3.76-4.17-1.83-4.17-3.76-4.17" style="fill: #6b6b6b; fill-rule: evenodd;"/>
    <path d="M121.3,20.45c-2.96,0-4.4-2-4.4-4.86v-7.07h2.16v6.72c0,2.4,1.2,3.23,2.85,3.23,1.88,0,3.03-1.82,3.03-3.58v-6.36h2.16v11.55h-2.07v-1.6h-.09c-.63,1.06-2.07,1.98-3.64,1.98" style="fill: #6b6b6b; fill-rule: evenodd;"/>
    <path d="M134.33,20.45c-2.92,0-5.48-2.62-5.48-6.15s2.56-6.15,5.48-6.15c1.84,0,3.27,.92,3.93,1.98h.09l-.09-1.6V3.2h2.16V20.07h-2.07v-1.6h-.09c-.66,1.06-2.09,1.98-3.93,1.98m.35-10.33c-1.93,0-3.67,1.58-3.67,4.17s1.74,4.17,3.67,4.17,3.67-1.53,3.67-4.17-1.74-4.17-3.67-4.17" style="fill: #6b6b6b; fill-rule: evenodd;"/>
    <path d="M10.73,20.45C5.42,20.45,.95,16.11,.95,10.79S5.42,1.12,10.73,1.12c2.94,0,5.03,1.16,6.61,2.66l-1.86,1.86c-1.13-1.06-2.66-1.89-4.75-1.89-3.88,0-6.91,3.14-6.91,7.02s3.03,7.02,6.91,7.02c2.52,0,3.95-1.01,4.87-1.93,.75-.75,1.25-1.84,1.43-3.32h-6.3v-2.64h8.87c.09,.47,.14,1.04,.14,1.65,0,1.98-.54,4.43-2.28,6.18-1.69,1.77-3.86,2.71-6.73,2.71" style="fill: #6b6b6b; fill-rule: evenodd;"/>
    <path d="M26.9,20.45c-3.43,0-6.23-2.64-6.23-6.22s2.8-6.22,6.23-6.22,6.23,2.62,6.23,6.22-2.8,6.22-6.23,6.22m0-10c-1.88,0-3.5,1.53-3.5,3.77s1.62,3.77,3.5,3.77,3.5-1.56,3.5-3.77-1.62-3.77-3.5-3.77" style="fill: #6b6b6b; fill-rule: evenodd;"/>
    <path d="M40.5,20.45c-3.43,0-6.23-2.64-6.23-6.22s2.8-6.22,6.23-6.22,6.23,2.62,6.23,6.22-2.8,6.22-6.23,6.22m0-10c-1.88,0-3.5,1.53-3.5,3.77s1.62,3.77,3.5,3.77,3.5-1.56,3.5-3.77-1.62-3.77-3.5-3.77" style="fill: #6b6b6b; fill-rule: evenodd;"/>
    <path d="M53.87,26.04c-3.01,0-4.82-2.03-5.5-3.68l2.38-.99c.42,1.01,1.46,2.22,3.13,2.22,2.05,0,3.32-1.27,3.32-3.65v-.9h-.09c-.61,.75-1.79,1.41-3.27,1.41-3.1,0-5.95-2.71-5.95-6.2s2.85-6.25,5.95-6.25c1.48,0,2.66,.66,3.27,1.39h.09v-1.01h2.59v11.17c0,4.6-2.7,6.48-5.9,6.48m.19-15.58c-1.88,0-3.46,1.6-3.46,3.8s1.58,3.75,3.46,3.75,3.32-1.58,3.32-3.75-1.46-3.8-3.32-3.8" style="fill: #6b6b6b; fill-rule: evenodd;"/>
    <polygon points="61.65 1.78 64.38 1.78 64.38 20.07 61.65 20.07 61.65 1.78" style="fill: #6b6b6b; fill-rule: evenodd;"/>
    <path d="M71.86,20.45c-3.53,0-6.16-2.73-6.16-6.22,0-3.7,2.66-6.22,5.86-6.22s4.8,2.57,5.31,3.96l.28,.71-8.3,3.44c.63,1.25,1.62,1.89,3.01,1.89s2.35-.68,3.06-1.72l2.12,1.41c-.68,1.01-2.33,2.76-5.17,2.76m-.21-10.04c-1.39,0-3.32,1.23-3.25,3.63l5.55-2.31c-.31-.78-1.22-1.32-2.3-1.32" style="fill: #6b6b6b; fill-rule: evenodd;"/>
</svg>