<?xml version="1.0" encoding="UTF-8"?>
<svg id="Layer_1" data-name="Layer 1" xmlns="http://www.w3.org/2000/svg" viewBox="0 0 190.62 60">
  <defs>
    <style>
      .cls-1 {
        fill: #005e8d;
      }

      .cls-2 {
        fill: #a39794;
      }
    </style>
  </defs>
  <path class="cls-2" d="M54.92,53.34l-24.35-11.32L6.22,53.34V19.6L30.57,8.28l24.35,11.32V53.34Zm-24.35-17.86l18.41,8.57V23.38L30.57,14.81,12.16,23.38v20.67l18.41-8.57Z"/>
  <g>
    <path class="cls-1" d="M185.22,53.34h-6.24l-2.33-7.71h-11.75l-2.38,7.71h-6.25l10.51-33.8h8.1l.09,.29,10.25,33.51Zm-18.43-13.71h8l-3.97-13.08-4.03,13.08Z"/>
    <path class="cls-1" d="M80.61,53.34h-16.67V19.55h16.67c4.17,0,7.56,3.4,7.56,7.56v18.67c0,4.17-3.4,7.56-7.57,7.56Zm-10.59-6.07h9.12c1.63,0,2.96-1.33,2.96-2.96v-15.72c0-1.63-1.33-2.96-2.96-2.96h-9.12v21.64Z"/>
    <path class="cls-1" d="M112.49,53.34h-9.11c-4.17,0-7.56-3.4-7.56-7.56V27.11c0-4.17,3.4-7.56,7.56-7.56h9.11c4.17,0,7.56,3.4,7.56,7.56v18.67c0,4.17-3.4,7.56-7.56,7.56Zm-7.59-27.72c-1.61,0-2.91,1.33-2.91,2.96v15.72c0,1.63,1.31,2.96,2.91,2.96h6.07c1.61,0,2.91-1.33,2.91-2.96v-15.72c0-1.63-1.31-2.96-2.91-2.96h-6.07Z"/>
    <path class="cls-1" d="M151.56,53.35h-6.48l-4.95-11.34h-6.47v11.34h-6.05V19.54h15.88c4.16,0,7.54,3.4,7.54,7.56v7.34c0,3.05-1.84,5.79-4.62,6.97l5.15,11.94Zm-17.9-17.42h8.35c1.63,0,2.95-1.33,2.95-2.96v-4.38c0-1.63-1.32-2.96-2.95-2.96h-8.35v10.31Z"/>
  </g>
</svg>