<?xml version="1.0" encoding="UTF-8"?><svg id="Layer_1" xmlns="http://www.w3.org/2000/svg" viewBox="0 0 1043.57 260.52"><defs><style>.cls-1{fill:#221e27;}</style></defs><path class="cls-1" d="M0,3.82h104.21c91.18,0,138.71,40.14,138.71,122.52v2.47c0,83.09-49.29,126.74-138.36,126.74H0V3.82ZM101.39,184.08c31.69,0,43.66-14.08,43.66-53.16v-2.82c0-42.6-14.08-52.81-44.36-52.81h-6.69v108.79h7.39Z"/><path class="cls-1" d="M530.28,3.82h110.55c74.99,0,109.84,30.28,109.84,84.85v1.41c0,33.09-14.43,52.81-36.97,65.13l51.75,100.34h-97.52l-39.08-79.92h-5.28v79.92h-93.3V3.82ZM634.14,116.84c18.31,0,26.41-7.39,26.41-22.18v-1.41c0-13.73-8.1-19.71-25.7-19.71h-11.27v43.3h10.56Z"/><path class="cls-1" d="M845.72,3.82h120.76l77.1,251.72h-99.99l-8.45-33.45h-71.12l-8.45,33.45h-87.31L845.72,3.82ZM879.52,159.43h40.14l-19.72-80.27-20.42,80.27Z"/><path class="cls-1" d="M255.18,130.26C255.18,58.32,313.5,0,385.44,0s130.26,58.32,130.26,130.26-58.32,130.26-130.26,130.26-130.26-58.32-130.26-130.26ZM385.44,80.63c-27.41,0-49.63,22.22-49.63,49.63s22.22,49.63,49.63,49.63,49.63-22.22,49.63-49.63-22.22-49.63-49.63-49.63Z"/></svg>