<?xml version="1.0" encoding="UTF-8"?>
<svg width="245px" height="143px" viewBox="0 0 245 143" version="1.1" xmlns="http://www.w3.org/2000/svg" xmlns:xlink="http://www.w3.org/1999/xlink">
    <!-- Generator: Sketch 55.2 (78181) - https://sketchapp.com -->
    <title>Change Fail Percentage</title>
    <desc>Created with Sketch.</desc>
    <g id="Page-1" stroke="none" stroke-width="1" fill="none" fill-rule="evenodd">
        <g id="LAYOUT_Quick-Check-Design_Option-2" transform="translate(-157.000000, -2538.000000)">
            <g id="Change-Fail-Percentage" transform="translate(157.000000, 2538.000000)">
                <g id="bg" transform="translate(24.000000, 13.000000)">
                    <path d="M212.974428,78.5072965 C217.397137,78.5068282 220.982451,74.9342022 220.982451,70.5029675 L220.982451,60.4254212 C220.982451,56.0052207 217.394467,52.4219402 212.988911,52.4219402 L190.283984,52.4219402 C185.869273,52.4219402 182.290443,48.846497 182.290443,44.4290842 L182.290443,34.3069438 C182.290443,29.8926114 185.878799,26.3140879 190.295951,26.3140879 L192.782015,26.3140879 C197.203335,26.3140879 200.787523,22.7389496 200.787523,18.31188 L200.787523,8.4087106 C200.787523,3.98921325 197.202755,0.406502768 192.793964,0.406502768 L126.583799,0.406502768 C122.169078,0.406502768 115.007266,0.412648867 110.593285,0.420220441 L50.1761777,0.523857664 C45.7595816,0.531433726 38.596484,0.537575338 34.1829969,0.537575338 L28.9846661,0.537575338 C24.5684724,0.537575338 20.9884401,4.12168896 20.9884401,8.53450879 L20.9884401,18.3171544 C20.9884401,22.7337388 24.5739477,26.3140879 28.9864725,26.3140879 L37.4682823,26.3140879 C41.8854736,26.3140879 45.4663147,29.8861588 45.4663147,34.3094303 L45.4663147,44.2041034 C45.4663147,48.6198091 41.8859104,52.1994458 37.4631498,52.1994458 L8.55921836,52.1994458 C4.13919246,52.1994458 0.556053507,55.777876 0.556053507,60.2066602 L0.556053507,70.5225781 C0.556053507,74.9448405 4.13019362,78.529414 8.5640764,78.5289444 L212.974428,78.5072965 Z" id="Path-17" fill="#CFD8DC" opacity="0.24323694"></path>
                    <path d="M189.136023,129.509762 C193.557613,129.509143 197.142021,125.927039 197.142021,121.504668 L197.142021,111.656471 C197.142021,107.235998 193.561805,103.652497 189.14171,103.652497 L184.789117,103.652497 C180.370667,103.652497 176.788806,100.067688 176.788806,95.65903 L176.788806,85.7666784 C176.788806,81.3520087 180.377161,77.7732118 184.794314,77.7732118 L187.280377,77.7732118 C191.701697,77.7732118 195.285885,74.1889002 195.285885,69.7708634 L195.285885,60.0947893 C195.285885,55.6752143 191.70588,52.0924409 187.280367,52.0924409 L168.774981,52.0924409 C164.353655,52.0924409 160.769463,48.5081406 160.769463,44.0901177 L160.769463,34.414074 C160.769463,29.994513 157.188545,26.4117509 152.779045,26.4117509 L138.195846,26.4117509 C133.78286,26.4117509 130.205428,30.0006063 130.205428,34.4192643 L130.205428,44.2148525 C130.205428,48.6372801 126.632073,52.222366 122.205423,52.222366 L41.8255994,52.222366 C37.4073189,52.222366 33.8255949,55.8020052 33.8255949,60.2192064 L33.8255949,69.7763714 C33.8255949,74.1929044 37.414487,77.7732118 39.9646769,77.7732118 L33.8255949,77.7732118 C37.2161163,77.7732118 39.9646769,81.3544483 39.9646769,85.7686946 L39.9646769,95.4364673 C39.9646769,99.8522505 36.3776544,103.43195 31.9695104,103.43195 L39.7271675,103.43195 C35.3115589,103.43195 31.7320009,107.006295 31.7320009,111.440133 L31.7320009,121.523599 C31.7320009,125.946396 35.3212552,129.531279 39.7379982,129.530661 L189.136023,129.509762 Z" id="Path-17" fill="#F3F6F7"></path>
                </g>
                <g id="Data_17">
                    <g id="base" transform="translate(0.000000, 102.188324)">
                        <path d="M30.8510023,10.0214067 C29.7088869,10.0501295 28.4688592,10.0514491 27.1228196,10.0214067 L26.7942143,10.0214067 C26.6797396,10.0214067 26.5666293,10.0155669 26.4551655,10.0041712 C5.03425071,9.37777297 1.09624452,6.14931551 1.09624452,6.14931551 L1.4672026,6.01967547 C0.582976501,5.43105558 0,4.42373705 0,3.28287462 C0,1.46979303 1.47243774,0 3.27527744,0 L193.724723,0 C195.533608,0 197,1.47348229 197,3.28287462 C197,4.42397188 196.41676,5.42909074 195.534984,6.01739771 L195.91246,6.14931551 C195.91246,6.14931551 191.97435,9.37785801 170.552693,10.0041959 C168.946762,10.051151 167.486013,10.0548121 166.157702,10.0214067 L30.8510023,10.0214067 Z" fill="#37474F"></path>
                        <path d="M85.5802417,3.70967863 C85.3180751,3.72204449 85.0297693,3.72068923 84.7128094,3.70330762 C80.4848507,3.4714527 79.7075921,2.27632557 79.7075921,2.27632557 L79.914139,2.14094293 C79.6553026,1.91880882 79.4912281,1.58774881 79.4912281,1.21523955 C79.4912281,0.54408128 80.0408703,0 80.6975125,0 L117.166523,0 C117.832735,0 118.372807,0.539402088 118.372807,1.21523955 C118.372807,1.58450081 118.206428,1.91529541 117.94739,2.13817419 L118.158161,2.27632557 C118.158161,2.27632557 117.380902,3.4714527 113.152944,3.70330762 C112.835984,3.72068923 112.547678,3.72204449 112.285511,3.70967863 L85.5802417,3.70967863 Z" id="groove" fill="#6A7F88"></path>
                    </g>
                    <g id="screen" transform="translate(23.501754, 0.000000)">
                        <path d="M0,6.48078284 C0,2.90154531 2.89885765,0 6.48740447,0 L142.817859,0 C146.400753,0 149.305263,2.90243627 149.305263,6.48078284 L149.305263,99.7409003 C149.305263,101.529029 147.85157,102.978593 146.065468,102.978593 L3.23979499,102.978593 C1.45050562,102.978593 0,101.522856 0,99.7409003 L0,6.48078284 Z" id="Rectangle-488" fill="#37474F"></path>
                        <g id="Group-7" transform="translate(8.813158, 9.330275)" fill="#FFFFFF">
                            <rect id="Rectangle-489" x="0" y="0" width="131.678947" height="82.4174312"></rect>
                        </g>
                        <polygon id="Rectangle-494" fill="#ECEFF1" points="8.81315789 9.33027523 140.492105 9.33027523 140.492105 15.8960245 8.81315789 15.8960245"></polygon>
                        <g id="left-col" transform="translate(8.813158, 15.896024)">
                            <rect id="Rectangle-495" fill="#ECEFF1" x="0" y="0" width="33.3517544" height="75.851682"></rect>
                            <polygon id="Rectangle-496" fill="#CFD8DC" points="4.66578947 32.8287462 19.872807 32.8287462 19.872807 37.8394495 4.66578947 37.8394495"></polygon>
                            <polygon id="Rectangle-496" fill="#CFD8DC" points="4.66578947 22.6345566 23.3289474 22.6345566 23.3289474 27.6452599 4.66578947 27.6452599"></polygon>
                            <rect id="Rectangle-496" fill="#CFD8DC" x="4.66578947" y="12.440367" width="22.1192982" height="5.01070336"></rect>
                            <rect id="Rectangle-496" fill="#90A4AE" x="4.66578947" y="2.24617737" width="24.1929825" height="5.01070336"></rect>
                        </g>
                        <g id="graph" transform="translate(56.680702, 27.472477)">
                            <g id="muted" fill="#ECEFF1">
                                <rect id="Rectangle-500" x="57.5447368" y="0" width="12.2692982" height="51.1437309"></rect>
                                <rect id="Rectangle-500" x="38.3631579" y="0" width="12.2692982" height="51.1437309"></rect>
                                <rect id="Rectangle-500" x="19.1815789" y="0" width="12.2692982" height="51.1437309"></rect>
                                <rect id="Rectangle-500" x="0" y="0" width="12.2692982" height="51.1437309"></rect>
                            </g>
                            <g id="indicators" transform="translate(0.000000, 5.879854)">
                                <rect id="Rectangle-500" fill="#EA8600" x="57.5447368" y="26.0326198" width="12.2692982" height="19.4040404"></rect>
                                <rect id="Rectangle-500" fill="#F9AB00" x="38.3631579" y="14.4456955" width="12.2692982" height="30.8181818"></rect>
                                <rect id="Rectangle-500" fill="#FFD500" x="19.1815789" y="6.4557965" width="12.2692982" height="38.8080808"></rect>
                                <rect id="Rectangle-500" fill="#34A853" x="0" y="0.74872579" width="12.2692982" height="44.5151515"></rect>
                            </g>
                        </g>
                    </g>
                </g>
            </g>
        </g>
    </g>
</svg>