<?xml version="1.0" encoding="UTF-8"?>
<svg width="262px" height="149px" viewBox="0 0 262 149" version="1.1" xmlns="http://www.w3.org/2000/svg" xmlns:xlink="http://www.w3.org/1999/xlink">
    <!-- Generator: Sketch 55.2 (78181) - https://sketchapp.com -->
    <title>Deploy Frequency</title>
    <desc>Created with Sketch.</desc>
    <g id="Page-1" stroke="none" stroke-width="1" fill="none" fill-rule="evenodd">
        <g id="LAYOUT_Quick-Check-Design_Option-2" transform="translate(-157.000000, -1391.000000)">
            <g id="Deploy-Frequency" transform="translate(157.000000, 1367.000000)">
                <g id="bg" transform="translate(0.000000, 60.000000)">
                    <path d="M185.990672,68.1132555 C190.406079,68.1127942 193.985473,64.5253688 193.985473,60.1151979 L193.985473,53.471686 C193.985473,49.054942 190.406603,45.4744636 185.982359,45.4744636 L167.945444,45.4744636 C163.525447,45.4744636 159.942331,41.8842018 159.942331,37.4700841 L159.942331,30.8206267 C159.942331,26.39993 163.534018,22.8162472 167.936621,22.8162472 L168.222686,22.8162472 C172.637811,22.8162472 176.216976,19.2286634 176.216976,14.8257763 L176.216976,8.32230767 C176.216976,3.90929245 172.630555,0.331836774 168.218398,0.331836774 L111.894319,0.331836774 C107.476827,0.331836774 100.304923,0.337912463 95.8862948,0.34538881 L44.6749963,0.432038662 C40.251501,0.439523245 33.0927247,0.445590699 28.6638493,0.445590699 L26.0225509,0.445590699 C21.6033339,0.445590699 18.0208507,4.027416 18.0208507,8.4429431 L18.0208507,14.8188948 C18.0208507,19.2357106 21.6013987,22.8162472 26.0250713,22.8162472 L31.5534748,22.8162472 C35.9740838,22.8162472 39.5576954,26.4007531 39.5576954,30.8156922 L39.5576954,37.2819225 C39.5576954,41.6998939 35.9813757,45.2813674 31.5613935,45.2813674 L8.03972838,45.2813674 C3.62349277,45.2813674 0.0434264435,48.8644458 0.0434264435,53.2736476 L0.0434264435,60.1403997 C0.0434264435,64.5544142 3.61718355,68.1323066 8.03822688,68.1318448 L185.990672,68.1132555 Z" id="Path-17" fill="#CFD8DC" opacity="0.24323694"></path>
                    <path d="M164.988794,112.331376 C169.408702,112.330768 172.991746,108.752866 172.991746,104.330863 L172.991746,97.9090418 C172.991746,93.4910879 169.400537,89.9096286 164.983691,89.9096286 L163.040298,89.9096286 C158.617572,89.9096286 155.032243,86.3290172 155.032243,81.9030564 L155.032243,75.4754885 C155.032243,71.0535808 158.614102,67.4689163 163.025725,67.4689163 L163.360426,67.4689163 C167.775104,67.4689163 171.353908,63.8910845 171.353908,59.460911 L171.353908,53.2083469 C171.353908,48.7856476 167.770542,45.2003415 163.351691,45.2003415 L148.89913,45.2003415 C144.479627,45.2003415 140.896913,41.622521 140.896913,37.1923614 L140.896913,30.9398169 C140.896913,26.5171316 137.315579,22.9318368 132.896438,22.9318368 L121.927944,22.9318368 C117.509404,22.9318368 113.927469,26.5153449 113.927469,30.9329465 L113.927469,37.3118938 C113.927469,41.7307846 110.354546,45.3130035 105.926667,45.3130035 L36.8835327,45.3130035 C32.4648115,45.3130035 28.8827301,48.8973581 28.8827301,53.3117965 L28.8827301,59.4701233 C28.8827301,63.8877347 32.4658296,67.4689163 34.2998035,67.4689163 L28.8827301,67.4689163 C31.8744972,67.4689163 34.2998035,71.0436786 34.2998035,75.4700513 L34.2998035,81.7172511 C34.2998035,86.1361559 30.7101464,89.718386 27.0353607,89.718386 L34.2998035,89.718386 C30.2877626,89.718386 27.0353607,93.3044865 27.0353607,97.7134881 L27.0353607,104.355239 C27.0353607,108.770812 30.6251477,112.349847 35.0383126,112.349241 L164.988794,112.331376 Z" id="Path-17" fill="#F3F6F7"></path>
                </g>
                <g id="Group" transform="translate(20.000000, 0.000000)">
                    <path d="M241.849689,56.3834974 C240.507452,50.397861 235.254281,45.9311672 228.965018,45.9311672 C228.519374,45.9311672 228.07966,45.9565569 227.644938,45.9959111 C223.700925,33.3857685 212.103254,24.2479932 198.394079,24.2479932 C185.821484,24.2479932 175.025224,31.9471211 170.2798,42.9510439 C167.677713,41.3708486 164.652762,40.4415833 161.405302,40.4415833 C152.386313,40.4415833 144.989182,47.4383669 144.147826,56.3834974 L241.849689,56.3834974 Z" id="Fill-1" fill="#E0E0E0"></path>
                    <g id="Group-4" transform="translate(106.050567, 86.850713) rotate(8.000000) translate(-106.050567, -86.850713) translate(43.050567, 8.850713)">
                        <path d="M45.536786,47.2975498 C50.5191714,30.0969245 58.8713265,16.4753818 70.5932514,6.43292147 C83.2718323,15.7593559 91.8687419,29.5338987 96.3839802,47.7565497 C101.986429,70.3669786 99.4171458,96.0266319 88.6761298,124.735509 L54.4932619,124.72457 C42.929284,92.4151783 39.943792,66.6061717 45.536786,47.2975498 Z" id="Rectangle-5" fill="#66BBFF" transform="translate(71.033306, 65.584215) rotate(-330.000000) translate(-71.033306, -65.584215) "></path>
                        <path d="M28.5943764,63.904041 L13.4078934,71.306809 C11.3866936,72.2920584 10.2717918,74.5053223 10.6831233,76.7159266 L16.3042842,106.925527 L33.1222259,87.5984841 L28.5943764,63.904041 Z" id="Path-6" fill="#66BBFF" transform="translate(21.554577, 85.414784) rotate(-330.000000) translate(-21.554577, -85.414784) "></path>
                        <path d="M85.418383,97.7104868 L70.2319,105.113255 C68.2107001,106.098504 67.0957983,108.311768 67.5071299,110.522372 L73.1282908,140.731972 L89.9462324,121.40493 L85.418383,97.7104868 Z" id="Path-6-Copy" fill="#66BBFF" transform="translate(78.378583, 119.221230) scale(-1, 1) rotate(-330.000000) translate(-78.378583, -119.221230) "></path>
                        <path d="M78.1356011,80.6865324 C77.5196389,86.9355409 74.3665369,99.990016 68.676295,119.849958 L33.5712493,119.763245 C27.2438672,99.780662 24.1755813,86.7845302 24.3663914,80.7748495 C41.6377776,80.9307582 56.3107489,80.4895196 78.1356011,80.6865324 Z" id="Rectangle-5-Copy" fill="#3262B5" transform="translate(51.246807, 100.242420) rotate(-330.000000) translate(-51.246807, -100.242420) "></path>
                        <path d="M27.2137728,114.90886 C17.8318017,118.945095 15.0351651,132.492415 18.8238629,155.550822 C41.7084154,145.75587 52.022348,136.616632 49.7656608,128.133107 C40.4784465,122.779033 38.6652239,121.510615 27.2137728,114.90886 Z" id="Path-7" fill="#FB8C00"></path>
                        <path d="M31.3710704,121.359876 C26.5373837,123.466181 25.035829,130.397368 26.8664064,142.153437 C38.6565131,137.041387 43.993477,132.324828 42.8772981,128.003762 C38.1384048,125.314621 37.214287,124.675678 31.3710704,121.359876 Z" id="Path-7-Copy" fill="#FFD500"></path>
                        <ellipse id="Oval-9" fill="#FFFFFF" transform="translate(76.192433, 52.317066) rotate(-330.000000) translate(-76.192433, -52.317066) " cx="76.1924327" cy="52.3170661" rx="11.9400435" ry="12.0644907"></ellipse>
                    </g>
                    <g id="Group-2-Copy" transform="translate(139.037267, 66.923943)">
                        <path d="M24.520974,25.4289804 C27.3388411,16.2640982 31.9471611,8.97281264 38.345934,3.55512355 C45.1138144,8.40781364 49.6463746,15.6517406 51.9436148,25.2869045 C54.7940007,37.2420908 53.2135656,50.8772497 47.2023094,66.1923814 L28.7647279,66.4458246 C22.772352,49.3893322 21.3577674,35.7170508 24.520974,25.4289804 Z" id="Rectangle-5" fill="#DAE6EE" transform="translate(38.100270, 35.000474) rotate(-330.000000) translate(-38.100270, -35.000474) "></path>
                        <path d="M15.2605883,34.0599921 L8.78554865,37.3502644 C6.83483455,38.341514 5.75526388,40.4860217 6.12093718,42.6433683 L8.55156265,56.9832216 L17.4478918,46.5979101 L15.2605883,34.0599921 Z" id="Path-6" fill="#9EB6C6" transform="translate(11.477048, 45.521607) rotate(-330.000000) translate(-11.477048, -45.521607) "></path>
                        <path d="M45.7175523,51.8505345 L39.2425127,55.1408068 C37.2917986,56.1320564 36.2122279,58.2765641 36.5779012,60.4339107 L39.0085267,74.773764 L47.9048558,64.3884525 L45.7175523,51.8505345 Z" id="Path-6-Copy" fill="#9EB6C6" transform="translate(41.934012, 63.312149) scale(-1, 1) rotate(-330.000000) translate(-41.934012, -63.312149) "></path>
                        <path d="M42.0994206,42.5389543 C41.7197904,45.8595108 39.9200673,52.8104651 36.7002514,63.3918171 L17.7659955,63.6120455 C14.5613331,53.1754516 12.785498,46.3114919 12.4384902,43.0201664 C21.7531254,42.9719075 30.3290546,42.5999362 42.0994206,42.5389543 Z" id="Rectangle-5-Copy" fill="#68879C" transform="translate(27.268955, 53.075500) rotate(-330.000000) translate(-27.268955, -53.075500) "></path>
                        <path d="M11.7982221,63.365505 C9.06170686,67.0048796 10.9733142,72.8135924 17.533044,80.7916434 C24.2190689,71.9336927 26.1885419,66.1334153 23.4414631,63.3908113 C18.6668961,63.4155482 17.6854255,63.3350036 11.7982221,63.365505 Z" id="Path-7" fill="#FB8C00" transform="translate(17.615683, 72.075074) rotate(-330.000000) translate(-17.615683, -72.075074) "></path>
                        <path d="M16.1490649,65.2809554 C14.7805973,67.1409238 15.736064,70.1099332 19.0154649,74.1879837 C22.3589884,69.660969 23.3440602,66.6964944 21.9706804,65.29456 C19.583397,65.3069285 19.0926666,65.2657047 16.1490649,65.2809554 Z" id="Path-7-Copy" fill="#FFD500" transform="translate(19.057592, 69.732753) rotate(-330.000000) translate(-19.057592, -69.732753) "></path>
                        <ellipse id="Oval-9" fill="#FFFFFF" transform="translate(40.966150, 27.982631) rotate(-330.000000) translate(-40.966150, -27.982631) " cx="40.9661499" cy="27.9826307" rx="6.43926173" ry="6.40074041"></ellipse>
                    </g>
                    <g id="Group-2-Copy-2" transform="translate(0.000000, 42.532285)">
                        <path d="M18.4472578,19.2977922 C20.5530624,12.3569529 24.0157025,6.84083145 28.8351784,2.74942786 C33.9585412,6.44471435 37.3995083,11.9472876 39.1580797,19.2571477 C41.3400922,28.3271272 40.1798,38.6598281 35.677203,50.2552503 L21.7526915,50.4022929 C17.1851909,37.4574225 16.0833796,27.0892556 18.4472578,19.2977922 Z" id="Rectangle-5" fill="#DAE6EE" transform="translate(28.732231, 26.575860) rotate(-330.000000) translate(-28.732231, -26.575860) "></path>
                        <path d="M11.4818136,25.8903239 L7.41659901,27.9540067 C5.46083015,28.9468416 4.3804511,31.0983893 4.75225041,33.2599902 L6.47082565,43.2516002 L13.164453,35.4004401 L11.4818136,25.8903239 Z" id="Path-6" fill="#9EB6C6" transform="translate(8.645655, 34.570962) rotate(-330.000000) translate(-8.645655, -34.570962) "></path>
                        <path d="M34.4542249,39.4021282 L30.3890103,41.4658111 C28.4332414,42.4586459 27.3528624,44.6101937 27.7246617,46.7717945 L29.4432369,56.7634046 L36.1368642,48.9122445 L34.4542249,39.4021282 Z" id="Path-6-Copy" fill="#9EB6C6" transform="translate(31.618067, 48.082766) scale(-1, 1) rotate(-330.000000) translate(-31.618067, -48.082766) "></path>
                        <path d="M31.7317748,32.3457482 C31.4531762,34.8620732 30.1109191,40.127064 27.7050034,48.1407204 L13.4052931,48.2613688 C10.9594239,40.3417402 9.60142477,35.1339546 9.33129558,32.6380121 C16.3661307,32.6242064 22.8422604,32.3631937 31.7317748,32.3457482 Z" id="Rectangle-5-Copy" fill="#68879C" transform="translate(20.531535, 40.303559) rotate(-330.000000) translate(-20.531535, -40.303559) "></path>
                        <path d="M8.86872958,48.1180518 C6.81085439,50.8703034 8.26881605,55.2784576 13.2426146,61.3425142 C18.270627,54.6438134 19.743903,50.251545 17.6624428,48.165709 C14.0564732,48.1727856 13.3150127,48.1093261 8.86872958,48.1180518 Z" id="Path-7" fill="#FB8C00" transform="translate(13.270942, 54.729870) rotate(-330.000000) translate(-13.270942, -54.729870) "></path>
                        <path d="M12.161046,49.576718 C11.1320483,50.9833796 11.8609327,53.2364681 14.3476993,56.3359836 C16.8618516,52.9123125 17.5985856,50.6674073 16.5579011,49.6012678 C14.7549164,49.6048062 14.3841875,49.5723551 12.161046,49.576718 Z" id="Path-7-Copy" fill="#FFD500" transform="translate(14.362094, 52.956149) rotate(-330.000000) translate(-14.362094, -52.956149) "></path>
                        <ellipse id="Oval-9" fill="#FFFFFF" transform="translate(30.882175, 21.252631) rotate(-330.000000) translate(-30.882175, -21.252631) " cx="30.8821745" cy="21.2526309" rx="4.86316546" ry="4.85214544"></ellipse>
                    </g>
                </g>
            </g>
        </g>
    </g>
</svg>