<svg id="Layer_1" data-name="Layer 1" xmlns="http://www.w3.org/2000/svg" xmlns:xlink="http://www.w3.org/1999/xlink" viewBox="0 0 517 348.17"><defs><style>.cls-1,.cls-46,.cls-6{fill:none;}.cls-2{fill:#3c5a66;}.cls-3{fill:#607d8b;}.cls-4{fill:#cee5f2;}.cls-5,.cls-57{fill:#fff;}.cls-6{stroke:#4f6770;stroke-linecap:round;stroke-linejoin:bevel;stroke-dasharray:6 4.5 0 6 4.5 0;opacity:0.6;}.cls-20,.cls-28,.cls-6,.cls-61,.cls-7{isolation:isolate;}.cls-7{fill:#434343;}.cls-20,.cls-7{opacity:0.2;}.cls-8{fill:#f5fcff;}.cls-9{fill:#b6ced8;}.cls-10{fill:#a52626;}.cls-11{fill:#e1e2e6;}.cls-12{fill:#ba2020;}.cls-13{fill:#35a853;}.cls-14{fill:#ea4235;}.cls-15{fill:#696b70;}.cls-16{fill:#279340;}.cls-17{fill:#c5c6c9;}.cls-18{fill:#fbbc05;}.cls-19{fill:#e2a203;}.cls-21{fill:#ed5d5d;}.cls-22,.cls-33{fill:#eceff1;}.cls-23{fill:#54a659;}.cls-24{fill:#c7c9ca;}.cls-25{fill:#607e89;}.cls-26{clip-path:url(#clip-path);}.cls-27{clip-path:url(#clip-path-2);}.cls-28,.cls-61{fill:#36464e;}.cls-28{opacity:0.25;}.cls-29{clip-path:url(#clip-path-3);}.cls-30{fill:#d7d7d7;}.cls-31{clip-path:url(#clip-path-5);}.cls-32{fill:#505050;}.cls-33,.cls-57{fill-rule:evenodd;}.cls-34{clip-path:url(#clip-path-7);}.cls-35{clip-path:url(#clip-path-9);}.cls-36{fill:#d9dee0;}.cls-37{clip-path:url(#clip-path-11);}.cls-38{clip-path:url(#clip-path-13);}.cls-39{fill:#d8d8d8;}.cls-40{clip-path:url(#clip-path-15);}.cls-41{clip-path:url(#clip-path-17);}.cls-42{fill:#ededed;}.cls-43{fill:#bcbfc1;}.cls-44{fill:#4285f4;}.cls-45{fill:#37474f;}.cls-46{stroke:#414141;stroke-miterlimit:10;}.cls-47{fill:#886146;}.cls-48{fill:#414143;}.cls-49{fill:#4f6770;}.cls-50{clip-path:url(#clip-path-19);}.cls-51{clip-path:url(#clip-path-20);}.cls-52{clip-path:url(#clip-path-21);}.cls-53{clip-path:url(#clip-path-23);}.cls-54{fill:#495262;}.cls-55{clip-path:url(#clip-path-25);}.cls-56{clip-path:url(#clip-path-27);}.cls-58{clip-path:url(#clip-path-29);}.cls-59{clip-path:url(#clip-path-30);}.cls-60{clip-path:url(#clip-path-31);}.cls-61{opacity:0.1;}</style><clipPath id="clip-path"><polygon class="cls-1" points="89.9 265.63 153.69 228.35 242.11 280.11 178.49 317.36 89.9 265.63"/></clipPath><clipPath id="clip-path-2"><rect class="cls-1" x="-423.18" y="110.77" width="750.54" height="304.86"/></clipPath><clipPath id="clip-path-3"><path class="cls-1" d="M241.15,265l-83.66-48.9a3.17,3.17,0,0,1-1.43-2.49V146.35H154.9l.31-1.14.86-.45c.09-1,.9-1.45,1.89-.87l84.28,49.51a4.26,4.26,0,0,1,1.91,3.33v67.83c0,1.2-.83,1.69-1.85,1.14l-1,.48-1.16-.69Z"/></clipPath><clipPath id="clip-path-5"><path class="cls-1" d="M155.73,217a3.17,3.17,0,0,1-1.43-2.49V145.84c0-1.22.85-1.71,1.9-1.09L241,194.53a3.24,3.24,0,0,1,1.43,2.5v68.39c0,1.22-.86,1.71-1.91,1.1Z"/></clipPath><clipPath id="clip-path-7"><polygon class="cls-1" points="159.55 152.98 159.55 214.03 236.73 258.88 236.73 198.02 159.55 152.98"/></clipPath><clipPath id="clip-path-9"><path class="cls-1" d="M238.28,273.46c-1.24,1,0,.08,0,.08L184.84,305.1s-6.71,3.45-12.82-.36l-.59-.39-73-42.65-.52-.31h0l-.51-.34c-.89-.53-2.15-1.31-3-1.92a2.59,2.59,0,0,1-1.4-2.45v-4.19h.1v-.08l.58-.11,2.11-.7.16.27,9.17-1.72L190,255.26l49.87,11.81H240v3a3.5,3.5,0,0,1-1.39,3.23h0Z"/></clipPath><clipPath id="clip-path-11"><path class="cls-1" d="M93.24,254.56c-1.85-1.08-1.84-2.83,0-3.91l58.54-34.21a4.16,4.16,0,0,1,3.82,0l84.12,49.24c1.32.77,1.32,2,0,2.8l-57.9,33.9a7.27,7.27,0,0,1-6.67,0Z"/></clipPath><clipPath id="clip-path-13"><polygon class="cls-1" points="128.11 269.28 149.52 281.92 165.09 272.5 144.42 260.51 128.11 269.28"/></clipPath><clipPath id="clip-path-15"><polygon class="cls-1" points="223.77 263.92 190.64 283.07 126.53 245.51 159.42 226.31 223.77 263.92"/></clipPath><clipPath id="clip-path-17"><polygon class="cls-1" points="162.13 223.63 164.79 220.83 228.44 258.47 225.88 260.89 162.13 223.63"/></clipPath><clipPath id="clip-path-19"><path class="cls-1" d="M248.12,305.64a6.82,6.82,0,0,0-7.23-.38l-1,.61L198.6,330.46s-3.15,1.75,1.07,4.25l.44.25,21.32,12.48a6.42,6.42,0,0,0,6.32-.22l.37-.23L276,318.82s2.71-2.22-1.07-4.61c-.14-.09-.44-.24-.44-.24Z"/></clipPath><clipPath id="clip-path-20"><rect class="cls-1" x="-484.88" y="39.65" width="891.85" height="362.25"/></clipPath><clipPath id="clip-path-21"><path class="cls-1" d="M198.57,316s-1.08,0-1.11.72a5.93,5.93,0,0,0,3,6,3.62,3.62,0,0,1,.41.27l20.92,12.25a6.36,6.36,0,0,0,5.36-.19l.85-.47,46-27s3.41-1.6,2.89-6.38a10.19,10.19,0,0,1-1.88-2s-5,5.16-5,5-.49-.34-.49-.34L268,302.7Z"/></clipPath><clipPath id="clip-path-23"><path class="cls-1" d="M255.61,287.57s-4.69-2.89-8.51-.7l-6.57,3.74L198.6,315.13s-3.15,1.75,1.07,4.25l.44.25,21.32,12.48a6.42,6.42,0,0,0,6.32-.22l.37-.23,40.07-23.49,7.9-4.62s2.71-2.23-1.07-4.62l-1.31-.76Z"/></clipPath><clipPath id="clip-path-25"><polygon class="cls-1" points="271.96 303.92 228.46 329.36 203.33 314.3 246.82 288.81 271.96 303.92"/></clipPath><clipPath id="clip-path-27"><polygon class="cls-1" points="240.91 295.74 260.75 307.31 246 316.07 225.81 304.33 240.91 295.74"/></clipPath><clipPath id="clip-path-29"><polygon class="cls-1" points="235.13 299.03 254.99 310.62 231.28 324.98 210.57 312.88 235.13 299.03"/></clipPath><clipPath id="clip-path-30"><rect class="cls-1" x="-490.66" y="42.94" width="891.85" height="362.25"/></clipPath><clipPath id="clip-path-31"><polygon class="cls-1" points="221.01 302.99 202.2 313.86 229.41 329.96 266.73 308.07 221.01 302.99"/></clipPath></defs><title>Artboard 1</title><path class="cls-2" d="M340.48,140.93v-6l-.27-2.88h0v6.06Z"/><path class="cls-2" d="M374.76,143.4a.8.8,0,0,0,.29-.57v-6a.8.8,0,0,1-.29.57l-2.69,2.43a1.57,1.57,0,0,0-.59,1.15v6a1.57,1.57,0,0,1,.59-1.15Z"/><path class="cls-2" d="M344.69,147c4.31-2.5,11.32-2.5,15.66,0,2.18,1.26,3.27,2.92,3.27,4.57v-6c0-1.65-1.08-3.31-3.26-4.57-4.34-2.5-11.35-2.5-15.66,0-2.14,1.25-3.21,2.88-3.21,4.51v6C341.48,149.87,342.55,148.24,344.69,147Z"/><path class="cls-2" d="M379.8,147.33l-2.05,4.48a2,2,0,0,1-1.87.79l-5-.14a5.46,5.46,0,0,0-2.8.63l-2.4,1.4a1.83,1.83,0,0,0-1.08,1.5v3.6a2,2,0,0,1-1.09.48l-7.73,1.21A2.89,2.89,0,0,1,354,161a1.27,1.27,0,0,1-.34-.27l-2.29-2.56a2.7,2.7,0,0,0-.68-.54,4.66,4.66,0,0,0-1.66-.56l-3.31-.5a6,6,0,0,0-3,.26l-4.17,1.57a3,3,0,0,1-2.32-.14L330.61,155a.9.9,0,0,1-.54-.77v6a.94.94,0,0,0,.54.76l5.68,3.28a2.89,2.89,0,0,0,2.32.14l4.17-1.56a6,6,0,0,1,3-.27l3.31.51a4.66,4.66,0,0,1,1.66.56,2.39,2.39,0,0,1,.68.54l2.29,2.56a1.27,1.27,0,0,0,.34.27,2.81,2.81,0,0,0,1.78.27l7.74-1.2c.81-.13,1.36-.55,1.36-1v-3.86a2.44,2.44,0,0,1,.8-.7l2.41-1.4a5.3,5.3,0,0,1,2.79-.63l5,.14a2,2,0,0,0,1.87-.79l2-4.48a.63.63,0,0,0,.06-.27v-6A.62.62,0,0,1,379.8,147.33Z"/><path class="cls-2" d="M331.63,152.65a2.3,2.3,0,0,1,1,1l.89,1.91a1.25,1.25,0,0,1,.13.57v-6a1.39,1.39,0,0,0-.13-.56l-.89-1.92a2.3,2.3,0,0,0-1-1,4.06,4.06,0,0,0-.94-.39l-4.43-1.32a1.63,1.63,0,0,1-.47-.2.93.93,0,0,1-.55-.76v6a.93.93,0,0,0,.55.76,2.14,2.14,0,0,0,.47.2l4.43,1.32A4.06,4.06,0,0,1,331.63,152.65Z"/><path class="cls-3" d="M364.89,159c.05.49-.5.95-1.36,1.08l-7.73,1.21A2.87,2.87,0,0,1,354,161a1.27,1.27,0,0,1-.34-.27l-2.29-2.56a2.7,2.7,0,0,0-.68-.54,4.66,4.66,0,0,0-1.66-.56l-3.31-.5a6,6,0,0,0-3,.26l-4.17,1.57a3,3,0,0,1-2.32-.14L330.61,155c-.63-.37-.71-.93-.25-1.34l2.68-2.43a1.4,1.4,0,0,0,.46-1.71l-.89-1.92a2.3,2.3,0,0,0-1-1,4.06,4.06,0,0,0-.94-.39l-4.43-1.32a1.63,1.63,0,0,1-.47-.2c-.46-.26-.66-.65-.49-1l2.06-4.48a2,2,0,0,1,1.86-.79l5,.14a5.36,5.36,0,0,0,2.8-.63l2.4-1.39a1.81,1.81,0,0,0,1.08-1.63l-.27-2.88c0-.49.5-1,1.36-1.08l7.73-1.21a2.92,2.92,0,0,1,1.79.28,1.27,1.27,0,0,1,.34.27l2.29,2.57a2.9,2.9,0,0,0,.68.53,4.66,4.66,0,0,0,1.66.56l3.31.51a6.16,6.16,0,0,0,2.95-.27l4.18-1.56a3,3,0,0,1,2.32.14l5.68,3.28c.63.36.72.92.26,1.33l-2.69,2.43a1.42,1.42,0,0,0-.46,1.72l.89,1.91a2.53,2.53,0,0,0,1,1,4.35,4.35,0,0,0,.92.38l4.44,1.32a1.79,1.79,0,0,1,.45.19c.46.26.66.65.49,1l-2.05,4.48a2,2,0,0,1-1.87.79l-5-.14a5.46,5.46,0,0,0-2.8.63l-2.4,1.4a1.78,1.78,0,0,0-1.08,1.62Zm-20.13-9c4.34,2.5,11.35,2.5,15.66,0s4.28-6.56-.05-9.07a17.26,17.26,0,0,0-15.66,0c-4.31,2.5-4.28,6.57.05,9.07"/><path class="cls-2" d="M383.71,155.48v-4.36l-.2-2.08v4.36Z"/><path class="cls-2" d="M408.49,157.27a.55.55,0,0,0,.21-.41V152.5a.55.55,0,0,1-.21.41l-1.95,1.75a1.16,1.16,0,0,0-.42.83v4.36a1.13,1.13,0,0,1,.42-.83Z"/><path class="cls-2" d="M386.75,159.87a12.48,12.48,0,0,1,11.32,0,4,4,0,0,1,2.36,3.3v-4.36a4,4,0,0,0-2.36-3.3,12.48,12.48,0,0,0-11.32,0,4,4,0,0,0-2.32,3.26v4.36A4,4,0,0,1,386.75,159.87Z"/><path class="cls-2" d="M412.13,160.11l-1.48,3.24a1.44,1.44,0,0,1-1.35.57l-3.6-.1a3.87,3.87,0,0,0-2,.45l-1.74,1a1.37,1.37,0,0,0-.78,1.09V169a1.43,1.43,0,0,1-.78.35l-5.59.87a2.13,2.13,0,0,1-1.29-.2.88.88,0,0,1-.24-.19L391.59,168a2.09,2.09,0,0,0-.49-.4,3.62,3.62,0,0,0-1.2-.4l-2.39-.36a4.33,4.33,0,0,0-2.14.19l-3,1.13a2.15,2.15,0,0,1-1.67-.1l-4.11-2.37a.69.69,0,0,1-.39-.55v4.35a.68.68,0,0,0,.4.55l4.1,2.38a2.18,2.18,0,0,0,1.68.1l3-1.14a4.49,4.49,0,0,1,2.15-.19l2.39.37a3.62,3.62,0,0,1,1.2.4,2.34,2.34,0,0,1,.49.39l1.65,1.85a1,1,0,0,0,.25.2,2.13,2.13,0,0,0,1.29.2l5.59-.87c.59-.09,1-.4,1-.74V170.2a2,2,0,0,1,.58-.51l1.74-1a4.08,4.08,0,0,1,2-.46l3.6.11a1.43,1.43,0,0,0,1.35-.58l1.48-3.23a.67.67,0,0,0,0-.2V160A.66.66,0,0,1,412.13,160.11Z"/><path class="cls-2" d="M377.31,164a1.72,1.72,0,0,1,.69.7l.64,1.38a.86.86,0,0,1,.1.41v-4.36a.93.93,0,0,0-.09-.4l-.65-1.39a1.54,1.54,0,0,0-.69-.69,3.16,3.16,0,0,0-.68-.29l-3.2-1a1.43,1.43,0,0,1-.34-.14.7.7,0,0,1-.4-.55V162a.7.7,0,0,0,.4.55,2,2,0,0,0,.34.14l3.2.95A4,4,0,0,1,377.31,164Z"/><path class="cls-3" d="M401.35,168.54c0,.35-.36.69-1,.78l-5.59.87a2.13,2.13,0,0,1-1.29-.2.88.88,0,0,1-.24-.19l-1.64-1.8a2.09,2.09,0,0,0-.49-.4,3.62,3.62,0,0,0-1.2-.4l-2.39-.36a4.33,4.33,0,0,0-2.14.19l-3,1.13a2.15,2.15,0,0,1-1.67-.1l-4.11-2.37c-.45-.27-.51-.67-.18-1l1.94-1.76a1,1,0,0,0,.33-1.23l-.65-1.39a1.54,1.54,0,0,0-.69-.69,3.16,3.16,0,0,0-.68-.29l-3.2-1a1.43,1.43,0,0,1-.34-.14c-.33-.19-.48-.47-.35-.75l1.48-3.24a1.44,1.44,0,0,1,1.35-.57l3.6.1a3.85,3.85,0,0,0,2-.45l1.74-1a1.32,1.32,0,0,0,.78-1.18l-.2-2.08c0-.35.37-.69,1-.78l5.59-.87a2.13,2.13,0,0,1,1.29.2,1,1,0,0,1,.25.2l1.65,1.85a2.63,2.63,0,0,0,.49.39,3.75,3.75,0,0,0,1.21.4l2.38.37a4.45,4.45,0,0,0,2.14-.2l3-1.13a2.09,2.09,0,0,1,1.68.11l4.1,2.37a.58.58,0,0,1,.19,1l-1.95,1.75a1,1,0,0,0-.32,1.25l.64,1.38a1.71,1.71,0,0,0,.71.7,3.19,3.19,0,0,0,.66.28l3.21.95a1.36,1.36,0,0,1,.33.14c.32.19.48.47.35.75l-1.48,3.24a1.44,1.44,0,0,1-1.35.57l-3.6-.1a3.85,3.85,0,0,0-2,.45l-1.74,1a1.27,1.27,0,0,0-.77,1.17Zm-14.55-6.47a12.48,12.48,0,0,0,11.32,0c3.11-1.81,3.1-4.75,0-6.56a12.48,12.48,0,0,0-11.32,0c-3.11,1.81-3.09,4.75,0,6.56"/><ellipse class="cls-4" cx="352.51" cy="146.45" rx="10.6" ry="5.7"/><path class="cls-5" d="M352.51,150.77c-5.7,0-10.34-1.54-10.58-4.57v.25c0,3.15,4.74,5.7,10.6,5.7s10.6-2.55,10.6-5.7v-.25C362.84,149.23,358.2,150.77,352.51,150.77Z"/><ellipse class="cls-4" cx="392.47" cy="159.47" rx="7.92" ry="3.88"/><path class="cls-5" d="M392.51,162.24c-4.38,0-7.93-.86-7.93-3V159a1.84,1.84,0,0,0-.07.47c0,2.14,3.55,3.88,7.93,3.88,4.21,0,7.64-1.61,7.89-3.65C399.89,161.63,396.56,162.24,392.51,162.24Z"/><line class="cls-6" x1="341.18" y1="170.29" x2="231.02" y2="236.59"/><path class="cls-6" d="M412.11,102.29v11.44c0,15.17-13,22-13,22l-9.95,5.83"/><polygon class="cls-7" points="495.25 154.71 371.91 86.11 350.7 98.03 385.77 117.53 378.8 121.45 431.79 150.92 438.76 147 474.05 166.62 495.25 154.71"/><path class="cls-4" d="M517,115.32c0-18.14-13.35-40.4-29.66-49.48a31.16,31.16,0,0,0-9.1-3.45C472.47,39.76,456,16.46,436.64,5.71c-11.76-6.54-22.46-7.26-30.35-3.19h0l-.27.15c-.3.16-.59.32-.87.49L393.46,9.72a48.59,48.59,0,0,0-7-4.82c-8.51-4.73-16.25-5.27-22-2.35h0l-.21.12c-.2.1-.4.21-.59.33L344.19,13.91l11.34.8a32.08,32.08,0,0,0-.92,7.87c0,19.46,14.31,43.33,31.81,53.06q.68.38,1.35.72l98.92,55.08.65.38.62.33.34.19h0l.71.34.66,11.55,18.74-10.52.25-.15h0C513.83,130.46,517,124.17,517,115.32Z"/><path class="cls-8" d="M468.37,76.5a31.16,31.16,0,0,0-9.1-3.45C453.5,50.42,437,27.12,417.67,16.37c-17.79-9.89-33.18-6.49-40,6.75a52.77,52.77,0,0,0-10.2-7.56c-17.5-9.73-31.81-1.77-31.81,17.68S350,76.57,367.45,86.3q.68.38,1.35.72l98.92,55.08.65.38.62.33.35.19h0c15.87,8.25,28.7.78,28.7-17C498,107.84,484.68,85.58,468.37,76.5Z"/><g id="speedo"><path class="cls-9" d="M432.4,80.15c0-13.44-9.41-29.8-21.1-36.55-4.64-2.68-8.94-3.43-12.44-2.53h-.16a10.46,10.46,0,0,0-2.57,1.11c-2.68,1.27-6.24,3.11-6.24,3.11l3.22-.35c-1.9,2.55-3,6.18-3,10.73,0,13.43,9.41,29.79,21.1,36.54a20.37,20.37,0,0,0,8.32,2.85l-2.37,3.16,8.39-4.15h0C429.72,92.08,432.38,87.23,432.4,80.15Z"/><path class="cls-5" d="M403.61,47.45C415.3,54.2,424.74,70.56,424.71,84s-9.55,18.86-21.24,12.11S382.33,73,382.37,59.55,391.92,40.7,403.61,47.45Z"/><polygon class="cls-10" points="390.74 81.38 396.69 77.92 394.52 79.85 388.57 83.31 390.74 81.38"/><polygon class="cls-11" points="396.71 75.79 402.66 72.33 404.22 74.75 398.27 78.21 396.71 75.79"/><path class="cls-11" d="M402.26,71.22a2,2,0,0,0,.4,1.12l-6,3.45a1.94,1.94,0,0,1-.39-1.11h0Z"/><path class="cls-12" d="M389.63,62.6l5.95-3.45c-1.88,1.09-3.05,3.41-3.06,6.72a22.19,22.19,0,0,0,4.17,12l-5.95,3.46a22.19,22.19,0,0,1-4.17-12.06C386.58,66,387.75,63.7,389.63,62.6Z"/><path class="cls-13" d="M410.42,84.68l-5.95,3.46a4.46,4.46,0,0,1-.92.41l5.95-3.45A5.1,5.1,0,0,0,410.42,84.68Z"/><path class="cls-14" d="M387.14,58.32l5.95-3.45h.09l-5.95,3.46Z"/><path class="cls-14" d="M387.23,58.28l2.5,4.27c-1.94,1.07-3.15,3.41-3.16,6.77a22.19,22.19,0,0,0,4.17,12.06l-2.17,1.93c-3.36-4.88-5.52-10.79-5.51-16C383.08,62.84,384.67,59.71,387.23,58.28Z"/><polygon class="cls-14" points="387.23 58.28 393.18 54.82 395.67 59.09 389.73 62.55 387.23 58.28"/><path class="cls-11" d="M402.54,70.62a.67.67,0,0,0-.28.6l-5.94,3.46a.62.62,0,0,1,.27-.6Z"/><path class="cls-13" d="M411.85,86.58h0l-6,3.46h0Z"/><polygon class="cls-13" points="404.62 88.05 410.57 84.59 411.85 86.58 405.9 90.04 404.62 88.05"/><path class="cls-13" d="M411.86,86.59a.93.93,0,0,0,.39.42l-5.95,3.46a1.13,1.13,0,0,1-.39-.42Z"/><path class="cls-13" d="M412.25,87a.35.35,0,0,0,.37,0l-5.94,3.46a.37.37,0,0,1-.38,0Z"/><path class="cls-15" d="M396.59,74.08l6-3.46a.65.65,0,0,1,.67.07l-5.95,3.45A.67.67,0,0,0,396.59,74.08Z"/><path class="cls-15" d="M397.26,74.14l5.95-3.45a1.9,1.9,0,0,1,.67.71l-5.95,3.46A2,2,0,0,0,397.26,74.14Z"/><polygon class="cls-15" points="397.93 74.86 403.88 71.4 405.38 73.95 399.44 77.4 397.93 74.86"/><polygon class="cls-15" points="405.38 87.46 411.33 84.01 412.57 86.1 406.62 89.56 405.38 87.46"/><path class="cls-15" d="M412.62,87.05l-5.94,3.46a.4.4,0,0,0,.15-.34,1.12,1.12,0,0,0-.21-.61l5.95-3.46a1.21,1.21,0,0,1,.21.61A.36.36,0,0,1,412.62,87.05Z"/><path class="cls-16" d="M412.9,89,407,92.41c2.51-1.45,4.06-4.56,4.08-9a27.94,27.94,0,0,0-3.73-13.12l5.95-3.45A28.06,28.06,0,0,1,417,80C417,84.4,415.41,87.5,412.9,89Z"/><polygon class="cls-13" points="404.77 71.65 410.72 68.19 413.26 66.87 407.31 70.32 404.77 71.65"/><path class="cls-17" d="M403.21,69.09a1.63,1.63,0,0,0-1.65-.16l-5.95,3.46a1.63,1.63,0,0,1,1.65.16,5.1,5.1,0,0,1,2.32,4,2.18,2.18,0,0,1-.14.84L405.38,74a2.4,2.4,0,0,0,.15-.84A5.17,5.17,0,0,0,403.21,69.09Z"/><path class="cls-18" d="M397.11,59.31a28.74,28.74,0,0,1,10.22,11l-2.55,1.31a21.66,21.66,0,0,0-7.68-8.3c-2.86-1.65-5.46-1.83-7.36-.78l-2.49-4.27C389.78,56.86,393.27,57.09,397.11,59.31Z"/><path class="cls-13" d="M407.31,70.32A28,28,0,0,1,411,83.44c0,5.12-2.12,8.48-5.37,9.55l-2.12-4.44a4.55,4.55,0,0,0,1.07-.5l1.29,2a1,1,0,0,0,.39.43.33.33,0,0,0,.53-.3,1.12,1.12,0,0,0-.21-.61l-1.24-2.1a8,8,0,0,0,2.15-6,20.87,20.87,0,0,0-2.76-9.77Z"/><path class="cls-15" d="M397.26,74.14a2,2,0,0,1,.67.72l1.51,2.54,5.94,10.06,1.24,2.1a1.12,1.12,0,0,1,.21.61c0,.33-.24.47-.53.3a1,1,0,0,1-.39-.43l-1.29-2-6.35-9.84-1.56-2.42a1.94,1.94,0,0,1-.39-1.11C396.32,74.08,396.74,73.84,397.26,74.14Z"/><path class="cls-5" d="M397.26,72.55a5.1,5.1,0,0,1,2.32,4,2.18,2.18,0,0,1-.14.84l-1.51-2.54a2,2,0,0,0-.67-.72c-.52-.3-.94-.06-.94.54a1.94,1.94,0,0,0,.39,1.11l1.56,2.42a2.11,2.11,0,0,1-1-.32,5.12,5.12,0,0,1-2.32-4C394.94,72.4,396,71.81,397.26,72.55Z"/><path class="cls-19" d="M387.25,58.29l5.94-3.46c2.54-1.43,6-1.2,9.87,1l-5.95,3.46C393.27,57.09,389.78,56.86,387.25,58.29Z"/><path class="cls-19" d="M397.11,59.31l5.95-3.46a28.89,28.89,0,0,1,10.22,11l-5.95,3.45A28.87,28.87,0,0,0,397.11,59.31Z"/><path class="cls-20" d="M406.7,90.4a1.13,1.13,0,0,1-.4-.44L405,88l-6.35-9.83-1.56-2.42a2,2,0,0,1-.4-1.12A.64.64,0,0,1,397,74c-.37-.07-.64.17-.64.65a1.94,1.94,0,0,0,.39,1.11l1.56,2.42L404.66,88,406,90a1,1,0,0,0,.39.43.38.38,0,0,0,.45,0Z"/></g><path class="cls-21" d="M322,161.3a1,1,0,0,1,.46.79v6.82l-54.78-31.63v-7.35Zm-3.43,3.27c.88.51,1.6.1,1.6-.91a3.52,3.52,0,0,0-1.59-2.76c-.89-.51-1.6-.1-1.61.91a3.53,3.53,0,0,0,1.6,2.76"/><path class="cls-22" d="M273.91,190.28l-6.39-3.69.14-49.31,54.78,31.63-.14,48.78c0,.29-.21.41-.46.26l-5.47-3.16"/><polygon class="cls-5" points="294.58 159.51 294.52 194.84 273.97 182.97 274.04 147.65 294.58 159.51"/><polygon class="cls-5" points="316.49 172.16 316.43 207.49 295.88 195.63 295.95 160.3 316.49 172.16"/><ellipse class="cls-5" cx="318.57" cy="162.75" rx="1.31" ry="2.25" transform="translate(-38.64 182.09) rotate(-30.16)"/><path class="cls-18" d="M245.31,117l22.37,12.91v7.35l-.14,49.31-22.37-12.92a1,1,0,0,1-.46-.79l.14-48.78v-6.82C244.85,117,245.05,116.87,245.31,117Zm19.1,36.25V135.41l-16-9.22V144l16,9.23m0,12.59v-3.15l-16-9.22v3.14l16,9.23m0-5.77v-3.15l-16-9.22v3.14l16,9.23m-5.51,8.38V165.3l-10.5-6.06v3.14l10.5,6.07"/><polygon class="cls-5" points="264.46 135.43 264.41 153.27 248.43 144.04 248.48 126.21 264.46 135.43"/><path class="cls-23" d="M282.33,181.62a1,1,0,0,1,.46.8v7.42l-78.46-45.3v-7.42c0-.3.21-.41.46-.27Z"/><polygon class="cls-5" points="255.51 180.49 255.41 217.08 210.18 190.96 210.28 154.37 255.51 180.49"/><polygon class="cls-24" points="276.23 214.22 276.22 217.41 260.06 208.08 260.07 204.9 276.23 214.22"/><polygon class="cls-24" points="276.29 192.48 276.24 210.51 260.08 201.19 260.13 183.15 276.29 192.48"/><path class="cls-22" d="M204.3,144.54l78.46,45.3-.13,48.8c0,.29-.21.41-.47.27l-77.54-44.77a1,1,0,0,1-.46-.8Zm51.11,72.54.11-36.59-45.24-26.12-.1,36.59,45.23,26.12m20.83-6.57.05-18-16.16-9.33-.05,18,16.16,9.32m0,6.9v-3.19l-16.15-9.32v3.18l16.16,9.33m0,5.83v-3.18l-16.16-9.33v3.18l16.16,9.33m-5.55,2.64V222.7L260,216.57v3.18l10.62,6.13"/><polygon class="cls-24" points="270.65 222.7 270.64 225.88 260.03 219.75 260.04 216.57 270.65 222.7"/><polygon class="cls-24" points="276.21 220.06 276.2 223.24 260.04 213.91 260.05 210.73 276.21 220.06"/><path class="cls-25" d="M172.07,264.7s0,7.71,4.72,11.28l-4.72.28Z"/><g class="cls-26"><g class="cls-27"><rect class="cls-28" x="87.14" y="225.59" width="157.73" height="94.53"/></g></g><g class="cls-29"><g class="cls-27"><rect class="cls-30" x="152.14" y="140.84" width="94.77" height="128.08"/></g></g><g class="cls-31"><g class="cls-27"><rect class="cls-32" x="151.54" y="141.72" width="93.61" height="127.82"/></g></g><polygon class="cls-33" points="159.55 152.98 159.55 214.03 236.73 258.88 236.73 198.02 159.55 152.98"/><g class="cls-34"><g class="cls-27"><rect class="cls-1" x="156.79" y="150.21" width="82.7" height="111.43"/></g></g><g class="cls-35"><g class="cls-27"><rect class="cls-36" x="90.19" y="247.35" width="152.59" height="61.94"/></g></g><g class="cls-37"><g class="cls-27"><rect class="cls-22" x="89.09" y="213.22" width="154.38" height="92.74"/></g></g><g class="cls-38"><g class="cls-27"><rect class="cls-39" x="125.35" y="257.75" width="42.5" height="26.93"/></g></g><g class="cls-40"><g class="cls-27"><rect class="cls-32" x="123.77" y="223.55" width="102.76" height="62.28"/></g></g><g class="cls-41"><g class="cls-27"><rect class="cls-32" x="159.37" y="218.07" width="71.83" height="45.58"/></g></g><polygon class="cls-42" points="131.25 242.05 131.82 241.71 197.34 279.49 196.72 279.86 131.25 242.05"/><polygon class="cls-42" points="137.66 238.47 138.24 238.12 203.76 275.91 203.13 276.27 137.66 238.47"/><polygon class="cls-42" points="144.07 234.88 144.65 234.54 210.17 272.32 209.54 272.69 144.07 234.88"/><polygon class="cls-42" points="150.49 231.3 151.06 230.96 216.58 268.74 215.96 269.11 150.49 231.3"/><path class="cls-5" d="M172.38,176.84,224,206.61l-.09,29L172.3,205.8Zm23.81,29.91v-3.12l-19.93-11.5v3.12l19.93,11.5m-19.9-21.55v3.12l19.9,11.49v-3.12l-19.9-11.49m14.1,25.14v-3.11l-14.15-8.17v3.12l14.15,8.16"/><polygon class="cls-43" points="190.4 207.22 190.39 210.34 176.24 202.18 176.25 199.06 190.4 207.22"/><polygon class="cls-43" points="196.2 203.63 196.19 206.75 176.26 195.25 176.27 192.13 196.2 203.63"/><polygon class="cls-44" points="223.96 201.96 223.95 206.61 172.38 176.84 172.4 172.19 223.96 201.96"/><polygon class="cls-43" points="196.19 196.69 196.18 199.81 176.28 188.32 176.29 185.2 196.19 196.69"/><path class="cls-45" d="M3,311.44c-4.19-11.37-9.45-37.53,27.12-44.27L40,259.73s34.11,8.29,49.59,18.6c18.59,12.4,30.58,32.81,27.27,43.39-6,19.35-52.17,34-107.34-2.1C8.11,318.7,4.16,314.72,3,311.44Z"/><ellipse class="cls-46" cx="95.79" cy="214.48" rx="5.58" ry="9.92"/><path class="cls-47" d="M86.07,192.32S98.8,216,93.35,237.81s-18.2,21.83-18.2,21.83-1.82,0-1.82,3.64S77,277.84,77,277.84s-29.11,1.82-36.39-9.1c0,0,1.82-10.92-1.82-18.19s-12.74-29.12-7.28-40S62.41,170.48,86.07,192.32Z"/><path class="cls-48" d="M74.24,235.08c1.77.59,2.57,2.14,2.93,4.21l3-1.34c-1-5.2.79-11.42,4.07-14.7,3.64-3.64,0-9.1,0-14.55s7.28-12.74,7.28-21.84-16.38-12.74-27.3-10.92S36.94,183.22,26,203.24s12.74,47.31,12.74,47.31.91,2.72,8.19,4.54,14.55-10.91,16.37-12.73S68.78,233.26,74.24,235.08Z"/><line class="cls-46" x1="100.12" y1="210.14" x2="79.67" y2="226.88"/><path class="cls-5" d="M31.32,267.17,40,258.49s32.23,1.86,45.87,13.42l8.68,10.14S57.35,282.05,31.32,267.17Z"/><path class="cls-49" d="M30.08,267.17l8.68-7.44S71,263.45,84.63,273.37l11.16,8.68S59.83,284.53,30.08,267.17Z"/><polygon class="cls-24" points="221.83 208.28 221.79 224.32 207.41 216.02 207.46 199.98 221.83 208.28"/><g class="cls-50"><g class="cls-51"><rect class="cls-20" x="194.19" y="301.09" width="86.04" height="50.36"/></g></g><g class="cls-52"><g class="cls-51"><rect class="cls-22" x="194.17" y="295.91" width="86.11" height="43.1"/></g></g><g class="cls-53"><g class="cls-51"><rect class="cls-54" x="194.19" y="282.77" width="86.12" height="53.35"/></g></g><g class="cls-55"><g class="cls-51"><rect class="cls-22" x="200.05" y="285.53" width="75.19" height="47.11"/></g></g><g class="cls-56"><g class="cls-51"><rect class="cls-44" x="222.52" y="292.46" width="41.5" height="26.89"/></g></g><polygon class="cls-57" points="235.13 299.03 254.99 310.62 231.28 324.98 210.57 312.88 235.13 299.03"/><g class="cls-58"><rect class="cls-5" x="-490.66" y="42.94" width="891.85" height="362.25"/><g class="cls-59"><rect class="cls-5" x="216.74" y="295.75" width="41.5" height="26.89"/></g></g><g class="cls-60"><g class="cls-51"><rect class="cls-61" x="198.92" y="299.71" width="71.09" height="33.54"/></g></g></svg>