<?xml version="1.0" encoding="UTF-8"?>
<svg width="266px" height="154px" viewBox="0 0 266 154" version="1.1" xmlns="http://www.w3.org/2000/svg" xmlns:xlink="http://www.w3.org/1999/xlink">
    <!-- Generator: Sketch 55.2 (78181) - https://sketchapp.com -->
    <title>Lead Time</title>
    <desc>Created with Sketch.</desc>
    <defs>
        <ellipse id="path-1" cx="35.9769579" cy="36.2485794" rx="35.9769579" ry="36.2485794"></ellipse>
        <path d="M30.1958686,60.8476871 C46.8725863,60.8476871 60.3917371,47.2264684 60.3917371,30.4238436 C60.3917371,13.6212187 46.8725863,0 30.1958686,0 C13.5191508,0 0,13.6212187 0,30.4238436 C0,47.2264684 13.5191508,60.8476871 30.1958686,60.8476871 L30.1958686,60.8476871 Z M30.1958686,54.6068987 C16.940016,54.6068987 6.19402432,43.7797761 6.19402432,30.4238436 C6.19402432,17.067911 16.940016,6.24078842 30.1958686,6.24078842 C43.4517211,6.24078842 54.1977128,17.067911 54.1977128,30.4238436 C54.1977128,43.7797761 43.4517211,54.6068987 30.1958686,54.6068987 L30.1958686,54.6068987 Z" id="path-3"></path>
    </defs>
    <g id="Page-1" stroke="none" stroke-width="1" fill="none" fill-rule="evenodd">
        <g id="LAYOUT_Quick-Check-Design_Option-2" transform="translate(-157.000000, -835.000000)">
            <g id="Lead-Time" transform="translate(157.000000, 835.000000)">
                <g id="Group-3" transform="translate(25.000000, 9.500000)">
                    <g id="Containers_5-Copy" transform="translate(120.500000, 59.000000) scale(-1, 1) translate(-120.500000, -59.000000) translate(0.000000, 0.500000)">
                        <path d="M240.516663,109.21596 C240.516663,111.947343 186.731797,116.039752 120.385884,116.039752 C54.0385296,116.039752 0.255105193,113.825857 0.255105193,111.094474 C0.255105193,108.363091 54.0385296,106.149196 120.385884,106.149196 C186.731797,106.149196 240.516663,106.484577 240.516663,109.21596 Z" id="Fill-1-Copy-2" fill="#293841" opacity="0.100000001"></path>
                        <path d="M206.838716,0.0131521425 C211.2429,0.0131521425 214.965622,3.0126788 214.965622,7.47781963 L214.965622,97.5543104 L214.965622,98.5586312 L214.965622,101.465974 C214.965622,101.465974 215.187671,108.618634 207.470409,108.618634 L76.2913125,108.618634 C68.575523,108.618634 75.0794623,101.465974 75.0794623,101.465974 L75.0794623,98.5586312 L75.0794623,97.5543104 L75.0794623,7.47781963 C75.0794623,3.0126788 77.940857,0.0131521425 82.3454095,0.0131521425 L206.838716,0.0131521425 Z" id="Fill-42" fill="#414141"></path>
                        <path d="M214.881177,96.7566261 L148.981856,96.7566261 L2.10797449,96.7566261 L2.10797449,101.143019 C2.10797449,101.143019 2.61929279,108.699497 10.3354504,108.699497 L141.514915,108.699497 C149.232545,108.699497 148.251506,101.143019 148.251506,101.143019 L148.251506,97.5030556 L214.881177,97.5030556 L214.881177,96.7566261 Z" id="Fill-44" fill="#9D9D9D"></path>
                        <polyline id="Fill-46" fill="#FFFFFF" points="209.796585 91.0057606 209.60369 6.58795135 80.8549196 6.58795135 80.8549196 90.9344766 209.328704 90.9344766"></polyline>
                    </g>
                    <g id="Group-7" transform="translate(39.000000, 13.500000)">
                        <polygon id="Fill-25" fill="#263238" points="0 72.3004348 114.385125 72.3004348 114.385125 -2.13162821e-14 0 -2.13162821e-14"></polygon>
                        <polygon id="Fill-26" fill="#4285F4" points="0 4.3309832 114.385125 4.3309832 114.385125 2.57571742e-14 0 2.57571742e-14"></polygon>
                        <polygon id="Fill-30" fill="#455A64" points="12.3044104 19.0356609 46.8725268 19.0356609 46.8725268 14.9587107 12.3044104 14.9587107"></polygon>
                        <polygon id="Fill-31" fill="#607D8B" points="12.3044104 38.9806085 46.8725268 38.9806085 46.8725268 34.9036582 12.3044104 34.9036582"></polygon>
                        <polygon id="Fill-32" fill="#455A64" points="12.3044104 29.0081347 28.936806 29.0081347 28.936806 24.9311844 12.3044104 24.9311844"></polygon>
                        <polygon id="Fill-33" fill="#455A64" points="12.3044104 48.9530822 28.936806 48.9530822 28.936806 44.876132 12.3044104 44.876132"></polygon>
                        <polygon id="Fill-34" fill="#607D8B" points="34.4523491 29.0081347 69.9117534 29.0081347 69.9117534 24.9311844 34.4523491 24.9311844"></polygon>
                    </g>
                </g>
                <g id="stopwatch-copy" transform="translate(0.000000, 51.500000)">
                    <g id="button" transform="translate(68.357476, 24.497382) rotate(38.000000) translate(-68.357476, -24.497382) translate(60.857476, 19.997382)">
                        <polygon id="Rectangle-6" fill="#C0C9CD" points="4.09571933 3.15026285 10.2392983 3.15026285 10.2392983 8.40070093 4.09571933 8.40070093"></polygon>
                        <rect id="Rectangle-5" fill="#CFD8DC" x="9.9475983e-14" y="7.81597009e-14" width="14.3350177" height="4.20035047" rx="1.92"></rect>
                    </g>
                    <g id="button" transform="translate(12.371307, 24.497382) scale(-1, 1) rotate(38.000000) translate(-12.371307, -24.497382) translate(4.871307, 19.997382)">
                        <rect id="Rectangle-6" fill="#81929A" x="4.09571933" y="3.15026285" width="6.14357899" height="5.25043808"></rect>
                        <rect id="Rectangle-5" fill="#9EB1B9" x="1.10134124e-13" y="7.10542736e-14" width="14.3350177" height="4.20035047" rx="1.92"></rect>
                    </g>
                    <rect id="Rectangle-3" fill="#CFD8DC" x="38.6291094" y="10.6918012" width="3.01789845" height="9.16440102" rx="1.28"></rect>
                    <ellipse id="Oval-53" fill="#000000" opacity="0.05" cx="40.3643918" cy="98.7637565" rx="28.9054468" ry="2.80835479"></ellipse>
                    <ellipse id="bezel" fill="#CFD8DC" cx="40.3643918" cy="57.4705398" rx="40.3643918" ry="40.6691379"></ellipse>
                    <ellipse id="Oval-3" stroke="#CFD8DC" stroke-width="1.92" cx="40.3643918" cy="7.25515081" rx="7.16750883" ry="7.25515081"></ellipse>
                    <g id="inner-shadow" transform="translate(4.439051, 21.169954)">
                        <mask id="mask-2" fill="white">
                            <use xlink:href="#path-1"></use>
                        </mask>
                        <use id="Oval-44" fill="#FFFFFF" xlink:href="#path-1"></use>
                    </g>
                    <ellipse id="cover" fill="#FFFFFF" cx="40.7257099" cy="57.2105069" rx="23.0727406" ry="23.2469369"></ellipse>
                    <g id="redline" transform="translate(10.529841, 26.890676)">
                        <mask id="mask-4" fill="white">
                            <use xlink:href="#path-3"></use>
                        </mask>
                        <use id="indicator-color" fill="#ECEFF1" fill-rule="nonzero" xlink:href="#path-3"></use>
                        <polygon id="Path-58" fill="#8BC34A" mask="url(#mask-4)" points="47.3149259 14.9019139 29.5478349 9.63421713 29.5478349 -1.75725325 47.8770658 -0.351044349 60.5982046 19.3362866 61.1002594 21.636348 62.7157182 22.163737 61.9842684 23.7245919 51.999821 24.3499459 48.9310839 23.4598326 50.8110077 22.163737"></polygon>
                    </g>
                    <ellipse id="Oval-173" fill="#ECEFF1" cx="14.2462559" cy="62.9832362" rx="3.09701216" ry="3.12039421"></ellipse>
                    <path d="M49.9183263,65.5166569 L52.2917901,40.3956215 L52.6385381,40.4017366 L52.9969788,40.4080578 L55.1023357,65.6343957 C56.6703964,66.5659353 57.7224657,68.2851791 57.7224657,70.2520021 C57.7224657,73.210413 55.3421707,75.6086788 52.4059281,75.6086788 C49.4696855,75.6086788 47.0893906,73.210413 47.0893906,70.2520021 C47.0893906,68.1990982 48.2355659,66.415919 49.9183263,65.5166569 Z" id="needle-shadow" fill="#000000" opacity="0.1" transform="translate(52.405928, 58.002150) rotate(80.000000) translate(-52.405928, -58.002150) "></path>
                    <g id="needle" transform="translate(52.438676, 55.638121) rotate(81.000000) translate(-52.438676, -55.638121) translate(46.938676, 37.138121)">
                        <polygon id="Path-37" fill="#DB4437" transform="translate(5.643892, 16.417124) rotate(1.000000) translate(-5.643892, -16.417124) " points="2.56101026 31.8404662 4.93311313 0.99378156 5.27991506 0.993844109 5.63841147 0.993908767 8.72677452 31.5531052"></polygon>
                        <ellipse id="Oval-45" fill="#DB4437" cx="5.31653754" cy="30.8398961" rx="5.31653754" ry="5.35667673"></ellipse>
                        <ellipse id="axis-point" fill="#FFFFFF" cx="5.28575789" cy="30.8490174" rx="2.06467477" ry="2.08026281"></ellipse>
                    </g>
                </g>
                <g id="Group-2" transform="translate(174.000000, 0.500000)">
                    <path d="M29,14.0025222 C29,22.0079144 22.5090435,28.5 14.5,28.5 C6.49095652,28.5 0,22.0079144 0,14.0025222 C0,5.99208558 6.49095652,-0.5 14.5,-0.5 C22.5090435,-0.5 29,5.99208558 29,14.0025222 Z" id="Stroke-7" fill="#FBBC05"></path>
                    <polygon id="Fill-39" fill="#FFFFFF" transform="translate(14.377022, 15.289532) rotate(-4.000000) translate(-14.377022, -15.289532) " points="23.5181624 11.1581335 21.7341616 9.03908601 11.6215109 17.5599395 7.39258419 12.2945781 5.23588127 14.021577 11.2637168 21.5399771 13.4253891 19.8080156 13.3508487 19.7236508"></polygon>
                </g>
            </g>
        </g>
    </g>
</svg>