<?xml version="1.0" encoding="UTF-8"?>
<svg id="Layer_1" data-name="Layer 1" xmlns="http://www.w3.org/2000/svg" viewBox="0 0 66.03 182.72">
  <defs>
    <style>
      .cls-1 {
        fill: #041e49;
      }

      .cls-2 {
        fill: #fff;
      }
    </style>
  </defs>
  <path class="cls-2" d="M56.41,9.62C50.03,3.24,42.16,0,33.01,0S16,3.24,9.62,9.62C3.24,16,0,23.87,0,33.01c0,6.46,1.25,12.12,3.73,16.83,2.23,4.24,5.16,8.73,8.7,13.31,3.26,4.28,5.82,8.02,7.66,11.18,.91,1.56,2.03,3.49,2.03,6.71v90.78c0,6.01,4.89,10.89,10.89,10.89s10.89-4.89,10.89-10.89V81c0-3.16,.94-4.77,1.77-6.2l.12-.21c1.73-2.98,4.36-6.84,7.8-11.43,3.12-4.09,5.92-8.3,8.32-12.51,2.73-4.78,4.11-10.71,4.11-17.64,0-9.14-3.24-17.01-9.62-23.4Z"/>
  <path class="cls-1" d="M52.88,13.15c-5.44-5.44-12.06-8.15-19.86-8.15s-14.42,2.72-19.86,8.15c-5.44,5.44-8.15,12.06-8.15,19.86,0,5.67,1.05,10.51,3.15,14.51,2.1,4,4.85,8.2,8.25,12.61,3.4,4.47,6.05,8.34,7.95,11.61,1.01,1.74,2.76,4.67,2.76,9.31v90.78c0,3.26,2.64,5.89,5.89,5.89s5.89-2.64,5.89-5.89V81c0-4.69,1.62-7.29,2.56-8.91,1.83-3.17,4.55-7.15,8.15-11.96,3-3.94,5.65-7.92,7.95-11.96,2.3-4.04,3.45-9.09,3.45-15.16,0-7.8-2.72-14.42-8.15-19.86Zm-24.81,6.9c1.37-1.37,3.02-2.05,4.95-2.05s3.59,.68,4.95,2.05,2.05,3.02,2.05,4.95-.68,3.59-2.05,4.95c-1.37,1.37-3.02,2.05-4.95,2.05s-3.59-.68-4.95-2.05c-1.37-1.37-2.05-3.02-2.05-4.95s.68-3.59,2.05-4.95Zm12.51,26.41c-2.37,1.03-4.89,1.55-7.55,1.55s-5.19-.52-7.55-1.55-4.49-2.52-6.35-4.45c2.13-1.33,4.37-2.33,6.7-3,2.33-.67,4.74-1,7.2-1s4.87,.33,7.2,1c2.33,.67,4.57,1.67,6.7,3-1.87,1.93-3.99,3.42-6.35,4.45Z"/>
</svg>