<?xml version="1.0" encoding="UTF-8" standalone="no"?>
<svg
   width="1056px"
   height="452px"
   viewBox="0 0 1056 452"
   version="1.1"
   id="svg1007725"
   xmlns="http://www.w3.org/2000/svg"
   xmlns:svg="http://www.w3.org/2000/svg">
  <defs
     id="defs1007729" />
  <!-- Generator: Sketch 55.2 (78181) - https://sketchapp.com -->
  <title
     id="title1007638">Diagram 1</title>
  <desc
     id="desc1007640">Created with Sketch.</desc>
  <g
     id="Diagram-1"
     stroke="none"
     stroke-width="1"
     fill="none"
     fill-rule="evenodd">
    <path
       id="rect1007642"
       style="fill:#ffffff"
       d="M 0,0 H 1056 V 452 H 0 Z" />
    <path
       id="Rectangle"
       style="stroke:#e0e0e0"
       d="m 706.5,40.5 h 230 c 2.216,0 4,1.784 4,4 v 99 c 0,2.216 -1.784,4 -4,4 h -230 c -2.216,0 -4,-1.784 -4,-4 v -99 c 0,-2.216 1.784,-4 4,-4 z" />
    <g
       aria-label="Release"
       id="Release"
       style="font-size:11px;font-family:GoogleSans-Regular, 'Google Sans';fill:#3c4043">
      <path
         d="m 801.18499,118 v -7.876 h 2.662 q 0.66,0 1.21,0.297 0.561,0.297 0.891,0.825 0.341,0.517 0.341,1.21 0,0.418 -0.154,0.836 -0.154,0.407 -0.484,0.748 -0.319,0.341 -0.814,0.539 -0.22,0.088 -0.462,0.143 l 2.222,3.234 V 118 h -1.1 l -2.145,-3.212 h -1.232 V 118 Z m 0.935,-4.081 h 1.672 q 0.407,0 0.759,-0.187 0.352,-0.187 0.572,-0.517 0.22,-0.33 0.22,-0.759 0,-0.352 -0.187,-0.682 -0.176,-0.33 -0.506,-0.539 -0.33,-0.22 -0.792,-0.22 h -1.738 z"
         id="path1007733" />
      <path
         d="m 809.831,118.176 q -0.814,0 -1.452,-0.385 -0.627,-0.385 -0.99,-1.056 -0.352,-0.671 -0.352,-1.529 0,-0.803 0.33,-1.485 0.341,-0.682 0.946,-1.089 0.616,-0.418 1.441,-0.418 0.836,0 1.43,0.374 0.605,0.363 0.924,1.012 0.33,0.649 0.33,1.485 0,0.077 -0.011,0.154 0,0.077 -0.011,0.132 h -4.444 q 0.033,0.605 0.275,1.023 0.275,0.473 0.704,0.704 0.44,0.231 0.913,0.231 0.616,0 1.012,-0.286 0.407,-0.297 0.649,-0.726 l 0.792,0.385 q -0.33,0.638 -0.946,1.056 -0.616,0.418 -1.54,0.418 z m -1.804,-3.575 h 3.421 q -0.011,-0.231 -0.11,-0.495 -0.088,-0.275 -0.297,-0.506 -0.198,-0.242 -0.517,-0.385 -0.308,-0.154 -0.77,-0.154 -0.55,0 -0.957,0.286 -0.396,0.275 -0.605,0.759 -0.11,0.231 -0.165,0.495 z"
         id="path1007735" />
      <path
         d="m 813.52699,118 v -7.876 h 0.935 V 118 Z"
         id="path1007737" />
      <path
         d="m 818.29001,118.176 q -0.814,0 -1.452,-0.385 -0.627,-0.385 -0.99,-1.056 -0.352,-0.671 -0.352,-1.529 0,-0.803 0.33,-1.485 0.341,-0.682 0.946,-1.089 0.616,-0.418 1.441,-0.418 0.836,0 1.43,0.374 0.605,0.363 0.924,1.012 0.33,0.649 0.33,1.485 0,0.077 -0.011,0.154 0,0.077 -0.011,0.132 h -4.444 q 0.033,0.605 0.275,1.023 0.275,0.473 0.704,0.704 0.44,0.231 0.913,0.231 0.616,0 1.012,-0.286 0.407,-0.297 0.649,-0.726 l 0.792,0.385 q -0.33,0.638 -0.946,1.056 -0.616,0.418 -1.54,0.418 z m -1.804,-3.575 h 3.421 q -0.011,-0.231 -0.11,-0.495 -0.088,-0.275 -0.297,-0.506 -0.198,-0.242 -0.517,-0.385 -0.308,-0.154 -0.77,-0.154 -0.55,0 -0.957,0.286 -0.396,0.275 -0.605,0.759 -0.11,0.231 -0.165,0.495 z"
         id="path1007739" />
      <path
         d="m 823.83399,118.176 q -0.627,0 -1.1,-0.242 -0.473,-0.242 -0.748,-0.66 -0.264,-0.429 -0.264,-0.968 0,-0.616 0.319,-1.034 0.319,-0.429 0.858,-0.638 0.539,-0.22 1.188,-0.22 0.374,0 0.693,0.066 0.319,0.055 0.55,0.143 0.242,0.077 0.363,0.154 v -0.341 q 0,-0.638 -0.451,-1.012 -0.451,-0.374 -1.1,-0.374 -0.462,0 -0.869,0.209 -0.396,0.198 -0.627,0.561 l -0.704,-0.528 q 0.22,-0.33 0.55,-0.572 0.33,-0.242 0.748,-0.374 0.429,-0.132 0.902,-0.132 1.144,0 1.793,0.605 0.649,0.605 0.649,1.628 V 118 h -0.891 v -0.803 h -0.044 q -0.143,0.242 -0.407,0.473 -0.264,0.22 -0.627,0.363 -0.352,0.143 -0.781,0.143 z m 0.088,-0.825 q 0.484,0 0.88,-0.242 0.407,-0.242 0.649,-0.649 0.242,-0.407 0.242,-0.891 -0.253,-0.176 -0.638,-0.286 -0.374,-0.11 -0.825,-0.11 -0.803,0 -1.177,0.33 -0.374,0.33 -0.374,0.814 0,0.462 0.352,0.748 0.352,0.286 0.891,0.286 z"
         id="path1007741" />
      <path
         d="m 829.785,118.176 q -0.627,0 -1.111,-0.198 -0.473,-0.209 -0.792,-0.55 -0.308,-0.352 -0.462,-0.759 l 0.836,-0.374 q 0.22,0.506 0.638,0.781 0.418,0.275 0.957,0.275 0.517,0 0.858,-0.209 0.352,-0.209 0.352,-0.616 0,-0.253 -0.143,-0.418 -0.143,-0.176 -0.418,-0.297 -0.275,-0.121 -0.671,-0.22 l -0.682,-0.176 q -0.396,-0.11 -0.748,-0.308 -0.352,-0.198 -0.572,-0.506 -0.209,-0.319 -0.209,-0.77 0,-0.506 0.297,-0.869 0.297,-0.363 0.781,-0.55 0.484,-0.198 1.034,-0.198 0.484,0 0.902,0.143 0.429,0.132 0.748,0.407 0.319,0.264 0.484,0.66 l -0.814,0.374 q -0.209,-0.418 -0.561,-0.583 -0.352,-0.165 -0.781,-0.165 -0.462,0 -0.803,0.209 -0.341,0.198 -0.341,0.55 0,0.352 0.275,0.528 0.286,0.176 0.693,0.286 l 0.814,0.209 q 0.825,0.209 1.243,0.627 0.418,0.407 0.418,1.001 0,0.528 -0.297,0.913 -0.297,0.385 -0.803,0.594 -0.506,0.209 -1.122,0.209 z"
         id="path1007743" />
      <path
         d="m 835.58199,118.176 q -0.814,0 -1.452,-0.385 -0.627,-0.385 -0.99,-1.056 -0.352,-0.671 -0.352,-1.529 0,-0.803 0.33,-1.485 0.341,-0.682 0.946,-1.089 0.616,-0.418 1.441,-0.418 0.836,0 1.43,0.374 0.605,0.363 0.924,1.012 0.33,0.649 0.33,1.485 0,0.077 -0.011,0.154 0,0.077 -0.011,0.132 h -4.444 q 0.033,0.605 0.275,1.023 0.275,0.473 0.704,0.704 0.44,0.231 0.913,0.231 0.616,0 1.012,-0.286 0.407,-0.297 0.649,-0.726 l 0.792,0.385 q -0.33,0.638 -0.946,1.056 -0.616,0.418 -1.54,0.418 z m -1.804,-3.575 h 3.421 q -0.011,-0.231 -0.11,-0.495 -0.088,-0.275 -0.297,-0.506 -0.198,-0.242 -0.517,-0.385 -0.308,-0.154 -0.77,-0.154 -0.55,0 -0.957,0.286 -0.396,0.275 -0.605,0.759 -0.11,0.231 -0.165,0.495 z"
         id="path1007745" />
    </g>
    <g
       aria-label="Deployable"
       id="Deployable"
       style="font-size:11px;font-family:GoogleSans-Regular, 'Google Sans';fill:#3c4043">
      <path
         d="m 801.36297,71 v -7.876 h 2.376 q 1.232,0 2.123,0.506 0.891,0.495 1.375,1.386 0.484,0.891 0.484,2.046 0,1.155 -0.484,2.046 -0.484,0.88 -1.375,1.386 -0.891,0.506 -2.123,0.506 z m 0.935,-0.891 h 1.441 q 0.924,0 1.606,-0.352 0.682,-0.363 1.056,-1.045 0.374,-0.682 0.374,-1.65 0,-0.968 -0.374,-1.65 -0.374,-0.682 -1.056,-1.034 -0.682,-0.363 -1.606,-0.363 h -1.441 z"
         id="path1007748" />
      <path
         d="m 811.24097,71.176 q -0.814,0 -1.452,-0.385 -0.627,-0.385 -0.99,-1.056 -0.352,-0.671 -0.352,-1.529 0,-0.803 0.33,-1.485 0.341,-0.682 0.946,-1.089 0.616,-0.418 1.441,-0.418 0.836,0 1.43,0.374 0.605,0.363 0.924,1.012 0.33,0.649 0.33,1.485 0,0.077 -0.011,0.154 0,0.077 -0.011,0.132 h -4.444 q 0.033,0.605 0.275,1.023 0.275,0.473 0.704,0.704 0.44,0.231 0.913,0.231 0.616,0 1.012,-0.286 0.407,-0.297 0.649,-0.726 l 0.792,0.385 q -0.33,0.638 -0.946,1.056 -0.616,0.418 -1.54,0.418 z m -1.804,-3.575 h 3.421 q -0.011,-0.231 -0.11,-0.495 -0.088,-0.275 -0.297,-0.506 -0.198,-0.242 -0.517,-0.385 -0.308,-0.154 -0.77,-0.154 -0.55,0 -0.957,0.286 -0.396,0.275 -0.605,0.759 -0.11,0.231 -0.165,0.495 z"
         id="path1007750" />
      <path
         d="M 814.93697,73.376 V 65.39 h 0.891 v 0.836 h 0.044 q 0.154,-0.264 0.429,-0.495 0.286,-0.231 0.66,-0.374 0.374,-0.143 0.825,-0.143 0.77,0 1.375,0.385 0.605,0.385 0.957,1.056 0.352,0.671 0.352,1.54 0,0.869 -0.352,1.54 -0.352,0.671 -0.957,1.056 -0.605,0.385 -1.375,0.385 -0.671,0 -1.177,-0.308 -0.506,-0.308 -0.737,-0.693 h -0.044 l 0.044,0.77 v 2.431 z m 2.75,-3.047 q 0.484,0 0.902,-0.253 0.429,-0.264 0.682,-0.748 0.264,-0.484 0.264,-1.133 0,-0.66 -0.264,-1.133 -0.253,-0.484 -0.682,-0.737 -0.418,-0.264 -0.902,-0.264 -0.484,0 -0.913,0.264 -0.418,0.253 -0.682,0.737 -0.264,0.473 -0.264,1.133 0,0.66 0.264,1.144 0.264,0.473 0.682,0.737 0.429,0.253 0.913,0.253 z"
         id="path1007752" />
      <path
         d="m 821.44895,71 v -7.876 h 0.935 V 71 Z"
         id="path1007754" />
      <path
         d="m 826.29997,71.176 q -0.847,0 -1.496,-0.396 -0.649,-0.396 -1.023,-1.067 -0.363,-0.682 -0.363,-1.518 0,-0.836 0.363,-1.507 0.374,-0.682 1.023,-1.078 0.649,-0.396 1.496,-0.396 0.847,0 1.496,0.407 0.649,0.396 1.012,1.078 0.374,0.671 0.374,1.496 0,0.836 -0.374,1.518 -0.363,0.671 -1.012,1.067 -0.649,0.396 -1.496,0.396 z m 0,-0.847 q 0.506,0 0.946,-0.253 0.451,-0.253 0.726,-0.726 0.275,-0.484 0.275,-1.155 0,-0.671 -0.275,-1.144 -0.275,-0.484 -0.726,-0.737 -0.44,-0.253 -0.946,-0.253 -0.506,0 -0.957,0.253 -0.451,0.253 -0.726,0.737 -0.275,0.473 -0.275,1.144 0,0.671 0.275,1.155 0.275,0.473 0.726,0.726 0.451,0.253 0.957,0.253 z"
         id="path1007756" />
      <path
         d="m 831.65697,73.09 q -0.033,0.077 -0.077,0.165 -0.044,0.099 -0.055,0.121 h -0.968 q 0.066,-0.143 0.143,-0.319 0.077,-0.165 0.187,-0.407 0.066,-0.143 0.121,-0.264 0.055,-0.121 0.121,-0.275 0.077,-0.143 0.176,-0.363 l 0.506,-1.1 -2.321,-5.258 h 1.012 l 1.76,4.169 h 0.022 l 1.694,-4.169 h 1.012 l -2.904,6.699 q -0.044,0.099 -0.143,0.308 -0.088,0.22 -0.176,0.418 -0.077,0.209 -0.11,0.275 z"
         id="path1007758" />
      <path
         d="m 837.32198,71.176 q -0.627,0 -1.1,-0.242 -0.473,-0.242 -0.748,-0.66 -0.264,-0.429 -0.264,-0.968 0,-0.616 0.319,-1.034 0.319,-0.429 0.858,-0.638 0.539,-0.22 1.188,-0.22 0.374,0 0.693,0.066 0.319,0.055 0.55,0.143 0.242,0.077 0.363,0.154 v -0.341 q 0,-0.638 -0.451,-1.012 -0.451,-0.374 -1.1,-0.374 -0.462,0 -0.869,0.209 -0.396,0.198 -0.627,0.561 l -0.704,-0.528 q 0.22,-0.33 0.55,-0.572 0.33,-0.242 0.748,-0.374 0.429,-0.132 0.902,-0.132 1.144,0 1.793,0.605 0.649,0.605 0.649,1.628 V 71 h -0.891 v -0.803 h -0.044 q -0.143,0.242 -0.407,0.473 -0.264,0.22 -0.627,0.363 -0.352,0.143 -0.781,0.143 z m 0.088,-0.825 q 0.484,0 0.88,-0.242 0.407,-0.242 0.649,-0.649 0.242,-0.407 0.242,-0.891 -0.253,-0.176 -0.638,-0.286 -0.374,-0.11 -0.825,-0.11 -0.803,0 -1.177,0.33 -0.374,0.33 -0.374,0.814 0,0.462 0.352,0.748 0.352,0.286 0.891,0.286 z"
         id="path1007760" />
      <path
         d="m 844.21899,71.176 q -0.451,0 -0.825,-0.143 -0.374,-0.143 -0.66,-0.374 -0.275,-0.231 -0.429,-0.484 h -0.044 V 71 h -0.891 v -7.876 h 0.935 v 2.321 l -0.044,0.781 h 0.044 q 0.154,-0.264 0.429,-0.495 0.286,-0.231 0.66,-0.374 0.374,-0.143 0.825,-0.143 0.77,0 1.375,0.385 0.605,0.385 0.957,1.056 0.352,0.671 0.352,1.54 0,0.869 -0.352,1.54 -0.352,0.671 -0.957,1.056 -0.605,0.385 -1.375,0.385 z m -0.099,-0.847 q 0.484,0 0.902,-0.253 0.429,-0.264 0.682,-0.748 0.264,-0.484 0.264,-1.133 0,-0.66 -0.264,-1.133 -0.253,-0.484 -0.682,-0.737 -0.418,-0.264 -0.902,-0.264 -0.484,0 -0.913,0.264 -0.418,0.253 -0.682,0.737 -0.264,0.473 -0.264,1.133 0,0.66 0.264,1.144 0.264,0.473 0.682,0.737 0.429,0.253 0.913,0.253 z"
         id="path1007762" />
      <path
         d="m 847.93699,71 v -7.876 h 0.935 V 71 Z"
         id="path1007764" />
      <path
         d="m 852.7,71.176 q -0.814,0 -1.452,-0.385 -0.627,-0.385 -0.99,-1.056 -0.352,-0.671 -0.352,-1.529 0,-0.803 0.33,-1.485 0.341,-0.682 0.946,-1.089 0.616,-0.418 1.441,-0.418 0.836,0 1.43,0.374 0.605,0.363 0.924,1.012 0.33,0.649 0.33,1.485 0,0.077 -0.011,0.154 0,0.077 -0.011,0.132 h -4.444 q 0.033,0.605 0.275,1.023 0.275,0.473 0.704,0.704 0.44,0.231 0.913,0.231 0.616,0 1.012,-0.286 0.407,-0.297 0.649,-0.726 l 0.792,0.385 q -0.33,0.638 -0.946,1.056 -0.616,0.418 -1.54,0.418 z m -1.804,-3.575 h 3.421 q -0.011,-0.231 -0.11,-0.495 -0.088,-0.275 -0.297,-0.506 -0.198,-0.242 -0.517,-0.385 -0.308,-0.154 -0.77,-0.154 -0.55,0 -0.957,0.286 -0.396,0.275 -0.605,0.759 -0.11,0.231 -0.165,0.495 z"
         id="path1007766" />
    </g>
    <path
       id="Oval-2-Copy"
       style="fill:#90caf9"
       d="m 768,112 a 19,19 0 0 1 -19,19 19,19 0 0 1 -19,-19 19,19 0 0 1 19,-19 19,19 0 0 1 19,19 z" />
    <g
       aria-label="R"
       id="R"
       style="font-size:16px;font-family:Roboto-Regular, Roboto;fill:#ffffff">
      <path
         d="M 751.96875,118 749.5,113.39063 h -2.67188 V 118 h -1.50781 v -11.375 h 3.76563 q 1.91406,0 2.94531,0.875 1.03906,0.875 1.03906,2.53906 0,1.0625 -0.57812,1.85938 -0.57032,0.78906 -1.58594,1.17969 l 2.67187,4.82812 V 118 Z m -5.14063,-10.14062 v 4.30468 h 2.30469 q 1.21094,0 1.82031,-0.61718 0.61719,-0.625 0.61719,-1.50782 0,-0.98437 -0.59375,-1.57812 -0.58594,-0.60156 -1.89062,-0.60156 z"
         id="path1007770" />
    </g>
    <path
       d="M 471.87444,264.17787 444,320.20519"
       id="Line-2"
       stroke="#9cadb5"
       stroke-width="2"
       stroke-linecap="square"
       stroke-dasharray="4.2, 7.56" />
    <path
       d="m 290,175 33.5,140.5"
       id="path1007656"
       stroke="#9cadb5"
       stroke-width="2"
       stroke-linecap="square"
       stroke-dasharray="4.2, 7.56" />
    <g
       id="arrow"
       transform="matrix(1,0,0,-1,122,334)"
       stroke="#9cadb5"
       stroke-linecap="square"
       stroke-width="6">
      <path
         d="M 0.25161187,10.5 H 803.44616"
         id="Line" />
    </g>
    <path
       d="m 195.77604,318 v 0 -60.592 -64.88187 c 0,-10.61198 8.55928,-19.23756 19.17094,-19.31943 L 221,173.16 l 338,0.19461 2.46,-0.19461"
       id="path1007660"
       stroke="#9cadb5"
       stroke-width="6"
       stroke-linecap="square"
       stroke-dasharray="0.84" />
    <path
       d="m 388.77604,320.5 v 0 -42.64482 c 0,-10.62564 8.58053,-19.25696 19.20599,-19.31967 L 414,258.5 635.35728,258.64886 649,258.66"
       id="path1007662"
       stroke="#9cadb5"
       stroke-width="6"
       stroke-linecap="square"
       stroke-dasharray="0.84" />
    <g
       aria-label="Release 1.0.x"
       id="Release-1.0.x"
       style="font-size:12px;font-family:GoogleSans-Regular, 'Google Sans';fill:#3c4043">
      <path
         d="m 437.69999,160 v -8.592 h 2.904 q 0.72,0 1.32,0.324 0.612,0.324 0.972,0.9 0.372,0.564 0.372,1.32 0,0.456 -0.168,0.912 -0.168,0.444 -0.528,0.816 -0.348,0.372 -0.888,0.588 -0.24,0.096 -0.504,0.156 l 2.424,3.528 V 160 h -1.2 l -2.34,-3.504 h -1.344 V 160 Z m 1.02,-4.452 h 1.824 q 0.444,0 0.828,-0.204 0.384,-0.204 0.624,-0.564 0.24,-0.36 0.24,-0.828 0,-0.384 -0.204,-0.744 -0.192,-0.36 -0.552,-0.588 -0.36,-0.24 -0.864,-0.24 h -1.896 z"
         id="path1007773" />
      <path
         d="m 447.13199,160.192 q -0.888,0 -1.584,-0.42 -0.684,-0.42 -1.08,-1.152 -0.384,-0.732 -0.384,-1.668 0,-0.876 0.36,-1.62 0.372,-0.744 1.032,-1.188 0.672,-0.456 1.572,-0.456 0.912,0 1.56,0.408 0.66,0.396 1.008,1.104 0.36,0.708 0.36,1.62 0,0.084 -0.012,0.168 0,0.084 -0.012,0.144 h -4.848 q 0.036,0.66 0.3,1.116 0.3,0.516 0.768,0.768 0.48,0.252 0.996,0.252 0.672,0 1.104,-0.312 0.444,-0.324 0.708,-0.792 l 0.864,0.42 q -0.36,0.696 -1.032,1.152 -0.672,0.456 -1.68,0.456 z m -1.968,-3.9 h 3.732 q -0.012,-0.252 -0.12,-0.54 -0.096,-0.3 -0.324,-0.552 -0.216,-0.264 -0.564,-0.42 -0.336,-0.168 -0.84,-0.168 -0.6,0 -1.044,0.312 -0.432,0.3 -0.66,0.828 -0.12,0.252 -0.18,0.54 z"
         id="path1007775" />
      <path
         d="m 451.16399,160 v -8.592 h 1.02 V 160 Z"
         id="path1007777" />
      <path
         d="m 456.36,160.192 q -0.888,0 -1.584,-0.42 -0.684,-0.42 -1.08,-1.152 -0.384,-0.732 -0.384,-1.668 0,-0.876 0.36,-1.62 0.372,-0.744 1.032,-1.188 0.672,-0.456 1.572,-0.456 0.912,0 1.56,0.408 0.66,0.396 1.008,1.104 0.36,0.708 0.36,1.62 0,0.084 -0.012,0.168 0,0.084 -0.012,0.144 h -4.848 q 0.036,0.66 0.3,1.116 0.3,0.516 0.768,0.768 0.48,0.252 0.996,0.252 0.672,0 1.104,-0.312 0.444,-0.324 0.708,-0.792 l 0.864,0.42 q -0.36,0.696 -1.032,1.152 -0.672,0.456 -1.68,0.456 z m -1.968,-3.9 h 3.732 q -0.012,-0.252 -0.12,-0.54 -0.096,-0.3 -0.324,-0.552 -0.216,-0.264 -0.564,-0.42 -0.336,-0.168 -0.84,-0.168 -0.6,0 -1.044,0.312 -0.432,0.3 -0.66,0.828 -0.12,0.252 -0.18,0.54 z"
         id="path1007779" />
      <path
         d="m 462.40799,160.192 q -0.684,0 -1.2,-0.264 -0.516,-0.264 -0.816,-0.72 -0.288,-0.468 -0.288,-1.056 0,-0.672 0.348,-1.128 0.348,-0.468 0.936,-0.696 0.588,-0.24 1.296,-0.24 0.408,0 0.756,0.072 0.348,0.06 0.6,0.156 0.264,0.084 0.396,0.168 v -0.372 q 0,-0.696 -0.492,-1.104 -0.492,-0.408 -1.2,-0.408 -0.504,0 -0.948,0.228 -0.432,0.216 -0.684,0.612 l -0.768,-0.576 q 0.24,-0.36 0.6,-0.624 0.36,-0.264 0.816,-0.408 0.468,-0.144 0.984,-0.144 1.248,0 1.956,0.66 0.708,0.66 0.708,1.776 V 160 h -0.972 v -0.876 h -0.048 q -0.156,0.264 -0.444,0.516 -0.288,0.24 -0.684,0.396 -0.384,0.156 -0.852,0.156 z m 0.096,-0.9 q 0.528,0 0.96,-0.264 0.444,-0.264 0.708,-0.708 0.264,-0.444 0.264,-0.972 -0.276,-0.192 -0.696,-0.312 -0.408,-0.12 -0.9,-0.12 -0.876,0 -1.284,0.36 -0.408,0.36 -0.408,0.888 0,0.504 0.384,0.816 0.384,0.312 0.972,0.312 z"
         id="path1007781" />
      <path
         d="m 468.9,160.192 q -0.684,0 -1.212,-0.216 -0.516,-0.228 -0.864,-0.6 -0.336,-0.384 -0.504,-0.828 l 0.912,-0.408 q 0.24,0.552 0.696,0.852 0.456,0.3 1.044,0.3 0.564,0 0.936,-0.228 0.384,-0.228 0.384,-0.672 0,-0.276 -0.156,-0.456 -0.156,-0.192 -0.456,-0.324 -0.3,-0.132 -0.732,-0.24 l -0.744,-0.192 q -0.432,-0.12 -0.816,-0.336 -0.384,-0.216 -0.624,-0.552 -0.228,-0.348 -0.228,-0.84 0,-0.552 0.324,-0.948 0.324,-0.396 0.852,-0.6 0.528,-0.216 1.128,-0.216 0.528,0 0.984,0.156 0.468,0.144 0.816,0.444 0.348,0.288 0.528,0.72 l -0.888,0.408 q -0.228,-0.456 -0.612,-0.636 -0.384,-0.18 -0.852,-0.18 -0.504,0 -0.876,0.228 -0.372,0.216 -0.372,0.6 0,0.384 0.3,0.576 0.312,0.192 0.756,0.312 l 0.888,0.228 q 0.9,0.228 1.356,0.684 0.456,0.444 0.456,1.092 0,0.576 -0.324,0.996 -0.324,0.42 -0.876,0.648 -0.552,0.228 -1.224,0.228 z"
         id="path1007783" />
      <path
         d="m 475.22399,160.192 q -0.888,0 -1.584,-0.42 -0.684,-0.42 -1.08,-1.152 -0.384,-0.732 -0.384,-1.668 0,-0.876 0.36,-1.62 0.372,-0.744 1.032,-1.188 0.672,-0.456 1.572,-0.456 0.912,0 1.56,0.408 0.66,0.396 1.008,1.104 0.36,0.708 0.36,1.62 0,0.084 -0.012,0.168 0,0.084 -0.012,0.144 h -4.848 q 0.036,0.66 0.3,1.116 0.3,0.516 0.768,0.768 0.48,0.252 0.996,0.252 0.672,0 1.104,-0.312 0.444,-0.324 0.708,-0.792 l 0.864,0.42 q -0.36,0.696 -1.032,1.152 -0.672,0.456 -1.68,0.456 z m -1.968,-3.9 h 3.732 q -0.012,-0.252 -0.12,-0.54 -0.096,-0.3 -0.324,-0.552 -0.216,-0.264 -0.564,-0.42 -0.336,-0.168 -0.84,-0.168 -0.6,0 -1.044,0.312 -0.432,0.3 -0.66,0.828 -0.12,0.252 -0.18,0.54 z"
         id="path1007785" />
      <path
         d="m 483.79199,160 v -6.78 l -1.44,1.032 -0.528,-0.78 2.34,-1.68 h 0.648 V 160 Z"
         id="path1007787" />
      <path
         d="m 487.27198,160.072 q -0.324,0 -0.552,-0.216 -0.216,-0.228 -0.216,-0.552 0,-0.312 0.216,-0.528 0.228,-0.228 0.552,-0.228 0.324,0 0.54,0.228 0.228,0.216 0.228,0.528 0,0.324 -0.228,0.552 -0.216,0.216 -0.54,0.216 z"
         id="path1007789" />
      <path
         d="m 492.56399,160.192 q -0.756,0 -1.356,-0.324 -0.6,-0.336 -1.032,-0.924 -0.432,-0.588 -0.66,-1.368 -0.228,-0.78 -0.228,-1.68 0,-0.9 0.228,-1.68 0.228,-0.78 0.66,-1.368 0.432,-0.588 1.032,-0.912 0.6,-0.336 1.356,-0.336 0.756,0 1.356,0.336 0.612,0.324 1.044,0.912 0.432,0.588 0.66,1.368 0.228,0.78 0.228,1.68 0,0.9 -0.228,1.68 -0.228,0.78 -0.66,1.368 -0.432,0.588 -1.044,0.924 -0.6,0.324 -1.356,0.324 z m 0,-0.972 q 0.696,0 1.2,-0.444 0.504,-0.444 0.768,-1.2 0.276,-0.756 0.276,-1.68 0,-0.936 -0.276,-1.692 -0.264,-0.756 -0.768,-1.188 -0.504,-0.444 -1.2,-0.444 -0.696,0 -1.2,0.444 -0.492,0.432 -0.768,1.188 -0.264,0.756 -0.264,1.692 0,0.924 0.264,1.68 0.276,0.756 0.768,1.2 0.504,0.444 1.2,0.444 z"
         id="path1007791" />
      <path
         d="m 497.86799,160.072 q -0.324,0 -0.552,-0.216 -0.216,-0.228 -0.216,-0.552 0,-0.312 0.216,-0.528 0.228,-0.228 0.552,-0.228 0.324,0 0.54,0.228 0.228,0.216 0.228,0.528 0,0.324 -0.228,0.552 -0.216,0.216 -0.54,0.216 z"
         id="path1007793" />
      <path
         d="m 499.45201,160 2.16,-3.108 -2.112,-3.012 h 1.152 l 1.584,2.268 1.512,-2.268 h 1.2 l -2.148,3.012 2.184,3.108 h -1.188 l -1.584,-2.352 -1.572,2.352 z"
         id="path1007795" />
    </g>
    <g
       aria-label="Mergebugfix"
       id="Merge-bugfix"
       style="font-size:12px;font-family:GoogleSans-Regular, 'Google Sans';fill:#3c4043">
      <path
         d="m 327.676,230 v -8.592 h 1.476 l 2.736,7.044 h 0.048 l 2.736,-7.044 h 1.476 V 230 h -1.008 v -5.46 l 0.048,-1.632 H 335.14 L 332.332,230 h -0.84 l -2.808,-7.092 h -0.048 l 0.048,1.632 V 230 Z"
         id="path1007798" />
      <path
         d="m 340.46799,230.192 q -0.888,0 -1.584,-0.42 -0.684,-0.42 -1.08,-1.152 -0.384,-0.732 -0.384,-1.668 0,-0.876 0.36,-1.62 0.372,-0.744 1.032,-1.188 0.672,-0.456 1.572,-0.456 0.912,0 1.56,0.408 0.66,0.396 1.008,1.104 0.36,0.708 0.36,1.62 0,0.084 -0.012,0.168 0,0.084 -0.012,0.144 h -4.848 q 0.036,0.66 0.3,1.116 0.3,0.516 0.768,0.768 0.48,0.252 0.996,0.252 0.672,0 1.104,-0.312 0.444,-0.324 0.708,-0.792 l 0.864,0.42 q -0.36,0.696 -1.032,1.152 -0.672,0.456 -1.68,0.456 z m -1.968,-3.9 h 3.732 q -0.012,-0.252 -0.12,-0.54 -0.096,-0.3 -0.324,-0.552 -0.216,-0.264 -0.564,-0.42 -0.336,-0.168 -0.84,-0.168 -0.6,0 -1.044,0.312 -0.432,0.3 -0.66,0.828 -0.12,0.252 -0.18,0.54 z"
         id="path1007800" />
      <path
         d="m 344.49999,230 v -6.12 h 0.972 v 0.984 h 0.048 q 0.12,-0.348 0.396,-0.6 0.288,-0.264 0.648,-0.408 0.372,-0.156 0.732,-0.156 0.276,0 0.432,0.036 0.156,0.024 0.288,0.084 v 1.104 q -0.192,-0.096 -0.42,-0.144 -0.216,-0.048 -0.444,-0.048 -0.444,0 -0.816,0.252 -0.372,0.252 -0.6,0.672 -0.216,0.42 -0.216,0.924 V 230 Z"
         id="path1007802" />
      <path
         d="m 351.38799,232.784 q -0.78,0 -1.344,-0.264 -0.552,-0.252 -0.9,-0.648 -0.336,-0.396 -0.48,-0.804 l 0.936,-0.396 q 0.192,0.504 0.648,0.84 0.468,0.348 1.14,0.348 0.96,0 1.476,-0.564 0.516,-0.552 0.516,-1.548 v -0.684 h -0.048 q -0.288,0.444 -0.828,0.756 -0.54,0.3 -1.26,0.3 -0.792,0 -1.452,-0.408 -0.648,-0.408 -1.032,-1.128 -0.384,-0.732 -0.384,-1.68 0,-0.948 0.384,-1.668 0.384,-0.732 1.032,-1.14 0.66,-0.408 1.452,-0.408 0.72,0 1.26,0.312 0.54,0.3 0.828,0.756 h 0.048 v -0.876 h 0.972 v 5.88 q 0,1.02 -0.396,1.692 -0.384,0.672 -1.056,0.996 -0.66,0.336 -1.512,0.336 z m 0,-3.588 q 0.54,0 0.996,-0.264 0.456,-0.276 0.72,-0.792 0.276,-0.516 0.276,-1.236 0,-0.744 -0.276,-1.248 -0.264,-0.516 -0.72,-0.78 -0.456,-0.264 -0.996,-0.264 -0.54,0 -0.996,0.276 -0.456,0.264 -0.732,0.78 -0.276,0.504 -0.276,1.236 0,0.732 0.276,1.248 0.276,0.504 0.732,0.78 0.456,0.264 0.996,0.264 z"
         id="path1007804" />
      <path
         d="m 358.528,230.192 q -0.888,0 -1.584,-0.42 -0.684,-0.42 -1.08,-1.152 -0.384,-0.732 -0.384,-1.668 0,-0.876 0.36,-1.62 0.372,-0.744 1.032,-1.188 0.672,-0.456 1.572,-0.456 0.912,0 1.56,0.408 0.66,0.396 1.008,1.104 0.36,0.708 0.36,1.62 0,0.084 -0.012,0.168 0,0.084 -0.012,0.144 H 356.5 q 0.036,0.66 0.3,1.116 0.3,0.516 0.768,0.768 0.48,0.252 0.996,0.252 0.672,0 1.104,-0.312 0.444,-0.324 0.708,-0.792 l 0.864,0.42 q -0.36,0.696 -1.032,1.152 -0.672,0.456 -1.68,0.456 z m -1.968,-3.9 h 3.732 q -0.012,-0.252 -0.12,-0.54 -0.096,-0.3 -0.324,-0.552 -0.216,-0.264 -0.564,-0.42 -0.336,-0.168 -0.84,-0.168 -0.6,0 -1.044,0.312 -0.432,0.3 -0.66,0.828 -0.12,0.252 -0.18,0.54 z"
         id="path1007806" />
      <path
         d="m 331.31801,246.192 q -0.492,0 -0.9,-0.156 -0.408,-0.156 -0.72,-0.408 -0.3,-0.252 -0.468,-0.528 h -0.048 v 0.9 h -0.972 v -8.592 h 1.02 v 2.532 l -0.048,0.852 h 0.048 q 0.168,-0.288 0.468,-0.54 0.312,-0.252 0.72,-0.408 0.408,-0.156 0.9,-0.156 0.84,0 1.5,0.42 0.66,0.42 1.044,1.152 0.384,0.732 0.384,1.68 0,0.948 -0.384,1.68 -0.384,0.732 -1.044,1.152 -0.66,0.42 -1.5,0.42 z m -0.108,-0.924 q 0.528,0 0.984,-0.276 0.468,-0.288 0.744,-0.816 0.288,-0.528 0.288,-1.236 0,-0.72 -0.288,-1.236 -0.276,-0.528 -0.744,-0.804 -0.456,-0.288 -0.984,-0.288 -0.528,0 -0.996,0.288 -0.456,0.276 -0.744,0.804 -0.288,0.516 -0.288,1.236 0,0.72 0.288,1.248 0.288,0.516 0.744,0.804 0.468,0.276 0.996,0.276 z"
         id="path1007808" />
      <path
         d="m 337.59401,246.192 q -1.128,0 -1.704,-0.66 -0.564,-0.66 -0.564,-1.8 v -3.852 h 1.02 v 3.696 q 0,0.912 0.42,1.308 0.42,0.384 1.044,0.384 0.54,0 0.936,-0.276 0.396,-0.288 0.612,-0.732 0.216,-0.444 0.216,-0.924 v -3.456 h 1.02 V 246 h -0.972 v -0.888 h -0.048 q -0.156,0.288 -0.468,0.54 -0.3,0.24 -0.696,0.384 -0.384,0.156 -0.816,0.156 z"
         id="path1007810" />
      <path
         d="m 344.73403,248.784 q -0.78,0 -1.344,-0.264 -0.552,-0.252 -0.9,-0.648 -0.336,-0.396 -0.48,-0.804 l 0.936,-0.396 q 0.192,0.504 0.648,0.84 0.468,0.348 1.14,0.348 0.96,0 1.476,-0.564 0.516,-0.552 0.516,-1.548 v -0.684 h -0.048 q -0.288,0.444 -0.828,0.756 -0.54,0.3 -1.26,0.3 -0.792,0 -1.452,-0.408 -0.648,-0.408 -1.032,-1.128 -0.384,-0.732 -0.384,-1.68 0,-0.948 0.384,-1.668 0.384,-0.732 1.032,-1.14 0.66,-0.408 1.452,-0.408 0.72,0 1.26,0.312 0.54,0.3 0.828,0.756 h 0.048 v -0.876 h 0.972 v 5.88 q 0,1.02 -0.396,1.692 -0.384,0.672 -1.056,0.996 -0.66,0.336 -1.512,0.336 z m 0,-3.588 q 0.54,0 0.996,-0.264 0.456,-0.276 0.72,-0.792 0.276,-0.516 0.276,-1.236 0,-0.744 -0.276,-1.248 -0.264,-0.516 -0.72,-0.78 -0.456,-0.264 -0.996,-0.264 -0.54,0 -0.996,0.276 -0.456,0.264 -0.732,0.78 -0.276,0.504 -0.276,1.236 0,0.732 0.276,1.248 0.276,0.504 0.732,0.78 0.456,0.264 0.996,0.264 z"
         id="path1007812" />
      <path
         d="m 348.79003,240.804 v -0.924 h 1.128 v -0.66 q 0,-0.6 0.264,-1.02 0.264,-0.432 0.708,-0.66 0.456,-0.228 0.984,-0.228 0.348,0 0.552,0.048 0.204,0.036 0.348,0.096 v 0.996 q -0.156,-0.06 -0.36,-0.12 -0.204,-0.072 -0.504,-0.072 -0.24,0 -0.468,0.12 -0.228,0.12 -0.372,0.36 -0.132,0.228 -0.132,0.588 v 0.552 h 3.792 V 246 h -1.02 v -5.196 h -2.772 V 246 h -1.02 v -5.196 z m 5.424,-2.052 q -0.3,0 -0.516,-0.216 -0.216,-0.216 -0.216,-0.516 0,-0.312 0.216,-0.516 0.216,-0.216 0.516,-0.216 0.312,0 0.516,0.216 0.216,0.204 0.216,0.516 0,0.3 -0.216,0.516 -0.204,0.216 -0.516,0.216 z"
         id="path1007814" />
      <path
         d="m 355.72604,246 2.16,-3.108 -2.112,-3.012 h 1.152 l 1.584,2.268 1.512,-2.268 h 1.2 l -2.148,3.012 2.184,3.108 h -1.188 l -1.584,-2.352 -1.572,2.352 z"
         id="path1007816" />
    </g>
    <g
       aria-label="Mergebugfix"
       id="text1007676"
       style="font-size:12px;font-family:GoogleSans-Regular, 'Google Sans';fill:#3c4043">
      <path
         d="m 466.676,296 v -8.592 h 1.476 l 2.736,7.044 h 0.048 l 2.736,-7.044 h 1.476 V 296 h -1.008 v -5.46 l 0.048,-1.632 H 474.14 L 471.332,296 h -0.84 l -2.808,-7.092 h -0.048 l 0.048,1.632 V 296 Z"
         id="path1007819" />
      <path
         d="m 479.46799,296.192 q -0.888,0 -1.584,-0.42 -0.684,-0.42 -1.08,-1.152 -0.384,-0.732 -0.384,-1.668 0,-0.876 0.36,-1.62 0.372,-0.744 1.032,-1.188 0.672,-0.456 1.572,-0.456 0.912,0 1.56,0.408 0.66,0.396 1.008,1.104 0.36,0.708 0.36,1.62 0,0.084 -0.012,0.168 0,0.084 -0.012,0.144 h -4.848 q 0.036,0.66 0.3,1.116 0.3,0.516 0.768,0.768 0.48,0.252 0.996,0.252 0.672,0 1.104,-0.312 0.444,-0.324 0.708,-0.792 l 0.864,0.42 q -0.36,0.696 -1.032,1.152 -0.672,0.456 -1.68,0.456 z m -1.968,-3.9 h 3.732 q -0.012,-0.252 -0.12,-0.54 -0.096,-0.3 -0.324,-0.552 -0.216,-0.264 -0.564,-0.42 -0.336,-0.168 -0.84,-0.168 -0.6,0 -1.044,0.312 -0.432,0.3 -0.66,0.828 -0.12,0.252 -0.18,0.54 z"
         id="path1007821" />
      <path
         d="m 483.49999,296 v -6.12 h 0.972 v 0.984 h 0.048 q 0.12,-0.348 0.396,-0.6 0.288,-0.264 0.648,-0.408 0.372,-0.156 0.732,-0.156 0.276,0 0.432,0.036 0.156,0.024 0.288,0.084 v 1.104 q -0.192,-0.096 -0.42,-0.144 -0.216,-0.048 -0.444,-0.048 -0.444,0 -0.816,0.252 -0.372,0.252 -0.6,0.672 -0.216,0.42 -0.216,0.924 V 296 Z"
         id="path1007823" />
      <path
         d="m 490.38799,298.784 q -0.78,0 -1.344,-0.264 -0.552,-0.252 -0.9,-0.648 -0.336,-0.396 -0.48,-0.804 l 0.936,-0.396 q 0.192,0.504 0.648,0.84 0.468,0.348 1.14,0.348 0.96,0 1.476,-0.564 0.516,-0.552 0.516,-1.548 v -0.684 h -0.048 q -0.288,0.444 -0.828,0.756 -0.54,0.3 -1.26,0.3 -0.792,0 -1.452,-0.408 -0.648,-0.408 -1.032,-1.128 -0.384,-0.732 -0.384,-1.68 0,-0.948 0.384,-1.668 0.384,-0.732 1.032,-1.14 0.66,-0.408 1.452,-0.408 0.72,0 1.26,0.312 0.54,0.3 0.828,0.756 h 0.048 v -0.876 h 0.972 v 5.88 q 0,1.02 -0.396,1.692 -0.384,0.672 -1.056,0.996 -0.66,0.336 -1.512,0.336 z m 0,-3.588 q 0.54,0 0.996,-0.264 0.456,-0.276 0.72,-0.792 0.276,-0.516 0.276,-1.236 0,-0.744 -0.276,-1.248 -0.264,-0.516 -0.72,-0.78 -0.456,-0.264 -0.996,-0.264 -0.54,0 -0.996,0.276 -0.456,0.264 -0.732,0.78 -0.276,0.504 -0.276,1.236 0,0.732 0.276,1.248 0.276,0.504 0.732,0.78 0.456,0.264 0.996,0.264 z"
         id="path1007825" />
      <path
         d="m 497.528,296.192 q -0.888,0 -1.584,-0.42 -0.684,-0.42 -1.08,-1.152 -0.384,-0.732 -0.384,-1.668 0,-0.876 0.36,-1.62 0.372,-0.744 1.032,-1.188 0.672,-0.456 1.572,-0.456 0.912,0 1.56,0.408 0.66,0.396 1.008,1.104 0.36,0.708 0.36,1.62 0,0.084 -0.012,0.168 0,0.084 -0.012,0.144 H 495.5 q 0.036,0.66 0.3,1.116 0.3,0.516 0.768,0.768 0.48,0.252 0.996,0.252 0.672,0 1.104,-0.312 0.444,-0.324 0.708,-0.792 l 0.864,0.42 q -0.36,0.696 -1.032,1.152 -0.672,0.456 -1.68,0.456 z m -1.968,-3.9 h 3.732 q -0.012,-0.252 -0.12,-0.54 -0.096,-0.3 -0.324,-0.552 -0.216,-0.264 -0.564,-0.42 -0.336,-0.168 -0.84,-0.168 -0.6,0 -1.044,0.312 -0.432,0.3 -0.66,0.828 -0.12,0.252 -0.18,0.54 z"
         id="path1007827" />
      <path
         d="m 470.31801,312.192 q -0.492,0 -0.9,-0.156 -0.408,-0.156 -0.72,-0.408 -0.3,-0.252 -0.468,-0.528 h -0.048 v 0.9 h -0.972 v -8.592 h 1.02 v 2.532 l -0.048,0.852 h 0.048 q 0.168,-0.288 0.468,-0.54 0.312,-0.252 0.72,-0.408 0.408,-0.156 0.9,-0.156 0.84,0 1.5,0.42 0.66,0.42 1.044,1.152 0.384,0.732 0.384,1.68 0,0.948 -0.384,1.68 -0.384,0.732 -1.044,1.152 -0.66,0.42 -1.5,0.42 z m -0.108,-0.924 q 0.528,0 0.984,-0.276 0.468,-0.288 0.744,-0.816 0.288,-0.528 0.288,-1.236 0,-0.72 -0.288,-1.236 -0.276,-0.528 -0.744,-0.804 -0.456,-0.288 -0.984,-0.288 -0.528,0 -0.996,0.288 -0.456,0.276 -0.744,0.804 -0.288,0.516 -0.288,1.236 0,0.72 0.288,1.248 0.288,0.516 0.744,0.804 0.468,0.276 0.996,0.276 z"
         id="path1007829" />
      <path
         d="m 476.59401,312.192 q -1.128,0 -1.704,-0.66 -0.564,-0.66 -0.564,-1.8 v -3.852 h 1.02 v 3.696 q 0,0.912 0.42,1.308 0.42,0.384 1.044,0.384 0.54,0 0.936,-0.276 0.396,-0.288 0.612,-0.732 0.216,-0.444 0.216,-0.924 v -3.456 h 1.02 V 312 h -0.972 v -0.888 h -0.048 q -0.156,0.288 -0.468,0.54 -0.3,0.24 -0.696,0.384 -0.384,0.156 -0.816,0.156 z"
         id="path1007831" />
      <path
         d="m 483.73403,314.784 q -0.78,0 -1.344,-0.264 -0.552,-0.252 -0.9,-0.648 -0.336,-0.396 -0.48,-0.804 l 0.936,-0.396 q 0.192,0.504 0.648,0.84 0.468,0.348 1.14,0.348 0.96,0 1.476,-0.564 0.516,-0.552 0.516,-1.548 v -0.684 h -0.048 q -0.288,0.444 -0.828,0.756 -0.54,0.3 -1.26,0.3 -0.792,0 -1.452,-0.408 -0.648,-0.408 -1.032,-1.128 -0.384,-0.732 -0.384,-1.68 0,-0.948 0.384,-1.668 0.384,-0.732 1.032,-1.14 0.66,-0.408 1.452,-0.408 0.72,0 1.26,0.312 0.54,0.3 0.828,0.756 h 0.048 v -0.876 h 0.972 v 5.88 q 0,1.02 -0.396,1.692 -0.384,0.672 -1.056,0.996 -0.66,0.336 -1.512,0.336 z m 0,-3.588 q 0.54,0 0.996,-0.264 0.456,-0.276 0.72,-0.792 0.276,-0.516 0.276,-1.236 0,-0.744 -0.276,-1.248 -0.264,-0.516 -0.72,-0.78 -0.456,-0.264 -0.996,-0.264 -0.54,0 -0.996,0.276 -0.456,0.264 -0.732,0.78 -0.276,0.504 -0.276,1.236 0,0.732 0.276,1.248 0.276,0.504 0.732,0.78 0.456,0.264 0.996,0.264 z"
         id="path1007833" />
      <path
         d="m 487.79003,306.804 v -0.924 h 1.128 v -0.66 q 0,-0.6 0.264,-1.02 0.264,-0.432 0.708,-0.66 0.456,-0.228 0.984,-0.228 0.348,0 0.552,0.048 0.204,0.036 0.348,0.096 v 0.996 q -0.156,-0.06 -0.36,-0.12 -0.204,-0.072 -0.504,-0.072 -0.24,0 -0.468,0.12 -0.228,0.12 -0.372,0.36 -0.132,0.228 -0.132,0.588 v 0.552 h 3.792 V 312 h -1.02 v -5.196 h -2.772 V 312 h -1.02 v -5.196 z m 5.424,-2.052 q -0.3,0 -0.516,-0.216 -0.216,-0.216 -0.216,-0.516 0,-0.312 0.216,-0.516 0.216,-0.216 0.516,-0.216 0.312,0 0.516,0.216 0.216,0.204 0.216,0.516 0,0.3 -0.216,0.516 -0.204,0.216 -0.516,0.216 z"
         id="path1007835" />
      <path
         d="m 494.72604,312 2.16,-3.108 -2.112,-3.012 h 1.152 l 1.584,2.268 1.512,-2.268 h 1.2 l -2.148,3.012 2.184,3.108 h -1.188 l -1.584,-2.352 -1.572,2.352 z"
         id="path1007837" />
    </g>
    <g
       aria-label="Release 1.1.x"
       id="Release-1.1.x"
       style="font-size:12px;font-family:GoogleSans-Regular, 'Google Sans';fill:#3c4043">
      <path
         d="m 537.29002,246 v -8.592 h 2.904 q 0.72,0 1.32,0.324 0.612,0.324 0.972,0.9 0.372,0.564 0.372,1.32 0,0.456 -0.168,0.912 -0.168,0.444 -0.528,0.816 -0.348,0.372 -0.888,0.588 -0.24,0.096 -0.504,0.156 l 2.424,3.528 V 246 h -1.2 l -2.34,-3.504 h -1.344 V 246 Z m 1.02,-4.452 h 1.824 q 0.444,0 0.828,-0.204 0.384,-0.204 0.624,-0.564 0.24,-0.36 0.24,-0.828 0,-0.384 -0.204,-0.744 -0.192,-0.36 -0.552,-0.588 -0.36,-0.24 -0.864,-0.24 h -1.896 z"
         id="path1007840" />
      <path
         d="m 546.72202,246.192 q -0.888,0 -1.584,-0.42 -0.684,-0.42 -1.08,-1.152 -0.384,-0.732 -0.384,-1.668 0,-0.876 0.36,-1.62 0.372,-0.744 1.032,-1.188 0.672,-0.456 1.572,-0.456 0.912,0 1.56,0.408 0.66,0.396 1.008,1.104 0.36,0.708 0.36,1.62 0,0.084 -0.012,0.168 0,0.084 -0.012,0.144 h -4.848 q 0.036,0.66 0.3,1.116 0.3,0.516 0.768,0.768 0.48,0.252 0.996,0.252 0.672,0 1.104,-0.312 0.444,-0.324 0.708,-0.792 l 0.864,0.42 q -0.36,0.696 -1.032,1.152 -0.672,0.456 -1.68,0.456 z m -1.968,-3.9 h 3.732 q -0.012,-0.252 -0.12,-0.54 -0.096,-0.3 -0.324,-0.552 -0.216,-0.264 -0.564,-0.42 -0.336,-0.168 -0.84,-0.168 -0.6,0 -1.044,0.312 -0.432,0.3 -0.66,0.828 -0.12,0.252 -0.18,0.54 z"
         id="path1007842" />
      <path
         d="m 550.75402,246 v -8.592 h 1.02 V 246 Z"
         id="path1007844" />
      <path
         d="m 555.95003,246.192 q -0.888,0 -1.584,-0.42 -0.684,-0.42 -1.08,-1.152 -0.384,-0.732 -0.384,-1.668 0,-0.876 0.36,-1.62 0.372,-0.744 1.032,-1.188 0.672,-0.456 1.572,-0.456 0.912,0 1.56,0.408 0.66,0.396 1.008,1.104 0.36,0.708 0.36,1.62 0,0.084 -0.012,0.168 0,0.084 -0.012,0.144 h -4.848 q 0.036,0.66 0.3,1.116 0.3,0.516 0.768,0.768 0.48,0.252 0.996,0.252 0.672,0 1.104,-0.312 0.444,-0.324 0.708,-0.792 l 0.864,0.42 q -0.36,0.696 -1.032,1.152 -0.672,0.456 -1.68,0.456 z m -1.968,-3.9 h 3.732 q -0.012,-0.252 -0.12,-0.54 -0.096,-0.3 -0.324,-0.552 -0.216,-0.264 -0.564,-0.42 -0.336,-0.168 -0.84,-0.168 -0.6,0 -1.044,0.312 -0.432,0.3 -0.66,0.828 -0.12,0.252 -0.18,0.54 z"
         id="path1007846" />
      <path
         d="m 561.99802,246.192 q -0.684,0 -1.2,-0.264 -0.516,-0.264 -0.816,-0.72 -0.288,-0.468 -0.288,-1.056 0,-0.672 0.348,-1.128 0.348,-0.468 0.936,-0.696 0.588,-0.24 1.296,-0.24 0.408,0 0.756,0.072 0.348,0.06 0.6,0.156 0.264,0.084 0.396,0.168 v -0.372 q 0,-0.696 -0.492,-1.104 -0.492,-0.408 -1.2,-0.408 -0.504,0 -0.948,0.228 -0.432,0.216 -0.684,0.612 l -0.768,-0.576 q 0.24,-0.36 0.6,-0.624 0.36,-0.264 0.816,-0.408 0.468,-0.144 0.984,-0.144 1.248,0 1.956,0.66 0.708,0.66 0.708,1.776 V 246 h -0.972 v -0.876 h -0.048 q -0.156,0.264 -0.444,0.516 -0.288,0.24 -0.684,0.396 -0.384,0.156 -0.852,0.156 z m 0.096,-0.9 q 0.528,0 0.96,-0.264 0.444,-0.264 0.708,-0.708 0.264,-0.444 0.264,-0.972 -0.276,-0.192 -0.696,-0.312 -0.408,-0.12 -0.9,-0.12 -0.876,0 -1.284,0.36 -0.408,0.36 -0.408,0.888 0,0.504 0.384,0.816 0.384,0.312 0.972,0.312 z"
         id="path1007848" />
      <path
         d="m 568.49003,246.192 q -0.684,0 -1.212,-0.216 -0.516,-0.228 -0.864,-0.6 -0.336,-0.384 -0.504,-0.828 l 0.912,-0.408 q 0.24,0.552 0.696,0.852 0.456,0.3 1.044,0.3 0.564,0 0.936,-0.228 0.384,-0.228 0.384,-0.672 0,-0.276 -0.156,-0.456 -0.156,-0.192 -0.456,-0.324 -0.3,-0.132 -0.732,-0.24 l -0.744,-0.192 q -0.432,-0.12 -0.816,-0.336 -0.384,-0.216 -0.624,-0.552 -0.228,-0.348 -0.228,-0.84 0,-0.552 0.324,-0.948 0.324,-0.396 0.852,-0.6 0.528,-0.216 1.128,-0.216 0.528,0 0.984,0.156 0.468,0.144 0.816,0.444 0.348,0.288 0.528,0.72 l -0.888,0.408 q -0.228,-0.456 -0.612,-0.636 -0.384,-0.18 -0.852,-0.18 -0.504,0 -0.876,0.228 -0.372,0.216 -0.372,0.6 0,0.384 0.3,0.576 0.312,0.192 0.756,0.312 l 0.888,0.228 q 0.9,0.228 1.356,0.684 0.456,0.444 0.456,1.092 0,0.576 -0.324,0.996 -0.324,0.42 -0.876,0.648 -0.552,0.228 -1.224,0.228 z"
         id="path1007850" />
      <path
         d="m 574.81401,246.192 q -0.888,0 -1.584,-0.42 -0.684,-0.42 -1.08,-1.152 -0.384,-0.732 -0.384,-1.668 0,-0.876 0.36,-1.62 0.372,-0.744 1.032,-1.188 0.672,-0.456 1.572,-0.456 0.912,0 1.56,0.408 0.66,0.396 1.008,1.104 0.36,0.708 0.36,1.62 0,0.084 -0.012,0.168 0,0.084 -0.012,0.144 h -4.848 q 0.036,0.66 0.3,1.116 0.3,0.516 0.768,0.768 0.48,0.252 0.996,0.252 0.672,0 1.104,-0.312 0.444,-0.324 0.708,-0.792 l 0.864,0.42 q -0.36,0.696 -1.032,1.152 -0.672,0.456 -1.68,0.456 z m -1.968,-3.9 h 3.732 q -0.012,-0.252 -0.12,-0.54 -0.096,-0.3 -0.324,-0.552 -0.216,-0.264 -0.564,-0.42 -0.336,-0.168 -0.84,-0.168 -0.6,0 -1.044,0.312 -0.432,0.3 -0.66,0.828 -0.12,0.252 -0.18,0.54 z"
         id="path1007852" />
      <path
         d="m 583.38202,246 v -6.78 l -1.44,1.032 -0.528,-0.78 2.34,-1.68 h 0.648 V 246 Z"
         id="path1007854" />
      <path
         d="m 586.86201,246.072 q -0.324,0 -0.552,-0.216 -0.216,-0.228 -0.216,-0.552 0,-0.312 0.216,-0.528 0.228,-0.228 0.552,-0.228 0.324,0 0.54,0.228 0.228,0.216 0.228,0.528 0,0.324 -0.228,0.552 -0.216,0.216 -0.54,0.216 z"
         id="path1007856" />
      <path
         d="m 590.31801,246 v -6.78 l -1.44,1.032 -0.528,-0.78 2.34,-1.68 h 0.648 V 246 Z"
         id="path1007858" />
      <path
         d="m 593.798,246.072 q -0.324,0 -0.552,-0.216 -0.216,-0.228 -0.216,-0.552 0,-0.312 0.216,-0.528 0.228,-0.228 0.552,-0.228 0.324,0 0.54,0.228 0.228,0.216 0.228,0.528 0,0.324 -0.228,0.552 -0.216,0.216 -0.54,0.216 z"
         id="path1007860" />
      <path
         d="m 595.38201,246 2.16,-3.108 -2.112,-3.012 h 1.152 l 1.584,2.268 1.512,-2.268 h 1.2 l -2.148,3.012 2.184,3.108 h -1.188 l -1.584,-2.352 -1.572,2.352 z"
         id="path1007862" />
    </g>
    <g
       aria-label="Trunk (developers are allowed to push their changes directly here but must fix problems immediately)"
       id="Trunk-(dev"
       style="font-size:12px;font-family:GoogleSans-Regular, 'Google Sans';fill:#3c4043">
      <path
         d="m 225.618,353 v -7.62 h -2.412 v -0.972 h 5.832 v 0.972 h -2.4 V 353 Z"
         id="path1007865" />
      <path
         d="m 229.386,353 v -6.12 h 0.972 v 0.984 h 0.048 q 0.12,-0.348 0.396,-0.6 0.288,-0.264 0.648,-0.408 0.372,-0.156 0.732,-0.156 0.276,0 0.432,0.036 0.156,0.024 0.288,0.084 v 1.104 q -0.192,-0.096 -0.42,-0.144 -0.216,-0.048 -0.444,-0.048 -0.444,0 -0.816,0.252 -0.372,0.252 -0.6,0.672 -0.216,0.42 -0.216,0.924 V 353 Z"
         id="path1007867" />
      <path
         d="m 236.106,353.192 q -1.128,0 -1.704,-0.66 -0.564,-0.66 -0.564,-1.8 v -3.852 h 1.02 v 3.696 q 0,0.912 0.42,1.308 0.42,0.384 1.044,0.384 0.54,0 0.936,-0.276 0.396,-0.288 0.612,-0.732 0.216,-0.444 0.216,-0.924 v -3.456 h 1.02 V 353 h -0.972 v -0.888 h -0.048 q -0.156,0.288 -0.468,0.54 -0.3,0.24 -0.696,0.384 -0.384,0.156 -0.816,0.156 z"
         id="path1007869" />
      <path
         d="m 240.61801,353 v -6.12 h 0.972 v 0.9 h 0.048 q 0.24,-0.444 0.78,-0.768 0.552,-0.324 1.2,-0.324 1.128,0 1.692,0.66 0.576,0.648 0.576,1.728 V 353 h -1.02 v -3.768 q 0,-0.888 -0.432,-1.248 -0.42,-0.372 -1.092,-0.372 -0.504,0 -0.888,0.288 -0.384,0.276 -0.6,0.72 -0.216,0.444 -0.216,0.936 V 353 Z"
         id="path1007871" />
      <path
         d="m 247.35002,353 v -8.592 h 1.02 v 5.388 l 2.88,-2.916 h 1.296 v 0.048 l -2.412,2.412 2.484,3.612 V 353 h -1.224 l -1.968,-2.94 -1.056,1.056 V 353 Z"
         id="path1007873" />
      <path
         d="m 258.33002,354.632 q -0.36,-0.42 -0.744,-0.996 -0.372,-0.576 -0.684,-1.272 -0.312,-0.708 -0.516,-1.512 -0.192,-0.816 -0.192,-1.716 0,-0.9 0.192,-1.704 0.204,-0.816 0.516,-1.512 0.312,-0.708 0.684,-1.284 0.384,-0.576 0.744,-0.996 l 0.744,0.528 q -0.504,0.6 -0.936,1.392 -0.42,0.792 -0.684,1.704 -0.252,0.912 -0.252,1.872 0,0.96 0.252,1.872 0.264,0.912 0.684,1.704 0.432,0.792 0.936,1.392 z"
         id="path1007875" />
      <path
         d="m 262.67402,353.192 q -0.828,0 -1.5,-0.42 -0.66,-0.42 -1.044,-1.152 -0.384,-0.732 -0.384,-1.68 0,-0.948 0.384,-1.68 0.384,-0.732 1.044,-1.152 0.672,-0.42 1.5,-0.42 0.492,0 0.9,0.156 0.408,0.156 0.708,0.408 0.312,0.252 0.48,0.54 h 0.048 l -0.048,-0.852 v -2.532 h 1.02 V 353 h -0.972 v -0.9 h -0.048 q -0.168,0.276 -0.48,0.528 -0.3,0.252 -0.708,0.408 -0.408,0.156 -0.9,0.156 z m 0.108,-0.924 q 0.528,0 0.984,-0.276 0.468,-0.288 0.756,-0.804 0.288,-0.528 0.288,-1.248 0,-0.72 -0.288,-1.236 -0.288,-0.528 -0.756,-0.804 -0.456,-0.288 -0.984,-0.288 -0.528,0 -0.996,0.288 -0.456,0.276 -0.744,0.804 -0.288,0.516 -0.288,1.236 0,0.708 0.288,1.236 0.288,0.528 0.744,0.816 0.468,0.276 0.996,0.276 z"
         id="path1007877" />
      <path
         d="m 269.95802,353.192 q -0.888,0 -1.584,-0.42 -0.684,-0.42 -1.08,-1.152 -0.384,-0.732 -0.384,-1.668 0,-0.876 0.36,-1.62 0.372,-0.744 1.032,-1.188 0.672,-0.456 1.572,-0.456 0.912,0 1.56,0.408 0.66,0.396 1.008,1.104 0.36,0.708 0.36,1.62 0,0.084 -0.012,0.168 0,0.084 -0.012,0.144 h -4.848 q 0.036,0.66 0.3,1.116 0.3,0.516 0.768,0.768 0.48,0.252 0.996,0.252 0.672,0 1.104,-0.312 0.444,-0.324 0.708,-0.792 l 0.864,0.42 q -0.36,0.696 -1.032,1.152 -0.672,0.456 -1.68,0.456 z m -1.968,-3.9 h 3.732 q -0.012,-0.252 -0.12,-0.54 -0.096,-0.3 -0.324,-0.552 -0.216,-0.264 -0.564,-0.42 -0.336,-0.168 -0.84,-0.168 -0.6,0 -1.044,0.312 -0.432,0.3 -0.66,0.828 -0.12,0.252 -0.18,0.54 z"
         id="path1007879" />
      <path
         d="m 275.67001,353 -2.472,-6.12 h 1.092 l 1.896,4.92 h 0.024 l 1.92,-4.92 h 1.068 l -2.496,6.12 z"
         id="path1007881" />
      <path
         d="m 282.58202,353.192 q -0.888,0 -1.584,-0.42 -0.684,-0.42 -1.08,-1.152 -0.384,-0.732 -0.384,-1.668 0,-0.876 0.36,-1.62 0.372,-0.744 1.032,-1.188 0.672,-0.456 1.572,-0.456 0.912,0 1.56,0.408 0.66,0.396 1.008,1.104 0.36,0.708 0.36,1.62 0,0.084 -0.012,0.168 0,0.084 -0.012,0.144 h -4.848 q 0.036,0.66 0.3,1.116 0.3,0.516 0.768,0.768 0.48,0.252 0.996,0.252 0.672,0 1.104,-0.312 0.444,-0.324 0.708,-0.792 l 0.864,0.42 q -0.36,0.696 -1.032,1.152 -0.672,0.456 -1.68,0.456 z m -1.968,-3.9 h 3.732 q -0.012,-0.252 -0.12,-0.54 -0.096,-0.3 -0.324,-0.552 -0.216,-0.264 -0.564,-0.42 -0.336,-0.168 -0.84,-0.168 -0.6,0 -1.044,0.312 -0.432,0.3 -0.66,0.828 -0.12,0.252 -0.18,0.54 z"
         id="path1007883" />
      <path
         d="m 286.61402,353 v -8.592 h 1.02 V 353 Z"
         id="path1007885" />
      <path
         d="m 291.90603,353.192 q -0.924,0 -1.632,-0.432 -0.708,-0.432 -1.116,-1.164 -0.396,-0.744 -0.396,-1.656 0,-0.912 0.396,-1.644 0.408,-0.744 1.116,-1.176 0.708,-0.432 1.632,-0.432 0.924,0 1.632,0.444 0.708,0.432 1.104,1.176 0.408,0.732 0.408,1.632 0,0.912 -0.408,1.656 -0.396,0.732 -1.104,1.164 -0.708,0.432 -1.632,0.432 z m 0,-0.924 q 0.552,0 1.032,-0.276 0.492,-0.276 0.792,-0.792 0.3,-0.528 0.3,-1.26 0,-0.732 -0.3,-1.248 -0.3,-0.528 -0.792,-0.804 -0.48,-0.276 -1.032,-0.276 -0.552,0 -1.044,0.276 -0.492,0.276 -0.792,0.804 -0.3,0.516 -0.3,1.248 0,0.732 0.3,1.26 0.3,0.516 0.792,0.792 0.492,0.276 1.044,0.276 z"
         id="path1007887" />
      <path
         d="m 296.17805,355.592 v -8.712 h 0.972 v 0.912 h 0.048 q 0.168,-0.288 0.468,-0.54 0.312,-0.252 0.72,-0.408 0.408,-0.156 0.9,-0.156 0.84,0 1.5,0.42 0.66,0.42 1.044,1.152 0.384,0.732 0.384,1.68 0,0.948 -0.384,1.68 -0.384,0.732 -1.044,1.152 -0.66,0.42 -1.5,0.42 -0.732,0 -1.284,-0.336 -0.552,-0.336 -0.804,-0.756 h -0.048 l 0.048,0.84 v 2.652 z m 3,-3.324 q 0.528,0 0.984,-0.276 0.468,-0.288 0.744,-0.816 0.288,-0.528 0.288,-1.236 0,-0.72 -0.288,-1.236 -0.276,-0.528 -0.744,-0.804 -0.456,-0.288 -0.984,-0.288 -0.528,0 -0.996,0.288 -0.456,0.276 -0.744,0.804 -0.288,0.516 -0.288,1.236 0,0.72 0.288,1.248 0.288,0.516 0.744,0.804 0.468,0.276 0.996,0.276 z"
         id="path1007889" />
      <path
         d="m 306.12604,353.192 q -0.888,0 -1.584,-0.42 -0.684,-0.42 -1.08,-1.152 -0.384,-0.732 -0.384,-1.668 0,-0.876 0.36,-1.62 0.372,-0.744 1.032,-1.188 0.672,-0.456 1.572,-0.456 0.912,0 1.56,0.408 0.66,0.396 1.008,1.104 0.36,0.708 0.36,1.62 0,0.084 -0.012,0.168 0,0.084 -0.012,0.144 h -4.848 q 0.036,0.66 0.3,1.116 0.3,0.516 0.768,0.768 0.48,0.252 0.996,0.252 0.672,0 1.104,-0.312 0.444,-0.324 0.708,-0.792 l 0.864,0.42 q -0.36,0.696 -1.032,1.152 -0.672,0.456 -1.68,0.456 z m -1.968,-3.9 h 3.732 q -0.012,-0.252 -0.12,-0.54 -0.096,-0.3 -0.324,-0.552 -0.216,-0.264 -0.564,-0.42 -0.336,-0.168 -0.84,-0.168 -0.6,0 -1.044,0.312 -0.432,0.3 -0.66,0.828 -0.12,0.252 -0.18,0.54 z"
         id="path1007891" />
      <path
         d="m 310.15804,353 v -6.12 h 0.972 v 0.984 h 0.048 q 0.12,-0.348 0.396,-0.6 0.288,-0.264 0.648,-0.408 0.372,-0.156 0.732,-0.156 0.276,0 0.432,0.036 0.156,0.024 0.288,0.084 v 1.104 q -0.192,-0.096 -0.42,-0.144 -0.216,-0.048 -0.444,-0.048 -0.444,0 -0.816,0.252 -0.372,0.252 -0.6,0.672 -0.216,0.42 -0.216,0.924 V 353 Z"
         id="path1007893" />
      <path
         d="m 316.55403,353.192 q -0.684,0 -1.212,-0.216 -0.516,-0.228 -0.864,-0.6 -0.336,-0.384 -0.504,-0.828 l 0.912,-0.408 q 0.24,0.552 0.696,0.852 0.456,0.3 1.044,0.3 0.564,0 0.936,-0.228 0.384,-0.228 0.384,-0.672 0,-0.276 -0.156,-0.456 -0.156,-0.192 -0.456,-0.324 -0.3,-0.132 -0.732,-0.24 l -0.744,-0.192 q -0.432,-0.12 -0.816,-0.336 -0.384,-0.216 -0.624,-0.552 -0.228,-0.348 -0.228,-0.84 0,-0.552 0.324,-0.948 0.324,-0.396 0.852,-0.6 0.528,-0.216 1.128,-0.216 0.528,0 0.984,0.156 0.468,0.144 0.816,0.444 0.348,0.288 0.528,0.72 l -0.888,0.408 q -0.228,-0.456 -0.612,-0.636 -0.384,-0.18 -0.852,-0.18 -0.504,0 -0.876,0.228 -0.372,0.216 -0.372,0.6 0,0.384 0.3,0.576 0.312,0.192 0.756,0.312 l 0.888,0.228 q 0.9,0.228 1.356,0.684 0.456,0.444 0.456,1.092 0,0.576 -0.324,0.996 -0.324,0.42 -0.876,0.648 -0.552,0.228 -1.224,0.228 z"
         id="path1007895" />
      <path
         d="m 324.83403,353.192 q -0.684,0 -1.2,-0.264 -0.516,-0.264 -0.816,-0.72 -0.288,-0.468 -0.288,-1.056 0,-0.672 0.348,-1.128 0.348,-0.468 0.936,-0.696 0.588,-0.24 1.296,-0.24 0.408,0 0.756,0.072 0.348,0.06 0.6,0.156 0.264,0.084 0.396,0.168 v -0.372 q 0,-0.696 -0.492,-1.104 -0.492,-0.408 -1.2,-0.408 -0.504,0 -0.948,0.228 -0.432,0.216 -0.684,0.612 l -0.768,-0.576 q 0.24,-0.36 0.6,-0.624 0.36,-0.264 0.816,-0.408 0.468,-0.144 0.984,-0.144 1.248,0 1.956,0.66 0.708,0.66 0.708,1.776 V 353 h -0.972 v -0.876 h -0.048 q -0.156,0.264 -0.444,0.516 -0.288,0.24 -0.684,0.396 -0.384,0.156 -0.852,0.156 z m 0.096,-0.9 q 0.528,0 0.96,-0.264 0.444,-0.264 0.708,-0.708 0.264,-0.444 0.264,-0.972 -0.276,-0.192 -0.696,-0.312 -0.408,-0.12 -0.9,-0.12 -0.876,0 -1.284,0.36 -0.408,0.36 -0.408,0.888 0,0.504 0.384,0.816 0.384,0.312 0.972,0.312 z"
         id="path1007897" />
      <path
         d="m 329.25003,353 v -6.12 h 0.972 v 0.984 h 0.048 q 0.12,-0.348 0.396,-0.6 0.288,-0.264 0.648,-0.408 0.372,-0.156 0.732,-0.156 0.276,0 0.432,0.036 0.156,0.024 0.288,0.084 v 1.104 q -0.192,-0.096 -0.42,-0.144 -0.216,-0.048 -0.444,-0.048 -0.444,0 -0.816,0.252 -0.372,0.252 -0.6,0.672 -0.216,0.42 -0.216,0.924 V 353 Z"
         id="path1007899" />
      <path
         d="m 336.11403,353.192 q -0.888,0 -1.584,-0.42 -0.684,-0.42 -1.08,-1.152 -0.384,-0.732 -0.384,-1.668 0,-0.876 0.36,-1.62 0.372,-0.744 1.032,-1.188 0.672,-0.456 1.572,-0.456 0.912,0 1.56,0.408 0.66,0.396 1.008,1.104 0.36,0.708 0.36,1.62 0,0.084 -0.012,0.168 0,0.084 -0.012,0.144 h -4.848 q 0.036,0.66 0.3,1.116 0.3,0.516 0.768,0.768 0.48,0.252 0.996,0.252 0.672,0 1.104,-0.312 0.444,-0.324 0.708,-0.792 l 0.864,0.42 q -0.36,0.696 -1.032,1.152 -0.672,0.456 -1.68,0.456 z m -1.968,-3.9 h 3.732 q -0.012,-0.252 -0.12,-0.54 -0.096,-0.3 -0.324,-0.552 -0.216,-0.264 -0.564,-0.42 -0.336,-0.168 -0.84,-0.168 -0.6,0 -1.044,0.312 -0.432,0.3 -0.66,0.828 -0.12,0.252 -0.18,0.54 z"
         id="path1007901" />
      <path
         d="m 344.88603,353.192 q -0.684,0 -1.2,-0.264 -0.516,-0.264 -0.816,-0.72 -0.288,-0.468 -0.288,-1.056 0,-0.672 0.348,-1.128 0.348,-0.468 0.936,-0.696 0.588,-0.24 1.296,-0.24 0.408,0 0.756,0.072 0.348,0.06 0.6,0.156 0.264,0.084 0.396,0.168 v -0.372 q 0,-0.696 -0.492,-1.104 -0.492,-0.408 -1.2,-0.408 -0.504,0 -0.948,0.228 -0.432,0.216 -0.684,0.612 l -0.768,-0.576 q 0.24,-0.36 0.6,-0.624 0.36,-0.264 0.816,-0.408 0.468,-0.144 0.984,-0.144 1.248,0 1.956,0.66 0.708,0.66 0.708,1.776 V 353 h -0.972 v -0.876 h -0.048 q -0.156,0.264 -0.444,0.516 -0.288,0.24 -0.684,0.396 -0.384,0.156 -0.852,0.156 z m 0.096,-0.9 q 0.528,0 0.96,-0.264 0.444,-0.264 0.708,-0.708 0.264,-0.444 0.264,-0.972 -0.276,-0.192 -0.696,-0.312 -0.408,-0.12 -0.9,-0.12 -0.876,0 -1.284,0.36 -0.408,0.36 -0.408,0.888 0,0.504 0.384,0.816 0.384,0.312 0.972,0.312 z"
         id="path1007903" />
      <path
         d="m 349.30203,353 v -8.592 h 1.02 V 353 Z"
         id="path1007905" />
      <path
         d="m 351.83403,353 v -8.592 h 1.02 V 353 Z"
         id="path1007907" />
      <path
         d="m 357.12605,353.192 q -0.924,0 -1.632,-0.432 -0.708,-0.432 -1.116,-1.164 -0.396,-0.744 -0.396,-1.656 0,-0.912 0.396,-1.644 0.408,-0.744 1.116,-1.176 0.708,-0.432 1.632,-0.432 0.924,0 1.632,0.444 0.708,0.432 1.104,1.176 0.408,0.732 0.408,1.632 0,0.912 -0.408,1.656 -0.396,0.732 -1.104,1.164 -0.708,0.432 -1.632,0.432 z m 0,-0.924 q 0.552,0 1.032,-0.276 0.492,-0.276 0.792,-0.792 0.3,-0.528 0.3,-1.26 0,-0.732 -0.3,-1.248 -0.3,-0.528 -0.792,-0.804 -0.48,-0.276 -1.032,-0.276 -0.552,0 -1.044,0.276 -0.492,0.276 -0.792,0.804 -0.3,0.516 -0.3,1.248 0,0.732 0.3,1.26 0.3,0.516 0.792,0.792 0.492,0.276 1.044,0.276 z"
         id="path1007909" />
      <path
         d="m 362.63405,353 -1.968,-6.12 h 1.056 l 1.452,4.836 h 0.012 l 1.548,-4.836 h 1.044 l 1.548,4.824 h 0.012 l 1.452,-4.824 h 1.032 l -1.98,6.12 h -1.032 l -1.584,-4.884 -1.572,4.884 z"
         id="path1007911" />
      <path
         d="m 373.26606,353.192 q -0.888,0 -1.584,-0.42 -0.684,-0.42 -1.08,-1.152 -0.384,-0.732 -0.384,-1.668 0,-0.876 0.36,-1.62 0.372,-0.744 1.032,-1.188 0.672,-0.456 1.572,-0.456 0.912,0 1.56,0.408 0.66,0.396 1.008,1.104 0.36,0.708 0.36,1.62 0,0.084 -0.012,0.168 0,0.084 -0.012,0.144 h -4.848 q 0.036,0.66 0.3,1.116 0.3,0.516 0.768,0.768 0.48,0.252 0.996,0.252 0.672,0 1.104,-0.312 0.444,-0.324 0.708,-0.792 l 0.864,0.42 q -0.36,0.696 -1.032,1.152 -0.672,0.456 -1.68,0.456 z m -1.968,-3.9 h 3.732 q -0.012,-0.252 -0.12,-0.54 -0.096,-0.3 -0.324,-0.552 -0.216,-0.264 -0.564,-0.42 -0.336,-0.168 -0.84,-0.168 -0.6,0 -1.044,0.312 -0.432,0.3 -0.66,0.828 -0.12,0.252 -0.18,0.54 z"
         id="path1007913" />
      <path
         d="m 379.96204,353.192 q -0.828,0 -1.5,-0.42 -0.66,-0.42 -1.044,-1.152 -0.384,-0.732 -0.384,-1.68 0,-0.948 0.384,-1.68 0.384,-0.732 1.044,-1.152 0.672,-0.42 1.5,-0.42 0.492,0 0.9,0.156 0.408,0.156 0.708,0.408 0.312,0.252 0.48,0.54 h 0.048 l -0.048,-0.852 v -2.532 h 1.02 V 353 h -0.972 v -0.9 h -0.048 q -0.168,0.276 -0.48,0.528 -0.3,0.252 -0.708,0.408 -0.408,0.156 -0.9,0.156 z m 0.108,-0.924 q 0.528,0 0.984,-0.276 0.468,-0.288 0.756,-0.804 0.288,-0.528 0.288,-1.248 0,-0.72 -0.288,-1.236 -0.288,-0.528 -0.756,-0.804 -0.456,-0.288 -0.984,-0.288 -0.528,0 -0.996,0.288 -0.456,0.276 -0.744,0.804 -0.288,0.516 -0.288,1.236 0,0.708 0.288,1.236 0.288,0.528 0.744,0.816 0.468,0.276 0.996,0.276 z"
         id="path1007915" />
      <path
         d="m 386.94603,346.88 h 1.068 v -1.728 h 1.02 v 1.728 h 1.5 v 0.924 h -1.5 v 3.336 q 0,0.48 0.192,0.744 0.204,0.264 0.66,0.264 0.204,0 0.372,-0.06 0.168,-0.06 0.3,-0.144 v 0.996 q -0.156,0.072 -0.348,0.108 -0.18,0.048 -0.492,0.048 -0.768,0 -1.236,-0.444 -0.468,-0.456 -0.468,-1.26 v -3.588 h -1.068 z"
         id="path1007917" />
      <path
         d="m 394.30204,353.192 q -0.924,0 -1.632,-0.432 -0.708,-0.432 -1.116,-1.164 -0.396,-0.744 -0.396,-1.656 0,-0.912 0.396,-1.644 0.408,-0.744 1.116,-1.176 0.708,-0.432 1.632,-0.432 0.924,0 1.632,0.444 0.708,0.432 1.104,1.176 0.408,0.732 0.408,1.632 0,0.912 -0.408,1.656 -0.396,0.732 -1.104,1.164 -0.708,0.432 -1.632,0.432 z m 0,-0.924 q 0.552,0 1.032,-0.276 0.492,-0.276 0.792,-0.792 0.3,-0.528 0.3,-1.26 0,-0.732 -0.3,-1.248 -0.3,-0.528 -0.792,-0.804 -0.48,-0.276 -1.032,-0.276 -0.552,0 -1.044,0.276 -0.492,0.276 -0.792,0.804 -0.3,0.516 -0.3,1.248 0,0.732 0.3,1.26 0.3,0.516 0.792,0.792 0.492,0.276 1.044,0.276 z"
         id="path1007919" />
      <path
         d="m 401.41806,355.592 v -8.712 h 0.972 v 0.912 h 0.048 q 0.168,-0.288 0.468,-0.54 0.312,-0.252 0.72,-0.408 0.408,-0.156 0.9,-0.156 0.84,0 1.5,0.42 0.66,0.42 1.044,1.152 0.384,0.732 0.384,1.68 0,0.948 -0.384,1.68 -0.384,0.732 -1.044,1.152 -0.66,0.42 -1.5,0.42 -0.732,0 -1.284,-0.336 -0.552,-0.336 -0.804,-0.756 h -0.048 l 0.048,0.84 v 2.652 z m 3,-3.324 q 0.528,0 0.984,-0.276 0.468,-0.288 0.744,-0.816 0.288,-0.528 0.288,-1.236 0,-0.72 -0.288,-1.236 -0.276,-0.528 -0.744,-0.804 -0.456,-0.288 -0.984,-0.288 -0.528,0 -0.996,0.288 -0.456,0.276 -0.744,0.804 -0.288,0.516 -0.288,1.236 0,0.72 0.288,1.248 0.288,0.516 0.744,0.804 0.468,0.276 0.996,0.276 z"
         id="path1007921" />
      <path
         d="m 410.80207,353.192 q -1.128,0 -1.704,-0.66 -0.564,-0.66 -0.564,-1.8 v -3.852 h 1.02 v 3.696 q 0,0.912 0.42,1.308 0.42,0.384 1.044,0.384 0.54,0 0.936,-0.276 0.396,-0.288 0.612,-0.732 0.216,-0.444 0.216,-0.924 v -3.456 h 1.02 V 353 h -0.972 v -0.888 h -0.048 q -0.156,0.288 -0.468,0.54 -0.3,0.24 -0.696,0.384 -0.384,0.156 -0.816,0.156 z"
         id="path1007923" />
      <path
         d="m 417.39008,353.192 q -0.684,0 -1.212,-0.216 -0.516,-0.228 -0.864,-0.6 -0.336,-0.384 -0.504,-0.828 l 0.912,-0.408 q 0.24,0.552 0.696,0.852 0.456,0.3 1.044,0.3 0.564,0 0.936,-0.228 0.384,-0.228 0.384,-0.672 0,-0.276 -0.156,-0.456 -0.156,-0.192 -0.456,-0.324 -0.3,-0.132 -0.732,-0.24 l -0.744,-0.192 q -0.432,-0.12 -0.816,-0.336 -0.384,-0.216 -0.624,-0.552 -0.228,-0.348 -0.228,-0.84 0,-0.552 0.324,-0.948 0.324,-0.396 0.852,-0.6 0.528,-0.216 1.128,-0.216 0.528,0 0.984,0.156 0.468,0.144 0.816,0.444 0.348,0.288 0.528,0.72 l -0.888,0.408 q -0.228,-0.456 -0.612,-0.636 -0.384,-0.18 -0.852,-0.18 -0.504,0 -0.876,0.228 -0.372,0.216 -0.372,0.6 0,0.384 0.3,0.576 0.312,0.192 0.756,0.312 l 0.888,0.228 q 0.9,0.228 1.356,0.684 0.456,0.444 0.456,1.092 0,0.576 -0.324,0.996 -0.324,0.42 -0.876,0.648 -0.552,0.228 -1.224,0.228 z"
         id="path1007925" />
      <path
         d="m 420.93007,353 v -8.592 h 1.02 v 2.532 l -0.048,0.84 h 0.048 q 0.24,-0.456 0.78,-0.768 0.552,-0.324 1.212,-0.324 0.78,0 1.284,0.312 0.504,0.312 0.756,0.852 0.252,0.528 0.252,1.224 V 353 h -1.02 v -3.768 q 0,-0.588 -0.216,-0.936 -0.204,-0.36 -0.552,-0.516 -0.336,-0.168 -0.744,-0.168 -0.504,0 -0.9,0.288 -0.396,0.288 -0.624,0.744 -0.228,0.456 -0.228,0.948 V 353 Z"
         id="path1007927" />
      <path
         d="m 430.06206,346.88 h 1.068 v -1.728 h 1.02 v 1.728 h 1.5 v 0.924 h -1.5 v 3.336 q 0,0.48 0.192,0.744 0.204,0.264 0.66,0.264 0.204,0 0.372,-0.06 0.168,-0.06 0.3,-0.144 v 0.996 q -0.156,0.072 -0.348,0.108 -0.18,0.048 -0.492,0.048 -0.768,0 -1.236,-0.444 -0.468,-0.456 -0.468,-1.26 v -3.588 h -1.068 z"
         id="path1007929" />
      <path
         d="m 434.92206,353 v -8.592 h 1.02 v 2.532 l -0.048,0.84 h 0.048 q 0.24,-0.456 0.78,-0.768 0.552,-0.324 1.212,-0.324 0.78,0 1.284,0.312 0.504,0.312 0.756,0.852 0.252,0.528 0.252,1.224 V 353 h -1.02 v -3.768 q 0,-0.588 -0.216,-0.936 -0.204,-0.36 -0.552,-0.516 -0.336,-0.168 -0.744,-0.168 -0.504,0 -0.9,0.288 -0.396,0.288 -0.624,0.744 -0.228,0.456 -0.228,0.948 V 353 Z"
         id="path1007931" />
      <path
         d="m 444.41404,353.192 q -0.888,0 -1.584,-0.42 -0.684,-0.42 -1.08,-1.152 -0.384,-0.732 -0.384,-1.668 0,-0.876 0.36,-1.62 0.372,-0.744 1.032,-1.188 0.672,-0.456 1.572,-0.456 0.912,0 1.56,0.408 0.66,0.396 1.008,1.104 0.36,0.708 0.36,1.62 0,0.084 -0.012,0.168 0,0.084 -0.012,0.144 h -4.848 q 0.036,0.66 0.3,1.116 0.3,0.516 0.768,0.768 0.48,0.252 0.996,0.252 0.672,0 1.104,-0.312 0.444,-0.324 0.708,-0.792 l 0.864,0.42 q -0.36,0.696 -1.032,1.152 -0.672,0.456 -1.68,0.456 z m -1.968,-3.9 h 3.732 q -0.012,-0.252 -0.12,-0.54 -0.096,-0.3 -0.324,-0.552 -0.216,-0.264 -0.564,-0.42 -0.336,-0.168 -0.84,-0.168 -0.6,0 -1.044,0.312 -0.432,0.3 -0.66,0.828 -0.12,0.252 -0.18,0.54 z"
         id="path1007933" />
      <path
         d="m 448.54205,353 v -6.12 h 1.02 V 353 Z m 0.504,-7.248 q -0.3,0 -0.516,-0.216 -0.216,-0.216 -0.216,-0.516 0,-0.312 0.216,-0.516 0.216,-0.216 0.516,-0.216 0.312,0 0.516,0.216 0.216,0.204 0.216,0.516 0,0.3 -0.216,0.516 -0.204,0.216 -0.516,0.216 z"
         id="path1007935" />
      <path
         d="m 451.15804,353 v -6.12 h 0.972 v 0.984 h 0.048 q 0.12,-0.348 0.396,-0.6 0.288,-0.264 0.648,-0.408 0.372,-0.156 0.732,-0.156 0.276,0 0.432,0.036 0.156,0.024 0.288,0.084 v 1.104 q -0.192,-0.096 -0.42,-0.144 -0.216,-0.048 -0.444,-0.048 -0.444,0 -0.816,0.252 -0.372,0.252 -0.6,0.672 -0.216,0.42 -0.216,0.924 V 353 Z"
         id="path1007937" />
      <path
         d="m 461.21405,353.192 q -0.9,0 -1.608,-0.42 -0.696,-0.432 -1.092,-1.164 -0.396,-0.744 -0.396,-1.668 0,-0.936 0.396,-1.668 0.396,-0.732 1.092,-1.152 0.708,-0.432 1.608,-0.432 1.032,0 1.692,0.48 0.672,0.468 0.948,1.212 l -0.924,0.384 q -0.228,-0.564 -0.684,-0.852 -0.444,-0.3 -1.08,-0.3 -0.54,0 -1.008,0.288 -0.456,0.288 -0.744,0.816 -0.288,0.516 -0.288,1.224 0,0.696 0.288,1.224 0.288,0.528 0.744,0.816 0.468,0.288 1.008,0.288 0.648,0 1.116,-0.3 0.468,-0.3 0.696,-0.852 l 0.912,0.384 q -0.3,0.708 -0.972,1.2 -0.672,0.492 -1.704,0.492 z"
         id="path1007939" />
      <path
         d="m 464.99404,353 v -8.592 h 1.02 v 2.532 l -0.048,0.84 h 0.048 q 0.24,-0.456 0.78,-0.768 0.552,-0.324 1.212,-0.324 0.78,0 1.284,0.312 0.504,0.312 0.756,0.852 0.252,0.528 0.252,1.224 V 353 h -1.02 v -3.768 q 0,-0.588 -0.216,-0.936 -0.204,-0.36 -0.552,-0.516 -0.336,-0.168 -0.744,-0.168 -0.504,0 -0.9,0.288 -0.396,0.288 -0.624,0.744 -0.228,0.456 -0.228,0.948 V 353 Z"
         id="path1007941" />
      <path
         d="m 473.65803,353.192 q -0.684,0 -1.2,-0.264 -0.516,-0.264 -0.816,-0.72 -0.288,-0.468 -0.288,-1.056 0,-0.672 0.348,-1.128 0.348,-0.468 0.936,-0.696 0.588,-0.24 1.296,-0.24 0.408,0 0.756,0.072 0.348,0.06 0.6,0.156 0.264,0.084 0.396,0.168 v -0.372 q 0,-0.696 -0.492,-1.104 -0.492,-0.408 -1.2,-0.408 -0.504,0 -0.948,0.228 -0.432,0.216 -0.684,0.612 l -0.768,-0.576 q 0.24,-0.36 0.6,-0.624 0.36,-0.264 0.816,-0.408 0.468,-0.144 0.984,-0.144 1.248,0 1.956,0.66 0.708,0.66 0.708,1.776 V 353 h -0.972 v -0.876 h -0.048 q -0.156,0.264 -0.444,0.516 -0.288,0.24 -0.684,0.396 -0.384,0.156 -0.852,0.156 z m 0.096,-0.9 q 0.528,0 0.96,-0.264 0.444,-0.264 0.708,-0.708 0.264,-0.444 0.264,-0.972 -0.276,-0.192 -0.696,-0.312 -0.408,-0.12 -0.9,-0.12 -0.876,0 -1.284,0.36 -0.408,0.36 -0.408,0.888 0,0.504 0.384,0.816 0.384,0.312 0.972,0.312 z"
         id="path1007943" />
      <path
         d="m 478.07404,353 v -6.12 h 0.972 v 0.9 h 0.048 q 0.24,-0.444 0.78,-0.768 0.552,-0.324 1.2,-0.324 1.128,0 1.692,0.66 0.576,0.648 0.576,1.728 V 353 h -1.02 v -3.768 q 0,-0.888 -0.432,-1.248 -0.42,-0.372 -1.092,-0.372 -0.504,0 -0.888,0.288 -0.384,0.276 -0.6,0.72 -0.216,0.444 -0.216,0.936 V 353 Z"
         id="path1007945" />
      <path
         d="m 487.43407,355.784 q -0.78,0 -1.344,-0.264 -0.552,-0.252 -0.9,-0.648 -0.336,-0.396 -0.48,-0.804 l 0.936,-0.396 q 0.192,0.504 0.648,0.84 0.468,0.348 1.14,0.348 0.96,0 1.476,-0.564 0.516,-0.552 0.516,-1.548 v -0.684 h -0.048 q -0.288,0.444 -0.828,0.756 -0.54,0.3 -1.26,0.3 -0.792,0 -1.452,-0.408 -0.648,-0.408 -1.032,-1.128 -0.384,-0.732 -0.384,-1.68 0,-0.948 0.384,-1.668 0.384,-0.732 1.032,-1.14 0.66,-0.408 1.452,-0.408 0.72,0 1.26,0.312 0.54,0.3 0.828,0.756 h 0.048 v -0.876 h 0.972 v 5.88 q 0,1.02 -0.396,1.692 -0.384,0.672 -1.056,0.996 -0.66,0.336 -1.512,0.336 z m 0,-3.588 q 0.54,0 0.996,-0.264 0.456,-0.276 0.72,-0.792 0.276,-0.516 0.276,-1.236 0,-0.744 -0.276,-1.248 -0.264,-0.516 -0.72,-0.78 -0.456,-0.264 -0.996,-0.264 -0.54,0 -0.996,0.276 -0.456,0.264 -0.732,0.78 -0.276,0.504 -0.276,1.236 0,0.732 0.276,1.248 0.276,0.504 0.732,0.78 0.456,0.264 0.996,0.264 z"
         id="path1007947" />
      <path
         d="m 494.57407,353.192 q -0.888,0 -1.584,-0.42 -0.684,-0.42 -1.08,-1.152 -0.384,-0.732 -0.384,-1.668 0,-0.876 0.36,-1.62 0.372,-0.744 1.032,-1.188 0.672,-0.456 1.572,-0.456 0.912,0 1.56,0.408 0.66,0.396 1.008,1.104 0.36,0.708 0.36,1.62 0,0.084 -0.012,0.168 0,0.084 -0.012,0.144 h -4.848 q 0.036,0.66 0.3,1.116 0.3,0.516 0.768,0.768 0.48,0.252 0.996,0.252 0.672,0 1.104,-0.312 0.444,-0.324 0.708,-0.792 l 0.864,0.42 q -0.36,0.696 -1.032,1.152 -0.672,0.456 -1.68,0.456 z m -1.968,-3.9 h 3.732 q -0.012,-0.252 -0.12,-0.54 -0.096,-0.3 -0.324,-0.552 -0.216,-0.264 -0.564,-0.42 -0.336,-0.168 -0.84,-0.168 -0.6,0 -1.044,0.312 -0.432,0.3 -0.66,0.828 -0.12,0.252 -0.18,0.54 z"
         id="path1007949" />
      <path
         d="m 500.80205,353.192 q -0.684,0 -1.212,-0.216 -0.516,-0.228 -0.864,-0.6 -0.336,-0.384 -0.504,-0.828 l 0.912,-0.408 q 0.24,0.552 0.696,0.852 0.456,0.3 1.044,0.3 0.564,0 0.936,-0.228 0.384,-0.228 0.384,-0.672 0,-0.276 -0.156,-0.456 -0.156,-0.192 -0.456,-0.324 -0.3,-0.132 -0.732,-0.24 l -0.744,-0.192 q -0.432,-0.12 -0.816,-0.336 -0.384,-0.216 -0.624,-0.552 -0.228,-0.348 -0.228,-0.84 0,-0.552 0.324,-0.948 0.324,-0.396 0.852,-0.6 0.528,-0.216 1.128,-0.216 0.528,0 0.984,0.156 0.468,0.144 0.816,0.444 0.348,0.288 0.528,0.72 l -0.888,0.408 q -0.228,-0.456 -0.612,-0.636 -0.384,-0.18 -0.852,-0.18 -0.504,0 -0.876,0.228 -0.372,0.216 -0.372,0.6 0,0.384 0.3,0.576 0.312,0.192 0.756,0.312 l 0.888,0.228 q 0.9,0.228 1.356,0.684 0.456,0.444 0.456,1.092 0,0.576 -0.324,0.996 -0.324,0.42 -0.876,0.648 -0.552,0.228 -1.224,0.228 z"
         id="path1007951" />
      <path
         d="m 509.73007,353.192 q -0.828,0 -1.5,-0.42 -0.66,-0.42 -1.044,-1.152 -0.384,-0.732 -0.384,-1.68 0,-0.948 0.384,-1.68 0.384,-0.732 1.044,-1.152 0.672,-0.42 1.5,-0.42 0.492,0 0.9,0.156 0.408,0.156 0.708,0.408 0.312,0.252 0.48,0.54 h 0.048 l -0.048,-0.852 v -2.532 h 1.02 V 353 h -0.972 v -0.9 h -0.048 q -0.168,0.276 -0.48,0.528 -0.3,0.252 -0.708,0.408 -0.408,0.156 -0.9,0.156 z m 0.108,-0.924 q 0.528,0 0.984,-0.276 0.468,-0.288 0.756,-0.804 0.288,-0.528 0.288,-1.248 0,-0.72 -0.288,-1.236 -0.288,-0.528 -0.756,-0.804 -0.456,-0.288 -0.984,-0.288 -0.528,0 -0.996,0.288 -0.456,0.276 -0.744,0.804 -0.288,0.516 -0.288,1.236 0,0.708 0.288,1.236 0.288,0.528 0.744,0.816 0.468,0.276 0.996,0.276 z"
         id="path1007953" />
      <path
         d="m 514.44604,353 v -6.12 h 1.02 V 353 Z m 0.504,-7.248 q -0.3,0 -0.516,-0.216 -0.216,-0.216 -0.216,-0.516 0,-0.312 0.216,-0.516 0.216,-0.216 0.516,-0.216 0.312,0 0.516,0.216 0.216,0.204 0.216,0.516 0,0.3 -0.216,0.516 -0.204,0.216 -0.516,0.216 z"
         id="path1007955" />
      <path
         d="m 517.06205,353 v -6.12 h 0.972 v 0.984 h 0.048 q 0.12,-0.348 0.396,-0.6 0.288,-0.264 0.648,-0.408 0.372,-0.156 0.732,-0.156 0.276,0 0.432,0.036 0.156,0.024 0.288,0.084 v 1.104 q -0.192,-0.096 -0.42,-0.144 -0.216,-0.048 -0.444,-0.048 -0.444,0 -0.816,0.252 -0.372,0.252 -0.6,0.672 -0.216,0.42 -0.216,0.924 V 353 Z"
         id="path1007957" />
      <path
         d="m 523.92603,353.192 q -0.888,0 -1.584,-0.42 -0.684,-0.42 -1.08,-1.152 -0.384,-0.732 -0.384,-1.668 0,-0.876 0.36,-1.62 0.372,-0.744 1.032,-1.188 0.672,-0.456 1.572,-0.456 0.912,0 1.56,0.408 0.66,0.396 1.008,1.104 0.36,0.708 0.36,1.62 0,0.084 -0.012,0.168 0,0.084 -0.012,0.144 h -4.848 q 0.036,0.66 0.3,1.116 0.3,0.516 0.768,0.768 0.48,0.252 0.996,0.252 0.672,0 1.104,-0.312 0.444,-0.324 0.708,-0.792 l 0.864,0.42 q -0.36,0.696 -1.032,1.152 -0.672,0.456 -1.68,0.456 z m -1.968,-3.9 h 3.732 q -0.012,-0.252 -0.12,-0.54 -0.096,-0.3 -0.324,-0.552 -0.216,-0.264 -0.564,-0.42 -0.336,-0.168 -0.84,-0.168 -0.6,0 -1.044,0.312 -0.432,0.3 -0.66,0.828 -0.12,0.252 -0.18,0.54 z"
         id="path1007959" />
      <path
         d="m 530.79004,353.192 q -0.9,0 -1.608,-0.42 -0.696,-0.432 -1.092,-1.164 -0.396,-0.744 -0.396,-1.668 0,-0.936 0.396,-1.668 0.396,-0.732 1.092,-1.152 0.708,-0.432 1.608,-0.432 1.032,0 1.692,0.48 0.672,0.468 0.948,1.212 l -0.924,0.384 q -0.228,-0.564 -0.684,-0.852 -0.444,-0.3 -1.08,-0.3 -0.54,0 -1.008,0.288 -0.456,0.288 -0.744,0.816 -0.288,0.516 -0.288,1.224 0,0.696 0.288,1.224 0.288,0.528 0.744,0.816 0.468,0.288 1.008,0.288 0.648,0 1.116,-0.3 0.468,-0.3 0.696,-0.852 l 0.912,0.384 q -0.3,0.708 -0.972,1.2 -0.672,0.492 -1.704,0.492 z"
         id="path1007961" />
      <path
         d="m 534.09004,346.88 h 1.068 v -1.728 h 1.02 v 1.728 h 1.5 v 0.924 h -1.5 v 3.336 q 0,0.48 0.192,0.744 0.204,0.264 0.66,0.264 0.204,0 0.372,-0.06 0.168,-0.06 0.3,-0.144 v 0.996 q -0.156,0.072 -0.348,0.108 -0.18,0.048 -0.492,0.048 -0.768,0 -1.236,-0.444 -0.468,-0.456 -0.468,-1.26 v -3.588 h -1.068 z"
         id="path1007963" />
      <path
         d="m 538.95002,353 v -8.592 h 1.02 V 353 Z"
         id="path1007965" />
      <path
         d="m 543.23403,355.28 q -0.036,0.084 -0.084,0.18 -0.048,0.108 -0.06,0.132 h -1.056 q 0.072,-0.156 0.156,-0.348 0.084,-0.18 0.204,-0.444 0.072,-0.156 0.132,-0.288 0.06,-0.132 0.132,-0.3 0.084,-0.156 0.192,-0.396 l 0.552,-1.2 -2.532,-5.736 h 1.104 l 1.92,4.548 h 0.024 l 1.848,-4.548 h 1.104 l -3.168,7.308 q -0.048,0.108 -0.156,0.336 -0.096,0.24 -0.192,0.456 -0.084,0.228 -0.12,0.3 z"
         id="path1007967" />
      <path
         d="m 550.54203,353 v -8.592 h 1.02 v 2.532 l -0.048,0.84 h 0.048 q 0.24,-0.456 0.78,-0.768 0.552,-0.324 1.212,-0.324 0.78,0 1.284,0.312 0.504,0.312 0.756,0.852 0.252,0.528 0.252,1.224 V 353 h -1.02 v -3.768 q 0,-0.588 -0.216,-0.936 -0.204,-0.36 -0.552,-0.516 -0.336,-0.168 -0.744,-0.168 -0.504,0 -0.9,0.288 -0.396,0.288 -0.624,0.744 -0.228,0.456 -0.228,0.948 V 353 Z"
         id="path1007969" />
      <path
         d="m 560.03403,353.192 q -0.888,0 -1.584,-0.42 -0.684,-0.42 -1.08,-1.152 -0.384,-0.732 -0.384,-1.668 0,-0.876 0.36,-1.62 0.372,-0.744 1.032,-1.188 0.672,-0.456 1.572,-0.456 0.912,0 1.56,0.408 0.66,0.396 1.008,1.104 0.36,0.708 0.36,1.62 0,0.084 -0.012,0.168 0,0.084 -0.012,0.144 h -4.848 q 0.036,0.66 0.3,1.116 0.3,0.516 0.768,0.768 0.48,0.252 0.996,0.252 0.672,0 1.104,-0.312 0.444,-0.324 0.708,-0.792 l 0.864,0.42 q -0.36,0.696 -1.032,1.152 -0.672,0.456 -1.68,0.456 z m -1.968,-3.9 h 3.732 q -0.012,-0.252 -0.12,-0.54 -0.096,-0.3 -0.324,-0.552 -0.216,-0.264 -0.564,-0.42 -0.336,-0.168 -0.84,-0.168 -0.6,0 -1.044,0.312 -0.432,0.3 -0.66,0.828 -0.12,0.252 -0.18,0.54 z"
         id="path1007971" />
      <path
         d="m 564.06601,353 v -6.12 h 0.972 v 0.984 h 0.048 q 0.12,-0.348 0.396,-0.6 0.288,-0.264 0.648,-0.408 0.372,-0.156 0.732,-0.156 0.276,0 0.432,0.036 0.156,0.024 0.288,0.084 v 1.104 q -0.192,-0.096 -0.42,-0.144 -0.216,-0.048 -0.444,-0.048 -0.444,0 -0.816,0.252 -0.372,0.252 -0.6,0.672 -0.216,0.42 -0.216,0.924 V 353 Z"
         id="path1007973" />
      <path
         d="m 570.93003,353.192 q -0.888,0 -1.584,-0.42 -0.684,-0.42 -1.08,-1.152 -0.384,-0.732 -0.384,-1.668 0,-0.876 0.36,-1.62 0.372,-0.744 1.032,-1.188 0.672,-0.456 1.572,-0.456 0.912,0 1.56,0.408 0.66,0.396 1.008,1.104 0.36,0.708 0.36,1.62 0,0.084 -0.012,0.168 0,0.084 -0.012,0.144 h -4.848 q 0.036,0.66 0.3,1.116 0.3,0.516 0.768,0.768 0.48,0.252 0.996,0.252 0.672,0 1.104,-0.312 0.444,-0.324 0.708,-0.792 l 0.864,0.42 q -0.36,0.696 -1.032,1.152 -0.672,0.456 -1.68,0.456 z m -1.968,-3.9 h 3.732 q -0.012,-0.252 -0.12,-0.54 -0.096,-0.3 -0.324,-0.552 -0.216,-0.264 -0.564,-0.42 -0.336,-0.168 -0.84,-0.168 -0.6,0 -1.044,0.312 -0.432,0.3 -0.66,0.828 -0.12,0.252 -0.18,0.54 z"
         id="path1007975" />
      <path
         d="m 580.85401,353.192 q -0.492,0 -0.9,-0.156 -0.408,-0.156 -0.72,-0.408 -0.3,-0.252 -0.468,-0.528 h -0.048 v 0.9 h -0.972 v -8.592 h 1.02 v 2.532 l -0.048,0.852 h 0.048 q 0.168,-0.288 0.468,-0.54 0.312,-0.252 0.72,-0.408 0.408,-0.156 0.9,-0.156 0.84,0 1.5,0.42 0.66,0.42 1.044,1.152 0.384,0.732 0.384,1.68 0,0.948 -0.384,1.68 -0.384,0.732 -1.044,1.152 -0.66,0.42 -1.5,0.42 z m -0.108,-0.924 q 0.528,0 0.984,-0.276 0.468,-0.288 0.744,-0.816 0.288,-0.528 0.288,-1.236 0,-0.72 -0.288,-1.236 -0.276,-0.528 -0.744,-0.804 -0.456,-0.288 -0.984,-0.288 -0.528,0 -0.996,0.288 -0.456,0.276 -0.744,0.804 -0.288,0.516 -0.288,1.236 0,0.72 0.288,1.248 0.288,0.516 0.744,0.804 0.468,0.276 0.996,0.276 z"
         id="path1007977" />
      <path
         d="m 587.13001,353.192 q -1.128,0 -1.704,-0.66 -0.564,-0.66 -0.564,-1.8 v -3.852 h 1.02 v 3.696 q 0,0.912 0.42,1.308 0.42,0.384 1.044,0.384 0.54,0 0.936,-0.276 0.396,-0.288 0.612,-0.732 0.216,-0.444 0.216,-0.924 v -3.456 h 1.02 V 353 h -0.972 v -0.888 h -0.048 q -0.156,0.288 -0.468,0.54 -0.3,0.24 -0.696,0.384 -0.384,0.156 -0.816,0.156 z"
         id="path1007979" />
      <path
         d="m 591.282,346.88 h 1.068 v -1.728 h 1.02 v 1.728 h 1.5 v 0.924 h -1.5 v 3.336 q 0,0.48 0.192,0.744 0.204,0.264 0.66,0.264 0.204,0 0.372,-0.06 0.168,-0.06 0.3,-0.144 v 0.996 q -0.156,0.072 -0.348,0.108 -0.18,0.048 -0.492,0.048 -0.768,0 -1.236,-0.444 -0.468,-0.456 -0.468,-1.26 v -3.588 h -1.068 z"
         id="path1007981" />
      <path
         d="m 598.866,353 v -6.12 h 0.972 v 0.9 h 0.048 q 0.168,-0.3 0.456,-0.54 0.3,-0.252 0.672,-0.396 0.384,-0.156 0.78,-0.156 0.684,0 1.176,0.336 0.492,0.324 0.708,0.852 0.312,-0.516 0.84,-0.852 0.528,-0.336 1.26,-0.336 1.092,0 1.608,0.66 0.516,0.66 0.516,1.728 V 353 h -1.008 v -3.768 q 0,-0.888 -0.36,-1.248 -0.36,-0.372 -1.02,-0.372 -0.468,0 -0.84,0.276 -0.36,0.264 -0.576,0.708 -0.204,0.432 -0.204,0.948 V 353 h -1.02 v -3.756 q 0,-0.888 -0.36,-1.26 -0.36,-0.372 -1.008,-0.372 -0.468,0 -0.84,0.276 -0.36,0.276 -0.576,0.72 -0.204,0.444 -0.204,0.96 V 353 Z"
         id="path1007983" />
      <path
         d="m 611.586,353.192 q -1.128,0 -1.704,-0.66 -0.564,-0.66 -0.564,-1.8 v -3.852 h 1.02 v 3.696 q 0,0.912 0.42,1.308 0.42,0.384 1.044,0.384 0.54,0 0.936,-0.276 0.396,-0.288 0.612,-0.732 0.216,-0.444 0.216,-0.924 v -3.456 h 1.02 V 353 h -0.972 v -0.888 h -0.048 q -0.156,0.288 -0.468,0.54 -0.3,0.24 -0.696,0.384 -0.384,0.156 -0.816,0.156 z"
         id="path1007985" />
      <path
         d="m 618.17403,353.192 q -0.684,0 -1.212,-0.216 -0.516,-0.228 -0.864,-0.6 -0.336,-0.384 -0.504,-0.828 l 0.912,-0.408 q 0.24,0.552 0.696,0.852 0.456,0.3 1.044,0.3 0.564,0 0.936,-0.228 0.384,-0.228 0.384,-0.672 0,-0.276 -0.156,-0.456 -0.156,-0.192 -0.456,-0.324 -0.3,-0.132 -0.732,-0.24 l -0.744,-0.192 q -0.432,-0.12 -0.816,-0.336 -0.384,-0.216 -0.624,-0.552 -0.228,-0.348 -0.228,-0.84 0,-0.552 0.324,-0.948 0.324,-0.396 0.852,-0.6 0.528,-0.216 1.128,-0.216 0.528,0 0.984,0.156 0.468,0.144 0.816,0.444 0.348,0.288 0.528,0.72 l -0.888,0.408 q -0.228,-0.456 -0.612,-0.636 -0.384,-0.18 -0.852,-0.18 -0.504,0 -0.876,0.228 -0.372,0.216 -0.372,0.6 0,0.384 0.3,0.576 0.312,0.192 0.756,0.312 l 0.888,0.228 q 0.9,0.228 1.356,0.684 0.456,0.444 0.456,1.092 0,0.576 -0.324,0.996 -0.324,0.42 -0.876,0.648 -0.552,0.228 -1.224,0.228 z"
         id="path1007987" />
      <path
         d="m 621.23403,346.88 h 1.068 v -1.728 h 1.02 v 1.728 h 1.5 v 0.924 h -1.5 v 3.336 q 0,0.48 0.192,0.744 0.204,0.264 0.66,0.264 0.204,0 0.372,-0.06 0.168,-0.06 0.3,-0.144 v 0.996 q -0.156,0.072 -0.348,0.108 -0.18,0.048 -0.492,0.048 -0.768,0 -1.236,-0.444 -0.468,-0.456 -0.468,-1.26 v -3.588 h -1.068 z"
         id="path1007989" />
      <path
         d="m 628.15804,347.804 v -0.924 h 1.128 v -0.66 q 0,-0.6 0.264,-1.02 0.264,-0.432 0.708,-0.66 0.456,-0.228 0.984,-0.228 0.348,0 0.552,0.048 0.204,0.036 0.348,0.096 v 0.996 q -0.156,-0.06 -0.36,-0.12 -0.204,-0.072 -0.504,-0.072 -0.24,0 -0.468,0.12 -0.228,0.12 -0.372,0.36 -0.132,0.228 -0.132,0.588 v 0.552 h 3.792 V 353 h -1.02 v -5.196 h -2.772 V 353 h -1.02 v -5.196 z m 5.424,-2.052 q -0.3,0 -0.516,-0.216 -0.216,-0.216 -0.216,-0.516 0,-0.312 0.216,-0.516 0.216,-0.216 0.516,-0.216 0.312,0 0.516,0.216 0.216,0.204 0.216,0.516 0,0.3 -0.216,0.516 -0.204,0.216 -0.516,0.216 z"
         id="path1007991" />
      <path
         d="m 635.09403,353 2.16,-3.108 -2.112,-3.012 h 1.152 l 1.584,2.268 1.512,-2.268 h 1.2 l -2.148,3.012 2.184,3.108 h -1.188 l -1.584,-2.352 -1.572,2.352 z"
         id="path1007993" />
      <path
         d="m 644.32206,355.592 v -8.712 h 0.972 v 0.912 h 0.048 q 0.168,-0.288 0.468,-0.54 0.312,-0.252 0.72,-0.408 0.408,-0.156 0.9,-0.156 0.84,0 1.5,0.42 0.66,0.42 1.044,1.152 0.384,0.732 0.384,1.68 0,0.948 -0.384,1.68 -0.384,0.732 -1.044,1.152 -0.66,0.42 -1.5,0.42 -0.732,0 -1.284,-0.336 -0.552,-0.336 -0.804,-0.756 h -0.048 l 0.048,0.84 v 2.652 z m 3,-3.324 q 0.528,0 0.984,-0.276 0.468,-0.288 0.744,-0.816 0.288,-0.528 0.288,-1.236 0,-0.72 -0.288,-1.236 -0.276,-0.528 -0.744,-0.804 -0.456,-0.288 -0.984,-0.288 -0.528,0 -0.996,0.288 -0.456,0.276 -0.744,0.804 -0.288,0.516 -0.288,1.236 0,0.72 0.288,1.248 0.288,0.516 0.744,0.804 0.468,0.276 0.996,0.276 z"
         id="path1007995" />
      <path
         d="m 651.48606,353 v -6.12 h 0.972 v 0.984 h 0.048 q 0.12,-0.348 0.396,-0.6 0.288,-0.264 0.648,-0.408 0.372,-0.156 0.732,-0.156 0.276,0 0.432,0.036 0.156,0.024 0.288,0.084 v 1.104 q -0.192,-0.096 -0.42,-0.144 -0.216,-0.048 -0.444,-0.048 -0.444,0 -0.816,0.252 -0.372,0.252 -0.6,0.672 -0.216,0.42 -0.216,0.924 V 353 Z"
         id="path1007997" />
      <path
         d="m 658.44604,353.192 q -0.924,0 -1.632,-0.432 -0.708,-0.432 -1.116,-1.164 -0.396,-0.744 -0.396,-1.656 0,-0.912 0.396,-1.644 0.408,-0.744 1.116,-1.176 0.708,-0.432 1.632,-0.432 0.924,0 1.632,0.444 0.708,0.432 1.104,1.176 0.408,0.732 0.408,1.632 0,0.912 -0.408,1.656 -0.396,0.732 -1.104,1.164 -0.708,0.432 -1.632,0.432 z m 0,-0.924 q 0.552,0 1.032,-0.276 0.492,-0.276 0.792,-0.792 0.3,-0.528 0.3,-1.26 0,-0.732 -0.3,-1.248 -0.3,-0.528 -0.792,-0.804 -0.48,-0.276 -1.032,-0.276 -0.552,0 -1.044,0.276 -0.492,0.276 -0.792,0.804 -0.3,0.516 -0.3,1.248 0,0.732 0.3,1.26 0.3,0.516 0.792,0.792 0.492,0.276 1.044,0.276 z"
         id="path1007999" />
      <path
         d="m 665.82605,353.192 q -0.492,0 -0.9,-0.156 -0.408,-0.156 -0.72,-0.408 -0.3,-0.252 -0.468,-0.528 h -0.048 v 0.9 h -0.972 v -8.592 h 1.02 v 2.532 l -0.048,0.852 h 0.048 q 0.168,-0.288 0.468,-0.54 0.312,-0.252 0.72,-0.408 0.408,-0.156 0.9,-0.156 0.84,0 1.5,0.42 0.66,0.42 1.044,1.152 0.384,0.732 0.384,1.68 0,0.948 -0.384,1.68 -0.384,0.732 -1.044,1.152 -0.66,0.42 -1.5,0.42 z m -0.108,-0.924 q 0.528,0 0.984,-0.276 0.468,-0.288 0.744,-0.816 0.288,-0.528 0.288,-1.236 0,-0.72 -0.288,-1.236 -0.276,-0.528 -0.744,-0.804 -0.456,-0.288 -0.984,-0.288 -0.528,0 -0.996,0.288 -0.456,0.276 -0.744,0.804 -0.288,0.516 -0.288,1.236 0,0.72 0.288,1.248 0.288,0.516 0.744,0.804 0.468,0.276 0.996,0.276 z"
         id="path1008001" />
      <path
         d="m 669.88205,353 v -8.592 h 1.02 V 353 Z"
         id="path1008003" />
      <path
         d="m 675.07807,353.192 q -0.888,0 -1.584,-0.42 -0.684,-0.42 -1.08,-1.152 -0.384,-0.732 -0.384,-1.668 0,-0.876 0.36,-1.62 0.372,-0.744 1.032,-1.188 0.672,-0.456 1.572,-0.456 0.912,0 1.56,0.408 0.66,0.396 1.008,1.104 0.36,0.708 0.36,1.62 0,0.084 -0.012,0.168 0,0.084 -0.012,0.144 h -4.848 q 0.036,0.66 0.3,1.116 0.3,0.516 0.768,0.768 0.48,0.252 0.996,0.252 0.672,0 1.104,-0.312 0.444,-0.324 0.708,-0.792 l 0.864,0.42 q -0.36,0.696 -1.032,1.152 -0.672,0.456 -1.68,0.456 z m -1.968,-3.9 h 3.732 q -0.012,-0.252 -0.12,-0.54 -0.096,-0.3 -0.324,-0.552 -0.216,-0.264 -0.564,-0.42 -0.336,-0.168 -0.84,-0.168 -0.6,0 -1.044,0.312 -0.432,0.3 -0.66,0.828 -0.12,0.252 -0.18,0.54 z"
         id="path1008005" />
      <path
         d="m 679.11008,353 v -6.12 h 0.972 v 0.9 h 0.048 q 0.168,-0.3 0.456,-0.54 0.3,-0.252 0.672,-0.396 0.384,-0.156 0.78,-0.156 0.684,0 1.176,0.336 0.492,0.324 0.708,0.852 0.312,-0.516 0.84,-0.852 0.528,-0.336 1.26,-0.336 1.092,0 1.608,0.66 0.516,0.66 0.516,1.728 V 353 h -1.008 v -3.768 q 0,-0.888 -0.36,-1.248 -0.36,-0.372 -1.02,-0.372 -0.468,0 -0.84,0.276 -0.36,0.264 -0.576,0.708 -0.204,0.432 -0.204,0.948 V 353 h -1.02 v -3.756 q 0,-0.888 -0.36,-1.26 -0.36,-0.372 -1.008,-0.372 -0.468,0 -0.84,0.276 -0.36,0.276 -0.576,0.72 -0.204,0.444 -0.204,0.96 V 353 Z"
         id="path1008007" />
      <path
         d="m 691.68608,353.192 q -0.684,0 -1.212,-0.216 -0.516,-0.228 -0.864,-0.6 -0.336,-0.384 -0.504,-0.828 l 0.912,-0.408 q 0.24,0.552 0.696,0.852 0.456,0.3 1.044,0.3 0.564,0 0.936,-0.228 0.384,-0.228 0.384,-0.672 0,-0.276 -0.156,-0.456 -0.156,-0.192 -0.456,-0.324 -0.3,-0.132 -0.732,-0.24 l -0.744,-0.192 q -0.432,-0.12 -0.816,-0.336 -0.384,-0.216 -0.624,-0.552 -0.228,-0.348 -0.228,-0.84 0,-0.552 0.324,-0.948 0.324,-0.396 0.852,-0.6 0.528,-0.216 1.128,-0.216 0.528,0 0.984,0.156 0.468,0.144 0.816,0.444 0.348,0.288 0.528,0.72 l -0.888,0.408 q -0.228,-0.456 -0.612,-0.636 -0.384,-0.18 -0.852,-0.18 -0.504,0 -0.876,0.228 -0.372,0.216 -0.372,0.6 0,0.384 0.3,0.576 0.312,0.192 0.756,0.312 l 0.888,0.228 q 0.9,0.228 1.356,0.684 0.456,0.444 0.456,1.092 0,0.576 -0.324,0.996 -0.324,0.42 -0.876,0.648 -0.552,0.228 -1.224,0.228 z"
         id="path1008009" />
      <path
         d="m 698.10607,353 v -6.12 h 1.02 V 353 Z m 0.504,-7.248 q -0.3,0 -0.516,-0.216 -0.216,-0.216 -0.216,-0.516 0,-0.312 0.216,-0.516 0.216,-0.216 0.516,-0.216 0.312,0 0.516,0.216 0.216,0.204 0.216,0.516 0,0.3 -0.216,0.516 -0.204,0.216 -0.516,0.216 z"
         id="path1008011" />
      <path
         d="m 700.72208,353 v -6.12 h 0.972 v 0.9 h 0.048 q 0.168,-0.3 0.456,-0.54 0.3,-0.252 0.672,-0.396 0.384,-0.156 0.78,-0.156 0.684,0 1.176,0.336 0.492,0.324 0.708,0.852 0.312,-0.516 0.84,-0.852 0.528,-0.336 1.26,-0.336 1.092,0 1.608,0.66 0.516,0.66 0.516,1.728 V 353 h -1.008 v -3.768 q 0,-0.888 -0.36,-1.248 -0.36,-0.372 -1.02,-0.372 -0.468,0 -0.84,0.276 -0.36,0.264 -0.576,0.708 -0.204,0.432 -0.204,0.948 V 353 h -1.02 v -3.756 q 0,-0.888 -0.36,-1.26 -0.36,-0.372 -1.008,-0.372 -0.468,0 -0.84,0.276 -0.36,0.276 -0.576,0.72 -0.204,0.444 -0.204,0.96 V 353 Z"
         id="path1008013" />
      <path
         d="m 711.22208,353 v -6.12 h 0.972 v 0.9 h 0.048 q 0.168,-0.3 0.456,-0.54 0.3,-0.252 0.672,-0.396 0.384,-0.156 0.78,-0.156 0.684,0 1.176,0.336 0.492,0.324 0.708,0.852 0.312,-0.516 0.84,-0.852 0.528,-0.336 1.26,-0.336 1.092,0 1.608,0.66 0.516,0.66 0.516,1.728 V 353 h -1.008 v -3.768 q 0,-0.888 -0.36,-1.248 -0.36,-0.372 -1.02,-0.372 -0.468,0 -0.84,0.276 -0.36,0.264 -0.576,0.708 -0.204,0.432 -0.204,0.948 V 353 h -1.02 v -3.756 q 0,-0.888 -0.36,-1.26 -0.36,-0.372 -1.008,-0.372 -0.468,0 -0.84,0.276 -0.36,0.276 -0.576,0.72 -0.204,0.444 -0.204,0.96 V 353 Z"
         id="path1008015" />
      <path
         d="m 724.44608,353.192 q -0.888,0 -1.584,-0.42 -0.684,-0.42 -1.08,-1.152 -0.384,-0.732 -0.384,-1.668 0,-0.876 0.36,-1.62 0.372,-0.744 1.032,-1.188 0.672,-0.456 1.572,-0.456 0.912,0 1.56,0.408 0.66,0.396 1.008,1.104 0.36,0.708 0.36,1.62 0,0.084 -0.012,0.168 0,0.084 -0.012,0.144 h -4.848 q 0.036,0.66 0.3,1.116 0.3,0.516 0.768,0.768 0.48,0.252 0.996,0.252 0.672,0 1.104,-0.312 0.444,-0.324 0.708,-0.792 l 0.864,0.42 q -0.36,0.696 -1.032,1.152 -0.672,0.456 -1.68,0.456 z m -1.968,-3.9 h 3.732 q -0.012,-0.252 -0.12,-0.54 -0.096,-0.3 -0.324,-0.552 -0.216,-0.264 -0.564,-0.42 -0.336,-0.168 -0.84,-0.168 -0.6,0 -1.044,0.312 -0.432,0.3 -0.66,0.828 -0.12,0.252 -0.18,0.54 z"
         id="path1008017" />
      <path
         d="m 731.14206,353.192 q -0.828,0 -1.5,-0.42 -0.66,-0.42 -1.044,-1.152 -0.384,-0.732 -0.384,-1.68 0,-0.948 0.384,-1.68 0.384,-0.732 1.044,-1.152 0.672,-0.42 1.5,-0.42 0.492,0 0.9,0.156 0.408,0.156 0.708,0.408 0.312,0.252 0.48,0.54 h 0.048 l -0.048,-0.852 v -2.532 h 1.02 V 353 h -0.972 v -0.9 h -0.048 q -0.168,0.276 -0.48,0.528 -0.3,0.252 -0.708,0.408 -0.408,0.156 -0.9,0.156 z m 0.108,-0.924 q 0.528,0 0.984,-0.276 0.468,-0.288 0.756,-0.804 0.288,-0.528 0.288,-1.248 0,-0.72 -0.288,-1.236 -0.288,-0.528 -0.756,-0.804 -0.456,-0.288 -0.984,-0.288 -0.528,0 -0.996,0.288 -0.456,0.276 -0.744,0.804 -0.288,0.516 -0.288,1.236 0,0.708 0.288,1.236 0.288,0.528 0.744,0.816 0.468,0.276 0.996,0.276 z"
         id="path1008019" />
      <path
         d="m 735.85806,353 v -6.12 h 1.02 V 353 Z m 0.504,-7.248 q -0.3,0 -0.516,-0.216 -0.216,-0.216 -0.216,-0.516 0,-0.312 0.216,-0.516 0.216,-0.216 0.516,-0.216 0.312,0 0.516,0.216 0.216,0.204 0.216,0.516 0,0.3 -0.216,0.516 -0.204,0.216 -0.516,0.216 z"
         id="path1008021" />
      <path
         d="m 740.37004,353.192 q -0.684,0 -1.2,-0.264 -0.516,-0.264 -0.816,-0.72 -0.288,-0.468 -0.288,-1.056 0,-0.672 0.348,-1.128 0.348,-0.468 0.936,-0.696 0.588,-0.24 1.296,-0.24 0.408,0 0.756,0.072 0.348,0.06 0.6,0.156 0.264,0.084 0.396,0.168 v -0.372 q 0,-0.696 -0.492,-1.104 -0.492,-0.408 -1.2,-0.408 -0.504,0 -0.948,0.228 -0.432,0.216 -0.684,0.612 l -0.768,-0.576 q 0.24,-0.36 0.6,-0.624 0.36,-0.264 0.816,-0.408 0.468,-0.144 0.984,-0.144 1.248,0 1.956,0.66 0.708,0.66 0.708,1.776 V 353 h -0.972 v -0.876 h -0.048 q -0.156,0.264 -0.444,0.516 -0.288,0.24 -0.684,0.396 -0.384,0.156 -0.852,0.156 z m 0.096,-0.9 q 0.528,0 0.96,-0.264 0.444,-0.264 0.708,-0.708 0.264,-0.444 0.264,-0.972 -0.276,-0.192 -0.696,-0.312 -0.408,-0.12 -0.9,-0.12 -0.876,0 -1.284,0.36 -0.408,0.36 -0.408,0.888 0,0.504 0.384,0.816 0.384,0.312 0.972,0.312 z"
         id="path1008023" />
      <path
         d="m 744.24605,346.88 h 1.068 v -1.728 h 1.02 v 1.728 h 1.5 v 0.924 h -1.5 v 3.336 q 0,0.48 0.192,0.744 0.204,0.264 0.66,0.264 0.204,0 0.372,-0.06 0.168,-0.06 0.3,-0.144 v 0.996 q -0.156,0.072 -0.348,0.108 -0.18,0.048 -0.492,0.048 -0.768,0 -1.236,-0.444 -0.468,-0.456 -0.468,-1.26 v -3.588 h -1.068 z"
         id="path1008025" />
      <path
         d="m 751.50608,353.192 q -0.888,0 -1.584,-0.42 -0.684,-0.42 -1.08,-1.152 -0.384,-0.732 -0.384,-1.668 0,-0.876 0.36,-1.62 0.372,-0.744 1.032,-1.188 0.672,-0.456 1.572,-0.456 0.912,0 1.56,0.408 0.66,0.396 1.008,1.104 0.36,0.708 0.36,1.62 0,0.084 -0.012,0.168 0,0.084 -0.012,0.144 h -4.848 q 0.036,0.66 0.3,1.116 0.3,0.516 0.768,0.768 0.48,0.252 0.996,0.252 0.672,0 1.104,-0.312 0.444,-0.324 0.708,-0.792 l 0.864,0.42 q -0.36,0.696 -1.032,1.152 -0.672,0.456 -1.68,0.456 z m -1.968,-3.9 h 3.732 q -0.012,-0.252 -0.12,-0.54 -0.096,-0.3 -0.324,-0.552 -0.216,-0.264 -0.564,-0.42 -0.336,-0.168 -0.84,-0.168 -0.6,0 -1.044,0.312 -0.432,0.3 -0.66,0.828 -0.12,0.252 -0.18,0.54 z"
         id="path1008027" />
      <path
         d="m 755.53806,353 v -8.592 h 1.02 V 353 Z"
         id="path1008029" />
      <path
         d="m 759.82204,355.28 q -0.036,0.084 -0.084,0.18 -0.048,0.108 -0.06,0.132 h -1.056 q 0.072,-0.156 0.156,-0.348 0.084,-0.18 0.204,-0.444 0.072,-0.156 0.132,-0.288 0.06,-0.132 0.132,-0.3 0.084,-0.156 0.192,-0.396 l 0.552,-1.2 -2.532,-5.736 h 1.104 l 1.92,4.548 h 0.024 l 1.848,-4.548 h 1.104 l -3.168,7.308 q -0.048,0.108 -0.156,0.336 -0.096,0.24 -0.192,0.456 -0.084,0.228 -0.12,0.3 z"
         id="path1008031" />
      <path
         d="m 764.57404,354.632 -0.744,-0.528 q 0.504,-0.6 0.924,-1.392 0.432,-0.792 0.684,-1.704 0.264,-0.912 0.264,-1.872 0,-0.96 -0.264,-1.872 -0.252,-0.912 -0.684,-1.704 -0.42,-0.792 -0.924,-1.392 l 0.744,-0.528 q 0.48,0.552 0.972,1.392 0.492,0.828 0.828,1.872 0.336,1.032 0.336,2.232 0,0.9 -0.204,1.716 -0.192,0.804 -0.504,1.512 -0.312,0.696 -0.696,1.272 -0.372,0.576 -0.732,0.996 z"
         id="path1008033" />
    </g>
    <path
       d="m 322.41241,299.51303 v 19.32 z"
       id="Path-5"
       fill="#afbdc4"
       transform="rotate(77,322.41241,309.17303)" />
    <path
       id="polygon1007685"
       transform="rotate(77,323.4182,315.76629)"
       style="fill:#9cadb5"
       d="m 320.1837,321.48886 6.469,-5.67022 -6.469,-5.77493 z" />
    <path
       d="m 378.5,176 38.7345,139.5"
       id="path1007687"
       stroke="#9cadb5"
       stroke-width="2"
       stroke-linecap="square"
       stroke-dasharray="4.2, 7.56" />
    <path
       d="M 522,314 483,256"
       id="path1007689"
       stroke="#9cadb5"
       stroke-width="2"
       stroke-linecap="square"
       stroke-dasharray="4.2, 7.56" />
    <path
       id="polygon1007691"
       transform="rotate(75,417.2345,316.72258)"
       style="fill:#9cadb5"
       d="m 414,322.44515 6.469,-5.67022 L 414,311 Z" />
    <path
       id="polygon1007693"
       transform="rotate(-64,472.2345,264.72258)"
       style="fill:#9cadb5"
       d="m 469,270.44515 6.469,-5.67022 L 469,259 Z" />
    <path
       id="polygon1007695"
       transform="rotate(57,524.2345,316.72258)"
       style="fill:#9cadb5"
       d="m 521,322.44515 6.469,-5.67022 L 521,311 Z" />
    <g
       id="Group-3"
       transform="translate(236,154)">
      <path
         id="circle1007697"
         style="fill:#90caf9"
         d="M 38,19 A 19,19 0 0 1 19,38 19,19 0 0 1 0,19 19,19 0 0 1 19,0 19,19 0 0 1 38,19 Z" />
      <g
         aria-label="R"
         id="text1007701"
         style="font-size:16px;font-family:Roboto-Regular, Roboto;fill:#ffffff">
        <path
           d="M 21.96875,25 19.5,20.390625 H 16.828125 V 25 H 15.320313 V 13.625 h 3.765624 q 1.914063,0 2.945313,0.875 1.039062,0.875 1.039062,2.539062 0,1.0625 -0.578125,1.859375 -0.570312,0.789063 -1.585937,1.179688 l 2.671875,4.828125 V 25 Z M 16.828125,14.859375 v 4.304687 h 2.304687 q 1.210938,0 1.820313,-0.617187 0.617187,-0.625 0.617187,-1.507813 0,-0.984375 -0.59375,-1.578124 -0.585937,-0.601563 -1.890625,-0.601563 z"
           id="path1008041" />
      </g>
    </g>
    <path
       id="circle1007704"
       style="fill:#90caf9"
       d="m 354,173 a 19,19 0 0 1 -19,19 19,19 0 0 1 -19,-19 19,19 0 0 1 19,-19 19,19 0 0 1 19,19 z" />
    <g
       aria-label="R"
       id="text1007708"
       style="font-size:16px;font-family:Roboto-Regular, Roboto;fill:#ffffff">
      <path
         d="M 337.96875,179 335.5,174.39062 h -2.67188 V 179 h -1.50781 v -11.375 h 3.76563 q 1.91406,0 2.94531,0.875 1.03906,0.875 1.03906,2.53906 0,1.0625 -0.57812,1.85938 -0.57032,0.78906 -1.58594,1.17968 l 2.67187,4.82813 V 179 Z m -5.14063,-10.14063 v 4.30469 h 2.30469 q 1.21094,0 1.82031,-0.61719 0.61719,-0.625 0.61719,-1.50781 0,-0.98437 -0.59375,-1.57812 -0.58594,-0.60157 -1.89062,-0.60157 z"
         id="path1008045" />
    </g>
    <g
       id="Group-5"
       transform="translate(417,239)">
      <path
         id="circle1007710"
         style="fill:#90caf9"
         d="M 38,19 A 19,19 0 0 1 19,38 19,19 0 0 1 0,19 19,19 0 0 1 19,0 19,19 0 0 1 38,19 Z" />
      <g
         aria-label="R"
         id="text1007714"
         style="font-size:16px;font-family:Roboto-Regular, Roboto;fill:#ffffff">
        <path
           d="M 21.96875,25 19.5,20.390625 H 16.828125 V 25 H 15.320313 V 13.625 h 3.765624 q 1.914063,0 2.945313,0.875 1.039062,0.875 1.039062,2.539062 0,1.0625 -0.578125,1.859375 -0.570312,0.789063 -1.585937,1.179688 l 2.671875,4.828125 V 25 Z M 16.828125,14.859375 v 4.304687 h 2.304687 q 1.210938,0 1.820313,-0.617187 0.617187,-0.625 0.617187,-1.507813 0,-0.984375 -0.59375,-1.578124 -0.585937,-0.601563 -1.890625,-0.601563 z"
           id="path1008049" />
      </g>
    </g>
    <path
       id="polygon1007717"
       style="fill:#9cadb5"
       d="M 559,183 570,173.58691 559,164 Z" />
    <path
       id="polygon1007719"
       style="fill:#9cadb5"
       d="M 649,268 660,258.58691 649,249 Z" />
    <path
       id="polygon1007721"
       style="fill:#9cadb5"
       d="M 922,333 933,323.58691 922,314 Z" />
    <path
       d="m 727,66 h 44.26229"
       id="Line-3"
       stroke="#9cadb5"
       stroke-width="6"
       stroke-linecap="square"
       stroke-dasharray="0.84" />
  </g>
</svg>
