<?xml version="1.0" encoding="utf-8"?>
<!-- Generator: Adobe Illustrator 28.1.0, SVG Export Plug-In . SVG Version: 6.00 Build 0)  -->
<svg version="1.1" id="Layer_1" xmlns="http://www.w3.org/2000/svg" xmlns:xlink="http://www.w3.org/1999/xlink" x="0px" y="0px"
	 viewBox="0 0 133.7 1734.4" style="enable-background:new 0 0 133.7 1734.4;" xml:space="preserve">
<style type="text/css">
	.st0{clip-path:url(#SVGID_00000080918481503004825260000006321928207992690587_);}
	.st1{fill:#005D8D;}
	.st2{fill:#FFFFFF;}
</style>
<g>
	<g>
		<defs>
			<rect id="SVGID_1_" x="-1.7" y="0.6" width="133.3" height="1732.5"/>
		</defs>
		<clipPath id="SVGID_00000094575951166490355420000017952746797633240238_">
			<use xlink:href="#SVGID_1_"  style="overflow:visible;"/>
		</clipPath>
		<g style="clip-path:url(#SVGID_00000094575951166490355420000017952746797633240238_);">
			<path class="st1" d="M65.9,1668.4c-22.4,0-40.6-18.2-40.6-40.6v-1657c0-22.4,18.2-40.6,40.6-40.6s40.6,18.2,40.6,40.6v1657
				C106.5,1650.2,88.3,1668.4,65.9,1668.4z"/>
			<path class="st2" d="M65.9-57.8c15.8,0,28.6,12.8,28.6,28.6v1657c0,15.8-12.8,28.6-28.6,28.6s-28.6-12.8-28.6-28.6v-1657
				C37.3-45,50.1-57.8,65.9-57.8 M65.9-81.9c-29,0-52.6,23.6-52.6,52.6v1657c0,29,23.6,52.6,52.6,52.6s52.6-23.6,52.6-52.6v-1657
				C118.5-58.3,94.9-81.9,65.9-81.9L65.9-81.9z"/>
		</g>
	</g>
</g>
</svg>
