<svg version="1.1" id="Layer_1" xmlns="http://www.w3.org/2000/svg" xmlns:xlink="http://www.w3.org/1999/xlink" x="0px" y="0px"
	 viewBox="0 0 66 182.7" style="enable-background:new 0 0 66 182.7;" xml:space="preserve">
<style type="text/css">
	.st0{fill:#FFFFFF;}
	.st1{fill:#666666;}
</style>
<path class="st0" d="M56.4,9.6C50,3.2,42.2,0,33,0S16,3.2,9.6,9.6S0,23.9,0,33c0,6.5,1.2,12.1,3.7,16.8c2.2,4.2,5.2,8.7,8.7,13.3
	c3.3,4.3,5.8,8,7.7,11.2c0.9,1.6,2,3.5,2,6.7v90.8c0,6,4.9,10.9,10.9,10.9s10.9-4.9,10.9-10.9V81c0-3.2,0.9-4.8,1.8-6.2l0.1-0.2
	c1.7-3,4.4-6.8,7.8-11.4c3.1-4.1,5.9-8.3,8.3-12.5C64.6,45.9,66,39.9,66,33C66,23.9,62.8,16,56.4,9.6L56.4,9.6z"/>
<path class="st1" d="M52.9,13.1C47.4,7.7,40.8,5,33,5s-14.4,2.7-19.9,8.1C7.7,18.6,5,25.2,5,33c0,5.7,1.1,10.5,3.1,14.5
	s4.9,8.2,8.2,12.6c3.4,4.5,6,8.3,8,11.6c1,1.7,2.8,4.7,2.8,9.3v90.8c0,3.3,2.6,5.9,5.9,5.9s5.9-2.6,5.9-5.9V81
	c0-4.7,1.6-7.3,2.6-8.9c1.8-3.2,4.5-7.2,8.1-12c3-3.9,5.7-7.9,8-12S61,39.1,61,33C61,25.2,58.3,18.6,52.9,13.1L52.9,13.1z M28.1,20
	c1.4-1.4,3-2,4.9-2s3.6,0.7,5,2s2,3,2,5s-0.7,3.6-2,5c-1.4,1.4-3,2-5,2s-3.6-0.7-5-2c-1.4-1.4-2-3-2-5S26.7,21.4,28.1,20z
	 M40.6,46.5c-2.4,1-4.9,1.5-7.5,1.5s-5.2-0.5-7.5-1.5S21,43.9,19.1,42c2.1-1.3,4.4-2.3,6.7-3c2.3-0.7,4.7-1,7.2-1s4.9,0.3,7.2,1
	s4.6,1.7,6.7,3C45.1,43.9,42.9,45.4,40.6,46.5z"/>
</svg>
