<?xml-stylesheet type="text/css" href="core-model.css"?> <svg width="2112" height="1188" viewBox="0 0 2112 1188" fill="none" xmlns="http://www.w3.org/2000/svg">
<g class="dora-core-model-EXPORT" clip-path="url(" id="clip0_5_88)" >
<rect width="2112" height="1188" fill="white"/>
<rect id="Rectangle 13" width="303" height="101" fill="#F5F5F5"/>
<g class="construct" id="technical-capabilities" >
<rect id="Rectangle 1" x="82" y="253" width="500" height="916" rx="16" fill="#FCFCFC" stroke="#CCCCCC" stroke-width="2"/>
<text id="TECHNICAL CAPABILITIES" fill="#414042" xml:space="preserve" style="white-space: pre" font-family="Google Sans" font-size="24" font-weight="500" letter-spacing="0.225em"><tspan x="130.21" y="296.16">TECHNICAL CAPABILITIES</tspan></text>
</g>
<g class="connector">
<path d="M581 708C579.333 708 578 709.333 578 711C578 712.667 579.333 714 581 714C582.667 714 584 712.667 584 711C584 709.333 582.667 708 581 708Z" fill="white"/>
<path d="M680 450L668.594 448.201L672.739 458.978L680 450ZM579 711C579 709.886 579.886 709 581 709V707C578.781 707 577 708.781 577 711H579ZM581 709C582.114 709 583 709.886 583 711H585C585 708.781 583.219 707 581 707V709ZM583 711C583 712.114 582.114 713 581 713V715C583.219 715 585 713.219 585 711H583ZM581 713C579.886 713 579 712.114 579 711H577C577 713.219 578.781 715 581 715V713ZM584 712C590.102 712 595.332 708.131 599.874 701.733C604.422 695.325 608.417 686.199 612.035 675.255C619.275 653.357 625.099 623.88 630.746 593.546C636.399 563.178 641.877 531.939 648.426 506.409C651.7 493.646 655.232 482.347 659.173 473.319C663.126 464.263 667.436 457.62 672.197 454.031L670.993 452.434C665.809 456.342 661.33 463.377 657.34 472.519C653.338 481.688 649.774 493.104 646.489 505.912C639.918 531.526 634.425 562.855 628.78 593.18C623.128 623.539 617.326 652.88 610.136 674.627C606.54 685.506 602.62 694.41 598.243 700.575C593.859 706.751 589.153 710 584 710V712Z" fill="#999999"/>
</g>
<g class="connector">
<path d="M581 708C579.333 708 578 709.333 578 711C578 712.667 579.333 714 581 714C582.667 714 584 712.667 584 711C584 709.333 582.667 708 581 708Z" fill="white"/>
<path d="M680 631L669.243 626.801L670.985 638.216L680 631ZM579 711C579 709.886 579.886 709 581 709V707C578.781 707 577 708.781 577 711H579ZM581 709C582.114 709 583 709.886 583 711H585C585 708.781 583.219 707 581 707V709ZM583 711C583 712.114 582.114 713 581 713V715C583.219 715 585 713.219 585 711H583ZM581 713C579.886 713 579 712.114 579 711H577C577 713.219 578.781 715 581 715V713ZM584 712C607.039 712 619.252 694.472 630.474 676.202C636.127 666.998 641.535 657.586 647.983 649.783C654.415 641.999 661.807 635.916 671.362 633.323L670.838 631.393C660.738 634.133 653.02 640.547 646.441 648.509C639.878 656.451 634.373 666.033 628.77 675.155C617.477 693.54 605.795 710 584 710V712Z" fill="#999999"/>
</g>
<g class="construct" id="job-satisfaction" >
<g id="Group 1">
<rect id="Rectangle 6" x="1677" y="803" width="382" height="279" rx="25" fill="#FCFCFC" stroke="#CCCCCC" stroke-width="2"/>
<path id="Rectangle 7" d="M1677 828C1677 814.193 1688.19 803 1702 803H2034C2047.81 803 2059 814.193 2059 828V878H1677V828Z" fill="#005E8D" stroke="#005E8D" stroke-width="2"/>
<g class="entity outcome none" id="deployment-pain" >
<rect class="entity-box" x="1695" y="898" width="348" height="42" rx="9" fill="#FCFCFC" stroke="#CCCCCC" stroke-width="2"/>
<text id="entity-name" fill="#414042" xml:space="preserve" style="white-space: pre" font-family="Google Sans" font-size="24" font-weight="500" letter-spacing="0.025em"><tspan x="1746" y="927.16">Less deployment pain</tspan></text>
<g id="icon-group">
<path class="icon-bg" d="M1739 899V898H1738H1704C1699.03 898 1695 902.029 1695 907V931C1695 935.971 1699.03 940 1704 940H1738H1739V939V899Z" fill="#005E8D" stroke="#005E8D" stroke-width="2"/>
<path class="icon" d="M1723.7 913.533L1714.8 922.43L1709.95 917.597L1708.05 919.5L1714.8 926.25L1725.6 915.45L1723.7 913.533ZM1717.5 906C1710.05 906 1704 912.048 1704 919.5C1704 926.952 1710.05 933 1717.5 933C1724.95 933 1731 926.952 1731 919.5C1731 912.048 1724.95 906 1717.5 906ZM1717.5 930.3C1711.53 930.3 1706.7 925.467 1706.7 919.5C1706.7 913.533 1711.53 908.7 1717.5 908.7C1723.47 908.7 1728.3 913.533 1728.3 919.5C1728.3 925.467 1723.47 930.3 1717.5 930.3Z" fill="#FCFCFC"/>
</g>
</g>
<g class="entity outcome none" id="rework" >
<rect class="entity-box" x="1695" y="959" width="348" height="42" rx="9" fill="#FCFCFC" stroke="#CCCCCC" stroke-width="2"/>
<text id="entity-name_2" fill="#414042" xml:space="preserve" style="white-space: pre" font-family="Google Sans" font-size="24" font-weight="500" letter-spacing="0.025em"><tspan x="1746" y="988.16">Less rework</tspan></text>
<g id="icon-group_2">
<path class="icon-bg" d="M1739 960V959H1738H1704C1699.03 959 1695 963.029 1695 968V992C1695 996.971 1699.03 1001 1704 1001H1738H1739V1000V960Z" fill="#005E8D" stroke="#005E8D" stroke-width="2"/>
<path class="icon" d="M1723.7 974.533L1714.8 983.43L1709.95 978.597L1708.05 980.5L1714.8 987.25L1725.6 976.45L1723.7 974.533ZM1717.5 967C1710.05 967 1704 973.048 1704 980.5C1704 987.952 1710.05 994 1717.5 994C1724.95 994 1731 987.952 1731 980.5C1731 973.048 1724.95 967 1717.5 967ZM1717.5 991.3C1711.53 991.3 1706.7 986.467 1706.7 980.5C1706.7 974.533 1711.53 969.7 1717.5 969.7C1723.47 969.7 1728.3 974.533 1728.3 980.5C1728.3 986.467 1723.47 991.3 1717.5 991.3Z" fill="#FCFCFC"/>
</g>
</g>
<g class="entity outcome none" id="burnout" >
<rect class="entity-box" x="1695" y="1019" width="348" height="42" rx="9" fill="#FCFCFC" stroke="#CCCCCC" stroke-width="2"/>
<text id="entity-name_3" fill="#414042" xml:space="preserve" style="white-space: pre" font-family="Google Sans" font-size="24" font-weight="500" letter-spacing="0.025em"><tspan x="1746" y="1048.16">Less burnout</tspan></text>
<g id="icon-group_3">
<path class="icon-bg" d="M1739 1020V1019H1738H1704C1699.03 1019 1695 1023.03 1695 1028V1052C1695 1056.97 1699.03 1061 1704 1061H1738H1739V1060V1020Z" fill="#005E8D" stroke="#005E8D" stroke-width="2"/>
<path class="icon" d="M1723.7 1034.53L1714.8 1043.43L1709.95 1038.6L1708.05 1040.5L1714.8 1047.25L1725.6 1036.45L1723.7 1034.53ZM1717.5 1027C1710.05 1027 1704 1033.05 1704 1040.5C1704 1047.95 1710.05 1054 1717.5 1054C1724.95 1054 1731 1047.95 1731 1040.5C1731 1033.05 1724.95 1027 1717.5 1027ZM1717.5 1051.3C1711.53 1051.3 1706.7 1046.47 1706.7 1040.5C1706.7 1034.53 1711.53 1029.7 1717.5 1029.7C1723.47 1029.7 1728.3 1034.53 1728.3 1040.5C1728.3 1046.47 1723.47 1051.3 1717.5 1051.3Z" fill="#FCFCFC"/>
</g>
</g>
<text id="Wellbeing" fill="#FCFCFC" xml:space="preserve" style="white-space: pre" font-family="Google Sans" font-size="28" font-weight="500" letter-spacing="0em"><tspan x="1700" y="851.02">Wellbeing</tspan></text>
</g>
</g>
<g class="construct" id="software-delivery-performance" >
<rect id="Rectangle 2" x="1147" y="267" width="404" height="366" rx="25" fill="#FCFCFC" stroke="#CCCCCC" stroke-width="2"/>
<path id="Rectangle 3" d="M1147 292C1147 278.193 1158.19 267 1172 267H1526C1539.81 267 1551 278.193 1551 292V365H1147V292Z" fill="#63A657" stroke="#63A657" stroke-width="2"/>
<g class="entity metric none" id="change-lead-time" >
<rect class="entity-box" x="1164" y="382" width="370" height="42" rx="9" fill="#FCFCFC" stroke="#CCCCCC" stroke-width="2"/>
<text id="entity-name_4" fill="#414042" xml:space="preserve" style="white-space: pre" font-family="Google Sans" font-size="24" font-weight="500" letter-spacing="0.015em"><tspan x="1215" y="411.16">Change lead time</tspan></text>
<g id="icon-group_4">
<path class="icon-bg" d="M1208 383V382H1207H1173C1168.03 382 1164 386.029 1164 391V415C1164 419.971 1168.03 424 1173 424H1207H1208V423V383Z" fill="#63A657" stroke="#63A657" stroke-width="2"/>
<path class="icon" d="M1172 397.4H1178V417H1172V397.4ZM1183.2 389H1188.8V417H1183.2V389ZM1194.4 405H1200V417H1194.4V405Z" fill="#FCFCFC"/>
</g>
</g>
<g class="entity metric none" id="deployment-frequency" >
<rect class="entity-box" x="1164" y="446" width="370" height="42" rx="9" fill="#FCFCFC" stroke="#CCCCCC" stroke-width="2"/>
<text id="entity-name_5" fill="#414042" xml:space="preserve" style="white-space: pre" font-family="Google Sans" font-size="24" font-weight="500" letter-spacing="0.015em"><tspan x="1215" y="475.16">Deployment frequency</tspan></text>
<g id="icon-group_5">
<path class="icon-bg" d="M1208 447V446H1207H1173C1168.03 446 1164 450.029 1164 455V479C1164 483.971 1168.03 488 1173 488H1207H1208V487V447Z" fill="#63A657" stroke="#63A657" stroke-width="2"/>
<path class="icon" d="M1172 461.4H1178V481H1172V461.4ZM1183.2 453H1188.8V481H1183.2V453ZM1194.4 469H1200V481H1194.4V469Z" fill="#FCFCFC"/>
</g>
</g>
<g class="entity metric none" id="change-fail-rate" >
<rect class="entity-box" x="1164" y="509" width="370" height="42" rx="9" fill="#FCFCFC" stroke="#CCCCCC" stroke-width="2"/>
<text id="entity-name_6" fill="#414042" xml:space="preserve" style="white-space: pre" font-family="Google Sans" font-size="24" font-weight="500" letter-spacing="0.015em"><tspan x="1215" y="538.16">Change fail rate</tspan></text>
<g id="icon-group_6">
<path class="icon-bg" d="M1208 510V509H1207H1173C1168.03 509 1164 513.029 1164 518V542C1164 546.971 1168.03 551 1173 551H1207H1208V550V510Z" fill="#63A657" stroke="#63A657" stroke-width="2"/>
<path class="icon" d="M1172 524.4H1178V544H1172V524.4ZM1183.2 516H1188.8V544H1183.2V516ZM1194.4 532H1200V544H1194.4V532Z" fill="#FCFCFC"/>
</g>
</g>
<text id="Software Delivery Performance" fill="#FCFCFC" xml:space="preserve" style="white-space: pre" font-family="Google Sans" font-size="28" font-weight="500" letter-spacing="0em"><tspan x="1165" y="311.02">Software Delivery&#10;</tspan><tspan x="1165" y="346.02">Performance</tspan></text>
<g class="entity metric none" id="time-to-repair" >
<rect class="entity-box" x="1164" y="572" width="370" height="42" rx="9" fill="#FCFCFC" stroke="#CCCCCC" stroke-width="2"/>
<text id="entity-name_7" fill="#414042" xml:space="preserve" style="white-space: pre" font-family="Google Sans" font-size="24" font-weight="500" letter-spacing="0.015em"><tspan x="1215" y="601.16">Time to restore service</tspan></text>
<g id="icon-group_7">
<path class="icon-bg" d="M1208 573V572H1207H1173C1168.03 572 1164 576.029 1164 581V605C1164 609.971 1168.03 614 1173 614H1207H1208V613V573Z" fill="#63A657" stroke="#63A657" stroke-width="2"/>
<path class="icon" d="M1172 587.4H1178V607H1172V587.4ZM1183.2 579H1188.8V607H1183.2V579ZM1194.4 595H1200V607H1194.4V595Z" fill="#FCFCFC"/>
</g>
</g>
</g>
<g class="entity capability technical" id="continuous-delivery" >
<rect class="entity-box" x="679" y="576" width="311" height="110" rx="9" fill="#FCFCFC" stroke="#CCCCCC" stroke-width="2"/>
<text id="entity-name_8" fill="#414042" xml:space="preserve" style="white-space: pre" font-family="Google Sans" font-size="26" font-weight="500" letter-spacing="0.03em"><tspan x="755" y="623.84">Continuous&#10;</tspan><tspan x="755" y="655.84">delivery</tspan></text>
<g id="icon-group_8">
<path class="icon-bg" d="M740 577V576H739H688C683.029 576 679 580.029 679 585V677C679 681.971 683.029 686 688 686H739H740V685V577Z" fill="#33484F" stroke="#33484F" stroke-width="2"/>
<path class="icon" d="M724.351 631.958C724.432 631.333 724.473 630.688 724.473 630C724.473 629.333 724.432 628.667 724.331 628.042L728.44 624.75C728.804 624.458 728.905 623.896 728.683 623.479L724.797 616.562C724.554 616.104 724.048 615.958 723.602 616.104L718.765 618.104C717.753 617.312 716.68 616.646 715.486 616.146L714.758 610.854C714.677 610.354 714.272 610 713.786 610H706.014C705.528 610 705.144 610.354 705.063 610.854L704.334 616.146C703.14 616.646 702.047 617.333 701.055 618.104L696.218 616.104C695.773 615.937 695.267 616.104 695.024 616.562L691.158 623.479C690.915 623.917 690.996 624.458 691.401 624.75L695.509 628.042C695.408 628.667 695.327 629.354 695.327 630C695.327 630.646 695.368 631.333 695.469 631.958L691.36 635.25C690.996 635.542 690.895 636.104 691.117 636.521L695.003 643.438C695.246 643.896 695.752 644.042 696.198 643.896L701.035 641.896C702.047 642.687 703.12 643.354 704.314 643.854L705.042 649.146C705.144 649.646 705.528 650 706.014 650H713.786C714.272 650 714.677 649.646 714.737 649.146L715.466 643.854C716.66 643.354 717.753 642.687 718.745 641.896L723.582 643.896C724.027 644.062 724.533 643.896 724.776 643.438L728.662 636.521C728.905 636.062 728.804 635.542 728.419 635.25L724.351 631.958ZM709.9 637.5C705.893 637.5 702.614 634.125 702.614 630C702.614 625.875 705.893 622.5 709.9 622.5C713.907 622.5 717.186 625.875 717.186 630C717.186 634.125 713.907 637.5 709.9 637.5Z" fill="white"/>
</g>
</g>
<g class="entity capability technical" id="shifting-left-on-security" >
<rect class="entity-box" x="679" y="395" width="311" height="110" rx="9" fill="#FCFCFC" stroke="#CCCCCC" stroke-width="2"/>
<text id="entity-name_9" fill="#414042" xml:space="preserve" style="white-space: pre" font-family="Google Sans" font-size="26" font-weight="500" letter-spacing="0.03em"><tspan x="755" y="442.84">Shift left&#10;</tspan><tspan x="755" y="474.84">on security</tspan></text>
<g id="icon-group_9">
<path class="icon-bg" d="M740 396V395H739H688C683.029 395 679 399.029 679 404V496C679 500.971 683.029 505 688 505H739H740V504V396Z" fill="#33484F" stroke="#33484F" stroke-width="2"/>
<path class="icon" d="M724.351 450.958C724.432 450.333 724.473 449.688 724.473 449C724.473 448.333 724.432 447.667 724.331 447.042L728.44 443.75C728.804 443.458 728.905 442.896 728.683 442.479L724.797 435.562C724.554 435.104 724.048 434.958 723.602 435.104L718.765 437.104C717.753 436.312 716.68 435.646 715.486 435.146L714.758 429.854C714.677 429.354 714.272 429 713.786 429H706.014C705.528 429 705.144 429.354 705.063 429.854L704.334 435.146C703.14 435.646 702.047 436.333 701.055 437.104L696.218 435.104C695.773 434.937 695.267 435.104 695.024 435.562L691.158 442.479C690.915 442.917 690.996 443.458 691.401 443.75L695.509 447.042C695.408 447.667 695.327 448.354 695.327 449C695.327 449.646 695.368 450.333 695.469 450.958L691.36 454.25C690.996 454.542 690.895 455.104 691.117 455.521L695.003 462.438C695.246 462.896 695.752 463.042 696.198 462.896L701.035 460.896C702.047 461.687 703.12 462.354 704.314 462.854L705.042 468.146C705.144 468.646 705.528 469 706.014 469H713.786C714.272 469 714.677 468.646 714.737 468.146L715.466 462.854C716.66 462.354 717.753 461.687 718.745 460.896L723.582 462.896C724.027 463.062 724.533 462.896 724.776 462.438L728.662 455.521C728.905 455.062 728.804 454.542 728.419 454.25L724.351 450.958ZM709.9 456.5C705.893 456.5 702.614 453.125 702.614 449C702.614 444.875 705.893 441.5 709.9 441.5C713.907 441.5 717.186 444.875 717.186 449C717.186 453.125 713.907 456.5 709.9 456.5Z" fill="white"/>
</g>
</g>
<g class="entity capability technical" id="streamlining-change-approval" >
<rect class="entity-box" x="679" y="757" width="311" height="110" rx="9" fill="#FCFCFC" stroke="#CCCCCC" stroke-width="2"/>
<text id="entity-name_10" fill="#414042" xml:space="preserve" style="white-space: pre" font-family="Google Sans" font-size="26" font-weight="500" letter-spacing="0.03em"><tspan x="755" y="804.84">Streamlined&#10;</tspan><tspan x="755" y="836.84">change approval</tspan></text>
<g id="icon-group_10">
<path class="icon-bg" d="M740 758V757H739H688C683.029 757 679 761.029 679 766V858C679 862.971 683.029 867 688 867H739H740V866V758Z" fill="#33484F" stroke="#33484F" stroke-width="2"/>
<path class="icon" d="M724.351 812.958C724.432 812.333 724.473 811.688 724.473 811C724.473 810.333 724.432 809.667 724.331 809.042L728.44 805.75C728.804 805.458 728.905 804.896 728.683 804.479L724.797 797.562C724.554 797.104 724.048 796.958 723.602 797.104L718.765 799.104C717.753 798.312 716.68 797.646 715.486 797.146L714.758 791.854C714.677 791.354 714.272 791 713.786 791H706.014C705.528 791 705.144 791.354 705.063 791.854L704.334 797.146C703.14 797.646 702.047 798.333 701.055 799.104L696.218 797.104C695.773 796.937 695.267 797.104 695.024 797.562L691.158 804.479C690.915 804.917 690.996 805.458 691.401 805.75L695.509 809.042C695.408 809.667 695.327 810.354 695.327 811C695.327 811.646 695.368 812.333 695.469 812.958L691.36 816.25C690.996 816.542 690.895 817.104 691.117 817.521L695.003 824.438C695.246 824.896 695.752 825.042 696.198 824.896L701.035 822.896C702.047 823.687 703.12 824.354 704.314 824.854L705.042 830.146C705.144 830.646 705.528 831 706.014 831H713.786C714.272 831 714.677 830.646 714.737 830.146L715.466 824.854C716.66 824.354 717.753 823.687 718.745 822.896L723.582 824.896C724.027 825.062 724.533 824.896 724.776 824.438L728.662 817.521C728.905 817.062 728.804 816.542 728.419 816.25L724.351 812.958ZM709.9 818.5C705.893 818.5 702.614 815.125 702.614 811C702.614 806.875 705.893 803.5 709.9 803.5C713.907 803.5 717.186 806.875 717.186 811C717.186 815.125 713.907 818.5 709.9 818.5Z" fill="white"/>
</g>
</g>
<g class="entity capability technical" id="generative-organizational-culture" >
<rect class="entity-box" x="679" y="938" width="311" height="110" rx="9" fill="#FCFCFC" stroke="#CCCCCC" stroke-width="2"/>
<text id="entity-name_11" fill="#414042" xml:space="preserve" style="white-space: pre" font-family="Google Sans" font-size="26" font-weight="500" letter-spacing="0.03em"><tspan x="755" y="969.84">Generative&#10;</tspan><tspan x="755" y="1001.84">organizational&#10;</tspan><tspan x="755" y="1033.84">culture</tspan></text>
<g id="icon-group_11">
<path class="icon-bg" d="M740 939V938H739H688C683.029 938 679 942.029 679 947V1039C679 1043.97 683.029 1048 688 1048H739H740V1047V939Z" fill="#33484F" stroke="#33484F" stroke-width="2"/>
<path class="icon" d="M724.351 993.958C724.432 993.333 724.473 992.688 724.473 992C724.473 991.333 724.432 990.667 724.331 990.042L728.44 986.75C728.804 986.458 728.905 985.896 728.683 985.479L724.797 978.562C724.554 978.104 724.048 977.958 723.602 978.104L718.765 980.104C717.753 979.312 716.68 978.646 715.486 978.146L714.758 972.854C714.677 972.354 714.272 972 713.786 972H706.014C705.528 972 705.144 972.354 705.063 972.854L704.334 978.146C703.14 978.646 702.047 979.333 701.055 980.104L696.218 978.104C695.773 977.937 695.267 978.104 695.024 978.562L691.158 985.479C690.915 985.917 690.996 986.458 691.401 986.75L695.509 990.042C695.408 990.667 695.327 991.354 695.327 992C695.327 992.646 695.368 993.333 695.469 993.958L691.36 997.25C690.996 997.542 690.895 998.104 691.117 998.521L695.003 1005.44C695.246 1005.9 695.752 1006.04 696.198 1005.9L701.035 1003.9C702.047 1004.69 703.12 1005.35 704.314 1005.85L705.042 1011.15C705.144 1011.65 705.528 1012 706.014 1012H713.786C714.272 1012 714.677 1011.65 714.737 1011.15L715.466 1005.85C716.66 1005.35 717.753 1004.69 718.745 1003.9L723.582 1005.9C724.027 1006.06 724.533 1005.9 724.776 1005.44L728.662 998.521C728.905 998.062 728.804 997.542 728.419 997.25L724.351 993.958ZM709.9 999.5C705.893 999.5 702.614 996.125 702.614 992C702.614 987.875 705.893 984.5 709.9 984.5C713.907 984.5 717.186 987.875 717.186 992C717.186 996.125 713.907 999.5 709.9 999.5Z" fill="white"/>
</g>
</g>
<g class="entity capability technical" id="flexible-infrastructure" >
<rect class="entity-box" x="38" y="141" width="285" height="75" rx="9" fill="#FCFCFC" stroke="#CCCCCC" stroke-width="2"/>
<text id="entity-name_12" fill="#414042" xml:space="preserve" style="white-space: pre" font-family="Google Sans" font-size="26" font-weight="500" letter-spacing="0.03em"><tspan x="114" y="173.84">Flexible&#10;</tspan><tspan x="114" y="201.84">infrastructure</tspan></text>
<g id="icon-group_12">
<path class="icon-bg" d="M99 142V141H98H47C42.0294 141 38 145.029 38 150V207C38 211.971 42.0294 216 47 216H98H99V215V142Z" fill="#33484F" stroke="#33484F" stroke-width="2"/>
<path class="icon" d="M83.3513 179.958C83.4322 179.333 83.4727 178.688 83.4727 178C83.4727 177.333 83.4322 176.667 83.331 176.042L87.4397 172.75C87.8041 172.458 87.9053 171.896 87.6826 171.479L83.7966 164.562C83.5537 164.104 83.0477 163.958 82.6024 164.104L77.7651 166.104C76.7531 165.312 75.6804 164.646 74.4862 164.146L73.7576 158.854C73.6766 158.354 73.2718 158 72.7861 158H65.0139C64.5282 158 64.1436 158.354 64.0627 158.854L63.334 164.146C62.1399 164.646 61.0469 165.333 60.0552 166.104L55.2178 164.104C54.7726 163.937 54.2666 164.104 54.0237 164.562L50.1579 171.479C49.915 171.917 49.996 172.458 50.4008 172.75L54.5094 176.042C54.4082 176.667 54.3273 177.354 54.3273 178C54.3273 178.646 54.3678 179.333 54.469 179.958L50.3603 183.25C49.996 183.542 49.8948 184.104 50.1174 184.521L54.0034 191.438C54.2463 191.896 54.7523 192.042 55.1976 191.896L60.0349 189.896C61.0469 190.687 62.1196 191.354 63.3138 191.854L64.0424 197.146C64.1436 197.646 64.5282 198 65.0139 198H72.7861C73.2718 198 73.6766 197.646 73.7373 197.146L74.466 191.854C75.6601 191.354 76.7531 190.687 77.7448 189.896L82.5822 191.896C83.0274 192.062 83.5334 191.896 83.7763 191.438L87.6624 184.521C87.9053 184.062 87.8041 183.542 87.4195 183.25L83.3513 179.958ZM68.9 185.5C64.8925 185.5 61.6136 182.125 61.6136 178C61.6136 173.875 64.8925 170.5 68.9 170.5C72.9075 170.5 76.1864 173.875 76.1864 178C76.1864 182.125 72.9075 185.5 68.9 185.5Z" fill="white"/>
</g>
</g>
<g class="entity capability technical" id="documentation-quality" >
<rect class="entity-box" x="340" y="140" width="285" height="75" rx="9" fill="#FCFCFC" stroke="#CCCCCC" stroke-width="2"/>
<text id="entity-name_13" fill="#414042" xml:space="preserve" style="white-space: pre" font-family="Google Sans" font-size="26" font-weight="500" letter-spacing="0em"><tspan x="416" y="172.84">Documentation&#10;</tspan><tspan x="416" y="200.84">quality</tspan></text>
<g id="icon-group_13">
<path class="icon-bg" d="M401 141V140H400H349C344.029 140 340 144.029 340 149V206C340 210.971 344.029 215 349 215H400H401V214V141Z" fill="#33484F" stroke="#33484F" stroke-width="2"/>
<path class="icon" d="M385.351 178.958C385.432 178.333 385.473 177.688 385.473 177C385.473 176.333 385.432 175.667 385.331 175.042L389.44 171.75C389.804 171.458 389.905 170.896 389.683 170.479L385.797 163.562C385.554 163.104 385.048 162.958 384.602 163.104L379.765 165.104C378.753 164.312 377.68 163.646 376.486 163.146L375.758 157.854C375.677 157.354 375.272 157 374.786 157H367.014C366.528 157 366.144 157.354 366.063 157.854L365.334 163.146C364.14 163.646 363.047 164.333 362.055 165.104L357.218 163.104C356.773 162.937 356.267 163.104 356.024 163.562L352.158 170.479C351.915 170.917 351.996 171.458 352.401 171.75L356.509 175.042C356.408 175.667 356.327 176.354 356.327 177C356.327 177.646 356.368 178.333 356.469 178.958L352.36 182.25C351.996 182.542 351.895 183.104 352.117 183.521L356.003 190.438C356.246 190.896 356.752 191.042 357.198 190.896L362.035 188.896C363.047 189.687 364.12 190.354 365.314 190.854L366.042 196.146C366.144 196.646 366.528 197 367.014 197H374.786C375.272 197 375.677 196.646 375.737 196.146L376.466 190.854C377.66 190.354 378.753 189.687 379.745 188.896L384.582 190.896C385.027 191.062 385.533 190.896 385.776 190.438L389.662 183.521C389.905 183.062 389.804 182.542 389.419 182.25L385.351 178.958ZM370.9 184.5C366.893 184.5 363.614 181.125 363.614 177C363.614 172.875 366.893 169.5 370.9 169.5C374.907 169.5 378.186 172.875 378.186 177C378.186 181.125 374.907 184.5 370.9 184.5Z" fill="white"/>
</g>
</g>
<g id="footer">
<text fill="#999999" xml:space="preserve" style="white-space: pre" font-family="Google Sans" font-size="14" font-weight="500" letter-spacing="0em"><tspan x="2073.04" y="1133.26">9&#10;</tspan></text>
<text fill="#999999" xml:space="preserve" style="white-space: pre" font-family="Google Sans" font-size="14" font-weight="500" letter-spacing="0em" text-decoration="underline"><tspan x="1965.31" y="1154.26"><a href="https://creativecommons.org/licenses/by-nc-sa/4.0/">CC BY-NC-SA 4.0</a></tspan></text>
<text fill="#999999" xml:space="preserve" style="white-space: pre" font-family="Google Sans" font-size="14" font-weight="500" letter-spacing="0em"><tspan x="1977.76" y="1133.26">version 1.0.0rc</tspan><tspan x="1760.12" y="1154.26"> Licensed by Google LLC under </tspan><tspan x="2081" y="1154.26"> </tspan></text>
</g>
<g class="construct" id="organizational-performance" >
<g id="Group 2">
<rect id="Rectangle 4" x="1677" y="328" width="382" height="244" rx="25" fill="#FCFCFC" stroke="#CCCCCC" stroke-width="2"/>
<path id="Rectangle 5" d="M1677 353C1677 339.193 1688.19 328 1702 328H2034C2047.81 328 2059 339.193 2059 353V426H1677V353Z" fill="#005E8D" stroke="#005E8D" stroke-width="2"/>
<g class="entity outcome none" id="job-satisfaction" >
<rect class="entity-box" x="1695" y="446" width="348" height="42" rx="9" fill="#FCFCFC" stroke="#CCCCCC" stroke-width="2"/>
<text id="entity-name_14" fill="#414042" xml:space="preserve" style="white-space: pre" font-family="Google Sans" font-size="24" font-weight="500" letter-spacing="0.025em"><tspan x="1746" y="475.16">Commercial</tspan></text>
<g id="icon-group_14">
<path class="icon-bg" d="M1739 447V446H1738H1704C1699.03 446 1695 450.029 1695 455V479C1695 483.971 1699.03 488 1704 488H1738H1739V487V447Z" fill="#005E8D" stroke="#005E8D" stroke-width="2"/>
<path class="icon" d="M1723.7 461.533L1714.8 470.43L1709.95 465.597L1708.05 467.5L1714.8 474.25L1725.6 463.45L1723.7 461.533ZM1717.5 454C1710.05 454 1704 460.048 1704 467.5C1704 474.952 1710.05 481 1717.5 481C1724.95 481 1731 474.952 1731 467.5C1731 460.048 1724.95 454 1717.5 454ZM1717.5 478.3C1711.53 478.3 1706.7 473.467 1706.7 467.5C1706.7 461.533 1711.53 456.7 1717.5 456.7C1723.47 456.7 1728.3 461.533 1728.3 467.5C1728.3 473.467 1723.47 478.3 1717.5 478.3Z" fill="#FCFCFC"/>
</g>
</g>
<g class="entity outcome none" id="job-satisfaction_2" >
<rect class="entity-box" x="1695" y="506" width="348" height="42" rx="9" fill="#FCFCFC" stroke="#CCCCCC" stroke-width="2"/>
<text id="entity-name_15" fill="#414042" xml:space="preserve" style="white-space: pre" font-family="Google Sans" font-size="24" font-weight="500" letter-spacing="0.025em"><tspan x="1746" y="535.16">Non-Commercial</tspan></text>
<g id="icon-group_15">
<path class="icon-bg" d="M1739 507V506H1738H1704C1699.03 506 1695 510.029 1695 515V539C1695 543.971 1699.03 548 1704 548H1738H1739V547V507Z" fill="#005E8D" stroke="#005E8D" stroke-width="2"/>
<path class="icon" d="M1723.7 521.533L1714.8 530.43L1709.95 525.597L1708.05 527.5L1714.8 534.25L1725.6 523.45L1723.7 521.533ZM1717.5 514C1710.05 514 1704 520.048 1704 527.5C1704 534.952 1710.05 541 1717.5 541C1724.95 541 1731 534.952 1731 527.5C1731 520.048 1724.95 514 1717.5 514ZM1717.5 538.3C1711.53 538.3 1706.7 533.467 1706.7 527.5C1706.7 521.533 1711.53 516.7 1717.5 516.7C1723.47 516.7 1728.3 521.533 1728.3 527.5C1728.3 533.467 1723.47 538.3 1717.5 538.3Z" fill="#FCFCFC"/>
</g>
</g>
</g>
<text id="Organizational Performance" fill="#FCFCFC" xml:space="preserve" style="white-space: pre" font-family="Google Sans" font-size="28" font-weight="500" letter-spacing="0em"><tspan x="1700" y="372.02">Organizational&#10;</tspan><tspan x="1700" y="407.02">Performance</tspan></text>
</g>
<g class="entity capability technical" id="loosely-coupled-architecture" >
<rect class="entity-box" x="96" y="717" width="472" height="62" rx="9" fill="#FCFCFC" stroke="#CCCCCC" stroke-width="2"/>
<text id="entity-name_16" fill="#414042" xml:space="preserve" style="white-space: pre" font-family="Google Sans" font-size="26" font-weight="500" letter-spacing="0.03em"><tspan x="172" y="756.84">Loosely coupled architecture</tspan></text>
<g id="icon-group_16">
<path class="icon-bg" d="M157 718V717H156H105C100.029 717 96 721.029 96 726V770C96 774.971 100.029 779 105 779H156H157V778V718Z" fill="#33484F" stroke="#33484F" stroke-width="2"/>
<path class="icon" d="M141.351 748.958C141.432 748.333 141.473 747.688 141.473 747C141.473 746.333 141.432 745.667 141.331 745.042L145.44 741.75C145.804 741.458 145.905 740.896 145.683 740.479L141.797 733.562C141.554 733.104 141.048 732.958 140.602 733.104L135.765 735.104C134.753 734.312 133.68 733.646 132.486 733.146L131.758 727.854C131.677 727.354 131.272 727 130.786 727H123.014C122.528 727 122.144 727.354 122.063 727.854L121.334 733.146C120.14 733.646 119.047 734.333 118.055 735.104L113.218 733.104C112.773 732.937 112.267 733.104 112.024 733.562L108.158 740.479C107.915 740.917 107.996 741.458 108.401 741.75L112.509 745.042C112.408 745.667 112.327 746.354 112.327 747C112.327 747.646 112.368 748.333 112.469 748.958L108.36 752.25C107.996 752.542 107.895 753.104 108.117 753.521L112.003 760.438C112.246 760.896 112.752 761.042 113.198 760.896L118.035 758.896C119.047 759.687 120.12 760.354 121.314 760.854L122.042 766.146C122.144 766.646 122.528 767 123.014 767H130.786C131.272 767 131.677 766.646 131.737 766.146L132.466 760.854C133.66 760.354 134.753 759.687 135.745 758.896L140.582 760.896C141.027 761.062 141.533 760.896 141.776 760.438L145.662 753.521C145.905 753.062 145.804 752.542 145.419 752.25L141.351 748.958ZM126.9 754.5C122.893 754.5 119.614 751.125 119.614 747C119.614 742.875 122.893 739.5 126.9 739.5C130.907 739.5 134.186 742.875 134.186 747C134.186 751.125 130.907 754.5 126.9 754.5Z" fill="white"/>
</g>
</g>
<g class="entity capability technical" id="monitoring-and-observability" >
<rect class="entity-box" x="96" y="792" width="472" height="62" rx="9" fill="#FCFCFC" stroke="#CCCCCC" stroke-width="2"/>
<text id="entity-name_17" fill="#414042" xml:space="preserve" style="white-space: pre" font-family="Google Sans" font-size="26" font-weight="500" letter-spacing="0.03em"><tspan x="172" y="831.84">Monitoring and observability</tspan></text>
<g id="icon-group_17">
<path class="icon-bg" d="M157 793V792H156H105C100.029 792 96 796.029 96 801V845C96 849.971 100.029 854 105 854H156H157V853V793Z" fill="#33484F" stroke="#33484F" stroke-width="2"/>
<path class="icon" d="M141.351 823.958C141.432 823.333 141.473 822.688 141.473 822C141.473 821.333 141.432 820.667 141.331 820.042L145.44 816.75C145.804 816.458 145.905 815.896 145.683 815.479L141.797 808.562C141.554 808.104 141.048 807.958 140.602 808.104L135.765 810.104C134.753 809.312 133.68 808.646 132.486 808.146L131.758 802.854C131.677 802.354 131.272 802 130.786 802H123.014C122.528 802 122.144 802.354 122.063 802.854L121.334 808.146C120.14 808.646 119.047 809.333 118.055 810.104L113.218 808.104C112.773 807.937 112.267 808.104 112.024 808.562L108.158 815.479C107.915 815.917 107.996 816.458 108.401 816.75L112.509 820.042C112.408 820.667 112.327 821.354 112.327 822C112.327 822.646 112.368 823.333 112.469 823.958L108.36 827.25C107.996 827.542 107.895 828.104 108.117 828.521L112.003 835.438C112.246 835.896 112.752 836.042 113.198 835.896L118.035 833.896C119.047 834.687 120.12 835.354 121.314 835.854L122.042 841.146C122.144 841.646 122.528 842 123.014 842H130.786C131.272 842 131.677 841.646 131.737 841.146L132.466 835.854C133.66 835.354 134.753 834.687 135.745 833.896L140.582 835.896C141.027 836.062 141.533 835.896 141.776 835.438L145.662 828.521C145.905 828.062 145.804 827.542 145.419 827.25L141.351 823.958ZM126.9 829.5C122.893 829.5 119.614 826.125 119.614 822C119.614 817.875 122.893 814.5 126.9 814.5C130.907 814.5 134.186 817.875 134.186 822C134.186 826.125 130.907 829.5 126.9 829.5Z" fill="white"/>
</g>
</g>
<g class="entity capability technical" id="test-automation" >
<rect class="entity-box" x="96" y="867" width="472" height="62" rx="9" fill="#FCFCFC" stroke="#CCCCCC" stroke-width="2"/>
<text id="entity-name_18" fill="#414042" xml:space="preserve" style="white-space: pre" font-family="Google Sans" font-size="26" font-weight="500" letter-spacing="0.03em"><tspan x="172" y="906.84">Test automation</tspan></text>
<g id="icon-group_18">
<path class="icon-bg" d="M157 868V867H156H105C100.029 867 96 871.029 96 876V920C96 924.971 100.029 929 105 929H156H157V928V868Z" fill="#33484F" stroke="#33484F" stroke-width="2"/>
<path class="icon" d="M141.351 898.958C141.432 898.333 141.473 897.688 141.473 897C141.473 896.333 141.432 895.667 141.331 895.042L145.44 891.75C145.804 891.458 145.905 890.896 145.683 890.479L141.797 883.562C141.554 883.104 141.048 882.958 140.602 883.104L135.765 885.104C134.753 884.312 133.68 883.646 132.486 883.146L131.758 877.854C131.677 877.354 131.272 877 130.786 877H123.014C122.528 877 122.144 877.354 122.063 877.854L121.334 883.146C120.14 883.646 119.047 884.333 118.055 885.104L113.218 883.104C112.773 882.937 112.267 883.104 112.024 883.562L108.158 890.479C107.915 890.917 107.996 891.458 108.401 891.75L112.509 895.042C112.408 895.667 112.327 896.354 112.327 897C112.327 897.646 112.368 898.333 112.469 898.958L108.36 902.25C107.996 902.542 107.895 903.104 108.117 903.521L112.003 910.438C112.246 910.896 112.752 911.042 113.198 910.896L118.035 908.896C119.047 909.687 120.12 910.354 121.314 910.854L122.042 916.146C122.144 916.646 122.528 917 123.014 917H130.786C131.272 917 131.677 916.646 131.737 916.146L132.466 910.854C133.66 910.354 134.753 909.687 135.745 908.896L140.582 910.896C141.027 911.062 141.533 910.896 141.776 910.438L145.662 903.521C145.905 903.062 145.804 902.542 145.419 902.25L141.351 898.958ZM126.9 904.5C122.893 904.5 119.614 901.125 119.614 897C119.614 892.875 122.893 889.5 126.9 889.5C130.907 889.5 134.186 892.875 134.186 897C134.186 901.125 130.907 904.5 126.9 904.5Z" fill="white"/>
</g>
</g>
<g class="entity capability technical" id="test-data-management" >
<rect class="entity-box" x="96" y="942" width="472" height="62" rx="9" fill="#FCFCFC" stroke="#CCCCCC" stroke-width="2"/>
<text id="entity-name_19" fill="#414042" xml:space="preserve" style="white-space: pre" font-family="Google Sans" font-size="26" font-weight="500" letter-spacing="0.03em"><tspan x="172" y="981.84">Test data management</tspan></text>
<g id="icon-group_19">
<path class="icon-bg" d="M157 943V942H156H105C100.029 942 96 946.029 96 951V995C96 999.971 100.029 1004 105 1004H156H157V1003V943Z" fill="#33484F" stroke="#33484F" stroke-width="2"/>
<path class="icon" d="M141.351 973.958C141.432 973.333 141.473 972.688 141.473 972C141.473 971.333 141.432 970.667 141.331 970.042L145.44 966.75C145.804 966.458 145.905 965.896 145.683 965.479L141.797 958.562C141.554 958.104 141.048 957.958 140.602 958.104L135.765 960.104C134.753 959.312 133.68 958.646 132.486 958.146L131.758 952.854C131.677 952.354 131.272 952 130.786 952H123.014C122.528 952 122.144 952.354 122.063 952.854L121.334 958.146C120.14 958.646 119.047 959.333 118.055 960.104L113.218 958.104C112.773 957.937 112.267 958.104 112.024 958.562L108.158 965.479C107.915 965.917 107.996 966.458 108.401 966.75L112.509 970.042C112.408 970.667 112.327 971.354 112.327 972C112.327 972.646 112.368 973.333 112.469 973.958L108.36 977.25C107.996 977.542 107.895 978.104 108.117 978.521L112.003 985.438C112.246 985.896 112.752 986.042 113.198 985.896L118.035 983.896C119.047 984.687 120.12 985.354 121.314 985.854L122.042 991.146C122.144 991.646 122.528 992 123.014 992H130.786C131.272 992 131.677 991.646 131.737 991.146L132.466 985.854C133.66 985.354 134.753 984.687 135.745 983.896L140.582 985.896C141.027 986.062 141.533 985.896 141.776 985.438L145.662 978.521C145.905 978.062 145.804 977.542 145.419 977.25L141.351 973.958ZM126.9 979.5C122.893 979.5 119.614 976.125 119.614 972C119.614 967.875 122.893 964.5 126.9 964.5C130.907 964.5 134.186 967.875 134.186 972C134.186 976.125 130.907 979.5 126.9 979.5Z" fill="white"/>
</g>
</g>
<g class="entity capability technical" id="trunk-based-development" >
<rect class="entity-box" x="96" y="1017" width="472" height="62" rx="9" fill="#FCFCFC" stroke="#CCCCCC" stroke-width="2"/>
<text id="entity-name_20" fill="#414042" xml:space="preserve" style="white-space: pre" font-family="Google Sans" font-size="26" font-weight="500" letter-spacing="0.03em"><tspan x="172" y="1056.84">Trunk-based development</tspan></text>
<g id="icon-group_20">
<path class="icon-bg" d="M157 1018V1017H156H105C100.029 1017 96 1021.03 96 1026V1070C96 1074.97 100.029 1079 105 1079H156H157V1078V1018Z" fill="#33484F" stroke="#33484F" stroke-width="2"/>
<path class="icon" d="M141.351 1048.96C141.432 1048.33 141.473 1047.69 141.473 1047C141.473 1046.33 141.432 1045.67 141.331 1045.04L145.44 1041.75C145.804 1041.46 145.905 1040.9 145.683 1040.48L141.797 1033.56C141.554 1033.1 141.048 1032.96 140.602 1033.1L135.765 1035.1C134.753 1034.31 133.68 1033.65 132.486 1033.15L131.758 1027.85C131.677 1027.35 131.272 1027 130.786 1027H123.014C122.528 1027 122.144 1027.35 122.063 1027.85L121.334 1033.15C120.14 1033.65 119.047 1034.33 118.055 1035.1L113.218 1033.1C112.773 1032.94 112.267 1033.1 112.024 1033.56L108.158 1040.48C107.915 1040.92 107.996 1041.46 108.401 1041.75L112.509 1045.04C112.408 1045.67 112.327 1046.35 112.327 1047C112.327 1047.65 112.368 1048.33 112.469 1048.96L108.36 1052.25C107.996 1052.54 107.895 1053.1 108.117 1053.52L112.003 1060.44C112.246 1060.9 112.752 1061.04 113.198 1060.9L118.035 1058.9C119.047 1059.69 120.12 1060.35 121.314 1060.85L122.042 1066.15C122.144 1066.65 122.528 1067 123.014 1067H130.786C131.272 1067 131.677 1066.65 131.737 1066.15L132.466 1060.85C133.66 1060.35 134.753 1059.69 135.745 1058.9L140.582 1060.9C141.027 1061.06 141.533 1060.9 141.776 1060.44L145.662 1053.52C145.905 1053.06 145.804 1052.54 145.419 1052.25L141.351 1048.96ZM126.9 1054.5C122.893 1054.5 119.614 1051.12 119.614 1047C119.614 1042.88 122.893 1039.5 126.9 1039.5C130.907 1039.5 134.186 1042.88 134.186 1047C134.186 1051.12 130.907 1054.5 126.9 1054.5Z" fill="white"/>
</g>
</g>
<g class="entity capability technical" id="version-control" >
<rect class="entity-box" x="96" y="1092" width="472" height="62" rx="9" fill="#FCFCFC" stroke="#CCCCCC" stroke-width="2"/>
<text id="entity-name_21" fill="#414042" xml:space="preserve" style="white-space: pre" font-family="Google Sans" font-size="26" font-weight="500" letter-spacing="0.03em"><tspan x="172" y="1131.84">Version control</tspan></text>
<g id="icon-group_21">
<path class="icon-bg" d="M157 1093V1092H156H105C100.029 1092 96 1096.03 96 1101V1145C96 1149.97 100.029 1154 105 1154H156H157V1153V1093Z" fill="#33484F" stroke="#33484F" stroke-width="2"/>
<path class="icon" d="M141.351 1123.96C141.432 1123.33 141.473 1122.69 141.473 1122C141.473 1121.33 141.432 1120.67 141.331 1120.04L145.44 1116.75C145.804 1116.46 145.905 1115.9 145.683 1115.48L141.797 1108.56C141.554 1108.1 141.048 1107.96 140.602 1108.1L135.765 1110.1C134.753 1109.31 133.68 1108.65 132.486 1108.15L131.758 1102.85C131.677 1102.35 131.272 1102 130.786 1102H123.014C122.528 1102 122.144 1102.35 122.063 1102.85L121.334 1108.15C120.14 1108.65 119.047 1109.33 118.055 1110.1L113.218 1108.1C112.773 1107.94 112.267 1108.1 112.024 1108.56L108.158 1115.48C107.915 1115.92 107.996 1116.46 108.401 1116.75L112.509 1120.04C112.408 1120.67 112.327 1121.35 112.327 1122C112.327 1122.65 112.368 1123.33 112.469 1123.96L108.36 1127.25C107.996 1127.54 107.895 1128.1 108.117 1128.52L112.003 1135.44C112.246 1135.9 112.752 1136.04 113.198 1135.9L118.035 1133.9C119.047 1134.69 120.12 1135.35 121.314 1135.85L122.042 1141.15C122.144 1141.65 122.528 1142 123.014 1142H130.786C131.272 1142 131.677 1141.65 131.737 1141.15L132.466 1135.85C133.66 1135.35 134.753 1134.69 135.745 1133.9L140.582 1135.9C141.027 1136.06 141.533 1135.9 141.776 1135.44L145.662 1128.52C145.905 1128.06 145.804 1127.54 145.419 1127.25L141.351 1123.96ZM126.9 1129.5C122.893 1129.5 119.614 1126.12 119.614 1122C119.614 1117.88 122.893 1114.5 126.9 1114.5C130.907 1114.5 134.186 1117.88 134.186 1122C134.186 1126.12 130.907 1129.5 126.9 1129.5Z" fill="white"/>
</g>
</g>
<g class="entity capability technical" id="code-maintainability" >
<rect class="entity-box" x="96" y="318" width="472" height="62" rx="9" fill="#FCFCFC" stroke="#CCCCCC" stroke-width="2"/>
<text id="entity-name_22" fill="#414042" xml:space="preserve" style="white-space: pre" font-family="Google Sans" font-size="26" font-weight="500" letter-spacing="0.03em"><tspan x="172" y="357.84">Code maintainability</tspan></text>
<g id="icon-group_22">
<path class="icon-bg" d="M157 319V318H156H105C100.029 318 96 322.029 96 327V371C96 375.971 100.029 380 105 380H156H157V379V319Z" fill="#33484F" stroke="#33484F" stroke-width="2"/>
<path class="icon" d="M141.351 349.958C141.432 349.333 141.473 348.688 141.473 348C141.473 347.333 141.432 346.667 141.331 346.042L145.44 342.75C145.804 342.458 145.905 341.896 145.683 341.479L141.797 334.562C141.554 334.104 141.048 333.958 140.602 334.104L135.765 336.104C134.753 335.312 133.68 334.646 132.486 334.146L131.758 328.854C131.677 328.354 131.272 328 130.786 328H123.014C122.528 328 122.144 328.354 122.063 328.854L121.334 334.146C120.14 334.646 119.047 335.333 118.055 336.104L113.218 334.104C112.773 333.937 112.267 334.104 112.024 334.562L108.158 341.479C107.915 341.917 107.996 342.458 108.401 342.75L112.509 346.042C112.408 346.667 112.327 347.354 112.327 348C112.327 348.646 112.368 349.333 112.469 349.958L108.36 353.25C107.996 353.542 107.895 354.104 108.117 354.521L112.003 361.438C112.246 361.896 112.752 362.042 113.198 361.896L118.035 359.896C119.047 360.687 120.12 361.354 121.314 361.854L122.042 367.146C122.144 367.646 122.528 368 123.014 368H130.786C131.272 368 131.677 367.646 131.737 367.146L132.466 361.854C133.66 361.354 134.753 360.687 135.745 359.896L140.582 361.896C141.027 362.062 141.533 361.896 141.776 361.438L145.662 354.521C145.905 354.062 145.804 353.542 145.419 353.25L141.351 349.958ZM126.9 355.5C122.893 355.5 119.614 352.125 119.614 348C119.614 343.875 122.893 340.5 126.9 340.5C130.907 340.5 134.186 343.875 134.186 348C134.186 352.125 130.907 355.5 126.9 355.5Z" fill="white"/>
</g>
</g>
<g class="entity capability technical" id="continuous-integration" >
<rect class="entity-box" x="96" y="393" width="472" height="62" rx="9" fill="#FCFCFC" stroke="#CCCCCC" stroke-width="2"/>
<text id="entity-name_23" fill="#414042" xml:space="preserve" style="white-space: pre" font-family="Google Sans" font-size="26" font-weight="500" letter-spacing="0.03em"><tspan x="172" y="432.84">Continuous integration</tspan></text>
<g id="icon-group_23">
<path class="icon-bg" d="M157 394V393H156H105C100.029 393 96 397.029 96 402V446C96 450.971 100.029 455 105 455H156H157V454V394Z" fill="#33484F" stroke="#33484F" stroke-width="2"/>
<path class="icon" d="M141.351 424.958C141.432 424.333 141.473 423.688 141.473 423C141.473 422.333 141.432 421.667 141.331 421.042L145.44 417.75C145.804 417.458 145.905 416.896 145.683 416.479L141.797 409.562C141.554 409.104 141.048 408.958 140.602 409.104L135.765 411.104C134.753 410.312 133.68 409.646 132.486 409.146L131.758 403.854C131.677 403.354 131.272 403 130.786 403H123.014C122.528 403 122.144 403.354 122.063 403.854L121.334 409.146C120.14 409.646 119.047 410.333 118.055 411.104L113.218 409.104C112.773 408.937 112.267 409.104 112.024 409.562L108.158 416.479C107.915 416.917 107.996 417.458 108.401 417.75L112.509 421.042C112.408 421.667 112.327 422.354 112.327 423C112.327 423.646 112.368 424.333 112.469 424.958L108.36 428.25C107.996 428.542 107.895 429.104 108.117 429.521L112.003 436.438C112.246 436.896 112.752 437.042 113.198 436.896L118.035 434.896C119.047 435.687 120.12 436.354 121.314 436.854L122.042 442.146C122.144 442.646 122.528 443 123.014 443H130.786C131.272 443 131.677 442.646 131.737 442.146L132.466 436.854C133.66 436.354 134.753 435.687 135.745 434.896L140.582 436.896C141.027 437.062 141.533 436.896 141.776 436.438L145.662 429.521C145.905 429.062 145.804 428.542 145.419 428.25L141.351 424.958ZM126.9 430.5C122.893 430.5 119.614 427.125 119.614 423C119.614 418.875 122.893 415.5 126.9 415.5C130.907 415.5 134.186 418.875 134.186 423C134.186 427.125 130.907 430.5 126.9 430.5Z" fill="white"/>
</g>
</g>
<g class="entity capability technical" id="database-change-management" >
<rect class="entity-box" x="96" y="468" width="472" height="74" rx="9" fill="#FCFCFC" stroke="#CCCCCC" stroke-width="2"/>
<text id="entity-name_24" fill="#414042" xml:space="preserve" style="white-space: pre" font-family="Google Sans" font-size="26" font-weight="500" letter-spacing="0.03em"><tspan x="172" y="499.84">Database change </tspan><tspan x="172" y="527.84">management</tspan></text>
<g id="icon-group_24">
<path class="icon-bg" d="M157 469V468H156H105C100.029 468 96 472.029 96 477V533C96 537.971 100.029 542 105 542H156H157V541V469Z" fill="#33484F" stroke="#33484F" stroke-width="2"/>
<path class="icon" d="M141.351 505.958C141.432 505.333 141.473 504.688 141.473 504C141.473 503.333 141.432 502.667 141.331 502.042L145.44 498.75C145.804 498.458 145.905 497.896 145.683 497.479L141.797 490.562C141.554 490.104 141.048 489.958 140.602 490.104L135.765 492.104C134.753 491.312 133.68 490.646 132.486 490.146L131.758 484.854C131.677 484.354 131.272 484 130.786 484H123.014C122.528 484 122.144 484.354 122.063 484.854L121.334 490.146C120.14 490.646 119.047 491.333 118.055 492.104L113.218 490.104C112.773 489.937 112.267 490.104 112.024 490.562L108.158 497.479C107.915 497.917 107.996 498.458 108.401 498.75L112.509 502.042C112.408 502.667 112.327 503.354 112.327 504C112.327 504.646 112.368 505.333 112.469 505.958L108.36 509.25C107.996 509.542 107.895 510.104 108.117 510.521L112.003 517.438C112.246 517.896 112.752 518.042 113.198 517.896L118.035 515.896C119.047 516.687 120.12 517.354 121.314 517.854L122.042 523.146C122.144 523.646 122.528 524 123.014 524H130.786C131.272 524 131.677 523.646 131.737 523.146L132.466 517.854C133.66 517.354 134.753 516.687 135.745 515.896L140.582 517.896C141.027 518.062 141.533 517.896 141.776 517.438L145.662 510.521C145.905 510.062 145.804 509.542 145.419 509.25L141.351 505.958ZM126.9 511.5C122.893 511.5 119.614 508.125 119.614 504C119.614 499.875 122.893 496.5 126.9 496.5C130.907 496.5 134.186 499.875 134.186 504C134.186 508.125 130.907 511.5 126.9 511.5Z" fill="white"/>
</g>
</g>
<g class="entity capability technical" id="deployment-automation" >
<rect class="entity-box" x="96" y="555" width="472" height="62" rx="9" fill="#FCFCFC" stroke="#CCCCCC" stroke-width="2"/>
<text id="entity-name_25" fill="#414042" xml:space="preserve" style="white-space: pre" font-family="Google Sans" font-size="26" font-weight="500" letter-spacing="0.03em"><tspan x="172" y="594.84">Deployment automation</tspan></text>
<g id="icon-group_25">
<path class="icon-bg" d="M157 556V555H156H105C100.029 555 96 559.029 96 564V608C96 612.971 100.029 617 105 617H156H157V616V556Z" fill="#33484F" stroke="#33484F" stroke-width="2"/>
<path class="icon" d="M141.351 586.958C141.432 586.333 141.473 585.688 141.473 585C141.473 584.333 141.432 583.667 141.331 583.042L145.44 579.75C145.804 579.458 145.905 578.896 145.683 578.479L141.797 571.562C141.554 571.104 141.048 570.958 140.602 571.104L135.765 573.104C134.753 572.312 133.68 571.646 132.486 571.146L131.758 565.854C131.677 565.354 131.272 565 130.786 565H123.014C122.528 565 122.144 565.354 122.063 565.854L121.334 571.146C120.14 571.646 119.047 572.333 118.055 573.104L113.218 571.104C112.773 570.937 112.267 571.104 112.024 571.562L108.158 578.479C107.915 578.917 107.996 579.458 108.401 579.75L112.509 583.042C112.408 583.667 112.327 584.354 112.327 585C112.327 585.646 112.368 586.333 112.469 586.958L108.36 590.25C107.996 590.542 107.895 591.104 108.117 591.521L112.003 598.438C112.246 598.896 112.752 599.042 113.198 598.896L118.035 596.896C119.047 597.687 120.12 598.354 121.314 598.854L122.042 604.146C122.144 604.646 122.528 605 123.014 605H130.786C131.272 605 131.677 604.646 131.737 604.146L132.466 598.854C133.66 598.354 134.753 597.687 135.745 596.896L140.582 598.896C141.027 599.062 141.533 598.896 141.776 598.438L145.662 591.521C145.905 591.062 145.804 590.542 145.419 590.25L141.351 586.958ZM126.9 592.5C122.893 592.5 119.614 589.125 119.614 585C119.614 580.875 122.893 577.5 126.9 577.5C130.907 577.5 134.186 580.875 134.186 585C134.186 589.125 130.907 592.5 126.9 592.5Z" fill="white"/>
</g>
</g>
<g class="entity capability technical" id="teams-empowered-to-choose-tools" >
<rect class="entity-box" x="96" y="630" width="472" height="74" rx="9" fill="#FCFCFC" stroke="#CCCCCC" stroke-width="2"/>
<text id="entity-name_26" fill="#414042" xml:space="preserve" style="white-space: pre" font-family="Google Sans" font-size="26" font-weight="500" letter-spacing="0.03em"><tspan x="172" y="661.84">Empowering teams&#10;</tspan><tspan x="172" y="689.84">to choose tools</tspan></text>
<g id="icon-group_26">
<path class="icon-bg" d="M157 631V630H156H105C100.029 630 96 634.029 96 639V695C96 699.971 100.029 704 105 704H156H157V703V631Z" fill="#33484F" stroke="#33484F" stroke-width="2"/>
<path class="icon" d="M141.351 667.958C141.432 667.333 141.473 666.688 141.473 666C141.473 665.333 141.432 664.667 141.331 664.042L145.44 660.75C145.804 660.458 145.905 659.896 145.683 659.479L141.797 652.562C141.554 652.104 141.048 651.958 140.602 652.104L135.765 654.104C134.753 653.312 133.68 652.646 132.486 652.146L131.758 646.854C131.677 646.354 131.272 646 130.786 646H123.014C122.528 646 122.144 646.354 122.063 646.854L121.334 652.146C120.14 652.646 119.047 653.333 118.055 654.104L113.218 652.104C112.773 651.937 112.267 652.104 112.024 652.562L108.158 659.479C107.915 659.917 107.996 660.458 108.401 660.75L112.509 664.042C112.408 664.667 112.327 665.354 112.327 666C112.327 666.646 112.368 667.333 112.469 667.958L108.36 671.25C107.996 671.542 107.895 672.104 108.117 672.521L112.003 679.438C112.246 679.896 112.752 680.042 113.198 679.896L118.035 677.896C119.047 678.687 120.12 679.354 121.314 679.854L122.042 685.146C122.144 685.646 122.528 686 123.014 686H130.786C131.272 686 131.677 685.646 131.737 685.146L132.466 679.854C133.66 679.354 134.753 678.687 135.745 677.896L140.582 679.896C141.027 680.062 141.533 679.896 141.776 679.438L145.662 672.521C145.905 672.062 145.804 671.542 145.419 671.25L141.351 667.958ZM126.9 673.5C122.893 673.5 119.614 670.125 119.614 666C119.614 661.875 122.893 658.5 126.9 658.5C130.907 658.5 134.186 661.875 134.186 666C134.186 670.125 130.907 673.5 126.9 673.5Z" fill="white"/>
</g>
</g>
<g id="Group 3">
<g id="logo">
<text id="Core Model" fill="#414042" xml:space="preserve" style="white-space: pre" font-family="Google Sans" font-size="24" font-weight="500" letter-spacing="0em"><tspan x="121.344" y="58.16">Core Model</tspan></text>
<g id="dora-logo">
<path id="Vector" d="M82.5 20.9285L50.55 35.7853V80.0715L82.5 65.2148L114.45 80.0715V35.7853L82.5 20.9285Z" fill="#005E8D"/>
<path id="Vector_2" d="M109.778 56.9148H106.242L105.366 53.5068H100.871L99.9944 56.9148H96.4586L101.191 41.0641H105.124L109.778 56.9148ZM101.745 50.2621H104.528L103.147 44.8413L101.745 50.2621Z" fill="white"/>
<path id="Vector_3" d="M77.5442 56.9148H73.5966C71.6299 56.9148 70.0324 55.2818 70.0324 53.2761V44.7028C70.0324 42.6971 71.6299 41.0641 73.5966 41.0641H77.5442C79.5109 41.0641 81.1084 42.6971 81.1084 44.7028V53.2761C81.1084 55.2818 79.5109 56.9148 77.5442 56.9148ZM74.2569 44.3372C73.7209 44.3372 73.2842 44.7916 73.2842 45.3525V52.6229C73.2842 53.1838 73.7209 53.6382 74.2569 53.6382H76.8839C77.42 53.6382 77.8602 53.1838 77.8602 52.6229V45.3525C77.8602 44.7916 77.4235 44.3372 76.8839 44.3372H74.2569Z" fill="white"/>
<path id="Vector_4" d="M95.0741 56.9148H91.6377L89.49 51.8987H87.1612V56.9148H83.9662V41.0605H91.1336C93.0932 41.0605 94.6872 42.6935 94.6872 44.6993V48.2599C94.6872 49.6267 93.9452 50.8621 92.7737 51.4833L95.0706 56.9113L95.0741 56.9148ZM87.1683 48.6256H90.5017C91.0484 48.6256 91.4957 48.1676 91.4957 47.6067V45.3489C91.4957 44.788 91.052 44.3336 90.5017 44.3336H87.1683V48.6256Z" fill="white"/>
<path id="Vector_5" d="M62.9963 41.0605H56.0631V56.9113H62.9963C65.2718 56.9113 67.1178 55.0653 67.1178 52.7897V45.1856C67.1178 42.9101 65.2718 41.0641 62.9963 41.0641V41.0605ZM63.9122 52.2182C63.9122 53.0027 63.2767 53.6382 62.4922 53.6382H59.2688V44.3336H62.4922C63.2767 44.3336 63.9122 44.9691 63.9122 45.7536V52.2182Z" fill="white"/>
</g>
</g>
</g>
<g id="Group 4">
<path id="Rectangle 9" d="M1269 49.7068C1269 41.0322 1276.03 34 1284.71 34H1403.29C1411.97 34 1419 41.0322 1419 49.7068V49.7068C1419 58.3814 1411.97 65.4136 1403.29 65.4136H1284.71C1276.03 65.4136 1269 58.3814 1269 49.7068V49.7068Z" fill="#63A657"/>
<text id="performance" fill="white" xml:space="preserve" style="white-space: pre" font-family="Google Sans" font-size="20" font-weight="500" letter-spacing="0em"><tspan x="1283.12" y="54.8">performance</tspan></text>
<path id="Rectangle 8" d="M755 49.7068C755 41.0322 762.032 34 770.707 34H889.293C897.968 34 905 41.0322 905 49.7068V49.7068C905 58.3814 897.968 65.4136 889.293 65.4136H770.707C762.032 65.4136 755 58.3814 755 49.7068V49.7068Z" fill="#33484F"/>
<text id="capabilities" fill="white" xml:space="preserve" style="white-space: pre" font-family="Google Sans" font-size="20" font-weight="500" letter-spacing="0em"><tspan x="775.375" y="55.8">capabilities</tspan></text>
<path id="Rectangle 10" d="M1785 49.7068C1785 41.0322 1792.03 34 1800.71 34H1919.29C1927.97 34 1935 41.0322 1935 49.7068V49.7068C1935 58.3814 1927.97 65.4136 1919.29 65.4136H1800.71C1792.03 65.4136 1785 58.3814 1785 49.7068V49.7068Z" fill="#005E8D"/>
<text id="outcomes" fill="white" xml:space="preserve" style="white-space: pre" font-family="Google Sans" font-size="20" font-weight="500" letter-spacing="0em"><tspan x="1813.33" y="55.8">outcomes</tspan></text>
<g id="legend-connector">
<path d="M905 46.7068C903.333 46.7068 902 48.0401 902 49.7068C902 51.3735 903.333 52.7068 905 52.7068C906.667 52.7068 908 51.3735 908 49.7068C908 48.0401 906.667 46.7068 905 46.7068Z" fill="white"/>
<path d="M1269 49.7068L1259 43.9333V55.4803L1269 49.7068ZM903 49.7068C903 48.5924 903.886 47.7068 905 47.7068V45.7068C902.781 45.7068 901 47.4878 901 49.7068H903ZM905 47.7068C906.114 47.7068 907 48.5924 907 49.7068H909C909 47.4878 907.219 45.7068 905 45.7068V47.7068ZM907 49.7068C907 50.8212 906.114 51.7068 905 51.7068V53.7068C907.219 53.7068 909 51.9257 909 49.7068H907ZM905 51.7068C903.886 51.7068 903 50.8212 903 49.7068H901C901 51.9257 902.781 53.7068 905 53.7068V51.7068ZM908 50.7068H1260V48.7068H908V50.7068Z" fill="#999999"/>
</g>
<rect id="Rectangle 11" x="1022" y="38" width="95.3143" height="24" rx="4" fill="white" stroke="#999999" stroke-width="2"/>
<text id="predict" fill="#414042" xml:space="preserve" style="white-space: pre" font-family="Google Sans" font-size="16" font-weight="500" letter-spacing="0em"><tspan x="1042.57" y="54.44">predict</tspan></text>
<g id="legend-connector_2">
<path d="M1419 46.7068C1417.33 46.7068 1416 48.0401 1416 49.7068C1416 51.3735 1417.33 52.7068 1419 52.7068C1420.67 52.7068 1422 51.3735 1422 49.7068C1422 48.0401 1420.67 46.7068 1419 46.7068Z" fill="white"/>
<path d="M1785 49.7068L1775 43.9333V55.4803L1785 49.7068ZM1417 49.7068C1417 48.5924 1417.89 47.7068 1419 47.7068V45.7068C1416.78 45.7068 1415 47.4878 1415 49.7068H1417ZM1419 47.7068C1420.11 47.7068 1421 48.5924 1421 49.7068H1423C1423 47.4878 1421.22 45.7068 1419 45.7068V47.7068ZM1421 49.7068C1421 50.8212 1420.11 51.7068 1419 51.7068V53.7068C1421.22 53.7068 1423 51.9257 1423 49.7068H1421ZM1419 51.7068C1417.89 51.7068 1417 50.8212 1417 49.7068H1415C1415 51.9257 1416.78 53.7068 1419 53.7068V51.7068ZM1422 50.7068H1776V48.7068H1422V50.7068Z" fill="#999999"/>
</g>
<rect id="Rectangle 12" x="1537" y="38" width="95.3143" height="24" rx="4" fill="white" stroke="#999999" stroke-width="2"/>
<text id="predicts" fill="#414042" xml:space="preserve" style="white-space: pre" font-family="Google Sans" font-size="16" font-weight="500" letter-spacing="0em"><tspan x="1553.58" y="54.44">predicts</tspan></text>
</g>
<g class="connector">
<path d="M1868 799C1866.33 799 1865 800.333 1865 802C1865 803.667 1866.33 805 1868 805C1869.67 805 1871 803.667 1871 802C1871 800.333 1869.67 799 1868 799Z" fill="white"/>
<path d="M1868 573L1862.23 583H1873.77L1868 573ZM1866 802C1866 800.886 1866.89 800 1868 800V798C1865.78 798 1864 799.781 1864 802H1866ZM1868 800C1869.11 800 1870 800.886 1870 802H1872C1872 799.781 1870.22 798 1868 798V800ZM1870 802C1870 803.114 1869.11 804 1868 804V806C1870.22 806 1872 804.219 1872 802H1870ZM1868 804C1866.89 804 1866 803.114 1866 802H1864C1864 804.219 1865.78 806 1868 806V804ZM1869 799V582H1867V799H1869Z" fill="#999999"/>
</g>
<g class="connector">
<path d="M989 628C987.333 628 986 629.333 986 631C986 632.667 987.333 634 989 634C990.667 634 992 632.667 992 631C992 629.333 990.667 628 989 628Z" fill="white"/>
<path d="M1676 942.5L1666.89 935.41L1665.3 946.848L1676 942.5ZM987 631C987 629.886 987.886 629 989 629V627C986.781 627 985 628.781 985 631H987ZM989 629C990.114 629 991 629.886 991 631H993C993 628.781 991.219 627 989 627V629ZM991 631C991 632.114 990.114 633 989 633V635C991.219 635 993 633.219 993 631H991ZM989 633C987.886 633 987 632.114 987 631H985C985 633.219 986.781 635 989 635V633ZM992 632C1076.61 632 1140.22 648.337 1193.23 673.575C1246.26 698.821 1288.74 732.992 1331.11 768.746C1415.87 840.258 1500.09 918.01 1666.97 942.259L1667.25 940.28C1501 916.121 1417.17 838.739 1332.4 767.218C1290.02 731.455 1247.37 697.135 1194.09 671.769C1140.79 646.396 1076.89 630 992 630V632Z" fill="#999999"/>
</g>
<g class="connector">
<path d="M989 809C987.333 809 986 810.333 986 812C986 813.667 987.333 815 989 815C990.667 815 992 813.667 992 812C992 810.333 990.667 809 989 809Z" fill="white"/>
<path d="M1676 942.5L1666.61 935.779L1665.48 947.271L1676 942.5ZM987 812C987 810.886 987.886 810 989 810V808C986.781 808 985 809.781 985 812H987ZM989 810C990.114 810 991 810.886 991 812H993C993 809.781 991.219 808 989 808V810ZM991 812C991 813.114 990.114 814 989 814V816C991.219 816 993 814.219 993 812H991ZM989 814C987.886 814 987 813.114 987 812H985C985 814.219 986.781 816 989 816V814ZM992 813C1161.36 813 1246.75 837.013 1331.42 865.208C1416.17 893.43 1500.27 925.869 1666.91 942.615L1667.11 940.625C1500.71 923.903 1416.8 891.532 1332.05 863.311C1247.22 835.063 1161.62 811 992 811V813Z" fill="#999999"/>
</g>
<g class="connector">
<path d="M989 990C987.333 990 986 991.333 986 993C986 994.667 987.333 996 989 996C990.667 996 992 994.667 992 993C992 991.333 990.667 990 989 990Z" fill="white"/>
<path d="M1676 942.5L1665.99 936.748L1666.01 948.295L1676 942.5ZM987 993C987 991.886 987.886 991 989 991V989C986.781 989 985 990.781 985 993H987ZM989 991C990.114 991 991 991.886 991 993H993C993 990.781 991.219 989 989 989V991ZM991 993C991 994.114 990.114 995 989 995V997C991.219 997 993 995.219 993 993H991ZM989 995C987.886 995 987 994.114 987 993H985C985 995.219 986.781 997 989 997V995ZM992 994C1161.55 994 1247.1 981.662 1331.88 969.183C1416.61 956.711 1500.56 944.097 1667.02 943.519L1667.01 941.519C1500.42 942.098 1416.36 954.725 1331.59 967.204C1246.86 979.676 1161.42 992 992 992V994Z" fill="#999999"/>
</g>
<g class="connector">
<path d="M1552 447C1550.33 447 1549 448.333 1549 450C1549 451.667 1550.33 453 1552 453C1553.67 453 1555 451.667 1555 450C1555 448.333 1553.67 447 1552 447Z" fill="white"/>
<path d="M1676 450L1666 444.226V455.774L1676 450ZM1550 450C1550 448.886 1550.89 448 1552 448V446C1549.78 446 1548 447.781 1548 450H1550ZM1552 448C1553.11 448 1554 448.886 1554 450H1556C1556 447.781 1554.22 446 1552 446V448ZM1554 450C1554 451.114 1553.11 452 1552 452V454C1554.22 454 1556 452.219 1556 450H1554ZM1552 452C1550.89 452 1550 451.114 1550 450H1548C1548 452.219 1549.78 454 1552 454V452ZM1555 451H1667V449H1555V451Z" fill="#999999"/>
</g>
<g class="connector">
<path d="M989 447C987.333 447 986 448.333 986 450C986 451.667 987.333 453 989 453C990.667 453 992 451.667 992 450C992 448.333 990.667 447 989 447Z" fill="white"/>
<path d="M1146 450L1136 444.226V455.774L1146 450ZM987 450C987 448.886 987.886 448 989 448V446C986.781 446 985 447.781 985 450H987ZM989 448C990.114 448 991 448.886 991 450H993C993 447.781 991.219 446 989 446V448ZM991 450C991 451.114 990.114 452 989 452V454C991.219 454 993 452.219 993 450H991ZM989 452C987.886 452 987 451.114 987 450H985C985 452.219 986.781 454 989 454V452ZM992 451H1137V449H992V451Z" fill="#999999"/>
</g>
<g class="connector">
<path d="M989 628C987.333 628 986 629.333 986 631C986 632.667 987.333 634 989 634C990.667 634 992 632.667 992 631C992 629.333 990.667 628 989 628Z" fill="white"/>
<path d="M1146 450L1135.42 445.376L1136.71 456.851L1146 450ZM987 631C987 629.886 987.886 629 989 629V627C986.781 627 985 628.781 985 631H987ZM989 629C990.114 629 991 629.886 991 631H993C993 628.781 991.219 627 989 627V629ZM991 631C991 632.114 990.114 633 989 633V635C991.219 635 993 633.219 993 631H991ZM989 633C987.886 633 987 632.114 987 631H985C985 633.219 986.781 635 989 635V633ZM992 632C1010.92 632 1025.22 621.384 1037.05 605.51C1048.87 589.656 1058.35 568.403 1067.59 546.826C1076.86 525.197 1085.9 503.24 1096.87 485.768C1107.84 468.293 1120.62 455.516 1137.27 451.98L1136.85 450.024C1119.41 453.729 1106.24 467.073 1095.17 484.705C1084.1 502.341 1074.99 524.478 1065.75 546.038C1056.49 567.651 1047.11 588.682 1035.45 604.314C1023.81 619.927 1010.03 630 992 630V632Z" fill="#999999"/>
</g>
<g class="connector">
<path d="M989 809C987.333 809 986 810.333 986 812C986 813.667 987.333 815 989 815C990.667 815 992 813.667 992 812C992 810.333 990.667 809 989 809Z" fill="white"/>
<path d="M1146 450L1135.04 446.354L1137.36 457.666L1146 450ZM987 812C987 810.886 987.886 810 989 810V808C986.781 808 985 809.781 985 812H987ZM989 810C990.114 810 991 810.886 991 812H993C993 809.781 991.219 808 989 808V810ZM991 812C991 813.114 990.114 814 989 814V816C991.219 816 993 814.219 993 812H991ZM989 814C987.886 814 987 813.114 987 812H985C985 814.219 986.781 816 989 816V814ZM992 813C1001.67 813 1010.06 807.552 1017.45 798.277C1024.84 789.005 1031.33 775.789 1037.21 759.944C1048.98 728.248 1058.43 685.733 1067.68 642.448C1076.95 599.124 1086.02 555.019 1097.03 520.015C1102.54 502.515 1108.52 487.339 1115.23 475.698C1121.96 464.034 1129.33 456.056 1137.56 452.736L1136.81 450.881C1127.96 454.451 1120.3 462.897 1113.5 474.699C1106.69 486.523 1100.65 501.856 1095.13 519.415C1084.07 554.531 1074.98 598.752 1065.73 642.03C1056.47 685.348 1047.05 727.713 1035.34 759.247C1029.48 775.018 1023.08 788.003 1015.88 797.03C1008.7 806.053 1000.82 811 992 811V813Z" fill="#999999"/>
</g>
<g class="connector">
<path d="M989 990C987.333 990 986 991.333 986 993C986 994.667 987.333 996 989 996C990.667 996 992 994.667 992 993C992 991.333 990.667 990 989 990Z" fill="white"/>
<path d="M1146 450L1134.78 447.275L1138.03 458.355L1146 450ZM987 993C987 991.886 987.886 991 989 991V989C986.781 989 985 990.781 985 993H987ZM989 991C990.114 991 991 991.886 991 993H993C993 990.781 991.219 989 989 989V991ZM991 993C991 994.114 990.114 995 989 995V997C991.219 997 993 995.219 993 993H991ZM989 995C987.886 995 987 994.114 987 993H985C985 995.219 986.781 997 989 997V995ZM992 994C1001.87 994 1010.26 985.677 1017.57 971.886C1024.92 958.013 1031.4 938.211 1037.28 914.418C1049.04 866.816 1058.48 802.955 1067.75 737.909C1077.01 672.835 1086.1 606.567 1097.15 554.063C1102.68 527.81 1108.68 505.04 1115.43 487.602C1118.8 478.883 1122.35 471.524 1126.11 465.738C1129.86 459.944 1133.78 455.786 1137.88 453.394L1136.87 451.667C1132.4 454.277 1128.27 458.717 1124.43 464.65C1120.58 470.59 1116.97 478.085 1113.57 486.88C1106.76 504.468 1100.73 527.36 1095.19 553.651C1084.13 606.236 1075.03 672.585 1065.77 737.627C1056.5 802.698 1047.07 866.453 1035.34 913.938C1029.47 937.688 1023.04 957.297 1015.8 970.949C1008.52 984.683 1000.64 992 992 992V994Z" fill="#999999"/>
</g>
<g class="connector">
<path d="M180.5 212C178.833 212 177.5 213.333 177.5 215C177.5 216.667 178.833 218 180.5 218C182.167 218 183.5 216.667 183.5 215C183.5 213.333 182.167 212 180.5 212Z" fill="white"/>
<path d="M332 254L324.831 244.948L320.576 255.682L332 254ZM178.5 215C178.5 213.886 179.386 213 180.5 213V211C178.281 211 176.5 212.781 176.5 215H178.5ZM180.5 213C181.614 213 182.5 213.886 182.5 215H184.5C184.5 212.781 182.719 211 180.5 211V213ZM182.5 215C182.5 216.114 181.614 217 180.5 217V219C182.719 219 184.5 217.219 184.5 215H182.5ZM180.5 217C179.386 217 178.5 216.114 178.5 215H176.5C176.5 217.219 178.281 219 180.5 219V217ZM179.5 218C179.5 220.655 181.46 222.772 184.338 224.487C187.255 226.227 191.408 227.736 196.43 229.093C206.488 231.811 220.324 233.994 235.466 236.105C265.841 240.339 301.482 244.291 323.32 251.633L323.958 249.738C301.889 242.317 265.961 238.337 235.742 234.124C220.588 232.012 206.872 229.843 196.952 227.162C191.985 225.82 188.042 224.368 185.362 222.77C182.641 221.147 181.5 219.551 181.5 218H179.5Z" fill="#999999"/>
</g>
<g class="connector">
<path d="M482.5 211C480.833 211 479.5 212.333 479.5 214C479.5 215.667 480.833 217 482.5 217C484.167 217 485.5 215.667 485.5 214C485.5 212.333 484.167 211 482.5 211Z" fill="white"/>
<path d="M332 254L343.395 252.133L336.081 243.198L332 254ZM480.5 214C480.5 212.886 481.386 212 482.5 212V210C480.281 210 478.5 211.781 478.5 214H480.5ZM482.5 212C483.614 212 484.5 212.886 484.5 214H486.5C486.5 211.781 484.719 210 482.5 210V212ZM484.5 214C484.5 215.114 483.614 216 482.5 216V218C484.719 218 486.5 216.219 486.5 214H484.5ZM482.5 216C481.386 216 480.5 215.114 480.5 214H478.5C478.5 216.219 480.281 218 482.5 218V216ZM481.5 217C481.5 217.708 481.2 218.444 480.479 219.231C479.749 220.028 478.625 220.83 477.097 221.624C474.04 223.211 469.577 224.656 464.038 225.992C452.975 228.66 437.885 230.833 421.804 232.907C405.748 234.978 388.712 236.952 373.84 239.22C359 241.485 346.168 244.062 338.563 247.384L339.363 249.216C346.692 246.016 359.269 243.467 374.142 241.198C388.983 238.933 405.965 236.967 422.06 234.891C438.13 232.818 453.324 230.634 464.507 227.936C470.091 226.59 474.742 225.1 478.018 223.399C479.656 222.548 481.004 221.618 481.953 220.582C482.912 219.536 483.5 218.339 483.5 217H481.5Z" fill="#999999"/>
</g>
<line id="Line 1" y1="100.5" x2="2112" y2="100.5" stroke="#CCCCCC"/>
<text id="url" fill="#33484F" xml:space="preserve" style="white-space: pre" font-family="Google Sans" font-size="18" letter-spacing="0em"><tspan x="353" y="56.62">dora.dev/core</tspan></text>
</g>
<defs>
<clipPath id="clip0_5_88">
<rect width="2112" height="1188" fill="white"/>
</clipPath>
</defs>
</svg>
