<?xml version="1.0" encoding="UTF-8"?>
<svg width="225px" height="173px" viewBox="0 0 225 173" version="1.1" xmlns="http://www.w3.org/2000/svg" xmlns:xlink="http://www.w3.org/1999/xlink">
    <!-- Generator: Sketch 55.2 (78181) - https://sketchapp.com -->
    <title>MTTR</title>
    <desc>Created with Sketch.</desc>
    <defs>
        <polygon id="path-1" points="0 163.542857 80.25 163.542857 80.25 0.813646055 0 0.813646055"></polygon>
        <path d="M5.68434189e-14,125.781469 C5.68434189e-14,129.096537 2.68679861,131.783931 6.00295643,131.783931 L67.3521524,131.783931 C70.6674937,131.783931 73.3551089,129.092883 73.3551089,125.781469 L73.3551089,6.05650761 C73.3551089,2.74143947 70.6683102,0.0540457575 67.3521524,0.0540457575 L6.00295643,0.0540457575 C2.68761514,0.0540457575 5.68434189e-14,2.74509304 5.68434189e-14,6.05650761 L5.68434189e-14,125.781469 Z" id="path-3"></path>
        <path d="M35.7152085,4.89326125 C31.3678865,7.7118272 26.1777712,9.34950446 20.6035544,9.34950446 C12.5466366,9.34950446 5.29225581,5.92838147 0.225277045,0.465330841 L35.7152085,0.465330841 L35.7152085,4.89326125 L35.7152085,4.89326125 Z" id="path-5"></path>
        <path d="M0.460809549,3.52327411 C4.41298069,1.36524181 8.9505385,0.138077264 13.7759682,0.138077264 C13.8826202,0.138077264 13.9891316,0.138676778 14.0954992,0.139872605 L14.0954992,11.6768386 L0.460809549,11.6768386 L0.460809549,3.52327411 L0.460809549,3.52327411 Z" id="path-7"></path>
        <path d="M0.0192533846,3.28943722 C2.61354075,1.34491334 5.85772005,0.18948537 9.3775,0.18948537 C17.8857123,0.18948537 24.78388,6.94163476 24.78388,15.2707749 L24.78388,16.4021251 L0.0192533846,16.4021251 L0.0192533846,3.28943722 L0.0192533846,3.28943722 Z" id="path-9"></path>
        <path d="M10.4676508,0.0449229251 C4.52014379,2.13441167 0.26598,7.7028104 0.26598,14.2437539 L0.26598,15.3724499 C0.26598,18.7076866 1.70672393,20.9545674 3.40378136,23.2519089 L10.4676508,23.2519089 L10.4676508,0.0449229251 L10.4676508,0.0449229251 Z" id="path-11"></path>
        <path d="M10.359384,5.67135943 C6.6381687,4.63753997 3.23729754,2.82964418 0.339533509,0.431164274 L10.359384,0.431164274 L10.359384,5.67135943 L10.359384,5.67135943 Z" id="path-13"></path>
        <path d="M0.246586154,12.0438275 C1.6733941,13.3596422 4.55160542,14.5516034 10.3315385,14.5516034 C10.3315385,14.5516034 9.17653846,11.0640114 9.17653846,7.41380766 C9.17653846,5.08706219 10.4541435,3.97997739 12.1484169,2.97984099 L12.1484169,0.439425901 L0.246586154,0.439425901 L0.246586154,12.0438275 L0.246586154,12.0438275 Z" id="path-15"></path>
        <linearGradient x1="104.643025%" y1="47.1245368%" x2="-3.1757638%" y2="47.4510445%" id="linearGradient-17">
            <stop stop-color="#66BBFF" offset="0%"></stop>
            <stop stop-color="#FFFFFF" stop-opacity="0" offset="100%"></stop>
        </linearGradient>
    </defs>
    <g id="Page-1" stroke="none" stroke-width="1" fill="none" fill-rule="evenodd">
        <g id="LAYOUT_Quick-Check-Design_Option-2" transform="translate(-155.000000, -1950.000000)">
            <g id="MTTR" transform="translate(155.000000, 1950.000000)">
                <path d="M225,30 C223.749833,24.4121278 218.857004,20.2422596 212.999154,20.2422596 C212.584078,20.2422596 212.174526,20.2659622 211.769624,20.3027011 C208.096151,8.5305417 197.294023,0 184.525229,0 C172.815052,0 162.759361,7.18749691 158.33945,17.4601748 C155.915853,15.9849884 153.098399,15.1174757 150.073699,15.1174757 C141.673368,15.1174757 134.783643,21.6493013 134,30 L225,30 Z" id="Fill-1-Copy-3" fill="#EBEBEB" transform="translate(179.500000, 15.000000) scale(-1, 1) translate(-179.500000, -15.000000) "></path>
                <path d="M180,162.471429 C180,163.852143 157.614286,164.971429 130,164.971429 C102.385714,164.971429 80,163.852143 80,162.471429 C80,161.090714 102.385714,159.971429 130,159.971429 C157.614286,159.971429 180,161.090714 180,162.471429" id="Fill-16" fill="#EDEDED"></path>
                <g id="Group-2" transform="translate(90.000000, 5.171429)">
                    <g id="Page-1">
                        <g id="Group-3" fill="#414141">
                            <path d="M62.772855,0.515456719 C61.4048227,0.505752178 18.5832245,0.515456719 17.2151922,0.515456719 C12.927395,0.515456719 -0.000145793852,-0.699551871 -0.000145793852,11.0672046 L-0.000145793852,142.982007 C-0.000145793852,154.748764 12.927395,154.782244 17.2151922,154.782244 L62.772855,154.782244 C67.0606522,154.782244 80.1864727,154.748764 80.1864727,142.982007 L80.1864727,11.0672046 C80.1864727,-0.699551871 67.065026,0.545540798 62.772855,0.515456719" id="Fill-1"></path>
                        </g>
                        <mask id="mask-2" fill="white">
                            <use xlink:href="#path-1"></use>
                        </mask>
                        <g id="Clip-5"></g>
                        <g id="Group-Copy" mask="url(#mask-2)">
                            <g transform="translate(3.242424, 12.204691)">
                                <mask id="mask-4" fill="white">
                                    <use xlink:href="#path-3"></use>
                                </mask>
                                <use id="Mask-2" stroke="none" fill="#EEEFEF" fill-rule="evenodd" xlink:href="#path-3"></use>
                                <rect id="Rectangle" stroke="none" fill="#4285F4" fill-rule="evenodd" mask="url(#mask-4)" x="-6.31179775" y="-1.80710339" width="82.9550562" height="13.5532755"></rect>
                            </g>
                        </g>
                        <path d="M48.6363636,7.31874627 C48.6363636,7.32118721 48.6344182,7.3228145 48.6315,7.3228145 L31.6185,7.3228145 C31.6155818,7.3228145 31.6136364,7.32118721 31.6136364,7.31874627 L31.6136364,6.51323667 C31.6136364,6.51079574 31.6155818,6.50916844 31.6185,6.50916844 L48.6315,6.50916844 C48.6344182,6.50916844 48.6363636,6.51079574 48.6363636,6.51323667 L48.6363636,7.31874627 Z" id="Fill-17" fill="#EDEDED" mask="url(#mask-2)"></path>
                        <path d="M48.6363636,148.89316 C48.6363636,148.895601 48.6344182,148.897228 48.6315,148.897228 L31.6185,148.897228 C31.6155818,148.897228 31.6136364,148.895601 31.6136364,148.89316 L31.6136364,148.08765 C31.6136364,148.085209 31.6155818,148.083582 31.6185,148.083582 L48.6315,148.083582 C48.6344182,148.083582 48.6363636,148.085209 48.6363636,148.08765 L48.6363636,148.89316 Z" id="Fill-18" fill="#EDEDED" mask="url(#mask-2)"></path>
                    </g>
                </g>
                <g id="Group-11" transform="translate(98.230769, 35.000000)">
                    <rect id="Rectangle" fill="#FFFFFF" x="0" y="0" width="62.7596154" height="30.8571429"></rect>
                    <g id="Group-17" transform="translate(6.275962, 9.983193)" fill="#FFD500">
                        <rect id="Rectangle-58" x="0" y="0.907563025" width="12.5519231" height="9.07563025"></rect>
                        <rect id="Rectangle-58" x="0" y="0" width="6.27596154" height="9.07563025"></rect>
                    </g>
                    <polygon id="Fill-14" fill="#D8D8D8" points="24.2072802 10.7335948 55.2594574 10.7335948 55.2594574 8.16806723 24.2072802 8.16806723"></polygon>
                    <polygon id="Fill-14-Copy" fill="#D8D8D8" points="24.2072802 17.086536 55.2594574 17.086536 55.2594574 14.5210084 24.2072802 14.5210084"></polygon>
                    <polygon id="Fill-14-Copy-2" fill="#D8D8D8" points="24.2072802 23.4394772 37.3281387 23.4394772 37.3281387 20.8739496 24.2072802 20.8739496"></polygon>
                </g>
                <g id="Group-11-Copy" transform="translate(98.230769, 77.171429)">
                    <rect id="Rectangle" fill="#FFFFFF" x="0" y="0" width="62.7596154" height="30.8571429"></rect>
                    <g id="Group-17" transform="translate(6.275962, 9.983193)" fill="#FFD500">
                        <rect id="Rectangle-58" x="0" y="0.907563025" width="12.5519231" height="9.07563025"></rect>
                        <rect id="Rectangle-58" x="0" y="0" width="6.27596154" height="9.07563025"></rect>
                    </g>
                    <polygon id="Fill-14" fill="#D8D8D8" points="24.2072802 10.7335948 55.2594574 10.7335948 55.2594574 8.16806723 24.2072802 8.16806723"></polygon>
                    <polygon id="Fill-14-Copy" fill="#D8D8D8" points="24.2072802 17.086536 55.2594574 17.086536 55.2594574 14.5210084 24.2072802 14.5210084"></polygon>
                    <polygon id="Fill-14-Copy-2" fill="#D8D8D8" points="24.2072802 23.4394772 37.3281387 23.4394772 37.3281387 20.8739496 24.2072802 20.8739496"></polygon>
                </g>
                <g id="Group-11-Copy-2" transform="translate(98.230769, 110.085714)">
                    <rect id="Rectangle" fill="#FFFFFF" x="0" y="0" width="62.7596154" height="30.8571429"></rect>
                    <g id="Group-17" transform="translate(6.275962, 9.983193)" fill="#FFD500">
                        <rect id="Rectangle-58" x="0" y="0.907563025" width="12.5519231" height="9.07563025"></rect>
                        <rect id="Rectangle-58" x="0" y="0" width="6.27596154" height="9.07563025"></rect>
                    </g>
                    <polygon id="Fill-14" fill="#D8D8D8" points="24.2072802 10.7335948 55.2594574 10.7335948 55.2594574 8.16806723 24.2072802 8.16806723"></polygon>
                    <polygon id="Fill-14-Copy" fill="#D8D8D8" points="24.2072802 17.086536 55.2594574 17.086536 55.2594574 14.5210084 24.2072802 14.5210084"></polygon>
                    <polygon id="Fill-14-Copy-2" fill="#D8D8D8" points="24.2072802 23.4394772 37.3281387 23.4394772 37.3281387 20.8739496 24.2072802 20.8739496"></polygon>
                </g>
                <g id="Page-1" transform="translate(169.500000, 145.900000) scale(-1, 1) translate(-169.500000, -145.900000) translate(142.000000, 117.400000)">
                    <path d="M54.5288462,27.2571429 C54.5288462,42.3108738 42.3221747,54.5142857 27.2644231,54.5142857 C12.2066714,54.5142857 0,42.3108738 0,27.2571429 C0,12.2034119 12.2066714,0 27.2644231,0 C42.3221747,0 54.5288462,12.2034119 54.5288462,27.2571429" id="Fill-1" fill="#90CAF9"></path>
                    <g id="Group-11" transform="translate(7.201923, 0.000000)">
                        <g id="Group-5" transform="translate(0.000000, 46.025755)">
                            <mask id="mask-6" fill="white">
                                <use xlink:href="#path-5"></use>
                            </mask>
                            <g id="Clip-4"></g>
                            <path d="M-2.19522653,57.7893624 C-2.19522653,57.7893624 7.68691671,55.0727968 17.5091873,57.7893624 C28.1801793,60.7412869 35.7152085,57.7893624 35.7152085,57.7893624 C33.8040095,49.5580745 29.4474844,40.6907945 29.4474844,29.1843558 C29.4474844,22.1962864 36.1957655,17.254794 32.3218981,9.98324772 C28.1807045,2.2111714 26.1397814,0.465330841 18.4650493,0.465330841 C6.83767003,0.465330841 2.17495385,2.85291687 1.97905464,9.18668835 C1.74113952,16.8839728 6.35238621,17.9776075 5.88390875,29.1226394 C5.42173369,40.1107654 -0.718892308,49.0821264 -2.19522653,57.7893624" id="Fill-3" fill="#C5E8E0" mask="url(#mask-6)"></path>
                        </g>
                        <path d="M20.4173188,6.99209668 C28.9349952,6.99209668 35.8408361,13.8692859 35.8408361,22.3526693 L35.8408361,27.720946 C35.8408361,41.9068158 24.1987512,38.1541478 24.1987512,44.9068582 C24.1987512,48.4754233 25.3935788,51.8855133 25.3935788,51.8855133 C14.2262737,51.8855133 13.5298599,47.8206023 13.5298599,46.4931777 C13.5298599,31.9003983 4.99327639,32.4558455 4.99327639,23.5022671 L4.99327639,22.3526693 C4.99327639,13.8692859 11.898592,6.99209668 20.4173188,6.99209668" id="Fill-6" fill="#FFDBC2"></path>
                        <g id="Group-10" transform="translate(6.827586, 0.000000)">
                            <mask id="mask-8" fill="white">
                                <use xlink:href="#path-7"></use>
                            </mask>
                            <g id="Clip-9"></g>
                            <path d="M0.460809549,4.88699372 C0.460809549,8.63809273 3.51274058,11.6768386 7.27894218,11.6768386 C11.043043,11.6768386 14.0954992,8.63809273 14.0954992,4.88699372 C14.0954992,1.13798679 11.043043,-1.90128209 7.27894218,-1.90128209 C3.51274058,-1.90128209 0.460809549,1.13798679 0.460809549,4.88699372" id="Fill-8" fill="#B78B68" mask="url(#mask-8)"></path>
                        </g>
                    </g>
                    <g id="Group-18" transform="translate(11.317308, 7.200000)">
                        <g id="Group-14" transform="translate(6.295385, 0.000000)">
                            <mask id="mask-10" fill="white">
                                <use xlink:href="#path-9"></use>
                            </mask>
                            <g id="Clip-13"></g>
                            <path d="M0.0192533846,1.45672655 C0.0192533846,9.67443487 6.82508877,16.3367199 15.221558,16.3367199 C23.6164534,16.3367199 38.4861518,17.5676046 38.4861518,9.34989625 C38.4861518,1.13218792 23.6164534,-13.4222398 15.221558,-13.4222398 C6.82508877,-13.4222398 0.0192533846,-6.76098178 0.0192533846,1.45672655" id="Fill-12" fill="#B78B68" mask="url(#mask-10)"></path>
                        </g>
                        <g id="Group-17" transform="translate(0.000000, 1.027021)">
                            <mask id="mask-12" fill="white">
                                <use xlink:href="#path-11"></use>
                            </mask>
                            <g id="Clip-16"></g>
                            <path d="M-19.9353846,8.37191552 C-19.9353846,16.5896238 -13.1295492,23.2519089 -4.73308,23.2519089 C3.66181538,23.2519089 10.4676508,16.5896238 10.4676508,8.37191552 C10.4676508,0.154207199 3.66181538,-6.50705084 -4.73308,-6.50705084 C-13.1295492,-6.50705084 -19.9353846,0.154207199 -19.9353846,8.37191552" id="Fill-15" fill="#B78B68" mask="url(#mask-12)"></path>
                        </g>
                    </g>
                    <g id="Group-30" transform="translate(10.288462, 25.714286)">
                        <path d="M2.47553712,3.43075108 C2.47553712,1.64631997 3.91510234,0.20005691 5.69254047,0.20005691 C7.4699786,0.20005691 8.91057391,1.64631997 8.91057391,3.43075108 C8.91057391,5.21414804 9.40450702,11.6584729 8.50419933,10.1217214 C6.16123612,6.12265151 2.47553712,7.22092206 2.47553712,3.43075108" id="Fill-19" fill="#FFDBC2"></path>
                        <path d="M19.0564957,7.9292135 C22.7411645,10.2591604 26.2893452,7.90801336 26.2893452,7.90801336" id="Stroke-21" stroke="#EF9A9A" stroke-width="1.365" stroke-linecap="round" stroke-linejoin="round"></path>
                        <g id="Group-25" transform="translate(0.000000, 22.751367)">
                            <mask id="mask-14" fill="white">
                                <use xlink:href="#path-13"></use>
                            </mask>
                            <g id="Clip-24"></g>
                            <path d="M-1.17616856,5.38902333 C-1.17513846,5.38436964 -1.17359331,5.3807501 -1.17359331,5.3807501 L-1.17359331,5.36782319 L-1.17153311,5.36678903 C-0.684810702,2.20072943 2.26024615,0.0202176924 5.42162408,0.496445179 C8.57888161,0.972155588 10.7580589,3.92362843 10.2981191,7.09330758 L10.2996642,7.09434173 L10.2960589,7.10416618 L10.2960589,7.11347356 C10.2574301,7.36425568 5.39432642,29.7510841 5.39432642,29.7510841 L5.39072107,29.7510841 C4.82674114,31.9031567 2.75108896,33.330805 0.514226087,32.9936711 C-1.72778729,32.6565372 -3.29302475,30.6766511 -3.20443612,28.4558074 L-3.20701137,28.4558074 C-3.20701137,28.4558074 -1.21016187,5.62222484 -1.17616856,5.38902333" id="Fill-23" fill="#C2E5DD" mask="url(#mask-14)"></path>
                        </g>
                        <path d="M18.4999839,1.6161227 C18.4999839,0.90204001 18.0972147,0.323431371 17.6022515,0.323431371 C17.1062582,0.323431371 16.703489,0.90204001 16.703489,1.6161227 C16.703489,2.33020539 17.1062582,2.91088234 17.6022515,2.91088234 C18.0972147,2.91088234 18.4999839,2.33020539 18.4999839,1.6161227" id="Fill-26" fill="#414141"></path>
                        <path d="M28.6927237,1.6161227 C28.6927237,0.90204001 28.2899545,0.323431371 27.7949913,0.323431371 C27.298998,0.323431371 26.8962288,0.90204001 26.8962288,1.6161227 C26.8962288,2.33020539 27.298998,2.91088234 27.7949913,2.91088234 C28.2899545,2.91088234 28.6927237,2.33020539 28.6927237,1.6161227" id="Fill-28" fill="#414141"></path>
                    </g>
                    <g id="Group-33" transform="translate(21.605769, 37.028571)">
                        <mask id="mask-16" fill="white">
                            <use xlink:href="#path-15"></use>
                        </mask>
                        <g id="Clip-32"></g>
                        <path d="M12.1484169,2.94011499 C5.17424769,4.49401912 0.246586154,0.439425901 0.246586154,0.439425901 L4.09590923,15.3633244 L11.1787246,16.823085 L12.1484169,2.94011499 Z" id="Fill-31" fill="#ECC3A9" mask="url(#mask-16)"></path>
                    </g>
                </g>
                <path d="M111.567308,92 L111.151407,76.1221397 L108.372383,78.1681287 C107.876388,77.6330583 107.372451,77.1033633 106.849456,76.5871066 C97.3200436,67.1804845 84.6501617,62 71.173664,62 C57.6971662,62 45.0272843,67.1804845 35.4978722,76.5871066 C31.3495296,80.6819963 28.0132484,85.3650379 25.5673077,90.4449588 L41.3774325,90.4449588 C48.0810798,81.3572735 58.9394227,75.4383516 71.173664,75.4383516 C81.4141686,75.4383516 90.6899108,79.5863227 97.3731373,86.2669753 L94.2342558,88.5781477 L111.567308,92 Z" id="Fill-23" fill="url(#linearGradient-17)" transform="translate(68.567308, 77.000000) scale(1, -1) translate(-68.567308, -77.000000) "></path>
                <g id="Group-12" transform="translate(143.500000, 58.657143)">
                    <ellipse id="Oval-41" fill="#4285F4" cx="6.94134054" cy="6.93121861" rx="6.94134054" ry="6.93121861"></ellipse>
                    <polygon id="Path-156" fill="#FFFFFF" points="2.57501342 7.73981347 5.35863442 10.5461775 11.3965555 4.52721417 10.1814819 3.35381545 5.35863442 8.20614884 3.70251113 6.58950499"></polygon>
                </g>
                <g id="Group-20" transform="translate(0.000000, 30.000000)">
                    <rect id="Rectangle-Copy-9" fill="#CAC9C9" opacity="0.560081845" x="4.7761194" y="4.7761194" width="74.9368542" height="36.8443497"></rect>
                    <rect id="Rectangle" fill="#F1F3F4" x="2.84217094e-14" y="-7.81597009e-14" width="74.9368542" height="36.8443497"></rect>
                    <polygon id="Fill-14" fill="#37474F" opacity="0.344703311" points="28.9042152 12.8162326 65.9814416 12.8162326 65.9814416 9.75291609 28.9042152 9.75291609"></polygon>
                    <polygon id="Fill-14-Copy" fill="#37474F" opacity="0.344703311" points="28.9042152 20.4018341 65.9814416 20.4018341 65.9814416 17.3385175 28.9042152 17.3385175"></polygon>
                    <polygon id="Fill-14-Copy-2" fill="#37474F" opacity="0.344703311" points="28.9042152 27.9874355 44.5709119 27.9874355 44.5709119 24.9241189 28.9042152 24.9241189"></polygon>
                    <g id="ic_error_outline_black_24dp" transform="translate(4.776119, 8.358209)">
                        <polygon id="Path" points="0 0 19.1044776 0 19.1044776 19.1044776 0 19.1044776"></polygon>
                        <path d="M8.75621891,11.9402985 L10.3482587,11.9402985 L10.3482587,13.5323383 L8.75621891,13.5323383 L8.75621891,11.9402985 Z M8.75621891,5.5721393 L10.3482587,5.5721393 L10.3482587,10.3482587 L8.75621891,10.3482587 L8.75621891,5.5721393 Z M9.54427861,1.5920398 C5.15024876,1.5920398 1.5920398,5.15820896 1.5920398,9.55223881 C1.5920398,13.9462687 5.15024876,17.5124378 9.54427861,17.5124378 C13.9462687,17.5124378 17.5124378,13.9462687 17.5124378,9.55223881 C17.5124378,5.15820896 13.9462687,1.5920398 9.54427861,1.5920398 Z M9.55223881,15.920398 C6.03383085,15.920398 3.1840796,13.0706468 3.1840796,9.55223881 C3.1840796,6.03383085 6.03383085,3.1840796 9.55223881,3.1840796 C13.0706468,3.1840796 15.920398,6.03383085 15.920398,9.55223881 C15.920398,13.0706468 13.0706468,15.920398 9.55223881,15.920398 Z" id="Shape" fill="#EA4335" fill-rule="nonzero"></path>
                    </g>
                </g>
            </g>
        </g>
    </g>
</svg>