<?xml version="1.0" standalone="no"?>
<!DOCTYPE svg PUBLIC "-//W3C//DTD SVG 20010904//EN"
 "http://www.w3.org/TR/2001/REC-SVG-20010904/DTD/svg10.dtd">
<svg version="1.0" xmlns="http://www.w3.org/2000/svg"
 width="700.000000pt" height="700.000000pt" viewBox="0 0 700.000000 700.000000"
 preserveAspectRatio="xMidYMid meet">
<metadata>
Created by potrace 1.14, written by Peter Selinger 2001-2017
</metadata>
<g transform="translate(0.000000,700.000000) scale(0.100000,-0.100000)"
fill="#000000" stroke="none">
<path d="M3464 6398 c-21 -10 -91 -42 -154 -72 -63 -29 -140 -65 -170 -79 -98
-44 -183 -84 -304 -141 -65 -31 -120 -56 -122 -56 -2 0 -50 -22 -106 -49 -253
-119 -299 -141 -303 -141 -2 0 -54 -24 -117 -54 -62 -29 -174 -82 -248 -116
-194 -90 -274 -127 -365 -170 -44 -21 -105 -49 -135 -63 -67 -30 -478 -222
-593 -276 -45 -21 -104 -49 -132 -61 -27 -12 -84 -38 -125 -57 -41 -20 -112
-53 -158 -74 l-82 -38 0 -2181 c0 -1199 2 -2180 5 -2180 3 0 34 13 68 29 34
16 87 40 117 54 30 14 96 44 145 67 50 23 117 55 150 70 33 15 94 43 135 63
41 19 129 60 195 90 66 30 170 79 230 107 61 29 135 63 165 77 30 14 89 41
130 60 41 20 201 94 355 165 154 72 327 152 384 179 57 27 104 49 106 49 1 0
54 24 116 54 153 72 392 183 454 211 28 12 84 38 125 58 41 19 119 55 172 80
l98 46 72 -33 c40 -19 118 -55 173 -81 55 -26 178 -83 274 -127 95 -44 229
-106 297 -139 69 -32 126 -59 128 -59 2 0 70 -32 151 -70 81 -39 148 -70 150
-70 3 0 109 -49 260 -120 64 -30 62 -29 595 -277 195 -91 389 -181 430 -200
41 -20 102 -48 135 -63 33 -15 96 -44 140 -65 210 -98 335 -155 341 -155 2 0
3 982 2 2181 l-3 2181 -345 162 c-190 88 -377 175 -415 193 -86 39 -213 98
-364 169 -62 30 -115 54 -117 54 -2 0 -60 27 -129 60 -69 33 -206 97 -303 141
-97 45 -233 108 -301 140 -68 33 -125 59 -126 59 -2 0 -65 30 -141 66 -76 36
-152 71 -169 79 -16 7 -131 60 -255 117 -124 58 -247 115 -275 128 -27 12 -84
39 -126 59 l-76 37 -39 -18z m173 -612 c77 -35 175 -81 219 -101 142 -67 669
-312 864 -402 41 -20 107 -50 145 -68 39 -18 165 -77 280 -130 116 -54 248
-115 295 -137 47 -22 175 -82 285 -133 110 -51 248 -115 306 -143 l106 -49 -2
-1614 c-1 -888 -3 -1615 -3 -1616 -1 -1 -34 14 -72 33 -39 19 -72 34 -74 34
-3 0 -61 27 -131 60 -70 33 -128 60 -130 60 -1 0 -65 30 -141 66 -77 37 -182
86 -234 109 -52 24 -144 66 -205 95 -60 29 -162 76 -225 105 -63 29 -160 74
-215 100 -55 26 -185 87 -290 135 -104 48 -228 106 -275 128 -47 22 -141 66
-210 97 -69 32 -165 77 -215 100 -152 71 -205 95 -216 95 -6 0 -40 -14 -75
-30 -35 -17 -94 -44 -131 -61 -38 -17 -111 -52 -163 -76 -52 -25 -243 -114
-425 -198 -181 -84 -383 -178 -449 -209 -65 -31 -120 -56 -121 -56 -2 0 -52
-23 -111 -51 -97 -46 -227 -106 -464 -216 -41 -20 -201 -94 -355 -165 -297
-138 -327 -151 -335 -146 -3 2 -5 727 -6 1612 l-1 1609 71 32 c39 18 129 60
199 94 71 34 130 61 132 61 2 0 54 24 117 54 62 29 168 79 235 109 67 31 174
82 238 112 64 30 118 55 120 55 2 0 64 29 140 65 75 36 138 65 140 65 2 0 69
32 150 70 81 39 148 70 150 70 1 0 52 23 111 51 160 75 529 247 604 281 36 16
101 47 145 68 44 21 81 39 81 39 1 1 65 -28 141 -63z"/>
<path d="M1221 4319 c-4 -14 -7 -1291 -2 -1345 1 -14 652 -11 696 3 93 31 177
99 217 177 38 74 43 137 42 517 -1 403 -3 424 -66 511 -35 48 -45 57 -108 99
-74 49 -100 52 -449 54 -298 1 -324 0 -330 -16z m622 -292 c52 -34 54 -47 53
-383 -1 -278 -3 -313 -19 -337 -34 -53 -55 -59 -204 -59 -76 0 -147 0 -158 1
-20 1 -20 7 -21 401 0 394 0 399 21 402 11 2 83 1 161 -2 111 -4 146 -9 167
-23z"/>
<path d="M2680 4329 c-127 -22 -227 -128 -248 -261 -4 -29 -7 -233 -7 -453 l1
-400 28 -62 c33 -72 94 -134 164 -166 44 -20 63 -21 287 -21 230 0 242 1 293
23 68 31 141 110 167 182 18 50 19 83 20 471 0 497 -1 505 -95 599 -83 84
-117 93 -370 94 -113 0 -221 -2 -240 -6z m390 -297 c32 -26 35 -64 34 -413 0
-270 -2 -310 -17 -333 -23 -35 -58 -42 -205 -39 -123 1 -127 2 -149 28 -25 28
-24 14 -24 365 0 371 -1 359 26 385 23 24 29 25 168 25 125 0 148 -2 167 -18z"/>
<path d="M3641 4332 c-8 -3 -11 -197 -11 -686 l1 -683 139 1 140 0 0 216 0
217 99 0 100 1 40 -92 c22 -50 64 -148 93 -217 l53 -125 148 0 c81 0 147 1
147 3 0 2 -43 105 -95 229 -52 124 -95 229 -95 233 0 4 18 20 39 36 47 36 76
76 102 144 17 46 19 74 17 274 -3 213 -4 224 -27 272 -34 69 -107 136 -172
160 -49 17 -84 19 -381 20 -179 0 -331 -1 -337 -3z m620 -311 c10 -13 20 -37
20 -55 8 -208 0 -253 -48 -275 -14 -6 -86 -11 -173 -11 l-150 0 0 184 c0 112
4 186 10 188 5 2 80 1 166 -2 149 -5 157 -6 175 -29z"/>
<path d="M5119 4315 c-8 -19 -182 -594 -199 -660 -8 -29 -135 -457 -180 -602
-12 -40 -23 -76 -23 -80 -1 -5 66 -8 150 -9 l152 0 20 75 c11 42 28 108 38
146 l18 70 186 2 c102 0 191 -2 196 -5 6 -4 23 -54 37 -112 15 -58 31 -121 36
-140 l10 -36 150 0 c111 -1 150 2 150 11 0 7 -16 66 -35 131 -20 66 -44 148
-54 184 -11 36 -33 110 -49 165 -17 55 -54 181 -82 280 -28 99 -55 191 -60
205 -5 14 -32 106 -61 205 -28 99 -54 182 -56 185 -2 2 -79 5 -170 5 -157 1
-166 0 -174 -20z m195 -391 c2 -11 25 -100 50 -197 25 -97 46 -179 46 -182 0
-3 -54 -5 -119 -5 l-119 0 49 193 c28 105 55 210 61 232 l11 40 8 -30 c5 -16
11 -39 13 -51z"/>
</g>
</svg>
