<?xml version="1.0" encoding="UTF-8"?>
<svg id="Layer_1" data-name="Layer 1" xmlns="http://www.w3.org/2000/svg" viewBox="0 0 700 700">
  <defs>
    <style>
      .cls-1 {
        fill: #f0eeea;
      }

      .cls-2 {
        fill: #221e27;
      }
    </style>
  </defs>
  <rect class="cls-1" width="700" height="700"/>
  <path class="cls-2" d="M90.1,92h104.1c91.1,0,138.6,40.1,138.6,122.4v2.5c0,83-49.3,126.7-138.3,126.7h-104.5V92h.1ZM191.5,272.1c31.7,0,43.6-14.1,43.6-53.1v-2.8c0-42.6-14.1-52.8-44.3-52.8h-6.7v108.7h7.4Z"/>
  <path class="cls-2" d="M90.1,360.3h110.5c74.9,0,109.8,30.3,109.8,84.8v1.4c0,33.1-14.4,52.8-36.9,65.1l51.7,100.3h-97.5l-39.1-79.9h-5.3v79.9h-93.2v-251.6h0ZM193.9,473.2c18.3,0,26.4-7.4,26.4-22.2v-1.4c0-13.7-8.1-19.7-25.7-19.7h-11.3v43.3h10.6Z"/>
  <path class="cls-2" d="M412.1,360.3h120.7l77,251.6h-99.9l-8.4-33.4h-71.1l-8.4,33.4h-87.2l77.4-251.6h-.1ZM445.9,515.8h40.1l-19.7-80.2-20.4,80.2h0Z"/>
  <path class="cls-2" d="M342.9,218.3c0-71.9,58.3-130.2,130.2-130.2s130.2,58.3,130.2,130.2-58.3,130.2-130.2,130.2-130.2-58.3-130.2-130.2h0ZM473.1,168.7c-27.4,0-49.6,22.2-49.6,49.6s22.2,49.6,49.6,49.6,49.6-22.2,49.6-49.6-22.2-49.6-49.6-49.6h0Z"/>
</svg>