<?xml version="1.0" encoding="UTF-8"?>
<svg id="Layer_1" xmlns="http://www.w3.org/2000/svg" version="1.1" viewBox="0 0 566.9 566.9">
  <!-- Generator: Adobe Illustrator 30.0.0, SVG Export Plug-In . SVG Version: 2.1.1 Build 123)  -->
  <defs>
    <style>
      .st0 {
        fill: #efe373;
      }

      .st0, .st1, .st2, .st3, .st4, .st5 {
        stroke-width: .8px;
      }

      .st0, .st2, .st3, .st6, .st4, .st5 {
        stroke-miterlimit: 10;
      }

      .st0, .st3, .st6, .st4, .st5 {
        stroke: #000;
      }

      .st1, .st2 {
        fill: none;
        stroke: #231f20;
      }

      .st7 {
        isolation: isolate;
      }

      .st8 {
        fill: #231e28;
      }

      .st9 {
        fill: #fff;
      }

      .st10 {
        fill: #221e27;
      }

      .st3 {
        fill: #1b4673;
      }

      .st6 {
        stroke-width: .6px;
      }

      .st6, .st4 {
        fill: #f0eeea;
      }

      .st5 {
        fill: #77b9f1;
      }
    </style>
  </defs>
  <line class="st1" x1="118.5" y1="150.2" x2="228.3" y2="150.2"/>
  <rect class="st4" x="447.6" y="409.7" width="100.8" height="52.2" rx="3.3" ry="3.3"/>
  <g class="st7">
    <g class="st7">
      <g class="st7">
        <g class="st7">
          <g class="st7">
            <path class="st10" d="M458.8,429c-.4-.3-.7-.8-.9-1.3l1.1-.5c0,.3.2.6.5.8.2.2.5.3.8.3s.5,0,.7-.2c.2-.1.3-.3.3-.6s0-.4-.3-.6c-.2-.2-.5-.3-1-.5h-.4c-.4-.3-.8-.5-1.1-.8s-.4-.7-.4-1.1,0-.6.3-.9c.2-.3.4-.5.7-.7.3-.2.7-.2,1.1-.2.6,0,1,.1,1.4.4.3.3.6.6.7,1l-1.1.5c0-.2-.2-.4-.3-.5s-.4-.2-.6-.2-.5,0-.7.2-.3.3-.3.5,0,.4.2.5.4.3.8.4h.4c.6.3,1,.6,1.3.9.3.3.4.7.4,1.2s-.1.8-.3,1.1-.5.5-.8.7c-.3.1-.7.2-1,.2-.6,0-1.1-.2-1.5-.5Z"/>
            <path class="st10" d="M463.4,424.7h1.1v.6h0c.1-.2.3-.4.5-.5.2-.1.5-.2.8-.2s.8.1,1.1.3.6.5.8.9c.2.4.3.8.3,1.3s0,.9-.3,1.3c-.2.4-.5.7-.8.9-.3.2-.7.3-1.1.3s-.6,0-.8-.2-.4-.3-.5-.5h0v.6c0,0,0,1.8,0,1.8h-1.2v-6.5ZM466.4,428.2c.2-.1.3-.3.5-.5.1-.2.2-.4.2-.7s0-.5-.2-.7c-.1-.2-.3-.4-.5-.5-.2-.1-.4-.2-.6-.2s-.4,0-.6.2c-.2.1-.3.3-.5.5s-.2.4-.2.7,0,.5.2.7.3.4.5.5c.2.1.4.2.6.2s.4,0,.6-.2Z"/>
          </g>
          <g class="st7">
            <path class="st10" d="M470,429.1c-.4-.2-.7-.5-.9-.9-.2-.4-.3-.8-.3-1.2s.1-.8.3-1.2.5-.7.8-.9c.4-.2.8-.3,1.2-.3s.9.1,1.2.3c.3.2.6.5.8.8.2.4.3.7.3,1.2s0,.3,0,.4h-3.4c0,.4.2.6.4.8.2.2.5.3.8.3s.5,0,.7-.2c.2-.1.3-.3.5-.5l1,.5c-.5.8-1.2,1.2-2.1,1.2s-.9-.1-1.2-.3ZM472.4,426.5c0-.1,0-.3-.2-.4,0-.1-.2-.3-.4-.4-.2,0-.4-.1-.6-.1s-.5,0-.7.2c-.2.2-.3.4-.4.7h2.3Z"/>
          </g>
          <g class="st7">
            <path class="st10" d="M475.4,429.1c-.4-.2-.7-.5-.9-.9-.2-.4-.3-.8-.3-1.3s.1-.9.3-1.3c.2-.4.5-.7.9-.9.4-.2.8-.3,1.2-.3s.9.1,1.3.3.6.5.8.9l-1.1.4c-.2-.4-.5-.6-1-.6s-.7.1-.9.4c-.2.2-.3.6-.3,1s.1.7.3,1c.2.2.5.4.9.4s.9-.2,1.1-.6l1.1.5c-.2.4-.5.7-.8.9-.4.2-.8.3-1.3.3s-.9-.1-1.2-.3Z"/>
          </g>
          <g class="st7">
            <path class="st10" d="M479.7,424c-.2-.1-.2-.3-.2-.5s0-.4.2-.5c.1-.1.3-.2.5-.2s.4,0,.5.2c.1.1.2.3.2.5s0,.4-.2.5c-.1.2-.3.2-.5.2s-.4,0-.5-.2ZM479.7,424.7h1.2v4.6h-1.2v-4.6Z"/>
          </g>
          <g class="st7">
            <path class="st10" d="M482.3,429c-.3-.3-.5-.7-.5-1.1s0-.6.2-.8c.2-.2.4-.4.7-.5.3-.1.6-.2.9-.2s.9,0,1.2.2v-.2c0-.3,0-.5-.3-.6-.2-.2-.4-.2-.8-.2s-.4,0-.6.1c-.2,0-.4.2-.5.4l-.8-.6c.2-.3.5-.5.8-.7s.7-.2,1.1-.2c.7,0,1.2.2,1.6.5s.5.8.5,1.4v2.8h-1.2v-.5h0c-.1.2-.3.3-.5.4-.2.1-.5.2-.8.2-.5,0-.9-.1-1.2-.4ZM484.5,428.2c.2-.2.3-.5.3-.8-.3-.1-.6-.2-1-.2-.6,0-.9.2-.9.7s0,.3.2.5.3.2.6.2.6-.1.8-.3Z"/>
            <path class="st10" d="M487.1,422.9h1.2v6.4h-1.2v-6.4Z"/>
            <path class="st10" d="M489.6,424c-.2-.1-.2-.3-.2-.5s0-.4.2-.5c.2-.1.3-.2.5-.2s.4,0,.5.2.2.3.2.5,0,.4-.2.5c-.1.2-.3.2-.5.2s-.4,0-.5-.2ZM489.5,424.7h1.2v4.6h-1.2v-4.6Z"/>
          </g>
          <g class="st7">
            <path class="st10" d="M491.7,428.3l2.4-2.6h-2.3v-1h3.8v1l-2.4,2.6h2.5v1h-3.9v-1Z"/>
          </g>
          <g class="st7">
            <path class="st10" d="M497.3,429.1c-.4-.2-.7-.5-.9-.9-.2-.4-.3-.8-.3-1.2s.1-.8.3-1.2.5-.7.8-.9c.4-.2.8-.3,1.2-.3s.9.1,1.2.3.6.5.8.8c.2.4.3.7.3,1.2s0,.3,0,.4h-3.4c0,.4.2.6.4.8.2.2.5.3.8.3s.5,0,.7-.2c.2-.1.3-.3.5-.5l1,.5c-.5.8-1.2,1.2-2.1,1.2s-.9-.1-1.2-.3ZM499.7,426.5c0-.1,0-.3-.2-.4,0-.1-.2-.3-.4-.4-.2,0-.4-.1-.6-.1s-.5,0-.7.2-.3.4-.4.7h2.3Z"/>
          </g>
          <g class="st7">
            <path class="st10" d="M502.6,429.1c-.3-.2-.6-.5-.8-.9-.2-.4-.3-.8-.3-1.3s0-.9.3-1.3c.2-.4.5-.7.8-.9s.7-.3,1.1-.3.6,0,.8.2.4.3.5.5h0v-.6c0,0,0-1.8,0-1.8h1.2v6.4h-1.1v-.5h0c-.1.2-.3.4-.5.5s-.5.2-.8.2-.8-.1-1.1-.3ZM504.5,428.2c.2-.1.3-.3.5-.5s.2-.4.2-.7,0-.5-.2-.7-.3-.4-.5-.5c-.2-.1-.4-.2-.6-.2s-.4,0-.6.2c-.2.1-.3.3-.5.5-.1.2-.2.4-.2.7s0,.5.2.7c.1.2.3.4.5.5.2.1.4.2.6.2s.4,0,.6-.2Z"/>
          </g>
          <g class="st7">
            <path class="st10" d="M510.5,429.1c-.4-.2-.7-.5-.9-.9-.2-.4-.3-.8-.3-1.2s.1-.9.3-1.2c.2-.4.5-.7.9-.9s.8-.3,1.3-.3.9.1,1.3.3c.4.2.7.5.9.9s.3.8.3,1.2-.1.9-.3,1.2-.5.7-.9.9c-.4.2-.8.3-1.3.3s-.9-.1-1.3-.3ZM512.4,428.2c.2-.1.3-.3.5-.5.1-.2.2-.4.2-.7s0-.5-.2-.7c-.1-.2-.3-.4-.5-.5-.2-.1-.4-.2-.6-.2s-.4,0-.6.2c-.2.1-.3.3-.5.5s-.2.4-.2.7,0,.5.2.7.3.4.5.5c.2.1.4.2.6.2s.4,0,.6-.2Z"/>
          </g>
          <g class="st7">
            <path class="st10" d="M515.4,428.9c-.3-.3-.4-.8-.4-1.4v-2.8h1.2v2.6c0,.3,0,.6.2.7.2.2.3.3.6.3s.6-.1.8-.4c.2-.2.3-.6.3-.9v-2.3h1.2v4.6h-1.1v-.6h0c-.1.2-.3.4-.6.5-.2.1-.5.2-.8.2-.6,0-1-.2-1.3-.5Z"/>
            <path class="st10" d="M521.8,429.3c-.2,0-.3-.2-.5-.3-.3-.3-.4-.7-.4-1.2v-2.2h-.8v-1h.8v-1.3h1.2v1.3h1.1v1h-1.1v2c0,.2,0,.4.2.5,0,0,.2.1.4.1s.2,0,.3,0,.2,0,.3-.2v1.2c-.3.1-.5.2-.8.2s-.4,0-.6-.1Z"/>
          </g>
          <g class="st7">
            <path class="st10" d="M524.2,424.7h1.1v.6h0c.1-.2.3-.4.5-.5.2-.1.5-.2.8-.2s.8.1,1.1.3c.3.2.6.5.8.9s.3.8.3,1.3,0,.9-.3,1.3-.5.7-.8.9c-.3.2-.7.3-1.1.3s-.6,0-.8-.2c-.2-.1-.4-.3-.5-.5h0v.6c0,0,0,1.8,0,1.8h-1.2v-6.5ZM527.2,428.2c.2-.1.3-.3.5-.5s.2-.4.2-.7,0-.5-.2-.7-.3-.4-.5-.5c-.2-.1-.4-.2-.6-.2s-.4,0-.6.2c-.2.1-.3.3-.5.5-.1.2-.2.4-.2.7s0,.5.2.7c.1.2.3.4.5.5.2.1.4.2.6.2s.4,0,.6-.2Z"/>
          </g>
          <g class="st7">
            <path class="st10" d="M530.3,428.9c-.3-.3-.4-.8-.4-1.4v-2.8h1.2v2.6c0,.3,0,.6.2.7.1.2.3.3.6.3s.6-.1.8-.4c.2-.2.3-.6.3-.9v-2.3h1.2v4.6h-1.1v-.6h0c-.1.2-.3.4-.6.5-.2.1-.5.2-.8.2-.6,0-1-.2-1.3-.5Z"/>
          </g>
          <g class="st7">
            <path class="st10" d="M536.7,429.3c-.2,0-.3-.2-.5-.3-.3-.3-.4-.7-.4-1.2v-2.2h-.8v-1h.8v-1.3h1.2v1.3h1.1v1h-1.1v2c0,.2,0,.4.2.5,0,0,.2.1.4.1s.2,0,.3,0c0,0,.2,0,.3-.2v1.2c-.3.1-.5.2-.8.2s-.4,0-.6-.1Z"/>
          </g>
          <g class="st7">
            <path class="st10" d="M457.5,439.5c-.3-.2-.6-.6-.7-1l.6-.2c0,.3.2.5.4.7s.5.3.8.3.5,0,.7-.2c.2-.2.3-.4.3-.6s0-.4-.3-.6c-.2-.2-.4-.3-.8-.4h-.3c-.4-.2-.6-.4-.9-.6-.2-.2-.3-.5-.3-.9s0-.5.2-.7c.1-.2.3-.4.5-.5.2-.1.5-.2.8-.2s.5,0,.8.2.4.2.5.4c.1.2.2.3.3.5l-.6.2c0-.2-.2-.3-.3-.5-.2-.1-.4-.2-.7-.2s-.5,0-.7.2c-.2.1-.3.3-.3.5s0,.4.2.5c.2.1.4.2.7.3h.3c.4.3.8.5,1,.7.2.2.4.5.4.9s0,.6-.2.8c-.2.2-.4.4-.6.5s-.5.2-.8.2c-.4,0-.8-.1-1.1-.4Z"/>
          </g>
          <g class="st7">
            <path class="st10" d="M461.6,439.6c-.3-.2-.5-.4-.6-.7-.2-.3-.2-.6-.2-1s0-.7.2-1c.1-.3.3-.5.6-.7.3-.2.6-.3.9-.3s.7,0,.9.2.5.4.6.6.2.6.2.9,0,.1,0,.2h-2.8c0,.3,0,.5.2.7.1.2.3.3.4.4.2,0,.4.1.6.1.5,0,.8-.2,1.1-.6l.5.2c-.2.3-.4.5-.6.7s-.6.3-1,.3-.6,0-.9-.2ZM463.6,437.5c0-.1,0-.3-.1-.4,0-.1-.2-.3-.4-.4s-.4-.2-.6-.2-.5,0-.7.3c-.2.2-.3.4-.4.7h2.2Z"/>
          </g>
          <g class="st7">
            <path class="st10" d="M465.6,439.6c-.3-.2-.5-.4-.6-.7s-.2-.6-.2-1,0-.7.2-1,.4-.5.6-.7c.3-.2.6-.2.9-.2s.7,0,1,.3c.3.2.5.4.6.7l-.5.2c0-.2-.2-.4-.4-.5-.2-.1-.4-.2-.6-.2s-.4,0-.6.2c-.2.1-.3.3-.4.5-.1.2-.2.4-.2.7s0,.5.2.7.3.4.4.5c.2.1.4.2.6.2s.5,0,.7-.2c.2-.1.3-.3.4-.5l.5.2c-.1.3-.3.5-.6.7-.3.2-.6.3-1,.3s-.7,0-.9-.2Z"/>
            <path class="st10" d="M469.1,439.4c-.2-.3-.3-.6-.3-1.1v-2.2h.6v2.2c0,.3,0,.6.2.7.2.2.4.2.6.2s.4,0,.5-.2.3-.2.4-.4c0-.2.1-.4.1-.5v-2h.6v3.6h-.6v-.5h0c0,.2-.3.3-.5.4-.2.1-.4.2-.7.2-.4,0-.8-.1-1-.4Z"/>
          </g>
          <g class="st7">
            <path class="st10" d="M472.7,436.1h.6v.6h0c0-.2.2-.4.4-.5.2-.1.4-.2.6-.2s.3,0,.4,0v.6c-.1,0-.3-.1-.5-.1s-.3,0-.5.1c-.1,0-.3.2-.3.4,0,.2-.1.3-.1.5v2h-.6v-3.6Z"/>
          </g>
          <g class="st7">
            <path class="st10" d="M475.8,439.6c-.3-.2-.5-.4-.6-.7s-.2-.6-.2-1,0-.7.2-1c.1-.3.3-.5.6-.7s.6-.3.9-.3.7,0,.9.2c.3.2.5.4.6.6s.2.6.2.9,0,.1,0,.2h-2.8c0,.3,0,.5.2.7.1.2.3.3.4.4.2,0,.4.1.6.1.5,0,.8-.2,1.1-.6l.5.2c-.2.3-.4.5-.6.7s-.6.3-1,.3-.6,0-.9-.2ZM477.7,437.5c0-.1,0-.3-.1-.4,0-.1-.2-.3-.4-.4s-.4-.2-.6-.2-.5,0-.7.3-.3.4-.4.7h2.2Z"/>
          </g>
          <g class="st7">
            <path class="st10" d="M481.4,439.6c-.3-.2-.5-.4-.6-.7-.2-.3-.2-.6-.2-1s0-.7.2-1c.2-.3.4-.5.6-.7.3-.2.6-.2.9-.2s.7,0,1,.3.5.4.6.7l-.5.2c0-.2-.2-.4-.4-.5s-.4-.2-.6-.2-.4,0-.6.2c-.2.1-.3.3-.4.5-.1.2-.2.4-.2.7s0,.5.2.7c.1.2.3.4.4.5.2.1.4.2.6.2s.5,0,.7-.2c.2-.1.3-.3.4-.5l.5.2c-.1.3-.3.5-.6.7-.3.2-.6.3-1,.3s-.7,0-.9-.2Z"/>
          </g>
          <g class="st7">
            <path class="st10" d="M485.2,439.6c-.3-.2-.5-.4-.7-.7-.2-.3-.2-.6-.2-1s0-.7.2-1,.4-.5.7-.7.6-.3.9-.3.7,0,.9.3c.3.2.5.4.7.7s.2.6.2,1,0,.7-.2,1c-.2.3-.4.5-.7.7-.3.2-.6.3-.9.3s-.7,0-.9-.3ZM486.7,439.1c.2-.1.3-.3.5-.5.1-.2.2-.4.2-.7s0-.5-.2-.7c-.1-.2-.3-.4-.5-.5s-.4-.2-.6-.2-.4,0-.6.2-.3.3-.5.5c-.1.2-.2.4-.2.7s0,.5.2.7c.1.2.3.4.5.5.2.1.4.2.6.2s.4,0,.6-.2Z"/>
          </g>
          <g class="st7">
            <path class="st10" d="M489.3,439.6c-.3-.2-.5-.4-.6-.7s-.2-.6-.2-1,0-.7.2-1,.4-.5.6-.7c.3-.2.5-.2.9-.2s.5,0,.7.2c.2.1.4.3.5.5h0v-.5s0-1.5,0-1.5h.6v5h-.6v-.5h0c-.1.2-.3.3-.5.5-.2.1-.5.2-.7.2s-.6,0-.9-.2ZM490.8,439.1c.2-.1.3-.3.4-.5.1-.2.2-.4.2-.7s0-.5-.2-.7-.3-.4-.4-.5c-.2-.1-.4-.2-.6-.2s-.4,0-.6.2c-.2.1-.3.3-.4.5-.1.2-.2.4-.2.7s0,.5.2.7c.1.2.3.4.4.5.2.1.4.2.6.2s.4,0,.6-.2Z"/>
          </g>
          <g class="st7">
            <path class="st10" d="M493.5,439.6c-.3-.2-.5-.4-.6-.7s-.2-.6-.2-1,0-.7.2-1c.1-.3.3-.5.6-.7s.6-.3.9-.3.7,0,.9.2c.3.2.5.4.6.6s.2.6.2.9,0,.1,0,.2h-2.8c0,.3,0,.5.2.7.1.2.3.3.4.4.2,0,.4.1.6.1.5,0,.8-.2,1.1-.6l.5.2c-.2.3-.4.5-.6.7s-.6.3-1,.3-.6,0-.9-.2ZM495.4,437.5c0-.1,0-.3-.1-.4,0-.1-.2-.3-.4-.4s-.4-.2-.6-.2-.5,0-.7.3-.3.4-.4.7h2.2Z"/>
          </g>
          <g class="st7">
            <path class="st10" d="M499.4,439.8c-.1,0-.2-.1-.3-.2,0,0-.2-.2-.2-.3,0-.1,0-.3,0-.4v-2.1h-.6v-.5h.6v-1h.6v1h.9v.5h-.9v2c0,.2,0,.3.1.4,0,.1.2.2.4.2s.3,0,.4-.1v.6c0,0-.1,0-.2,0,0,0-.2,0-.3,0s-.3,0-.4,0Z"/>
          </g>
          <g class="st7">
            <path class="st10" d="M501,434.7h.6v2s0,0,0,0c0-.2.3-.3.5-.5.2-.1.4-.2.7-.2.4,0,.8.1,1,.4.2.3.3.6.3,1v2.3h-.6v-2.2c0-.3,0-.6-.2-.7-.2-.2-.4-.2-.6-.2s-.4,0-.5.2c-.2.1-.3.3-.4.4,0,.2-.1.4-.1.6v2h-.6v-5Z"/>
          </g>
          <g class="st7">
            <path class="st10" d="M505.3,439.7c-.2-.1-.4-.2-.5-.4-.1-.2-.2-.4-.2-.6,0-.4.1-.7.4-.9.3-.2.6-.3,1.1-.3s.4,0,.6,0c.2,0,.3.1.4.2v-.2c0-.3,0-.5-.3-.6s-.4-.2-.7-.2-.4,0-.6.1-.3.2-.4.4l-.4-.3c.1-.2.3-.4.6-.5s.5-.2.8-.2c.5,0,.9.1,1.1.4.3.3.4.6.4,1v2.3h-.6v-.5h0c-.1.2-.3.3-.5.4-.2.1-.4.2-.7.2s-.5,0-.7-.2ZM506.6,439.1c.2-.1.3-.2.4-.4.1-.2.2-.4.2-.6-.1,0-.2-.1-.4-.2-.2,0-.3,0-.5,0-.3,0-.6,0-.7.2-.2.1-.2.3-.2.5s0,.4.2.5.3.2.6.2.4,0,.6-.2Z"/>
          </g>
          <g class="st7">
            <path class="st10" d="M509.5,439.8c-.1,0-.2-.1-.3-.2,0,0-.2-.2-.2-.3,0-.1,0-.3,0-.4v-2.1h-.6v-.5h.6v-1h.6v1h.9v.5h-.9v2c0,.2,0,.3.1.4,0,.1.2.2.4.2s.3,0,.4-.1v.6c0,0-.1,0-.2,0,0,0-.2,0-.3,0s-.3,0-.4,0Z"/>
          </g>
          <g class="st7">
            <path class="st10" d="M512.7,436.1h.6v.5h0c.1-.2.3-.3.5-.5.2-.1.4-.2.7-.2s.5,0,.7.2.3.3.4.5c.1-.2.3-.4.5-.5.2-.1.4-.2.7-.2.4,0,.7.1.9.4.2.2.3.6.3,1v2.3h-.6v-2.2c0-.3,0-.6-.2-.7-.1-.1-.3-.2-.6-.2s-.3,0-.5.2-.3.2-.3.4c0,.2-.1.4-.1.6v2h-.6v-2.2c0-.3,0-.6-.2-.7-.1-.1-.3-.2-.6-.2s-.3,0-.5.2c-.1.1-.3.2-.3.4s-.1.4-.1.6v2h-.6v-3.6Z"/>
          </g>
          <g class="st7">
            <path class="st10" d="M519.3,439.7c-.2-.1-.4-.2-.5-.4-.1-.2-.2-.4-.2-.6,0-.4.1-.7.4-.9.3-.2.6-.3,1.1-.3s.4,0,.6,0c.2,0,.3.1.4.2v-.2c0-.3,0-.5-.3-.6s-.4-.2-.7-.2-.4,0-.6.1-.3.2-.4.4l-.4-.3c.1-.2.3-.4.6-.5s.5-.2.8-.2c.5,0,.9.1,1.1.4.3.3.4.6.4,1v2.3h-.6v-.5h0c-.1.2-.3.3-.5.4-.2.1-.4.2-.7.2s-.5,0-.7-.2ZM520.6,439.1c.2-.1.3-.2.4-.4.1-.2.2-.4.2-.6-.1,0-.2-.1-.4-.2-.2,0-.3,0-.5,0-.3,0-.6,0-.7.2-.2.1-.2.3-.2.5s0,.4.2.5.3.2.6.2.4,0,.6-.2Z"/>
          </g>
          <g class="st7">
            <path class="st10" d="M523.4,439.8c-.1,0-.2-.1-.3-.2,0,0-.2-.2-.2-.3,0-.1,0-.3,0-.4v-2.1h-.6v-.5h.6v-1h.6v1h.9v.5h-.9v2c0,.2,0,.3.1.4,0,.1.2.2.4.2s.3,0,.4-.1v.6c0,0-.1,0-.2,0,0,0-.2,0-.3,0s-.3,0-.4,0Z"/>
          </g>
          <g class="st7">
            <path class="st10" d="M525.6,439.6c-.3-.2-.5-.4-.6-.7s-.2-.6-.2-1,0-.7.2-1,.4-.5.6-.7c.3-.2.6-.2.9-.2s.7,0,1,.3c.3.2.5.4.6.7l-.5.2c0-.2-.2-.4-.4-.5-.2-.1-.4-.2-.6-.2s-.4,0-.6.2c-.2.1-.3.3-.4.5-.1.2-.2.4-.2.7s0,.5.2.7.3.4.4.5c.2.1.4.2.6.2s.5,0,.7-.2c.2-.1.3-.3.4-.5l.5.2c-.1.3-.3.5-.6.7-.3.2-.6.3-1,.3s-.7,0-.9-.2Z"/>
            <path class="st10" d="M528.7,434.7h.6v2s0,0,0,0c0-.2.3-.3.5-.5.2-.1.4-.2.7-.2.4,0,.8.1,1,.4.2.3.3.6.3,1v2.3h-.6v-2.2c0-.3,0-.6-.2-.7-.2-.2-.4-.2-.6-.2s-.4,0-.5.2c-.2.1-.3.3-.4.4,0,.2-.1.4-.1.6v2h-.6v-5Z"/>
          </g>
          <g class="st7">
            <path class="st10" d="M533.3,439.6c-.3-.2-.5-.4-.6-.7-.2-.3-.2-.6-.2-1s0-.7.2-1c.1-.3.3-.5.6-.7.3-.2.6-.3.9-.3s.7,0,.9.2.5.4.6.6.2.6.2.9,0,.1,0,.2h-2.8c0,.3,0,.5.2.7.1.2.3.3.4.4.2,0,.4.1.6.1.5,0,.8-.2,1.1-.6l.5.2c-.2.3-.4.5-.6.7s-.6.3-1,.3-.6,0-.9-.2ZM535.3,437.5c0-.1,0-.3-.1-.4,0-.1-.2-.3-.4-.4s-.4-.2-.6-.2-.5,0-.7.3c-.2.2-.3.4-.4.7h2.2Z"/>
          </g>
          <g class="st7">
            <path class="st10" d="M536.9,439.6c-.3-.2-.4-.4-.5-.7l.5-.2c0,.2.2.4.4.5.2.1.4.2.6.2s.4,0,.6-.1c.2,0,.2-.2.2-.4s0-.3-.2-.4c-.1,0-.3-.2-.6-.2h-.4c-.3-.2-.5-.3-.7-.5s-.3-.4-.3-.7,0-.4.2-.5c.1-.2.3-.3.5-.4.2,0,.4-.1.7-.1s.6,0,.8.2c.2.1.4.3.5.6l-.5.2c-.2-.3-.4-.5-.8-.5s-.4,0-.5.1c-.1,0-.2.2-.2.3s0,.2.2.3c.1,0,.3.1.5.2h.5c.4.2.6.4.8.5.2.2.3.4.3.6s0,.4-.2.6-.3.3-.5.4c-.2,0-.5.1-.7.1-.4,0-.7,0-1-.3Z"/>
          </g>
          <g class="st7">
            <path class="st10" d="M456.8,447.9l-1.5-3.3h.6l1.1,2.7h0l1.1-2.7h.6l-2.2,5.1h-.6l.8-1.7Z"/>
          </g>
          <g class="st7">
            <path class="st10" d="M459.9,448c-.3-.2-.5-.4-.7-.7-.2-.3-.2-.6-.2-1s0-.7.2-1,.4-.5.7-.7.6-.3.9-.3.7,0,.9.3c.3.2.5.4.7.7s.2.6.2,1,0,.7-.2,1c-.2.3-.4.5-.7.7-.3.2-.6.3-.9.3s-.7,0-.9-.3ZM461.5,447.5c.2-.1.3-.3.5-.5.1-.2.2-.4.2-.7s0-.5-.2-.7-.3-.4-.5-.5-.4-.2-.6-.2-.4,0-.6.2-.3.3-.5.5c-.1.2-.2.4-.2.7s0,.5.2.7c.1.2.3.4.5.5.2.1.4.2.6.2s.4,0,.6-.2Z"/>
          </g>
          <g class="st7">
            <path class="st10" d="M463.7,447.8c-.2-.3-.3-.6-.3-1.1v-2.2h.6v2.2c0,.3,0,.6.2.7.2.2.4.2.6.2s.4,0,.5-.2.3-.2.4-.4c0-.2.1-.4.1-.5v-2h.6v3.6h-.6v-.5h0c0,.2-.3.3-.5.4-.2.1-.4.2-.7.2-.4,0-.8-.1-1-.4Z"/>
            <path class="st10" d="M467.3,444.5h.6v.6h0c0-.2.2-.4.4-.5.2-.1.4-.2.6-.2s.3,0,.4,0v.6c-.1,0-.3-.1-.5-.1s-.3,0-.5.1-.3.2-.3.4c0,.2-.1.3-.1.5v2h-.6v-3.6Z"/>
          </g>
          <g class="st7">
            <path class="st10" d="M472.2,448c-.3-.2-.5-.4-.6-.7s-.2-.6-.2-1,0-.7.2-1,.4-.5.6-.7c.3-.2.6-.2.9-.2s.7,0,1,.3c.3.2.5.4.6.7l-.5.2c0-.2-.2-.4-.4-.5-.2-.1-.4-.2-.6-.2s-.4,0-.6.2c-.2.1-.3.3-.4.5-.1.2-.2.4-.2.7s0,.5.2.7.3.4.4.5c.2.1.4.2.6.2s.5,0,.7-.2c.2-.1.3-.3.4-.5l.5.2c-.1.3-.3.5-.6.7-.3.2-.6.3-1,.3s-.7,0-.9-.2Z"/>
          </g>
          <g class="st7">
            <path class="st10" d="M476,448c-.3-.2-.5-.4-.7-.7-.2-.3-.2-.6-.2-1s0-.7.2-1,.4-.5.7-.7c.3-.2.6-.3.9-.3s.7,0,.9.3.5.4.7.7.2.6.2,1,0,.7-.2,1c-.2.3-.4.5-.7.7s-.6.3-.9.3-.7,0-.9-.3ZM477.6,447.5c.2-.1.3-.3.5-.5.1-.2.2-.4.2-.7s0-.5-.2-.7-.3-.4-.5-.5c-.2-.1-.4-.2-.6-.2s-.4,0-.6.2c-.2.1-.3.3-.5.5s-.2.4-.2.7,0,.5.2.7c.1.2.3.4.5.5.2.1.4.2.6.2s.4,0,.6-.2Z"/>
          </g>
          <g class="st7">
            <path class="st10" d="M479.4,444.5h.6v.5h0c.1-.2.3-.3.5-.5.2-.1.4-.2.7-.2s.5,0,.7.2c.2.1.3.3.4.5.1-.2.3-.4.5-.5s.4-.2.7-.2c.4,0,.7.1.9.4.2.2.3.6.3,1v2.3h-.6v-2.2c0-.3,0-.6-.2-.7-.1-.1-.3-.2-.6-.2s-.3,0-.5.2-.3.2-.3.4-.1.4-.1.6v2h-.6v-2.2c0-.3,0-.6-.2-.7-.1-.1-.3-.2-.6-.2s-.3,0-.5.2c-.1.1-.3.2-.3.4s-.1.4-.1.6v2h-.6v-3.6Z"/>
            <path class="st10" d="M485.5,444.5h.6v.5h0c.1-.2.3-.3.5-.5.2-.1.5-.2.7-.2s.6,0,.9.2c.3.2.5.4.6.7.2.3.2.6.2,1s0,.7-.2,1c-.1.3-.4.5-.6.7s-.6.2-.9.2-.5,0-.7-.2c-.2-.1-.4-.3-.5-.5h0v.5s0,1.5,0,1.5h-.6v-5.1ZM487.8,447.5c.2-.1.3-.3.4-.5.1-.2.2-.4.2-.7s0-.5-.2-.7c-.1-.2-.3-.4-.4-.5-.2-.1-.4-.2-.6-.2s-.4,0-.6.2c-.2.1-.3.3-.4.5s-.2.4-.2.7,0,.5.2.7c.1.2.3.4.4.5.2.1.4.2.6.2s.4,0,.6-.2Z"/>
            <path class="st10" d="M490.2,448.1c-.2-.1-.4-.2-.5-.4-.1-.2-.2-.4-.2-.6,0-.4.1-.7.4-.9.3-.2.6-.3,1.1-.3s.4,0,.6,0c.2,0,.3.1.4.2v-.2c0-.3,0-.5-.3-.6-.2-.2-.4-.2-.7-.2s-.4,0-.6.1-.3.2-.4.4l-.4-.3c.1-.2.3-.4.6-.5.2-.1.5-.2.8-.2.5,0,.9.1,1.1.4.3.3.4.6.4,1v2.3h-.6v-.5h0c-.1.2-.3.3-.5.4-.2.1-.4.2-.7.2s-.5,0-.7-.2ZM491.5,447.5c.2-.1.3-.2.4-.4.1-.2.2-.4.2-.6-.1,0-.2-.1-.4-.2-.2,0-.3,0-.5,0-.3,0-.6,0-.7.2-.2.1-.2.3-.2.5s0,.4.2.5c.2.1.3.2.6.2s.4,0,.6-.2Z"/>
          </g>
          <g class="st7">
            <path class="st10" d="M493.5,444.5h.6v.5h0c0-.2.3-.3.5-.5.2-.1.4-.2.7-.2.4,0,.8.1,1,.4.2.2.3.6.3,1v2.3h-.6v-2.2c0-.3,0-.6-.2-.7-.2-.1-.4-.2-.7-.2s-.4,0-.5.2c-.2.1-.3.2-.4.4s-.1.4-.1.5v2h-.6v-3.6Z"/>
          </g>
          <g class="st7">
            <path class="st10" d="M498.4,447.9l-1.5-3.3h.6l1.1,2.7h0l1.1-2.7h.6l-2.2,5.1h-.6l.8-1.7Z"/>
          </g>
          <g class="st7">
            <path class="st10" d="M500.8,444.4l.3-.5c0,0-.2,0-.2-.1s0-.2,0-.3,0-.2.1-.3c0,0,.2-.1.3-.1s.2,0,.3.1c0,0,.1.2.1.3s0,.1,0,.2,0,.2-.1.3l-.4.6-.3-.2Z"/>
          </g>
          <g class="st7">
            <path class="st10" d="M502.4,448c-.3-.2-.4-.4-.5-.7l.5-.2c0,.2.2.4.4.5.2.1.4.2.6.2s.4,0,.6-.1.2-.2.2-.4,0-.3-.2-.4c-.1,0-.3-.2-.6-.2h-.4c-.3-.2-.5-.3-.7-.5-.2-.2-.3-.4-.3-.7s0-.4.2-.5c.1-.2.3-.3.5-.4.2,0,.4-.1.7-.1s.6,0,.8.2c.2.1.4.3.5.6l-.5.2c-.2-.3-.4-.5-.8-.5s-.4,0-.5.1-.2.2-.2.3,0,.2.2.3c.1,0,.3.1.5.2h.5c.3.2.6.4.8.5.2.2.3.4.3.6s0,.4-.2.6c-.1.2-.3.3-.5.4-.2,0-.5.1-.7.1-.4,0-.7,0-1-.3Z"/>
          </g>
          <g class="st7">
            <path class="st10" d="M507.4,448c-.3-.2-.4-.4-.5-.7l.5-.2c0,.2.2.4.4.5.2.1.4.2.6.2s.4,0,.6-.1c.2,0,.2-.2.2-.4s0-.3-.2-.4c-.1,0-.3-.2-.6-.2h-.4c-.3-.2-.5-.3-.7-.5-.2-.2-.3-.4-.3-.7s0-.4.2-.5c.1-.2.3-.3.5-.4s.4-.1.7-.1.6,0,.8.2c.2.1.4.3.5.6l-.5.2c-.2-.3-.4-.5-.8-.5s-.4,0-.5.1c-.1,0-.2.2-.2.3s0,.2.2.3c.1,0,.3.1.5.2h.5c.4.2.6.4.8.5.2.2.3.4.3.6s0,.4-.2.6-.3.3-.5.4c-.2,0-.5.1-.7.1-.4,0-.7,0-1-.3Z"/>
          </g>
          <g class="st7">
            <path class="st10" d="M511.3,448.2c-.1,0-.2-.1-.3-.2,0,0-.2-.2-.2-.3,0-.1,0-.3,0-.4v-2.1h-.6v-.5h.6v-1h.6v1h.9v.5h-.9v2c0,.2,0,.3.1.4,0,.1.2.2.4.2s.3,0,.4-.1v.6c0,0-.1,0-.2,0,0,0-.2,0-.3,0s-.3,0-.4,0Z"/>
          </g>
          <g class="st7">
            <path class="st10" d="M514,447.9l-1.5-3.3h.6l1.1,2.7h0l1.1-2.7h.6l-2.2,5.1h-.6l.8-1.7Z"/>
          </g>
          <g class="st7">
            <path class="st10" d="M516.5,443.1h.6v5h-.6v-5Z"/>
          </g>
          <g class="st7">
            <path class="st10" d="M518.6,448c-.3-.2-.5-.4-.6-.7-.2-.3-.2-.6-.2-1s0-.7.2-1c.1-.3.3-.5.6-.7s.6-.3.9-.3.7,0,.9.2c.3.2.5.4.6.6.1.3.2.6.2.9s0,.1,0,.2h-2.8c0,.3,0,.5.2.7.1.2.3.3.4.4.2,0,.4.1.6.1.5,0,.8-.2,1.1-.6l.5.2c-.2.3-.4.5-.6.7s-.6.3-1,.3-.6,0-.9-.2ZM520.5,445.9c0-.1,0-.3-.1-.4s-.2-.3-.4-.4-.4-.2-.6-.2-.5,0-.7.3c-.2.2-.3.4-.4.7h2.2Z"/>
          </g>
          <g class="st7">
            <path class="st10" d="M524,449.4c-.3-.2-.5-.4-.5-.7l.5-.2c0,.2.2.4.4.5.2.1.4.2.7.2.4,0,.7-.1.9-.3.2-.2.3-.5.3-.9v-.4h0c-.1.2-.3.3-.5.4-.2.1-.5.2-.7.2s-.6,0-.8-.2c-.3-.2-.5-.4-.6-.7-.1-.3-.2-.6-.2-1s0-.7.2-1c.1-.3.4-.5.6-.7.3-.2.5-.2.8-.2s.5,0,.7.2c.2.1.4.3.5.5h0v-.5h.6v3.4c0,.6-.2,1-.5,1.3-.3.3-.7.5-1.3.5s-.8,0-1-.3ZM525.6,447.5c.2-.1.3-.3.4-.5.1-.2.2-.4.2-.7s0-.5-.2-.7c-.1-.2-.2-.4-.4-.5-.2-.1-.4-.2-.6-.2s-.4,0-.6.2c-.2.1-.3.3-.4.5-.1.2-.2.4-.2.7s0,.5.2.7c.1.2.2.4.4.5.2.1.4.2.6.2s.4,0,.6-.2Z"/>
          </g>
          <g class="st7">
            <path class="st10" d="M527.9,447.8c-.2-.3-.3-.6-.3-1.1v-2.2h.6v2.2c0,.3,0,.6.2.7.2.2.4.2.6.2s.4,0,.5-.2.3-.2.4-.4.1-.4.1-.5v-2h.6v3.6h-.6v-.5h0c0,.2-.3.3-.5.4-.2.1-.4.2-.7.2-.4,0-.8-.1-1-.4Z"/>
          </g>
          <g class="st7">
            <path class="st10" d="M531.6,443.8c0,0-.1-.2-.1-.3s0-.2.1-.3c0,0,.2-.1.3-.1s.2,0,.3.1c0,0,.1.2.1.3s0,.2-.1.3c0,0-.2.1-.3.1s-.2,0-.3-.1ZM531.6,444.5h.6v3.6h-.6v-3.6Z"/>
            <path class="st10" d="M533.8,448c-.3-.2-.5-.4-.6-.7s-.2-.6-.2-1,0-.7.2-1,.4-.5.6-.7c.3-.2.5-.2.9-.2s.5,0,.7.2c.2.1.4.3.5.5h0v-.5s0-1.5,0-1.5h.6v5h-.6v-.5h0c-.1.2-.3.3-.5.5-.2.1-.5.2-.7.2s-.6,0-.9-.2ZM535.3,447.5c.2-.1.3-.3.4-.5.1-.2.2-.4.2-.7s0-.5-.2-.7-.3-.4-.4-.5c-.2-.1-.4-.2-.6-.2s-.4,0-.6.2c-.2.1-.3.3-.4.5-.1.2-.2.4-.2.7s0,.5.2.7c.1.2.3.4.4.5.2.1.4.2.6.2s.4,0,.6-.2Z"/>
          </g>
          <g class="st7">
            <path class="st10" d="M538,448c-.3-.2-.5-.4-.6-.7s-.2-.6-.2-1,0-.7.2-1c.1-.3.3-.5.6-.7s.6-.3.9-.3.7,0,.9.2c.3.2.5.4.6.6s.2.6.2.9,0,.1,0,.2h-2.8c0,.3,0,.5.2.7.1.2.3.3.4.4.2,0,.4.1.6.1.5,0,.8-.2,1.1-.6l.5.2c-.2.3-.4.5-.6.7s-.6.3-1,.3-.6,0-.9-.2ZM539.9,445.9c0-.1,0-.3-.1-.4,0-.1-.2-.3-.4-.4s-.4-.2-.6-.2-.5,0-.7.3-.3.4-.4.7h2.2Z"/>
          </g>
        </g>
      </g>
    </g>
  </g>
  <rect class="st0" x="353.9" y="409.7" width="71" height="52.2" rx="3" ry="3"/>
  <g class="st7">
    <g class="st7">
      <g class="st7">
        <g class="st7">
          <g class="st7">
            <path class="st10" d="M372.8,431.9h1.4l2.4,6.4h-1.3l-.5-1.5h-2.5l-.5,1.5h-1.3l2.4-6.4ZM374.3,435.7l-.6-1.6-.2-.8h0l-.2.8-.6,1.6h1.7Z"/>
            <path class="st10" d="M377.5,431.9h1.2v6.4h-1.2v-6.4Z"/>
            <path class="st10" d="M382.1,433.7h1.1v.6h0c.1-.2.3-.4.6-.5.2-.1.5-.2.8-.2s.6,0,.8.2c.2.2.4.3.5.6.1-.2.4-.4.6-.6.3-.2.6-.2.9-.2.5,0,.9.2,1.2.5.3.3.4.8.4,1.3v3h-1.2v-2.7c0-.3,0-.5-.2-.7-.1-.2-.3-.2-.6-.2s-.6.1-.7.4-.3.6-.3,1v2.3h-1.2v-2.7c0-.3,0-.5-.2-.7-.1-.2-.3-.2-.6-.2s-.5.1-.7.4-.3.6-.3,1v2.3h-1.2v-4.6Z"/>
            <path class="st10" d="M391.2,438.1c-.4-.2-.7-.5-.9-.9s-.3-.8-.3-1.2.1-.9.3-1.2.5-.7.9-.9.8-.3,1.3-.3.9.1,1.3.3.7.5.9.9.3.8.3,1.2-.1.9-.3,1.2-.5.7-.9.9-.8.3-1.3.3-.9-.1-1.3-.3ZM393.1,437.2c.2-.1.3-.3.5-.5.1-.2.2-.4.2-.7s0-.5-.2-.7c-.1-.2-.3-.4-.5-.5-.2-.1-.4-.2-.6-.2s-.4,0-.6.2c-.2.1-.3.3-.5.5-.1.2-.2.4-.2.7s0,.5.2.7c.1.2.3.4.5.5.2.1.4.2.6.2s.4,0,.6-.2Z"/>
          </g>
          <g class="st7">
            <path class="st10" d="M396.7,438.2c-.3-.2-.6-.5-.8-.9-.2-.4-.3-.8-.3-1.3s0-.9.3-1.3c.2-.4.5-.7.8-.9.3-.2.7-.3,1.1-.3s.6,0,.8.2.4.3.5.5h0v-.6c0,0,0-1.8,0-1.8h1.2v6.4h-1.1v-.5h0c-.1.2-.3.4-.5.5-.2.1-.5.2-.8.2s-.8-.1-1.1-.3ZM398.6,437.2c.2-.1.3-.3.5-.5s.2-.4.2-.7,0-.5-.2-.7-.3-.4-.5-.5c-.2-.1-.4-.2-.6-.2s-.4,0-.6.2c-.2.1-.3.3-.5.5-.1.2-.2.4-.2.7s0,.5.2.7c.1.2.3.4.5.5.2.1.4.2.6.2s.4,0,.6-.2Z"/>
          </g>
          <g class="st7">
            <path class="st10" d="M402.4,438.1c-.4-.2-.7-.5-.9-.9-.2-.4-.3-.8-.3-1.2s.1-.8.3-1.2.5-.7.8-.9c.4-.2.8-.3,1.2-.3s.9.1,1.2.3.6.5.8.8c.2.4.3.7.3,1.2s0,.3,0,.4h-3.4c0,.4.2.6.4.8.2.2.5.3.8.3s.5,0,.7-.2c.2-.1.3-.3.5-.5l1,.5c-.5.8-1.2,1.2-2.1,1.2s-.9-.1-1.2-.3ZM404.7,435.5c0-.1,0-.3-.2-.4,0-.1-.2-.3-.4-.4-.2,0-.4-.1-.6-.1s-.5,0-.7.2-.3.4-.4.7h2.3Z"/>
            <path class="st10" d="M406.7,431.9h1.2v6.4h-1.2v-6.4Z"/>
          </g>
        </g>
      </g>
    </g>
  </g>
  <g class="st7">
    <g class="st7">
      <g class="st7">
        <g class="st7">
          <g class="st7">
            <path class="st8" d="M162.6,136.3h2.2c.4,0,.7,0,1,.2.3.2.6.4.7.7s.3.6.3,1,0,.7-.3,1-.4.5-.7.7c-.3.2-.6.2-1,.2h-1.4v2.6h-.8v-6.4ZM164.7,139.4c.2,0,.5,0,.6-.2.2-.1.3-.3.4-.4.1-.2.2-.4.2-.6s0-.4-.2-.6c-.1-.2-.2-.3-.4-.4s-.4-.2-.6-.2h-1.4v2.4h1.4Z"/>
          </g>
          <g class="st7">
            <path class="st8" d="M167.6,138.2h.7v.7h0c0-.3.3-.5.5-.6.3-.2.5-.3.8-.3s.4,0,.5,0v.8c-.2,0-.4-.1-.6-.1s-.4,0-.6.2-.3.3-.4.5c-.1.2-.2.4-.2.7v2.6h-.8v-4.6Z"/>
          </g>
          <g class="st7">
            <path class="st8" d="M171.6,142.6c-.4-.2-.6-.5-.8-.9s-.3-.8-.3-1.2.1-.9.3-1.2.5-.7.8-.9c.4-.2.8-.3,1.2-.3s.9.1,1.2.3.6.5.8.9c.2.4.3.8.3,1.2s-.1.9-.3,1.2c-.2.4-.5.7-.8.9-.4.2-.8.3-1.2.3s-.9-.1-1.2-.3ZM173.6,142c.2-.1.4-.3.6-.6.1-.3.2-.6.2-.9s0-.7-.2-.9c-.1-.3-.3-.5-.6-.6-.2-.1-.5-.2-.8-.2s-.5,0-.8.2c-.2.1-.4.3-.6.6-.1.3-.2.6-.2.9s0,.7.2.9c.1.3.3.5.6.6.2.1.5.2.8.2s.5,0,.8-.2Z"/>
          </g>
          <g class="st7">
            <path class="st8" d="M176,138.2h.7v.7h0c.1-.2.3-.4.6-.6.3-.2.5-.2.8-.2s.6,0,.9.2.4.4.5.6c.2-.3.4-.5.6-.6s.6-.2.9-.2c.5,0,.9.2,1.2.5.3.3.4.8.4,1.3v2.9h-.8v-2.8c0-.4,0-.7-.3-.9-.2-.2-.4-.3-.8-.3s-.4,0-.6.2c-.2.1-.3.3-.4.5-.1.2-.2.5-.2.7v2.6h-.8v-2.8c0-.4,0-.7-.3-.9-.2-.2-.4-.3-.8-.3s-.4,0-.6.2c-.2.1-.3.3-.4.5-.1.2-.2.5-.2.7v2.6h-.8v-4.6Z"/>
          </g>
          <g class="st7">
            <path class="st8" d="M183.8,138.2h.7v.7h0c.1-.2.3-.4.6-.6.3-.2.6-.2.9-.2s.8.1,1.1.3.6.5.8.9c.2.4.3.8.3,1.3s0,.9-.3,1.3c-.2.4-.5.7-.8.9s-.7.3-1.1.3-.7,0-.9-.2c-.3-.2-.5-.4-.6-.6h0v.6s0,2,0,2h-.8v-6.5ZM186.8,142c.2-.1.4-.3.6-.6.1-.3.2-.6.2-.9s0-.6-.2-.9c-.1-.3-.3-.5-.6-.6-.2-.1-.5-.2-.7-.2s-.5,0-.7.2c-.2.1-.4.3-.6.6s-.2.6-.2.9,0,.7.2.9.3.5.6.6c.2.1.5.2.7.2s.5,0,.7-.2Z"/>
          </g>
          <g class="st7">
            <path class="st8" d="M190.3,142.8c-.2,0-.3-.1-.4-.2-.1-.1-.2-.2-.3-.4,0-.2,0-.3,0-.6v-2.7h-.8v-.7h.8v-1.3h.8v1.3h1.1v.7h-1.1v2.6c0,.3,0,.4.1.6.1.1.3.2.5.2s.3,0,.5-.2v.7c0,0-.2,0-.3,0,0,0-.2,0-.4,0s-.4,0-.5,0Z"/>
          </g>
        </g>
      </g>
    </g>
  </g>
  <g class="st7">
    <g class="st7">
      <g class="st7">
        <g class="st7">
          <g class="st7">
            <path class="st8" d="M239.1,398.5h2.2c.4,0,.7,0,1,.2.3.2.6.4.7.7s.3.6.3,1,0,.7-.3,1-.4.5-.7.7c-.3.2-.6.2-1,.2h-1.4v2.6h-.8v-6.4ZM241.3,401.6c.2,0,.5,0,.6-.2.2-.1.3-.3.4-.4.1-.2.2-.4.2-.6s0-.4-.2-.6c-.1-.2-.2-.3-.4-.4s-.4-.2-.6-.2h-1.4v2.4h1.4Z"/>
          </g>
          <g class="st7">
            <path class="st8" d="M244.1,400.4h.7v.7h0c0-.3.3-.5.5-.6.3-.2.5-.3.8-.3s.4,0,.5,0v.8c-.2,0-.4-.1-.6-.1s-.4,0-.6.2c-.2.1-.3.3-.4.5-.1.2-.2.4-.2.7v2.6h-.8v-4.6Z"/>
          </g>
          <g class="st7">
            <path class="st8" d="M248.1,404.8c-.4-.2-.6-.5-.8-.9s-.3-.8-.3-1.2.1-.9.3-1.2.5-.7.8-.9c.4-.2.8-.3,1.2-.3s.9.1,1.2.3.6.5.8.9c.2.4.3.8.3,1.2s-.1.9-.3,1.2c-.2.4-.5.7-.8.9-.4.2-.8.3-1.2.3s-.9-.1-1.2-.3ZM250.1,404.2c.2-.1.4-.3.6-.6.1-.3.2-.6.2-.9s0-.7-.2-.9c-.1-.3-.3-.5-.6-.6-.2-.1-.5-.2-.8-.2s-.5,0-.8.2c-.2.1-.4.3-.6.6-.1.3-.2.6-.2.9s0,.7.2.9c.1.3.3.5.6.6.2.1.5.2.8.2s.5,0,.8-.2Z"/>
          </g>
          <g class="st7">
            <path class="st8" d="M252.5,400.4h.7v.7h0c.1-.2.3-.4.6-.6.3-.2.5-.2.8-.2s.6,0,.9.2.4.4.5.6c.2-.3.4-.5.6-.6s.6-.2.9-.2c.5,0,.9.2,1.2.5.3.3.4.8.4,1.3v2.9h-.8v-2.8c0-.4,0-.7-.3-.9-.2-.2-.4-.3-.8-.3s-.4,0-.6.2c-.2.1-.3.3-.4.5-.1.2-.2.5-.2.7v2.6h-.8v-2.8c0-.4,0-.7-.3-.9-.2-.2-.4-.3-.8-.3s-.4,0-.6.2c-.2.1-.3.3-.4.5-.1.2-.2.5-.2.7v2.6h-.8v-4.6Z"/>
          </g>
          <g class="st7">
            <path class="st8" d="M260.3,400.4h.7v.7h0c.1-.2.3-.4.6-.6.3-.2.6-.2.9-.2s.8.1,1.1.3.6.5.8.9.3.8.3,1.3,0,.9-.3,1.3c-.2.4-.5.7-.8.9s-.7.3-1.1.3-.7,0-.9-.2c-.3-.2-.5-.4-.6-.6h0v.6s0,2,0,2h-.8v-6.5ZM263.3,404.2c.2-.1.4-.3.6-.6.1-.3.2-.6.2-.9s0-.6-.2-.9c-.1-.3-.3-.5-.6-.6-.2-.1-.5-.2-.7-.2s-.5,0-.7.2c-.2.1-.4.3-.6.6-.1.3-.2.6-.2.9s0,.7.2.9c.1.3.3.5.6.6.2.1.5.2.7.2s.5,0,.7-.2Z"/>
          </g>
          <g class="st7">
            <path class="st8" d="M266.8,405c-.2,0-.3-.1-.4-.2-.1-.1-.2-.2-.3-.4,0-.2,0-.3,0-.6v-2.7h-.8v-.7h.8v-1.3h.8v1.3h1.1v.7h-1.1v2.6c0,.3,0,.4.1.6.1.1.3.2.5.2s.3,0,.5-.2v.7c0,0-.2,0-.3,0,0,0-.2,0-.4,0s-.4,0-.5,0Z"/>
          </g>
        </g>
      </g>
    </g>
  </g>
  <g class="st7">
    <g class="st7">
      <g class="st7">
        <g class="st7">
          <g class="st7">
            <path class="st10" d="M19.1,24.9h3.5c.6,0,1.2.1,1.7.4.5.3.9.6,1.2,1.1.3.5.4,1,.4,1.6s-.1,1.2-.4,1.7c-.3.5-.7.9-1.2,1.1-.5.3-1.1.4-1.7.4h-1.6v3.7h-1.9v-10ZM22.7,29.4c.5,0,.8-.1,1.1-.4s.4-.6.4-1-.1-.7-.4-1-.6-.4-1.1-.4h-1.7v2.8h1.7Z"/>
          </g>
          <g class="st7">
            <path class="st10" d="M27.1,27.8h1.7v1h.1c.2-.3.5-.6.8-.8.4-.2.8-.3,1.2-.3s.6,0,.9.2v1.8c-.3,0-.5-.2-.6-.2s-.4,0-.6,0c-.5,0-1,.2-1.3.6-.3.4-.5.9-.5,1.5v3.6h-1.8v-7.1Z"/>
          </g>
          <g class="st7">
            <path class="st10" d="M33.8,34.6c-.6-.3-1-.8-1.4-1.4-.3-.6-.5-1.2-.5-1.9s.2-1.4.5-1.9c.3-.6.8-1,1.4-1.4.6-.3,1.2-.5,2-.5s1.4.2,2,.5c.6.3,1,.8,1.4,1.4.3.6.5,1.2.5,1.9s-.2,1.4-.5,1.9c-.3.6-.8,1-1.4,1.4-.6.3-1.2.5-2,.5s-1.4-.2-2-.5ZM36.8,33.2c.3-.2.5-.4.7-.7s.3-.7.3-1.1,0-.8-.3-1.1-.4-.6-.7-.7-.6-.3-1-.3-.7,0-1,.3c-.3.2-.5.4-.7.7-.2.3-.3.7-.3,1.1s0,.8.3,1.1c.2.3.4.6.7.7.3.2.6.3,1,.3s.7,0,1-.3Z"/>
          </g>
          <g class="st7">
            <path class="st10" d="M40.5,27.8h1.7v.9h.1c.2-.3.5-.6.9-.8.4-.2.8-.3,1.3-.3s.9.1,1.3.4c.4.2.6.5.8.9.2-.4.6-.7,1-.9.4-.2.9-.4,1.4-.4.8,0,1.4.2,1.9.7.4.5.6,1.2.6,2v4.6h-1.8v-4.3c0-.4-.1-.8-.3-1-.2-.2-.5-.4-.9-.4s-.9.2-1.1.6-.4.9-.4,1.5v3.6h-1.8v-4.3c0-.4-.1-.8-.3-1-.2-.2-.5-.4-.9-.4s-.8.2-1.1.6c-.3.4-.4.9-.4,1.5v3.6h-1.8v-7.1Z"/>
          </g>
          <g class="st7">
            <path class="st10" d="M53,27.8h1.7v.9h.1c.2-.3.5-.6.9-.8.4-.2.8-.3,1.3-.3s1.2.2,1.8.5c.5.3.9.8,1.2,1.4.3.6.4,1.2.4,2s-.1,1.4-.4,2c-.3.6-.7,1-1.2,1.3-.5.3-1.1.5-1.8.5s-.9-.1-1.3-.3-.7-.5-.8-.8h-.1v1c.1,0,.1,2.9.1,2.9h-1.8v-10.2ZM57.6,33.2c.3-.2.5-.4.7-.7s.3-.7.3-1.1,0-.8-.3-1.1-.4-.6-.7-.7c-.3-.2-.6-.3-1-.3s-.7,0-1,.3c-.3.2-.5.4-.7.7-.2.3-.3.7-.3,1.1s0,.8.3,1.1c.2.3.4.6.7.7.3.2.6.3,1,.3s.7,0,1-.3Z"/>
          </g>
          <g class="st7">
            <path class="st10" d="M63.4,35c-.3-.1-.5-.3-.7-.4-.4-.4-.7-1-.7-1.8v-3.4h-1.2v-1.6h1.2v-2h1.8v2h1.8v1.6h-1.8v3c0,.4,0,.6.2.8.1.2.4.2.7.2s.3,0,.4,0c.1,0,.3-.1.5-.2v1.8c-.4.2-.8.2-1.3.2s-.7,0-1-.2Z"/>
            <path class="st10" d="M71.2,34.7c-.6-.3-1-.8-1.3-1.4-.3-.6-.5-1.2-.5-1.9s.2-1.3.5-1.9c.3-.6.8-1,1.3-1.4.6-.3,1.2-.5,1.9-.5s1.4.2,1.9.5c.5.3.9.8,1.2,1.3.3.6.4,1.2.4,1.8s0,.4,0,.6h-5.4c0,.6.3,1,.7,1.3.4.3.8.4,1.3.4s.8,0,1.1-.3c.3-.2.5-.4.7-.7l1.5.7c-.7,1.3-1.8,1.9-3.3,1.9s-1.3-.2-1.9-.5ZM74.8,30.5c0-.2-.1-.4-.2-.7-.1-.2-.3-.4-.6-.5-.3-.1-.6-.2-.9-.2s-.8.1-1.1.4c-.3.3-.5.6-.7,1h3.6Z"/>
          </g>
          <g class="st7">
            <path class="st10" d="M77.7,27.8h1.7v.9h.1c.2-.3.5-.6.9-.8.4-.2.8-.3,1.3-.3.9,0,1.5.3,2,.8.4.5.7,1.2.7,2.1v4.4h-1.8v-4.2c0-.5-.1-.8-.4-1.1s-.6-.4-1-.4-.9.2-1.2.6-.5.9-.5,1.4v3.6h-1.8v-7.1Z"/>
          </g>
          <g class="st7">
            <path class="st10" d="M86.8,37.6c-.6-.4-1-.9-1.2-1.5l1.7-.7c.1.4.4.6.7.8.3.2.7.3,1,.3.6,0,1-.2,1.4-.5s.5-.9.5-1.5v-.6h-.1c-.2.3-.5.6-.9.7-.4.2-.8.3-1.2.3s-1.1-.2-1.6-.5c-.5-.3-.9-.7-1.2-1.3-.3-.6-.5-1.2-.5-1.9s.2-1.4.5-1.9c.3-.6.7-1,1.2-1.3.5-.3,1.1-.5,1.6-.5s.9,0,1.2.3c.4.2.7.4.9.7h.1v-.8h1.8v6.6c0,.8-.1,1.4-.4,2-.3.6-.7,1-1.3,1.3-.6.3-1.2.5-1.9.5s-1.7-.2-2.3-.6ZM90.4,32.7c.4-.4.5-.9.5-1.5s-.2-1.1-.5-1.5c-.4-.4-.8-.5-1.3-.5s-1,.2-1.3.5c-.4.4-.5.8-.5,1.5s.2,1.1.5,1.5c.4.4.8.5,1.3.5s1-.2,1.3-.5Z"/>
            <path class="st10" d="M94.4,26.6c-.2-.2-.3-.5-.3-.8s.1-.6.3-.8c.2-.2.5-.3.8-.3s.6.1.8.3c.2.2.3.5.3.8s-.1.6-.3.8c-.2.2-.5.4-.8.4s-.6-.1-.8-.4ZM94.3,27.8h1.8v7.1h-1.8v-7.1Z"/>
            <path class="st10" d="M97.8,27.8h1.7v.9h.1c.2-.3.5-.6.9-.8.4-.2.8-.3,1.3-.3.9,0,1.5.3,2,.8.4.5.7,1.2.7,2.1v4.4h-1.8v-4.2c0-.5-.1-.8-.4-1.1s-.6-.4-1-.4-.9.2-1.2.6-.5.9-.5,1.4v3.6h-1.8v-7.1Z"/>
          </g>
          <g class="st7">
            <path class="st10" d="M107.4,34.7c-.6-.3-1-.8-1.3-1.4-.3-.6-.5-1.2-.5-1.9s.2-1.3.5-1.9c.3-.6.8-1,1.3-1.4.6-.3,1.2-.5,1.9-.5s1.4.2,1.9.5c.5.3.9.8,1.2,1.3.3.6.4,1.2.4,1.8s0,.4,0,.6h-5.4c0,.6.3,1,.7,1.3s.8.4,1.3.4.8,0,1.1-.3c.3-.2.5-.4.7-.7l1.5.7c-.7,1.3-1.8,1.9-3.3,1.9s-1.3-.2-1.9-.5ZM111,30.5c0-.2-.1-.4-.2-.7-.1-.2-.3-.4-.6-.5-.3-.1-.6-.2-.9-.2s-.8.1-1.1.4c-.3.3-.5.6-.7,1h3.6Z"/>
          </g>
          <g class="st7">
            <path class="st10" d="M115.4,34.7c-.6-.3-1-.8-1.3-1.4-.3-.6-.5-1.2-.5-1.9s.2-1.3.5-1.9c.3-.6.8-1,1.3-1.4.6-.3,1.2-.5,1.9-.5s1.4.2,1.9.5c.5.3.9.8,1.2,1.3.3.6.4,1.2.4,1.8s0,.4,0,.6h-5.4c0,.6.3,1,.7,1.3.4.3.8.4,1.3.4s.8,0,1.1-.3c.3-.2.5-.4.7-.7l1.5.7c-.7,1.3-1.8,1.9-3.3,1.9s-1.3-.2-1.9-.5ZM119,30.5c0-.2-.1-.4-.2-.7-.1-.2-.3-.4-.6-.5-.3-.1-.6-.2-.9-.2s-.8.1-1.1.4c-.3.3-.5.6-.7,1h3.6Z"/>
            <path class="st10" d="M121.9,27.8h1.7v1h.1c.2-.3.5-.6.8-.8.4-.2.8-.3,1.2-.3s.6,0,.9.2v1.8c-.3,0-.5-.2-.6-.2s-.4,0-.6,0c-.5,0-1,.2-1.3.6-.3.4-.5.9-.5,1.5v3.6h-1.8v-7.1Z"/>
            <path class="st10" d="M127.8,26.6c-.2-.2-.3-.5-.3-.8s.1-.6.3-.8c.2-.2.5-.3.8-.3s.6.1.8.3c.2.2.3.5.3.8s-.1.6-.3.8c-.2.2-.5.4-.8.4s-.6-.1-.8-.4ZM127.7,27.8h1.8v7.1h-1.8v-7.1Z"/>
          </g>
          <g class="st7">
            <path class="st10" d="M131.1,27.8h1.7v.9h.1c.2-.3.5-.6.9-.8.4-.2.8-.3,1.3-.3.9,0,1.5.3,2,.8.4.5.7,1.2.7,2.1v4.4h-1.8v-4.2c0-.5-.1-.8-.4-1.1s-.6-.4-1-.4-.9.2-1.2.6-.5.9-.5,1.4v3.6h-1.8v-7.1Z"/>
          </g>
          <g class="st7">
            <path class="st10" d="M140.2,37.6c-.6-.4-1-.9-1.2-1.5l1.7-.7c.1.4.4.6.7.8.3.2.7.3,1,.3.6,0,1-.2,1.4-.5s.5-.9.5-1.5v-.6h-.1c-.2.3-.5.6-.9.7-.4.2-.8.3-1.2.3s-1.1-.2-1.6-.5c-.5-.3-.9-.7-1.2-1.3-.3-.6-.5-1.2-.5-1.9s.2-1.4.5-1.9c.3-.6.7-1,1.2-1.3.5-.3,1.1-.5,1.6-.5s.9,0,1.2.3c.4.2.7.4.9.7h.1v-.8h1.8v6.6c0,.8-.1,1.4-.4,2-.3.6-.7,1-1.3,1.3-.6.3-1.2.5-1.9.5s-1.7-.2-2.3-.6ZM143.8,32.7c.4-.4.5-.9.5-1.5s-.2-1.1-.5-1.5c-.4-.4-.8-.5-1.3-.5s-1,.2-1.3.5c-.4.4-.5.8-.5,1.5s.2,1.1.5,1.5c.4.4.8.5,1.3.5s1-.2,1.3-.5Z"/>
          </g>
        </g>
      </g>
    </g>
  </g>
  <g class="st7">
    <g class="st7">
      <g class="st7">
        <g class="st7">
          <g class="st7">
            <path class="st10" d="M21.2,309.3c-.8-.5-1.4-1.1-1.9-1.9-.5-.8-.7-1.7-.7-2.7s.2-1.9.7-2.7,1.1-1.4,1.9-1.9,1.7-.7,2.7-.7c1.5,0,2.8.5,3.8,1.6l-1.3,1.3c-.6-.8-1.4-1.1-2.4-1.1s-1.2.1-1.7.4c-.5.3-.9.7-1.2,1.2-.3.5-.4,1.1-.4,1.8s.1,1.3.4,1.8c.3.5.7.9,1.2,1.2.5.3,1.1.4,1.7.4,1.1,0,1.9-.4,2.6-1.3l1.3,1.3c-.5.6-1.1,1.1-1.8,1.4-.7.3-1.4.5-2.2.5s-1.9-.2-2.7-.7Z"/>
          </g>
          <g class="st7">
            <path class="st10" d="M30.2,309.5c-.6-.3-1-.8-1.4-1.4-.3-.6-.5-1.2-.5-1.9s.2-1.4.5-1.9c.3-.6.8-1,1.4-1.4.6-.3,1.2-.5,2-.5s1.4.2,2,.5c.6.3,1,.8,1.4,1.4.3.6.5,1.2.5,1.9s-.2,1.4-.5,1.9c-.3.6-.8,1-1.4,1.4-.6.3-1.2.5-2,.5s-1.4-.2-2-.5ZM33.2,308c.3-.2.5-.4.7-.7s.3-.7.3-1.1,0-.8-.3-1.1-.4-.6-.7-.7-.6-.3-1-.3-.7,0-1,.3c-.3.2-.5.4-.7.7-.2.3-.3.7-.3,1.1s0,.8.3,1.1c.2.3.4.6.7.7.3.2.6.3,1,.3s.7,0,1-.3Z"/>
          </g>
          <g class="st7">
            <path class="st10" d="M36.9,302.6h1.7v.9h.1c.2-.3.5-.6.9-.8.4-.2.8-.3,1.3-.3.9,0,1.5.3,2,.8.4.5.7,1.2.7,2.1v4.4h-1.8v-4.2c0-.5-.1-.8-.4-1.1s-.6-.4-1-.4-.9.2-1.2.6-.5.9-.5,1.4v3.6h-1.8v-7.1Z"/>
          </g>
          <g class="st7">
            <path class="st10" d="M46.8,309.8c-.3-.1-.5-.3-.7-.4-.4-.4-.7-1-.7-1.8v-3.4h-1.2v-1.6h1.2v-2h1.8v2h1.8v1.6h-1.8v3c0,.4,0,.6.2.8.1.2.4.2.7.2s.3,0,.4,0c.1,0,.3-.1.5-.2v1.8c-.4.2-.8.2-1.3.2s-.7,0-1-.2Z"/>
          </g>
          <g class="st7">
            <path class="st10" d="M51.5,309.5c-.6-.3-1-.8-1.3-1.4-.3-.6-.5-1.2-.5-1.9s.2-1.3.5-1.9c.3-.6.8-1,1.3-1.4.6-.3,1.2-.5,1.9-.5s1.4.2,1.9.5c.5.3.9.8,1.2,1.3.3.6.4,1.2.4,1.8s0,.4,0,.6h-5.4c0,.6.3,1,.7,1.3.4.3.8.4,1.3.4s.8,0,1.1-.3c.3-.2.5-.4.7-.7l1.5.7c-.7,1.3-1.8,1.9-3.3,1.9s-1.3-.2-1.9-.5ZM55.1,305.3c0-.2-.1-.4-.2-.7-.1-.2-.3-.4-.6-.5-.3-.1-.6-.2-.9-.2s-.8.1-1.1.4c-.3.3-.5.6-.7,1h3.6Z"/>
          </g>
          <g class="st7">
            <path class="st10" d="M59.6,306.1l-2.5-3.5h2.2l1.4,2h0l1.3-2h2.2l-2.5,3.5,2.5,3.6h-2.2l-1.4-2.1h0l-1.3,2.1h-2.2l2.5-3.6Z"/>
            <path class="st10" d="M67.2,309.8c-.3-.1-.5-.3-.7-.4-.4-.4-.7-1-.7-1.8v-3.4h-1.2v-1.6h1.2v-2h1.8v2h1.8v1.6h-1.8v3c0,.4,0,.6.2.8.1.2.4.2.7.2s.3,0,.4,0c.1,0,.3-.1.5-.2v1.8c-.4.2-.8.2-1.3.2s-.7,0-1-.2Z"/>
            <path class="st10" d="M75,309.5c-.6-.3-1-.8-1.3-1.4-.3-.6-.5-1.2-.5-1.9s.2-1.3.5-1.9c.3-.6.8-1,1.3-1.4.6-.3,1.2-.5,1.9-.5s1.4.2,1.9.5c.5.3.9.8,1.2,1.3.3.6.4,1.2.4,1.8s0,.4,0,.6h-5.4c0,.6.3,1,.7,1.3.4.3.8.4,1.3.4s.8,0,1.1-.3c.3-.2.5-.4.7-.7l1.5.7c-.7,1.3-1.8,1.9-3.3,1.9s-1.3-.2-1.9-.5ZM78.6,305.3c0-.2-.1-.4-.2-.7-.1-.2-.3-.4-.6-.5-.3-.1-.6-.2-.9-.2s-.8.1-1.1.4c-.3.3-.5.6-.7,1h3.6Z"/>
          </g>
          <g class="st7">
            <path class="st10" d="M81.5,302.6h1.7v.9h.1c.2-.3.5-.6.9-.8.4-.2.8-.3,1.3-.3.9,0,1.5.3,2,.8.4.5.7,1.2.7,2.1v4.4h-1.8v-4.2c0-.5-.1-.8-.4-1.1s-.6-.4-1-.4-.9.2-1.2.6-.5.9-.5,1.4v3.6h-1.8v-7.1Z"/>
          </g>
          <g class="st7">
            <path class="st10" d="M90.6,312.4c-.6-.4-1-.9-1.2-1.5l1.7-.7c.1.4.4.6.7.8.3.2.7.3,1,.3.6,0,1-.2,1.4-.5s.5-.9.5-1.5v-.6h-.1c-.2.3-.5.6-.9.7-.4.2-.8.3-1.2.3s-1.1-.2-1.6-.5c-.5-.3-.9-.7-1.2-1.3-.3-.6-.5-1.2-.5-1.9s.2-1.4.5-1.9c.3-.6.7-1,1.2-1.3.5-.3,1.1-.5,1.6-.5s.9,0,1.2.3c.4.2.7.4.9.7h.1v-.8h1.8v6.6c0,.8-.1,1.4-.4,2-.3.6-.7,1-1.3,1.3-.6.3-1.2.5-1.9.5s-1.7-.2-2.3-.6ZM94.2,307.6c.4-.4.5-.9.5-1.5s-.2-1.1-.5-1.5c-.4-.4-.8-.5-1.3-.5s-1,.2-1.3.5c-.4.4-.5.8-.5,1.5s.2,1.1.5,1.5c.4.4.8.5,1.3.5s1-.2,1.3-.5Z"/>
            <path class="st10" d="M98.2,301.5c-.2-.2-.3-.5-.3-.8s.1-.6.3-.8c.2-.2.5-.3.8-.3s.6.1.8.3c.2.2.3.5.3.8s-.1.6-.3.8c-.2.2-.5.4-.8.4s-.6-.1-.8-.4ZM98.2,302.6h1.8v7.1h-1.8v-7.1Z"/>
            <path class="st10" d="M101.6,302.6h1.7v.9h.1c.2-.3.5-.6.9-.8.4-.2.8-.3,1.3-.3.9,0,1.5.3,2,.8.4.5.7,1.2.7,2.1v4.4h-1.8v-4.2c0-.5-.1-.8-.4-1.1s-.6-.4-1-.4-.9.2-1.2.6-.5.9-.5,1.4v3.6h-1.8v-7.1Z"/>
          </g>
          <g class="st7">
            <path class="st10" d="M111.2,309.5c-.6-.3-1-.8-1.3-1.4-.3-.6-.5-1.2-.5-1.9s.2-1.3.5-1.9c.3-.6.8-1,1.3-1.4.6-.3,1.2-.5,1.9-.5s1.4.2,1.9.5c.5.3.9.8,1.2,1.3.3.6.4,1.2.4,1.8s0,.4,0,.6h-5.4c0,.6.3,1,.7,1.3.4.3.8.4,1.3.4s.8,0,1.1-.3c.3-.2.5-.4.7-.7l1.5.7c-.7,1.3-1.8,1.9-3.3,1.9s-1.3-.2-1.9-.5ZM114.8,305.3c0-.2-.1-.4-.2-.7-.1-.2-.3-.4-.6-.5-.3-.1-.6-.2-.9-.2s-.8.1-1.1.4c-.3.3-.5.6-.7,1h3.6Z"/>
          </g>
          <g class="st7">
            <path class="st10" d="M119.2,309.5c-.6-.3-1-.8-1.3-1.4-.3-.6-.5-1.2-.5-1.9s.2-1.3.5-1.9c.3-.6.8-1,1.3-1.4.6-.3,1.2-.5,1.9-.5s1.4.2,1.9.5c.5.3.9.8,1.2,1.3.3.6.4,1.2.4,1.8s0,.4,0,.6h-5.4c0,.6.3,1,.7,1.3.4.3.8.4,1.3.4s.8,0,1.1-.3c.3-.2.5-.4.7-.7l1.5.7c-.7,1.3-1.8,1.9-3.3,1.9s-1.3-.2-1.9-.5ZM122.8,305.3c0-.2-.1-.4-.2-.7-.1-.2-.3-.4-.6-.5-.3-.1-.6-.2-.9-.2s-.8.1-1.1.4c-.3.3-.5.6-.7,1h3.6Z"/>
            <path class="st10" d="M125.7,302.6h1.7v1h.1c.2-.3.5-.6.8-.8.4-.2.8-.3,1.2-.3s.6,0,.9.2v1.8c-.3,0-.5-.2-.6-.2s-.4,0-.6,0c-.5,0-1,.2-1.3.6-.3.4-.5.9-.5,1.5v3.6h-1.8v-7.1Z"/>
            <path class="st10" d="M131.6,301.5c-.2-.2-.3-.5-.3-.8s.1-.6.3-.8c.2-.2.5-.3.8-.3s.6.1.8.3c.2.2.3.5.3.8s-.1.6-.3.8c-.2.2-.5.4-.8.4s-.6-.1-.8-.4ZM131.5,302.6h1.8v7.1h-1.8v-7.1Z"/>
          </g>
          <g class="st7">
            <path class="st10" d="M135,302.6h1.7v.9h.1c.2-.3.5-.6.9-.8.4-.2.8-.3,1.3-.3.9,0,1.5.3,2,.8.4.5.7,1.2.7,2.1v4.4h-1.8v-4.2c0-.5-.1-.8-.4-1.1s-.6-.4-1-.4-.9.2-1.2.6-.5.9-.5,1.4v3.6h-1.8v-7.1Z"/>
          </g>
          <g class="st7">
            <path class="st10" d="M144,312.4c-.6-.4-1-.9-1.2-1.5l1.7-.7c.1.4.4.6.7.8.3.2.7.3,1,.3.6,0,1-.2,1.4-.5s.5-.9.5-1.5v-.6h-.1c-.2.3-.5.6-.9.7-.4.2-.8.3-1.2.3s-1.1-.2-1.6-.5c-.5-.3-.9-.7-1.2-1.3-.3-.6-.5-1.2-.5-1.9s.2-1.4.5-1.9c.3-.6.7-1,1.2-1.3.5-.3,1.1-.5,1.6-.5s.9,0,1.2.3c.4.2.7.4.9.7h.1v-.8h1.8v6.6c0,.8-.1,1.4-.4,2-.3.6-.7,1-1.3,1.3-.6.3-1.2.5-1.9.5s-1.7-.2-2.3-.6ZM147.6,307.6c.4-.4.5-.9.5-1.5s-.2-1.1-.5-1.5c-.4-.4-.8-.5-1.3-.5s-1,.2-1.3.5c-.4.4-.5.8-.5,1.5s.2,1.1.5,1.5c.4.4.8.5,1.3.5s1-.2,1.3-.5Z"/>
          </g>
        </g>
      </g>
    </g>
  </g>
  <line class="st1" x1="118.8" y1="435.8" x2="158.6" y2="435.8"/>
  <path class="st3" d="M350,435.7l-8.7-8.7v2.7h-67.4v-16.7c0-1.8-1.5-3.3-3.3-3.3h-104.2c-1.8,0-3.3,1.5-3.3,3.3v45.6c0,1.8,1.5,3.3,3.3,3.3h104.2c1.8,0,3.3-1.5,3.3-3.3v-16.7h67.4v2.7l8.7-8.7h0Z"/>
  <rect class="st6" x="14.2" y="415.9" width="100.8" height="39.7" rx="2.9" ry="2.9"/>
  <g class="st7">
    <g class="st7">
      <g class="st7">
        <g class="st7">
          <path class="st10" d="M45,432.6c-.5-.3-.9-.7-1.2-1.2-.3-.5-.5-1.1-.5-1.7s.2-1.2.5-1.7c.3-.5.7-.9,1.2-1.2.5-.3,1.1-.5,1.7-.5,1,0,1.8.4,2.4,1l-.9.8c-.4-.5-.9-.7-1.5-.7s-.8,0-1.1.3-.6.4-.8.8-.3.7-.3,1.2,0,.8.3,1.2c.2.3.5.6.8.8s.7.3,1.1.3c.7,0,1.2-.3,1.7-.9l.9.8c-.3.4-.7.7-1.1.9s-.9.3-1.4.3-1.2-.1-1.7-.5h0Z"/>
          <path class="st10" d="M51,432.7c-.4-.2-.7-.5-.9-.9s-.3-.8-.3-1.2,0-.9.3-1.2.5-.7.9-.9.8-.3,1.3-.3.9.1,1.3.3.7.5.9.9.3.8.3,1.2,0,.9-.3,1.2c-.2.4-.5.7-.9.9s-.8.3-1.3.3-.9-.1-1.3-.3ZM52.9,431.8c.2-.1.3-.3.5-.5.1-.2.2-.4.2-.7s0-.5-.2-.7c-.1-.2-.3-.4-.5-.5-.2-.1-.4-.2-.6-.2s-.4,0-.6.2c-.2.1-.3.3-.5.5s-.2.4-.2.7,0,.5.2.7.3.4.5.5c.2.1.4.2.6.2s.4,0,.6-.2Z"/>
          <path class="st10" d="M55.5,428.3h1.1v.6h0c.1-.2.3-.4.6-.5s.5-.2.8-.2.6,0,.8.2c.2.1.4.4.5.6.2-.2.4-.4.6-.6s.6-.2.9-.2c.5,0,.9.2,1.2.5s.4.8.4,1.3v3h-1.2v-2.7c0-.3,0-.5-.2-.7s-.3-.2-.6-.2-.5.1-.7.4-.3.6-.3,1v2.3h-1.2v-2.7c0-.3,0-.5-.2-.7s-.3-.2-.6-.2-.5.1-.7.4-.3.6-.3,1v2.3h-1.2v-4.6h0Z"/>
          <path class="st10" d="M63.7,428.3h1.1v.6h0c.1-.2.3-.4.6-.5.2-.1.5-.2.8-.2s.8.1,1.1.3.6.5.8.9c.2.4.3.8.3,1.3s0,.9-.3,1.3c-.2.4-.5.7-.8.9s-.7.3-1.1.3-.6,0-.8-.2-.4-.3-.5-.5h0v.6c0,0,0,1.8,0,1.8h-1.2v-6.5h0ZM66.6,431.8c.2-.1.3-.3.5-.5s.2-.4.2-.7,0-.5-.2-.7-.3-.4-.5-.5c-.2-.1-.4-.2-.6-.2s-.4,0-.6.2c-.2.1-.3.3-.5.5s-.2.4-.2.7,0,.5.2.7.3.4.5.5c.2.1.4.2.6.2s.4,0,.6-.2Z"/>
          <path class="st10" d="M69.6,432.6c-.3-.3-.5-.7-.5-1.1s0-.6.2-.8c.2-.2.4-.4.7-.5.3-.1.6-.2.9-.2s.9,0,1.2.2v-.2c0-.2,0-.5-.3-.6-.2-.2-.4-.2-.8-.2s-.4,0-.6.1c-.2.1-.4.2-.5.4l-.8-.6c.2-.3.5-.5.8-.7s.7-.2,1.1-.2c.7,0,1.2.2,1.6.5.4.3.6.8.6,1.4v2.8h-1.2v-.5h0c-.1.2-.3.3-.5.4-.2.1-.5.2-.8.2-.5,0-.9-.1-1.2-.4h0ZM71.8,431.8c.2-.2.3-.5.3-.8-.3-.1-.6-.2-1-.2-.6,0-.9.2-.9.7s0,.3.2.5c.1.1.3.2.6.2s.6-.1.8-.3h0Z"/>
          <path class="st10" d="M74.4,428.3h1.1v.6h0c.1-.2.3-.4.6-.5s.5-.2.8-.2c.6,0,1,.2,1.3.5s.4.8.4,1.4v2.9h-1.2v-2.7c0-.3,0-.5-.2-.7-.2-.2-.4-.2-.6-.2s-.6.1-.8.4c-.2.2-.3.5-.3.9v2.3h-1.2v-4.6h0Z"/>
          <path class="st10" d="M81.1,432.7l-1.9-4.4h1.3l1.2,2.9h0l1.1-2.9h1.3l-2.8,6.5h-1.3l1-2.2Z"/>
          <path class="st10" d="M40.4,439.1h1.3l.8,3h0l.9-3h1.2l.9,3h0l.8-3h1.3l-1.5,4.6h-1.3l-.9-3h0l-.9,3h-1.3l-1.5-4.6h0Z"/>
          <path class="st10" d="M48.6,438.4c-.2-.1-.2-.3-.2-.5s0-.4.2-.5c.2-.1.3-.2.5-.2s.4,0,.5.2.2.3.2.5,0,.4-.2.5-.3.2-.5.2-.4,0-.5-.2ZM48.5,439.1h1.2v4.6h-1.2v-4.6Z"/>
          <path class="st10" d="M50.9,437.3h1.2v3.5h0l1.7-1.7h1.5c0,0-1.7,1.8-1.7,1.8l1.8,2.8h0c0,0-1.4,0-1.4,0l-1.2-2-.6.6v1.4h-1.2v-6.4h0Z"/>
          <path class="st10" d="M56.1,438.4c-.2-.1-.2-.3-.2-.5s0-.4.2-.5c.2-.1.3-.2.5-.2s.4,0,.5.2.2.3.2.5,0,.4-.2.5-.3.2-.5.2-.4,0-.5-.2ZM56,439.1h1.2v4.6h-1.2v-4.6Z"/>
          <path class="st10" d="M65,442.4l.7.8-.9.7-.5-.6c-.4.4-.9.6-1.5.6s-.8-.1-1.2-.3c-.4-.2-.7-.5-.9-.8s-.3-.7-.3-1.2,0-.7.3-1,.4-.6.8-.8c-.3-.4-.4-.7-.4-1s0-.6.2-.8c.1-.2.3-.4.6-.6.2-.1.5-.2.9-.2s.8.1,1,.3.5.5.6.8l-1,.5c-.1-.4-.3-.5-.6-.5s-.3,0-.4.1-.2.2-.2.4,0,.2,0,.3,0,.2.2.3l1.9,2.4.5-.9.9.5-.7,1.1h0ZM63.7,442.5l-1.6-2c-.2.1-.3.3-.4.5s-.1.4-.1.6,0,.5.2.6.3.3.5.4c.2.1.4.1.7.1s.6-.1.8-.3h0Z"/>
          <path class="st10" d="M69.5,443.5c-.3-.2-.6-.5-.8-.9-.2-.4-.3-.8-.3-1.3s0-.9.3-1.3c.2-.4.5-.7.8-.9.3-.2.7-.3,1.1-.3s.6,0,.8.2.4.3.6.5h0v-.6c0,0,0-1.8,0-1.8h1.2v6.4h-1.1v-.5h0c-.1.2-.3.4-.5.5-.2.1-.5.2-.8.2s-.8-.1-1.1-.3h0ZM71.4,442.6c.2-.1.3-.3.5-.5.1-.2.2-.4.2-.7s0-.5-.2-.7-.3-.4-.5-.5c-.2-.1-.4-.2-.6-.2s-.4,0-.6.2c-.2.1-.3.3-.5.5-.1.2-.2.4-.2.7s0,.5.2.7.3.4.5.5c.2.1.4.2.6.2s.4,0,.6-.2Z"/>
          <path class="st10" d="M75.2,443.5c-.4-.2-.7-.5-.9-.9s-.3-.8-.3-1.2,0-.9.3-1.2.5-.7.9-.9.8-.3,1.3-.3.9.1,1.3.3.7.5.9.9.3.8.3,1.2,0,.9-.3,1.2-.5.7-.9.9-.8.3-1.3.3-.9-.1-1.3-.3ZM77.1,442.6c.2-.1.3-.3.5-.5.1-.2.2-.4.2-.7s0-.5-.2-.7c-.1-.2-.3-.4-.5-.5-.2-.1-.4-.2-.6-.2s-.4,0-.6.2c-.2.1-.3.3-.5.5s-.2.4-.2.7,0,.5.2.7.3.4.5.5c.2.1.4.2.6.2s.4,0,.6-.2Z"/>
          <path class="st10" d="M80.7,443.5c-.4-.2-.7-.5-.9-.9s-.3-.8-.3-1.3,0-.9.3-1.2c.2-.4.5-.7.9-.9s.8-.3,1.2-.3.9.1,1.3.3.6.5.8.9l-1.1.5c-.2-.4-.5-.6-1-.6s-.7.1-.9.4c-.2.2-.3.6-.3,1s.1.7.3,1c.2.2.5.4.9.4s.9-.2,1.1-.6l1.1.5c-.2.4-.5.7-.8.9-.4.2-.8.3-1.3.3s-.9-.1-1.2-.3h0Z"/>
          <path class="st10" d="M85.3,443.5c-.3-.2-.6-.5-.7-.9l1.1-.5c0,.2.2.4.4.5s.4.2.6.2.4,0,.5-.1.2-.2.2-.3,0-.3-.2-.3-.3-.1-.6-.2h-.5c-.4-.2-.7-.4-.9-.6s-.4-.5-.4-.9,0-.5.2-.7c.2-.2.4-.4.7-.5.3-.1.6-.2.9-.2.9,0,1.6.3,1.9,1l-1,.4c-.2-.3-.5-.5-.9-.5s-.4,0-.5.1-.2.2-.2.3c0,.2.2.4.6.5l.7.2c.5.1.8.3,1,.5.2.2.3.5.3.9s0,.5-.3.8-.4.4-.7.5-.6.2-1,.2c-.6,0-1-.1-1.3-.3h0Z"/>
        </g>
      </g>
    </g>
  </g>
  <line class="st1" x1="118.8" y1="389.8" x2="158.6" y2="425.8"/>
  <rect class="st6" x="14.2" y="370" width="100.8" height="39.7" rx="2.9" ry="2.9"/>
  <g class="st7">
    <g class="st7">
      <g class="st7">
        <g class="st7">
          <g class="st7">
            <path class="st10" d="M30.5,392.1c-.5-.3-.9-.7-1.2-1.2-.3-.5-.4-1.1-.4-1.7s.1-1.2.4-1.7c.3-.5.7-.9,1.2-1.2.5-.3,1.1-.4,1.7-.4,1,0,1.8.4,2.4,1.1l-.9.8c-.4-.5-.9-.7-1.5-.7s-.8,0-1.1.3c-.3.2-.6.4-.8.8s-.3.7-.3,1.2,0,.8.3,1.2.4.6.8.8c.3.2.7.3,1.1.3.7,0,1.2-.3,1.7-.8l.9.8c-.3.4-.7.7-1.1.9-.4.2-.9.3-1.4.3s-1.2-.1-1.7-.4Z"/>
          </g>
          <g class="st7">
            <path class="st10" d="M36.5,392.2c-.4-.2-.7-.5-.9-.9s-.3-.8-.3-1.2.1-.9.3-1.2.5-.7.9-.9.8-.3,1.3-.3.9.1,1.3.3.7.5.9.9.3.8.3,1.2-.1.9-.3,1.2-.5.7-.9.9-.8.3-1.3.3-.9-.1-1.3-.3ZM38.4,391.3c.2-.1.3-.3.5-.5s.2-.4.2-.7,0-.5-.2-.7-.3-.4-.5-.5c-.2-.1-.4-.2-.6-.2s-.4,0-.6.2c-.2.1-.3.3-.5.5s-.2.4-.2.7,0,.5.2.7.3.4.5.5c.2.1.4.2.6.2s.4,0,.6-.2Z"/>
          </g>
          <g class="st7">
            <path class="st10" d="M41,387.8h1.1v.6h0c.1-.2.3-.4.6-.5.2-.1.5-.2.8-.2s.6,0,.8.2c.2.2.4.3.5.6.1-.2.4-.4.6-.6.3-.2.6-.2.9-.2.5,0,.9.2,1.2.5.3.3.4.8.4,1.3v3h-1.2v-2.7c0-.3,0-.5-.2-.7-.1-.2-.3-.2-.6-.2s-.6.1-.7.4-.3.6-.3,1v2.3h-1.2v-2.7c0-.3,0-.5-.2-.7-.1-.2-.3-.2-.6-.2s-.5.1-.7.4c-.2.2-.3.6-.3,1v2.3h-1.2v-4.6Z"/>
            <path class="st10" d="M49.2,387.8h1.1v.6h0c.1-.2.3-.4.5-.5.2-.1.5-.2.8-.2s.8.1,1.1.3c.3.2.6.5.8.9s.3.8.3,1.3,0,.9-.3,1.3-.5.7-.8.9c-.3.2-.7.3-1.1.3s-.6,0-.8-.2c-.2-.1-.4-.3-.5-.5h0v.6c0,0,0,1.8,0,1.8h-1.2v-6.5ZM52.2,391.3c.2-.1.3-.3.5-.5.1-.2.2-.4.2-.7s0-.5-.2-.7c-.1-.2-.3-.4-.5-.5-.2-.1-.4-.2-.6-.2s-.4,0-.6.2c-.2.1-.3.3-.5.5-.1.2-.2.4-.2.7s0,.5.2.7c.1.2.3.4.5.5.2.1.4.2.6.2s.4,0,.6-.2Z"/>
            <path class="st10" d="M55.1,392.1c-.3-.3-.5-.7-.5-1.1s0-.6.2-.8c.2-.2.4-.4.7-.5.3-.1.6-.2.9-.2s.9,0,1.2.2v-.2c0-.3,0-.5-.3-.6s-.4-.2-.8-.2-.4,0-.6.1c-.2,0-.4.2-.5.4l-.8-.6c.2-.3.5-.5.8-.7.3-.2.7-.2,1.1-.2.7,0,1.2.2,1.6.5.4.3.5.8.5,1.4v2.8h-1.2v-.5h0c-.1.2-.3.3-.5.4-.2.1-.5.2-.8.2-.5,0-.9-.1-1.2-.4ZM57.4,391.3c.2-.2.3-.5.3-.8-.3-.1-.6-.2-1-.2-.6,0-.9.2-.9.7s0,.3.2.5.3.2.6.2.6-.1.8-.3Z"/>
          </g>
          <g class="st7">
            <path class="st10" d="M59.9,387.8h1.1v.6h0c.1-.2.3-.4.6-.5.3-.1.5-.2.8-.2.6,0,1,.2,1.3.5.3.3.4.8.4,1.4v2.9h-1.2v-2.7c0-.3,0-.5-.2-.7-.1-.2-.4-.2-.6-.2s-.6.1-.8.4-.3.6-.3.9v2.3h-1.2v-4.6Z"/>
          </g>
          <g class="st7">
            <path class="st10" d="M66.6,392.2l-1.9-4.4h1.3l1.2,2.9h0l1.1-2.9h1.3l-2.8,6.5h-1.3l1-2.2Z"/>
            <path class="st10" d="M76.9,391.1l.7.8-.9.7-.5-.6c-.4.4-.9.6-1.5.6s-.8,0-1.2-.3c-.4-.2-.7-.5-.9-.8-.2-.3-.3-.7-.3-1.2s0-.7.3-1c.2-.3.4-.6.7-.8-.3-.4-.4-.7-.4-1s0-.6.2-.8.3-.4.6-.6c.3-.1.5-.2.9-.2s.8,0,1,.3.5.5.6.8l-.9.5c-.1-.4-.3-.5-.6-.5s-.3,0-.4.2c-.1.1-.2.2-.2.4s0,.2,0,.3,0,.2.2.3l1.9,2.3.5-.9.9.5-.7,1.1ZM75.6,391.2l-1.6-2c-.2.1-.3.3-.4.5,0,.2-.1.4-.1.6s0,.5.2.7c.1.2.3.3.5.4.2.1.4.2.7.2s.6-.1.8-.3Z"/>
          </g>
          <g class="st7">
            <path class="st10" d="M81.4,392.2c-.3-.2-.6-.5-.8-.9-.2-.4-.3-.8-.3-1.3s0-.9.3-1.3c.2-.4.5-.7.8-.9s.7-.3,1.1-.3.6,0,.8.2c.2.1.4.3.5.5h0v-.6c0,0,0-1.8,0-1.8h1.2v6.4h-1.1v-.5h0c-.1.2-.3.4-.5.5-.2.1-.5.2-.8.2s-.8-.1-1.1-.3ZM83.3,391.3c.2-.1.3-.3.5-.5.1-.2.2-.4.2-.7s0-.5-.2-.7c-.1-.2-.3-.4-.5-.5-.2-.1-.4-.2-.6-.2s-.4,0-.6.2c-.2.1-.3.3-.5.5-.1.2-.2.4-.2.7s0,.5.2.7c.1.2.3.4.5.5.2.1.4.2.6.2s.4,0,.6-.2Z"/>
          </g>
          <g class="st7">
            <path class="st10" d="M87.1,392.2c-.4-.2-.7-.5-.9-.9-.2-.4-.3-.8-.3-1.2s.1-.9.3-1.2c.2-.4.5-.7.9-.9s.8-.3,1.3-.3.9.1,1.3.3c.4.2.7.5.9.9s.3.8.3,1.2-.1.9-.3,1.2-.5.7-.9.9c-.4.2-.8.3-1.3.3s-.9-.1-1.3-.3ZM89,391.3c.2-.1.3-.3.5-.5.1-.2.2-.4.2-.7s0-.5-.2-.7c-.1-.2-.3-.4-.5-.5-.2-.1-.4-.2-.6-.2s-.4,0-.6.2c-.2.1-.3.3-.5.5-.1.2-.2.4-.2.7s0,.5.2.7c.1.2.3.4.5.5.2.1.4.2.6.2s.4,0,.6-.2Z"/>
            <path class="st10" d="M92.6,392.2c-.4-.2-.7-.5-.9-.9-.2-.4-.3-.8-.3-1.3s.1-.9.3-1.3c.2-.4.5-.7.9-.9.4-.2.8-.3,1.2-.3s.9.1,1.3.3c.4.2.6.5.8.9l-1.1.4c-.2-.4-.5-.6-1-.6s-.7.1-.9.4-.3.6-.3,1,.1.7.3,1c.2.2.5.4.9.4s.9-.2,1.1-.6l1.1.5c-.2.4-.5.7-.8.9-.4.2-.8.3-1.3.3s-.9-.1-1.2-.3Z"/>
            <path class="st10" d="M97.3,392.2c-.3-.2-.6-.5-.7-.9l1.1-.5c0,.2.2.4.4.5.2.1.4.2.6.2s.4,0,.5-.1c.1,0,.2-.2.2-.3s0-.3-.2-.3c-.1,0-.3-.1-.6-.2h-.5c-.4-.2-.7-.4-.9-.6s-.4-.5-.4-.9,0-.5.2-.7c.2-.2.4-.4.6-.5.3-.1.6-.2.9-.2.9,0,1.6.3,1.9,1l-1,.4c-.2-.3-.5-.5-.9-.5s-.4,0-.5.1c-.1,0-.2.2-.2.3,0,.2.2.4.6.5l.7.2c.5.1.8.3,1,.5.2.2.3.5.3.9s0,.6-.3.8c-.2.2-.4.4-.7.5s-.6.2-1,.2c-.6,0-1-.1-1.4-.3Z"/>
          </g>
        </g>
      </g>
    </g>
  </g>
  <line class="st1" x1="118.8" y1="343.9" x2="158.6" y2="413.9"/>
  <rect class="st6" x="14.2" y="324" width="100.8" height="39.7" rx="2.9" ry="2.9"/>
  <g class="st7">
    <g class="st7">
      <g class="st7">
        <g class="st7">
          <g class="st7">
            <path class="st10" d="M26.6,340h1.2v6.4h-1.2v-6.4Z"/>
          </g>
          <g class="st7">
            <path class="st10" d="M29.1,341.9h1.1v.6h0c.1-.2.3-.4.6-.5s.5-.2.8-.2c.6,0,1,.2,1.3.5s.4.8.4,1.4v2.9h-1.2v-2.7c0-.3,0-.5-.2-.7-.1-.2-.4-.2-.6-.2s-.6.1-.8.4-.3.6-.3.9v2.3h-1.2v-4.6Z"/>
          </g>
          <g class="st7">
            <path class="st10" d="M35.7,346.5c-.2,0-.3-.2-.5-.3-.3-.3-.4-.7-.4-1.2v-2.2h-.8v-1h.8v-1.3h1.2v1.3h1.1v1h-1.1v2c0,.2,0,.4.2.5,0,0,.2.1.4.1s.2,0,.3,0c0,0,.2,0,.3-.2v1.2c-.3.1-.5.2-.8.2s-.4,0-.6-.1Z"/>
          </g>
          <g class="st7">
            <path class="st10" d="M38.8,346.3c-.4-.2-.7-.5-.9-.9-.2-.4-.3-.8-.3-1.2s.1-.8.3-1.2.5-.7.8-.9c.4-.2.8-.3,1.2-.3s.9.1,1.2.3c.3.2.6.5.8.8.2.4.3.7.3,1.2s0,.3,0,.4h-3.4c0,.4.2.6.4.8s.5.3.8.3.5,0,.7-.2.3-.3.5-.5l1,.5c-.5.8-1.2,1.2-2.1,1.2s-.9-.1-1.2-.3ZM41.1,343.6c0-.1,0-.3-.2-.4,0-.1-.2-.3-.4-.4-.2,0-.4-.1-.6-.1s-.5,0-.7.2c-.2.2-.3.4-.4.7h2.3Z"/>
            <path class="st10" d="M43.2,341.9h1.1v.6h0c.1-.2.3-.4.5-.5.2-.1.5-.2.8-.2s.4,0,.6.1v1.2c-.2,0-.3-.1-.4-.1-.1,0-.2,0-.4,0-.3,0-.6.1-.8.4-.2.3-.3.6-.3,1v2.3h-1.2v-4.6Z"/>
          </g>
          <g class="st7">
            <path class="st10" d="M47,341.9h1.1v.6h0c.1-.2.3-.4.6-.5s.5-.2.8-.2c.6,0,1,.2,1.3.5s.4.8.4,1.4v2.9h-1.2v-2.7c0-.3,0-.5-.2-.7-.1-.2-.4-.2-.6-.2s-.6.1-.8.4-.3.6-.3.9v2.3h-1.2v-4.6Z"/>
          </g>
          <g class="st7">
            <path class="st10" d="M52.6,346.2c-.3-.3-.5-.7-.5-1.1s0-.6.2-.8.4-.4.7-.5c.3-.1.6-.2.9-.2s.9,0,1.2.2v-.2c0-.3,0-.5-.3-.6s-.4-.2-.8-.2-.4,0-.6.1c-.2,0-.4.2-.5.4l-.8-.6c.2-.3.5-.5.8-.7.3-.2.7-.2,1.1-.2.7,0,1.2.2,1.6.5.4.3.5.8.5,1.4v2.8h-1.2v-.5h0c-.1.2-.3.3-.5.4-.2.1-.5.2-.8.2-.5,0-.9-.1-1.2-.4ZM54.9,345.4c.2-.2.3-.5.3-.8-.3-.1-.6-.2-1-.2-.6,0-.9.2-.9.7s0,.3.2.5.3.2.6.2.6-.1.8-.3Z"/>
            <path class="st10" d="M57.4,340h1.2v6.4h-1.2v-6.4Z"/>
          </g>
          <g class="st7">
            <path class="st10" d="M62.8,346.3c-.4-.2-.7-.5-.9-.9-.2-.4-.3-.8-.3-1.3s.1-.9.3-1.3c.2-.4.5-.7.9-.9.4-.2.8-.3,1.2-.3s.9.1,1.3.3c.4.2.6.5.8.9l-1.1.4c-.2-.4-.5-.6-1-.6s-.7.1-.9.4-.3.6-.3,1,.1.7.3,1,.5.4.9.4.9-.2,1.1-.6l1.1.5c-.2.4-.5.7-.8.9-.4.2-.8.3-1.3.3s-.9-.1-1.2-.3Z"/>
          </g>
          <g class="st7">
            <path class="st10" d="M67.9,346.3c-.4-.2-.7-.5-.9-.9-.2-.4-.3-.8-.3-1.2s.1-.9.3-1.2c.2-.4.5-.7.9-.9s.8-.3,1.3-.3.9.1,1.3.3c.4.2.7.5.9.9.2.4.3.8.3,1.2s-.1.9-.3,1.2-.5.7-.9.9c-.4.2-.8.3-1.3.3s-.9-.1-1.3-.3ZM69.8,345.4c.2-.1.3-.3.5-.5.1-.2.2-.4.2-.7s0-.5-.2-.7c-.1-.2-.3-.4-.5-.5s-.4-.2-.6-.2-.4,0-.6.2c-.2.1-.3.3-.5.5-.1.2-.2.4-.2.7s0,.5.2.7c.1.2.3.4.5.5.2.1.4.2.6.2s.4,0,.6-.2Z"/>
          </g>
          <g class="st7">
            <path class="st10" d="M73.4,346.3c-.3-.2-.6-.5-.8-.9-.2-.4-.3-.8-.3-1.3s0-.9.3-1.3c.2-.4.5-.7.8-.9s.7-.3,1.1-.3.6,0,.8.2c.2.1.4.3.5.5h0v-.6c0,0,0-1.8,0-1.8h1.2v6.4h-1.1v-.5h0c-.1.2-.3.4-.5.5-.2.1-.5.2-.8.2s-.8-.1-1.1-.3ZM75.3,345.4c.2-.1.3-.3.5-.5.1-.2.2-.4.2-.7s0-.5-.2-.7c-.1-.2-.3-.4-.5-.5-.2-.1-.4-.2-.6-.2s-.4,0-.6.2c-.2.1-.3.3-.5.5-.1.2-.2.4-.2.7s0,.5.2.7c.1.2.3.4.5.5.2.1.4.2.6.2s.4,0,.6-.2Z"/>
          </g>
          <g class="st7">
            <path class="st10" d="M79.1,346.3c-.4-.2-.7-.5-.9-.9-.2-.4-.3-.8-.3-1.2s.1-.8.3-1.2.5-.7.8-.9c.4-.2.8-.3,1.2-.3s.9.1,1.2.3c.3.2.6.5.8.8.2.4.3.7.3,1.2s0,.3,0,.4h-3.4c0,.4.2.6.4.8s.5.3.8.3.5,0,.7-.2.3-.3.5-.5l1,.5c-.5.8-1.2,1.2-2.1,1.2s-.9-.1-1.2-.3ZM81.4,343.6c0-.1,0-.3-.2-.4,0-.1-.2-.3-.4-.4-.2,0-.4-.1-.6-.1s-.5,0-.7.2c-.2.2-.3.4-.4.7h2.3Z"/>
            <path class="st10" d="M85.2,346.4c-.2-.1-.4-.3-.5-.5h0v.5h-1.1v-6.4h1.2v2.4c0,0,0,0,0,0,.1-.2.3-.4.5-.5.2-.1.5-.2.8-.2s.8.1,1.1.3c.3.2.6.5.8.9.2.4.3.8.3,1.3s0,.9-.3,1.3c-.2.4-.5.7-.8.9-.3.2-.7.3-1.1.3s-.6,0-.8-.2ZM86.4,345.4c.2-.1.3-.3.5-.5.1-.2.2-.4.2-.7s0-.5-.2-.7c-.1-.2-.3-.4-.5-.5-.2-.1-.4-.2-.6-.2s-.4,0-.6.2c-.2.1-.3.3-.5.5-.1.2-.2.4-.2.7s0,.5.2.7c.1.2.3.4.5.5.2.1.4.2.6.2s.4,0,.6-.2Z"/>
          </g>
          <g class="st7">
            <path class="st10" d="M89.3,346.2c-.3-.3-.5-.7-.5-1.1s0-.6.2-.8.4-.4.7-.5c.3-.1.6-.2.9-.2s.9,0,1.2.2v-.2c0-.3,0-.5-.3-.6s-.4-.2-.8-.2-.4,0-.6.1c-.2,0-.4.2-.5.4l-.8-.6c.2-.3.5-.5.8-.7.3-.2.7-.2,1.1-.2.7,0,1.2.2,1.6.5.4.3.5.8.5,1.4v2.8h-1.2v-.5h0c-.1.2-.3.3-.5.4-.2.1-.5.2-.8.2-.5,0-.9-.1-1.2-.4ZM91.6,345.4c.2-.2.3-.5.3-.8-.3-.1-.6-.2-1-.2-.6,0-.9.2-.9.7s0,.3.2.5.3.2.6.2.6-.1.8-.3Z"/>
          </g>
          <g class="st7">
            <path class="st10" d="M94.5,346.3c-.3-.2-.6-.5-.7-.9l1.1-.5c0,.2.2.4.4.5.2.1.4.2.6.2s.4,0,.5-.1c.1,0,.2-.2.2-.3s0-.3-.2-.3-.3-.1-.6-.2h-.5c-.4-.2-.7-.4-.9-.6-.2-.2-.4-.5-.4-.9s0-.5.2-.7c.2-.2.4-.4.6-.5.3-.1.6-.2.9-.2.9,0,1.6.3,1.9,1l-1,.4c-.2-.3-.5-.5-.9-.5s-.4,0-.5.1c-.1,0-.2.2-.2.3,0,.2.2.4.6.5l.7.2c.5.1.8.3,1,.5s.3.5.3.9,0,.6-.3.8c-.2.2-.4.4-.7.5-.3.1-.6.2-1,.2-.6,0-1-.1-1.4-.3Z"/>
          </g>
          <g class="st7">
            <path class="st10" d="M99.6,346.3c-.4-.2-.7-.5-.9-.9-.2-.4-.3-.8-.3-1.2s.1-.8.3-1.2.5-.7.8-.9c.4-.2.8-.3,1.2-.3s.9.1,1.2.3c.3.2.6.5.8.8.2.4.3.7.3,1.2s0,.3,0,.4h-3.4c0,.4.2.6.4.8s.5.3.8.3.5,0,.7-.2.3-.3.5-.5l1,.5c-.5.8-1.2,1.2-2.1,1.2s-.9-.1-1.2-.3ZM101.9,343.6c0-.1,0-.3-.2-.4,0-.1-.2-.3-.4-.4-.2,0-.4-.1-.6-.1s-.5,0-.7.2c-.2.2-.3.4-.4.7h2.3Z"/>
          </g>
        </g>
      </g>
    </g>
  </g>
  <line class="st1" x1="118.8" y1="481.7" x2="158.6" y2="445.7"/>
  <rect class="st6" x="14.2" y="461.8" width="100.8" height="39.7" rx="2.9" ry="2.9"/>
  <g class="st7">
    <g class="st7">
      <g class="st7">
        <g class="st7">
          <g class="st7">
            <path class="st10" d="M32.1,477.8h1.2v5.3h2.7v1.2h-3.9v-6.4Z"/>
          </g>
          <g class="st7">
            <path class="st10" d="M37.1,484c-.3-.3-.5-.7-.5-1.1s0-.6.2-.8c.2-.2.4-.4.7-.5.3-.1.6-.2.9-.2s.9,0,1.2.2v-.2c0-.3,0-.5-.3-.6s-.4-.2-.8-.2-.4,0-.6.1c-.2,0-.4.2-.5.4l-.8-.6c.2-.3.5-.5.8-.7.3-.2.7-.2,1.1-.2.7,0,1.2.2,1.6.5.4.3.5.8.5,1.4v2.8h-1.2v-.5h0c-.1.2-.3.3-.5.4-.2.1-.5.2-.8.2-.5,0-.9-.1-1.2-.4ZM39.4,483.1c.2-.2.3-.5.3-.8-.3-.1-.6-.2-1-.2-.6,0-.9.2-.9.7s0,.3.2.5.3.2.6.2.6-.1.8-.3Z"/>
          </g>
          <g class="st7">
            <path class="st10" d="M43.2,484.3c-.2,0-.3-.2-.5-.3-.3-.3-.4-.7-.4-1.2v-2.2h-.8v-1h.8v-1.3h1.2v1.3h1.1v1h-1.1v2c0,.2,0,.4.2.5,0,0,.2.1.4.1s.2,0,.3,0c0,0,.2,0,.3-.2v1.2c-.3.1-.5.2-.8.2s-.4,0-.6-.1Z"/>
          </g>
          <g class="st7">
            <path class="st10" d="M46.4,484.1c-.4-.2-.7-.5-.9-.9-.2-.4-.3-.8-.3-1.2s.1-.8.3-1.2.5-.7.8-.9c.4-.2.8-.3,1.2-.3s.9.1,1.2.3c.3.2.6.5.8.8s.3.7.3,1.2,0,.3,0,.4h-3.4c0,.4.2.6.4.8.2.2.5.3.8.3s.5,0,.7-.2c.2-.1.3-.3.5-.5l1,.5c-.5.8-1.2,1.2-2.1,1.2s-.9-.1-1.2-.3ZM48.7,481.4c0-.1,0-.3-.2-.4,0-.1-.2-.3-.4-.4-.2,0-.4-.1-.6-.1s-.5,0-.7.2c-.2.2-.3.4-.4.7h2.3Z"/>
          </g>
          <g class="st7">
            <path class="st10" d="M51.2,484c-.3-.2-.6-.5-.7-.9l1.1-.5c0,.2.2.4.4.5.2.1.4.2.6.2s.4,0,.5-.1c.1,0,.2-.2.2-.3s0-.3-.2-.3c-.1,0-.3-.1-.6-.2h-.5c-.4-.2-.7-.4-.9-.6s-.4-.5-.4-.9,0-.5.2-.7c.2-.2.4-.4.6-.5.3-.1.6-.2.9-.2.9,0,1.6.3,1.9,1l-1,.4c-.2-.3-.5-.5-.9-.5s-.4,0-.5.1c-.1,0-.2.2-.2.3,0,.2.2.4.6.5l.7.2c.5.1.8.3,1,.5.2.2.3.5.3.9s0,.6-.3.8c-.2.2-.4.4-.7.5s-.6.2-1,.2c-.6,0-1-.1-1.4-.3Z"/>
          </g>
          <g class="st7">
            <path class="st10" d="M56.6,484.3c-.2,0-.3-.2-.5-.3-.3-.3-.4-.7-.4-1.2v-2.2h-.8v-1h.8v-1.3h1.2v1.3h1.1v1h-1.1v2c0,.2,0,.4.2.5,0,0,.2.1.4.1s.2,0,.3,0c0,0,.2,0,.3-.2v1.2c-.3.1-.5.2-.8.2s-.4,0-.6-.1Z"/>
          </g>
          <g class="st7">
            <path class="st10" d="M62.8,477.8h1.4l2.4,6.4h-1.3l-.5-1.5h-2.5l-.5,1.5h-1.3l2.4-6.4ZM64.4,481.6l-.6-1.6-.2-.8h0l-.2.8-.6,1.6h1.7Z"/>
            <path class="st10" d="M67.5,477.8h2.3c.4,0,.8,0,1.1.3s.6.4.8.7c.2.3.3.7.3,1.1s0,.8-.3,1.1c-.2.3-.5.6-.8.7-.3.2-.7.3-1.1.3h-1.1v2.4h-1.2v-6.4ZM69.8,480.7c.3,0,.5,0,.7-.3.2-.2.3-.4.3-.6s0-.5-.3-.6-.4-.3-.7-.3h-1.1v1.8h1.1Z"/>
            <path class="st10" d="M73,477.8h1.2v6.4h-1.2v-6.4Z"/>
          </g>
          <g class="st7">
            <path class="st10" d="M78.5,484.1c-.3-.2-.6-.5-.8-.9-.2-.4-.3-.8-.3-1.3s0-.9.3-1.3c.2-.4.5-.7.8-.9s.7-.3,1.1-.3.6,0,.8.2c.2.1.4.3.5.5h0v-.6c0,0,0-1.8,0-1.8h1.2v6.4h-1.1v-.5h0c-.1.2-.3.4-.5.5-.2.1-.5.2-.8.2s-.8-.1-1.1-.3ZM80.4,483.1c.2-.1.3-.3.5-.5.1-.2.2-.4.2-.7s0-.5-.2-.7c-.1-.2-.3-.4-.5-.5-.2-.1-.4-.2-.6-.2s-.4,0-.6.2c-.2.1-.3.3-.5.5-.1.2-.2.4-.2.7s0,.5.2.7c.1.2.3.4.5.5.2.1.4.2.6.2s.4,0,.6-.2Z"/>
          </g>
          <g class="st7">
            <path class="st10" d="M84.2,484.1c-.4-.2-.7-.5-.9-.9-.2-.4-.3-.8-.3-1.2s.1-.9.3-1.2c.2-.4.5-.7.9-.9s.8-.3,1.3-.3.9.1,1.3.3c.4.2.7.5.9.9s.3.8.3,1.2-.1.9-.3,1.2-.5.7-.9.9c-.4.2-.8.3-1.3.3s-.9-.1-1.3-.3ZM86.1,483.1c.2-.1.3-.3.5-.5.1-.2.2-.4.2-.7s0-.5-.2-.7c-.1-.2-.3-.4-.5-.5-.2-.1-.4-.2-.6-.2s-.4,0-.6.2c-.2.1-.3.3-.5.5-.1.2-.2.4-.2.7s0,.5.2.7c.1.2.3.4.5.5.2.1.4.2.6.2s.4,0,.6-.2Z"/>
            <path class="st10" d="M89.7,484.1c-.4-.2-.7-.5-.9-.9-.2-.4-.3-.8-.3-1.3s.1-.9.3-1.3c.2-.4.5-.7.9-.9.4-.2.8-.3,1.2-.3s.9.1,1.3.3c.4.2.6.5.8.9l-1.1.4c-.2-.4-.5-.6-1-.6s-.7.1-.9.4-.3.6-.3,1,.1.7.3,1c.2.2.5.4.9.4s.9-.2,1.1-.6l1.1.5c-.2.4-.5.7-.8.9-.4.2-.8.3-1.3.3s-.9-.1-1.2-.3Z"/>
            <path class="st10" d="M94.4,484c-.3-.2-.6-.5-.7-.9l1.1-.5c0,.2.2.4.4.5.2.1.4.2.6.2s.4,0,.5-.1c.1,0,.2-.2.2-.3s0-.3-.2-.3c-.1,0-.3-.1-.6-.2h-.5c-.4-.2-.7-.4-.9-.6s-.4-.5-.4-.9,0-.5.2-.7c.2-.2.4-.4.6-.5.3-.1.6-.2.9-.2.9,0,1.6.3,1.9,1l-1,.4c-.2-.3-.5-.5-.9-.5s-.4,0-.5.1c-.1,0-.2.2-.2.3,0,.2.2.4.6.5l.7.2c.5.1.8.3,1,.5.2.2.3.5.3.9s0,.6-.3.8c-.2.2-.4.4-.7.5s-.6.2-1,.2c-.6,0-1-.1-1.4-.3Z"/>
          </g>
        </g>
      </g>
    </g>
  </g>
  <line class="st1" x1="118.8" y1="527.6" x2="158.6" y2="457.6"/>
  <rect class="st6" x="14.2" y="507.7" width="100.8" height="39.7" rx="2.9" ry="2.9"/>
  <g class="st7">
    <g class="st7">
      <g class="st7">
        <g class="st7">
          <g class="st7">
            <path class="st10" d="M29.9,529.8c-.4-.3-.7-.8-.9-1.3l1.1-.5c0,.3.2.6.5.8.2.2.5.3.8.3s.5,0,.7-.2c.2-.1.3-.3.3-.6s0-.4-.3-.6c-.2-.2-.5-.3-1-.5h-.4c-.4-.3-.8-.5-1.1-.8s-.4-.7-.4-1.1,0-.6.3-.9c.2-.3.4-.5.7-.7s.7-.2,1.1-.2c.6,0,1,.1,1.4.4.3.3.6.6.7,1l-1.1.5c0-.2-.2-.4-.3-.5s-.4-.2-.6-.2-.5,0-.7.2c-.2.1-.3.3-.3.5s0,.4.2.5.4.3.8.4h.4c.6.3,1,.6,1.3.9.3.3.4.7.4,1.2s-.1.8-.3,1.1-.5.5-.8.7c-.3.1-.7.2-1,.2-.6,0-1.1-.2-1.5-.5Z"/>
          </g>
          <g class="st7">
            <path class="st10" d="M35.5,530c-.4-.2-.7-.5-.9-.9-.2-.4-.3-.8-.3-1.2s.1-.8.3-1.2.5-.7.8-.9c.4-.2.8-.3,1.2-.3s.9.1,1.2.3.6.5.8.8c.2.4.3.7.3,1.2s0,.3,0,.4h-3.4c0,.4.2.6.4.8.2.2.5.3.8.3s.5,0,.7-.2c.2-.1.3-.3.5-.5l1,.5c-.5.8-1.2,1.2-2.1,1.2s-.9-.1-1.2-.3ZM37.8,527.3c0-.1,0-.3-.2-.4,0-.1-.2-.3-.4-.4-.2,0-.4-.1-.6-.1s-.5,0-.7.2-.3.4-.4.7h2.3Z"/>
          </g>
          <g class="st7">
            <path class="st10" d="M40.8,530c-.4-.2-.7-.5-.9-.9-.2-.4-.3-.8-.3-1.3s.1-.9.3-1.3c.2-.4.5-.7.9-.9.4-.2.8-.3,1.2-.3s.9.1,1.3.3c.4.2.6.5.8.9l-1.1.4c-.2-.4-.5-.6-1-.6s-.7.1-.9.4-.3.6-.3,1,.1.7.3,1c.2.2.5.4.9.4s.9-.2,1.1-.6l1.1.5c-.2.4-.5.7-.8.9-.4.2-.8.3-1.3.3s-.9-.1-1.2-.3Z"/>
            <path class="st10" d="M45.4,529.8c-.3-.3-.4-.8-.4-1.4v-2.8h1.2v2.6c0,.3,0,.6.2.7.1.2.3.3.6.3s.6-.1.8-.4c.2-.2.3-.6.3-.9v-2.3h1.2v4.6h-1.1v-.6h0c-.1.2-.3.4-.6.5-.2.1-.5.2-.8.2-.6,0-1-.2-1.3-.5Z"/>
            <path class="st10" d="M50.4,525.6h1.1v.6h0c.1-.2.3-.4.5-.5.2-.1.5-.2.8-.2s.4,0,.6.1v1.2c-.2,0-.3-.1-.4-.1-.1,0-.2,0-.4,0-.3,0-.6.1-.8.4s-.3.6-.3,1v2.3h-1.2v-4.6Z"/>
          </g>
          <g class="st7">
            <path class="st10" d="M54.4,524.8c-.2-.1-.2-.3-.2-.5s0-.4.2-.5c.1-.1.3-.2.5-.2s.4,0,.5.2c.1.1.2.3.2.5s0,.4-.2.5c-.1.2-.3.2-.5.2s-.4,0-.5-.2ZM54.3,525.6h1.2v4.6h-1.2v-4.6Z"/>
          </g>
          <g class="st7">
            <path class="st10" d="M58.1,530.2c-.2,0-.3-.2-.5-.3-.3-.3-.4-.7-.4-1.2v-2.2h-.8v-1h.8v-1.3h1.2v1.3h1.1v1h-1.1v2c0,.2,0,.4.2.5,0,0,.2.1.4.1s.2,0,.3,0c0,0,.2,0,.3-.2v1.2c-.3.1-.5.2-.8.2s-.4,0-.6-.1Z"/>
          </g>
          <g class="st7">
            <path class="st10" d="M61.9,529.9l-1.9-4.4h1.3l1.2,2.9h0l1.1-2.9h1.3l-2.8,6.5h-1.3l1-2.2Z"/>
            <path class="st10" d="M67.8,525.6h1.1v.6h0c.1-.2.3-.4.5-.5.2-.1.5-.2.8-.2s.8.1,1.1.3c.3.2.6.5.8.9s.3.8.3,1.3,0,.9-.3,1.3-.5.7-.8.9c-.3.2-.7.3-1.1.3s-.6,0-.8-.2c-.2-.1-.4-.3-.5-.5h0v.6c0,0,0,1.8,0,1.8h-1.2v-6.5ZM70.8,529c.2-.1.3-.3.5-.5.1-.2.2-.4.2-.7s0-.5-.2-.7c-.1-.2-.3-.4-.5-.5-.2-.1-.4-.2-.6-.2s-.4,0-.6.2c-.2.1-.3.3-.5.5-.1.2-.2.4-.2.7s0,.5.2.7c.1.2.3.4.5.5.2.1.4.2.6.2s.4,0,.6-.2Z"/>
          </g>
          <g class="st7">
            <path class="st10" d="M74.4,530c-.4-.2-.7-.5-.9-.9-.2-.4-.3-.8-.3-1.2s.1-.9.3-1.2c.2-.4.5-.7.9-.9s.8-.3,1.3-.3.9.1,1.3.3c.4.2.7.5.9.9s.3.8.3,1.2-.1.9-.3,1.2-.5.7-.9.9c-.4.2-.8.3-1.3.3s-.9-.1-1.3-.3ZM76.3,529.1c.2-.1.3-.3.5-.5.1-.2.2-.4.2-.7s0-.5-.2-.7c-.1-.2-.3-.4-.5-.5-.2-.1-.4-.2-.6-.2s-.4,0-.6.2c-.2.1-.3.3-.5.5-.1.2-.2.4-.2.7s0,.5.2.7c.1.2.3.4.5.5.2.1.4.2.6.2s.4,0,.6-.2Z"/>
          </g>
          <g class="st7">
            <path class="st10" d="M79,523.7h1.2v6.4h-1.2v-6.4Z"/>
          </g>
          <g class="st7">
            <path class="st10" d="M81.4,524.8c-.2-.1-.2-.3-.2-.5s0-.4.2-.5c.2-.1.3-.2.5-.2s.4,0,.5.2.2.3.2.5,0,.4-.2.5c-.1.2-.3.2-.5.2s-.4,0-.5-.2ZM81.4,525.6h1.2v4.6h-1.2v-4.6Z"/>
          </g>
          <g class="st7">
            <path class="st10" d="M84.7,530c-.4-.2-.7-.5-.9-.9-.2-.4-.3-.8-.3-1.3s.1-.9.3-1.3c.2-.4.5-.7.9-.9.4-.2.8-.3,1.2-.3s.9.1,1.3.3c.4.2.6.5.8.9l-1.1.4c-.2-.4-.5-.6-1-.6s-.7.1-.9.4-.3.6-.3,1,.1.7.3,1c.2.2.5.4.9.4s.9-.2,1.1-.6l1.1.5c-.2.4-.5.7-.8.9-.4.2-.8.3-1.3.3s-.9-.1-1.2-.3Z"/>
          </g>
          <g class="st7">
            <path class="st10" d="M89,524.8c-.2-.1-.2-.3-.2-.5s0-.4.2-.5c.1-.1.3-.2.5-.2s.4,0,.5.2c.1.1.2.3.2.5s0,.4-.2.5c-.1.2-.3.2-.5.2s-.4,0-.5-.2ZM89,525.6h1.2v4.6h-1.2v-4.6Z"/>
          </g>
          <g class="st7">
            <path class="st10" d="M92.2,530c-.4-.2-.7-.5-.9-.9-.2-.4-.3-.8-.3-1.2s.1-.8.3-1.2.5-.7.8-.9c.4-.2.8-.3,1.2-.3s.9.1,1.2.3c.3.2.6.5.8.8s.3.7.3,1.2,0,.3,0,.4h-3.4c0,.4.2.6.4.8.2.2.5.3.8.3s.5,0,.7-.2c.2-.1.3-.3.5-.5l1,.5c-.5.8-1.2,1.2-2.1,1.2s-.9-.1-1.2-.3ZM94.6,527.3c0-.1,0-.3-.2-.4,0-.1-.2-.3-.4-.4-.2,0-.4-.1-.6-.1s-.5,0-.7.2c-.2.2-.3.4-.4.7h2.3Z"/>
          </g>
          <g class="st7">
            <path class="st10" d="M97,530c-.3-.2-.6-.5-.7-.9l1.1-.5c0,.2.2.4.4.5.2.1.4.2.6.2s.4,0,.5-.1c.1,0,.2-.2.2-.3s0-.3-.2-.3c-.1,0-.3-.1-.6-.2h-.5c-.4-.2-.7-.4-.9-.6s-.4-.5-.4-.9,0-.5.2-.7c.2-.2.4-.4.6-.5.3-.1.6-.2.9-.2.9,0,1.6.3,1.9,1l-1,.4c-.2-.3-.5-.5-.9-.5s-.4,0-.5.1c-.1,0-.2.2-.2.3,0,.2.2.4.6.5l.7.2c.5.1.8.3,1,.5.2.2.3.5.3.9s0,.6-.3.8c-.2.2-.4.4-.7.5s-.6.2-1,.2c-.6,0-1-.1-1.4-.3Z"/>
          </g>
        </g>
      </g>
    </g>
  </g>
  <g class="st7">
    <g class="st7">
      <g class="st7">
        <g class="st7">
          <g class="st7">
            <path class="st9" d="M177.7,438.2c-.5-.3-.9-.7-1.2-1.2-.3-.5-.4-1.1-.4-1.7s.1-1.2.4-1.7.7-.9,1.2-1.2c.5-.3,1.1-.4,1.7-.4s.9,0,1.3.3.7.4,1,.8l-.5.5c-.2-.3-.5-.5-.8-.6-.3-.1-.6-.2-1-.2s-.9.1-1.3.3-.7.5-.9.9-.3.9-.3,1.4.1,1,.3,1.4c.2.4.5.7.9.9.4.2.8.3,1.3.3.8,0,1.4-.3,2-1l.6.5c-.3.4-.7.6-1.1.8-.4.2-.9.3-1.4.3s-1.2-.1-1.7-.4Z"/>
          </g>
          <g class="st7">
            <path class="st9" d="M183.6,438.3c-.4-.2-.6-.5-.8-.9s-.3-.8-.3-1.2.1-.9.3-1.2.5-.7.8-.9c.4-.2.8-.3,1.2-.3s.9.1,1.2.3.6.5.8.9c.2.4.3.8.3,1.2s-.1.9-.3,1.2c-.2.4-.5.7-.8.9-.4.2-.8.3-1.2.3s-.9-.1-1.2-.3ZM185.6,437.7c.2-.1.4-.3.6-.6.1-.3.2-.6.2-.9s0-.7-.2-.9c-.1-.3-.3-.5-.6-.6-.2-.1-.5-.2-.8-.2s-.5,0-.8.2c-.2.1-.4.3-.6.6-.1.3-.2.6-.2.9s0,.7.2.9c.1.3.3.5.6.6.2.1.5.2.8.2s.5,0,.8-.2Z"/>
          </g>
          <g class="st7">
            <path class="st9" d="M188,433.9h.7v.7h0c.1-.2.3-.4.6-.6.3-.2.6-.2.9-.2.6,0,1,.2,1.3.5.3.3.4.8.4,1.3v2.9h-.8v-2.8c0-.4-.1-.7-.3-.9-.2-.2-.5-.3-.8-.3s-.5,0-.7.2c-.2.1-.3.3-.5.5-.1.2-.2.5-.2.7v2.6h-.8v-4.6Z"/>
          </g>
          <g class="st7">
            <path class="st9" d="M194.1,438.5c-.2,0-.3-.1-.4-.2-.1-.1-.2-.2-.3-.4,0-.2,0-.3,0-.6v-2.7h-.8v-.7h.8v-1.3h.8v1.3h1.1v.7h-1.1v2.6c0,.3,0,.4.1.6.1.1.3.2.5.2s.3,0,.5-.2v.7c0,0-.2,0-.3,0,0,0-.2,0-.4,0s-.4,0-.5,0Z"/>
          </g>
          <g class="st7">
            <path class="st9" d="M196.8,438.3c-.3-.2-.6-.5-.8-.9-.2-.4-.3-.8-.3-1.2s0-.9.3-1.2c.2-.4.4-.7.8-.9.3-.2.7-.3,1.2-.3s.8.1,1.2.3.6.5.8.8.3.8.3,1.2,0,.2,0,.2h-3.6c0,.3.1.6.3.9.1.2.3.4.6.5.2.1.5.2.7.2.6,0,1-.3,1.4-.8l.6.3c-.2.4-.5.7-.8.9-.3.2-.7.3-1.2.3s-.8-.1-1.2-.3ZM199.3,435.7c0-.2,0-.4-.2-.6,0-.2-.2-.4-.5-.5s-.5-.2-.8-.2-.7.1-.9.3c-.2.2-.4.5-.5.9h2.8Z"/>
          </g>
          <g class="st7">
            <path class="st9" d="M202,436.1l-1.6-2.3h.9l1.2,1.7,1.1-1.7h.9l-1.6,2.3,1.6,2.3h-.9l-1.2-1.8-1.2,1.8h-.9l1.6-2.3Z"/>
            <path class="st9" d="M206.5,438.5c-.2,0-.3-.1-.4-.2-.1-.1-.2-.2-.3-.4,0-.2,0-.3,0-.6v-2.7h-.8v-.7h.8v-1.3h.8v1.3h1.1v.7h-1.1v2.6c0,.3,0,.4.1.6.1.1.3.2.5.2s.3,0,.5-.2v.7c0,0-.2,0-.3,0,0,0-.2,0-.4,0s-.4,0-.5,0Z"/>
            <path class="st9" d="M208.5,435.4h2.9v.6h-2.9v-.6Z"/>
            <path class="st9" d="M212.5,433.9h.7v.7h0c0-.3.3-.5.5-.6.3-.2.5-.3.8-.3s.4,0,.5,0v.8c-.2,0-.4-.1-.6-.1s-.4,0-.6.2-.3.3-.4.5c-.1.2-.2.4-.2.7v2.6h-.8v-4.6Z"/>
          </g>
          <g class="st7">
            <path class="st9" d="M216,432.9c-.1-.1-.2-.2-.2-.4s0-.3.2-.4c.1-.1.2-.2.4-.2s.3,0,.4.2c.1.1.2.2.2.4s0,.3-.2.4c-.1.1-.2.2-.4.2s-.3,0-.4-.2ZM216,433.9h.8v4.6h-.8v-4.6Z"/>
          </g>
          <g class="st7">
            <path class="st9" d="M218.8,438.3c-.4-.2-.6-.5-.8-.9-.2-.4-.3-.8-.3-1.2s0-.9.3-1.3c.2-.4.5-.7.8-.9.4-.2.8-.3,1.2-.3s.9.1,1.3.3c.3.2.6.5.7.9l-.7.3c-.1-.3-.3-.5-.5-.6-.2-.1-.5-.2-.8-.2s-.5,0-.8.2c-.2.1-.4.4-.6.6-.1.3-.2.6-.2.9s0,.6.2.9c.1.3.3.5.6.6.2.1.5.2.8.2s.6,0,.8-.2c.2-.1.4-.4.5-.6l.7.3c-.2.4-.4.7-.8.9-.3.2-.8.4-1.3.4s-.8-.1-1.2-.3Z"/>
            <path class="st9" d="M222.8,432h.8v2.5s0,0,0,0c.1-.2.3-.4.6-.6.3-.2.6-.2.9-.2.6,0,1,.2,1.3.5s.4.8.4,1.3v2.9h-.8v-2.8c0-.4-.1-.7-.3-.9s-.5-.3-.8-.3-.5,0-.7.2c-.2.1-.4.3-.5.6-.1.2-.2.5-.2.7v2.6h-.8v-6.4Z"/>
          </g>
          <g class="st7">
            <path class="st9" d="M229.9,433.9h.7v.7h0c.1-.2.3-.4.6-.6.3-.2.6-.2.9-.2s.8.1,1.1.3.6.5.8.9.3.8.3,1.3,0,.9-.3,1.3c-.2.4-.5.7-.8.9s-.7.3-1.1.3-.7,0-.9-.2c-.3-.2-.5-.4-.6-.6h0v.6s0,2,0,2h-.8v-6.5ZM232.9,437.7c.2-.1.4-.3.6-.6.1-.3.2-.6.2-.9s0-.6-.2-.9c-.1-.3-.3-.5-.6-.6-.2-.1-.5-.2-.7-.2s-.5,0-.7.2c-.2.1-.4.3-.6.6-.1.3-.2.6-.2.9s0,.7.2.9c.1.3.3.5.6.6.2.1.5.2.7.2s.5,0,.7-.2Z"/>
          </g>
          <g class="st7">
            <path class="st9" d="M235.3,433.9h.7v.7h0c0-.3.3-.5.5-.6.3-.2.5-.3.8-.3s.4,0,.5,0v.8c-.2,0-.4-.1-.6-.1s-.4,0-.6.2-.3.3-.4.5c-.1.2-.2.4-.2.7v2.6h-.8v-4.6Z"/>
          </g>
          <g class="st7">
            <path class="st9" d="M239.3,438.3c-.4-.2-.6-.5-.8-.9s-.3-.8-.3-1.2.1-.9.3-1.2.5-.7.8-.9c.4-.2.8-.3,1.2-.3s.9.1,1.2.3.6.5.8.9c.2.4.3.8.3,1.2s-.1.9-.3,1.2c-.2.4-.5.7-.8.9-.4.2-.8.3-1.2.3s-.9-.1-1.2-.3ZM241.3,437.7c.2-.1.4-.3.6-.6.1-.3.2-.6.2-.9s0-.7-.2-.9c-.1-.3-.3-.5-.6-.6-.2-.1-.5-.2-.8-.2s-.5,0-.8.2c-.2.1-.4.3-.6.6-.1.3-.2.6-.2.9s0,.7.2.9c.1.3.3.5.6.6.2.1.5.2.8.2s.5,0,.8-.2Z"/>
          </g>
          <g class="st7">
            <path class="st9" d="M243.7,433.9h.7v.7h0c.1-.2.3-.4.6-.6.3-.2.5-.2.8-.2s.6,0,.9.2.4.4.5.6c.2-.3.4-.5.6-.6s.6-.2.9-.2c.5,0,.9.2,1.2.5.3.3.4.8.4,1.3v2.9h-.8v-2.8c0-.4,0-.7-.3-.9-.2-.2-.4-.3-.8-.3s-.4,0-.6.2c-.2.1-.3.3-.4.5-.1.2-.2.5-.2.7v2.6h-.8v-2.8c0-.4,0-.7-.3-.9-.2-.2-.4-.3-.8-.3s-.4,0-.6.2c-.2.1-.3.3-.4.5-.1.2-.2.5-.2.7v2.6h-.8v-4.6Z"/>
          </g>
          <g class="st7">
            <path class="st9" d="M251.5,433.9h.7v.7h0c.1-.2.3-.4.6-.6.3-.2.6-.2.9-.2s.8.1,1.1.3.6.5.8.9c.2.4.3.8.3,1.3s0,.9-.3,1.3c-.2.4-.5.7-.8.9s-.7.3-1.1.3-.7,0-.9-.2c-.3-.2-.5-.4-.6-.6h0v.6s0,2,0,2h-.8v-6.5ZM254.5,437.7c.2-.1.4-.3.6-.6.1-.3.2-.6.2-.9s0-.6-.2-.9c-.1-.3-.3-.5-.6-.6-.2-.1-.5-.2-.7-.2s-.5,0-.7.2c-.2.1-.4.3-.6.6s-.2.6-.2.9,0,.7.2.9.3.5.6.6c.2.1.5.2.7.2s.5,0,.7-.2Z"/>
          </g>
          <g class="st7">
            <path class="st9" d="M258,438.5c-.2,0-.3-.1-.4-.2-.1-.1-.2-.2-.3-.4,0-.2,0-.3,0-.6v-2.7h-.8v-.7h.8v-1.3h.8v1.3h1.1v.7h-1.1v2.6c0,.3,0,.4.1.6.1.1.3.2.5.2s.3,0,.5-.2v.7c0,0-.2,0-.3,0,0,0-.2,0-.4,0s-.4,0-.5,0Z"/>
          </g>
        </g>
      </g>
    </g>
  </g>
  <rect class="st5" x="170.5" y="387.8" width="62.1" height="30.6" rx="2" ry="2"/>
  <g class="st7">
    <g class="st7">
      <g class="st7">
        <g class="st7">
          <g class="st7">
            <path class="st10" d="M193.4,405.5c-.4-.2-.7-.5-.9-.9s-.3-.9-.3-1.4v-3.9h1.2v4c0,.4.1.8.3,1.1.2.3.5.4,1,.4s.7-.1,1-.4c.2-.3.3-.6.3-1.1v-4h1.2v3.9c0,.5-.1,1-.3,1.4-.2.4-.5.7-.9,1-.4.2-.8.3-1.3.3s-.9-.1-1.3-.3Z"/>
          </g>
          <g class="st7">
            <path class="st10" d="M198.8,405.5c-.3-.2-.6-.5-.7-.9l1.1-.5c0,.2.2.4.4.5.2.1.4.2.6.2s.4,0,.5-.1c.1,0,.2-.2.2-.3s0-.3-.2-.3c-.1,0-.3-.1-.6-.2h-.5c-.4-.2-.7-.4-.9-.6s-.4-.5-.4-.9,0-.5.2-.7c.2-.2.4-.4.6-.5.3-.1.6-.2.9-.2.9,0,1.6.3,1.9,1l-1,.4c-.2-.3-.5-.5-.9-.5s-.4,0-.5.1c-.1,0-.2.2-.2.3,0,.2.2.4.6.5l.7.2c.5.1.8.3,1,.5.2.2.3.5.3.9s0,.6-.3.8c-.2.2-.4.4-.7.5s-.6.2-1,.2c-.6,0-1-.1-1.4-.3Z"/>
          </g>
          <g class="st7">
            <path class="st10" d="M203.9,405.5c-.4-.2-.7-.5-.9-.9-.2-.4-.3-.8-.3-1.2s.1-.8.3-1.2.5-.7.8-.9c.4-.2.8-.3,1.2-.3s.9.1,1.2.3c.3.2.6.5.8.8s.3.7.3,1.2,0,.3,0,.4h-3.4c0,.4.2.6.4.8.2.2.5.3.8.3s.5,0,.7-.2c.2-.1.3-.3.5-.5l1,.5c-.5.8-1.2,1.2-2.1,1.2s-.9-.1-1.2-.3ZM206.2,402.9c0-.1,0-.3-.2-.4,0-.1-.2-.3-.4-.4-.2,0-.4-.1-.6-.1s-.5,0-.7.2c-.2.2-.3.4-.4.7h2.3Z"/>
            <path class="st10" d="M208.3,401.1h1.1v.6h0c.1-.2.3-.4.5-.5.2-.1.5-.2.8-.2s.4,0,.6.1v1.2c-.2,0-.3-.1-.4-.1-.1,0-.2,0-.4,0-.3,0-.6.1-.8.4s-.3.6-.3,1v2.3h-1.2v-4.6Z"/>
          </g>
        </g>
      </g>
    </g>
  </g>
  <polyline class="st2" points="156.5 433.3 159 435.8 156.5 438.2"/>
  <polyline class="st2" points="225.8 147.7 228.3 150.2 225.8 152.7"/>
  <line class="st1" x1="333.6" y1="150.2" x2="443.5" y2="150.2"/>
  <polyline class="st2" points="441 147.7 443.5 150.2 441 152.7"/>
  <line class="st1" x1="424.8" y1="435.8" x2="443.5" y2="435.8"/>
  <polyline class="st2" points="441 433.3 443.5 435.7 441 438.2"/>
  <polyline class="st2" points="155.2 445.5 158.7 445.5 158.7 449"/>
  <polyline class="st2" points="155.2 426 158.7 426 158.7 422.5"/>
  <polyline class="st2" points="155.5 413.3 158.8 414.4 159.9 411"/>
  <polyline class="st2" points="155.5 458.3 158.8 457.2 159.9 460.5"/>
  <rect class="st4" x="447.6" y="124.1" width="100.8" height="52.2" rx="3.3" ry="3.3"/>
  <g class="st7">
    <g class="st7">
      <g class="st7">
        <g class="st7">
          <g class="st7">
            <path class="st10" d="M466.9,143.5c-.5-.3-.9-.7-1.2-1.2-.3-.5-.5-1.1-.5-1.7s.2-1.2.5-1.7c.3-.5.7-.9,1.2-1.2.5-.3,1.1-.4,1.7-.4s1,0,1.4.3.8.4,1.1.8l-.8.8c-.2-.2-.5-.4-.7-.5-.3-.1-.6-.2-.9-.2s-.8,0-1.1.3c-.3.2-.6.4-.8.8-.2.3-.3.7-.3,1.2s0,.8.3,1.2.5.6.8.8c.3.2.7.3,1.1.3.6,0,1.1-.2,1.5-.5.1-.1.2-.2.3-.4,0-.2.2-.4.2-.5h-2v-1h3.2c0,.2,0,.4,0,.6,0,.4,0,.8-.2,1.2-.1.4-.3.7-.6,1-.3.3-.6.6-1,.7s-.9.2-1.4.2-1.2-.1-1.7-.4Z"/>
          </g>
          <g class="st7">
            <path class="st10" d="M473.7,143.6c-.4-.2-.7-.5-.9-.9-.2-.4-.3-.8-.3-1.2s.1-.8.3-1.2.5-.7.8-.9c.4-.2.8-.3,1.2-.3s.9.1,1.2.3.6.5.8.8c.2.4.3.7.3,1.2s0,.3,0,.4h-3.4c0,.4.2.6.4.8.2.2.5.3.8.3s.5,0,.7-.2c.2-.1.3-.3.5-.5l1,.5c-.5.8-1.2,1.2-2.1,1.2s-.9-.1-1.2-.3ZM476,140.9c0-.1,0-.3-.2-.4,0-.1-.2-.3-.4-.4-.2,0-.4-.1-.6-.1s-.5,0-.7.2-.3.4-.4.7h2.3Z"/>
            <path class="st10" d="M478.1,139.2h1.1v.6h0c.1-.2.3-.4.6-.5.3-.1.5-.2.8-.2.6,0,1,.2,1.3.5.3.3.4.8.4,1.4v2.9h-1.2v-2.7c0-.3,0-.5-.2-.7-.1-.2-.4-.2-.6-.2s-.6.1-.8.4c-.2.2-.3.6-.3.9v2.3h-1.2v-4.6Z"/>
            <path class="st10" d="M484.4,143.6c-.4-.2-.7-.5-.9-.9-.2-.4-.3-.8-.3-1.2s.1-.8.3-1.2.5-.7.8-.9c.4-.2.8-.3,1.2-.3s.9.1,1.2.3.6.5.8.8c.2.4.3.7.3,1.2s0,.3,0,.4h-3.4c0,.4.2.6.4.8.2.2.5.3.8.3s.5,0,.7-.2c.2-.1.3-.3.5-.5l1,.5c-.5.8-1.2,1.2-2.1,1.2s-.9-.1-1.2-.3ZM486.7,140.9c0-.1,0-.3-.2-.4,0-.1-.2-.3-.4-.4-.2,0-.4-.1-.6-.1s-.5,0-.7.2-.3.4-.4.7h2.3Z"/>
            <path class="st10" d="M488.8,139.2h1.1v.6h0c.1-.2.3-.4.5-.5.2-.1.5-.2.8-.2s.4,0,.6.1v1.2c-.2,0-.3-.1-.4-.1-.1,0-.2,0-.4,0-.3,0-.6.1-.8.4s-.3.6-.3,1v2.3h-1.2v-4.6Z"/>
          </g>
          <g class="st7">
            <path class="st10" d="M492.7,138.5c-.2-.1-.2-.3-.2-.5s0-.4.2-.5c.1-.1.3-.2.5-.2s.4,0,.5.2.2.3.2.5,0,.4-.2.5c-.1.2-.3.2-.5.2s-.4,0-.5-.2ZM492.7,139.2h1.2v4.6h-1.2v-4.6Z"/>
          </g>
          <g class="st7">
            <path class="st10" d="M496,143.6c-.4-.2-.7-.5-.9-.9-.2-.4-.3-.8-.3-1.3s.1-.9.3-1.3c.2-.4.5-.7.9-.9s.8-.3,1.2-.3.9.1,1.3.3c.4.2.6.5.8.9l-1.1.4c-.2-.4-.5-.6-1-.6s-.7.1-.9.4-.3.6-.3,1,.1.7.3,1c.2.2.5.4.9.4s.9-.2,1.1-.6l1.1.5c-.2.4-.5.7-.8.9-.4.2-.8.3-1.3.3s-.9-.1-1.2-.3Z"/>
          </g>
          <g class="st7">
            <path class="st10" d="M503.2,143.6c-.4-.2-.7-.5-.9-.9s-.3-.8-.3-1.2.1-.9.3-1.2.5-.7.9-.9.8-.3,1.3-.3.9.1,1.3.3.7.5.9.9.3.8.3,1.2-.1.9-.3,1.2-.5.7-.9.9-.8.3-1.3.3-.9-.1-1.3-.3ZM505.1,142.7c.2-.1.3-.3.5-.5s.2-.4.2-.7,0-.5-.2-.7-.3-.4-.5-.5c-.2-.1-.4-.2-.6-.2s-.4,0-.6.2c-.2.1-.3.3-.5.5s-.2.4-.2.7,0,.5.2.7.3.4.5.5c.2.1.4.2.6.2s.4,0,.6-.2Z"/>
          </g>
          <g class="st7">
            <path class="st10" d="M508.2,143.4c-.3-.3-.4-.8-.4-1.4v-2.8h1.2v2.6c0,.3,0,.6.2.7.1.2.3.3.6.3s.6-.1.8-.4c.2-.2.3-.6.3-.9v-2.3h1.2v4.6h-1.1v-.6h0c-.1.2-.3.4-.6.5-.2.1-.5.2-.8.2-.6,0-1-.2-1.3-.5Z"/>
            <path class="st10" d="M514.6,143.8c-.2,0-.3-.2-.5-.3-.3-.3-.4-.7-.4-1.2v-2.2h-.8v-1h.8v-1.3h1.2v1.3h1.1v1h-1.1v2c0,.2,0,.4.2.5,0,0,.2.1.4.1s.2,0,.3,0c0,0,.2,0,.3-.2v1.2c-.3.1-.5.2-.8.2s-.4,0-.6-.1Z"/>
          </g>
          <g class="st7">
            <path class="st10" d="M517,139.2h1.1v.6h0c.1-.2.3-.4.5-.5s.5-.2.8-.2.8.1,1.1.3c.3.2.6.5.8.9.2.4.3.8.3,1.3s0,.9-.3,1.3c-.2.4-.5.7-.8.9-.3.2-.7.3-1.1.3s-.6,0-.8-.2c-.2-.1-.4-.3-.5-.5h0v.6c0,0,0,1.8,0,1.8h-1.2v-6.5ZM520,142.7c.2-.1.3-.3.5-.5s.2-.4.2-.7,0-.5-.2-.7-.3-.4-.5-.5c-.2-.1-.4-.2-.6-.2s-.4,0-.6.2c-.2.1-.3.3-.5.5-.1.2-.2.4-.2.7s0,.5.2.7c.1.2.3.4.5.5.2.1.4.2.6.2s.4,0,.6-.2Z"/>
          </g>
          <g class="st7">
            <path class="st10" d="M523,143.4c-.3-.3-.4-.8-.4-1.4v-2.8h1.2v2.6c0,.3,0,.6.2.7.1.2.3.3.6.3s.6-.1.8-.4c.2-.2.3-.6.3-.9v-2.3h1.2v4.6h-1.1v-.6h0c-.1.2-.3.4-.6.5s-.5.2-.8.2c-.6,0-1-.2-1.3-.5Z"/>
          </g>
          <g class="st7">
            <path class="st10" d="M529.4,143.8c-.2,0-.3-.2-.5-.3-.3-.3-.4-.7-.4-1.2v-2.2h-.8v-1h.8v-1.3h1.2v1.3h1.1v1h-1.1v2c0,.2,0,.4.2.5,0,0,.2.1.4.1s.2,0,.3,0c0,0,.2,0,.3-.2v1.2c-.3.1-.5.2-.8.2s-.4,0-.6-.1Z"/>
          </g>
          <g class="st7">
            <path class="st10" d="M458.6,149.2h2.9v.6h-2.3v1.7h2.1v.6h-2.1v1.7h2.3v.6h-2.9v-5Z"/>
            <path class="st10" d="M463.1,152.4l-1.2-1.8h.7l.9,1.3.9-1.3h.7l-1.2,1.8,1.3,1.8h-.7l-.9-1.4-.9,1.4h-.7l1.3-1.8Z"/>
          </g>
          <g class="st7">
            <path class="st10" d="M466.1,154.1c-.2-.1-.4-.2-.5-.4s-.2-.4-.2-.6c0-.4.1-.7.4-.9.3-.2.6-.3,1.1-.3s.4,0,.6,0,.3.1.4.2v-.2c0-.3,0-.5-.3-.6s-.4-.2-.7-.2-.4,0-.6.1-.3.2-.4.4l-.4-.3c.1-.2.3-.4.6-.5s.5-.2.8-.2c.5,0,.9.1,1.1.4.3.3.4.6.4,1v2.3h-.6v-.5h0c-.1.2-.3.3-.5.4-.2.1-.4.2-.7.2s-.5,0-.7-.2ZM467.4,153.6c.2-.1.3-.2.4-.4.1-.2.2-.4.2-.6-.1,0-.2-.1-.4-.2-.2,0-.3,0-.5,0-.3,0-.6,0-.7.2-.2.1-.2.3-.2.5s0,.4.2.5.3.2.6.2.4,0,.6-.2Z"/>
            <path class="st10" d="M469.3,150.6h.6v.5h0c.1-.2.3-.3.5-.5s.4-.2.7-.2.5,0,.7.2c.2.1.3.3.4.5.1-.2.3-.4.5-.5.2-.1.4-.2.7-.2.4,0,.7.1.9.4.2.2.3.6.3,1v2.3h-.6v-2.2c0-.3,0-.6-.2-.7-.1-.1-.3-.2-.6-.2s-.3,0-.5.2-.3.2-.3.4c0,.2-.1.4-.1.6v2h-.6v-2.2c0-.3,0-.6-.2-.7s-.3-.2-.6-.2-.3,0-.5.2c-.1.1-.3.2-.3.4,0,.2-.1.4-.1.6v2h-.6v-3.6Z"/>
          </g>
          <g class="st7">
            <path class="st10" d="M475.4,150.6h.6v.5h0c.1-.2.3-.3.5-.5.2-.1.5-.2.7-.2s.6,0,.9.2c.3.2.5.4.6.7.1.3.2.6.2,1s0,.7-.2,1c-.2.3-.4.5-.6.7-.3.2-.6.2-.9.2s-.5,0-.7-.2c-.2-.1-.4-.3-.5-.5h0v.5s0,1.5,0,1.5h-.6v-5.1ZM477.8,153.6c.2-.1.3-.3.4-.5.1-.2.2-.4.2-.7s0-.5-.2-.7c-.1-.2-.3-.4-.4-.5-.2-.1-.4-.2-.6-.2s-.4,0-.6.2c-.2.1-.3.3-.4.5s-.2.4-.2.7,0,.5.2.7c.1.2.3.4.4.5.2.1.4.2.6.2s.4,0,.6-.2Z"/>
          </g>
          <g class="st7">
            <path class="st10" d="M479.6,149.2h.6v5h-.6v-5Z"/>
          </g>
          <g class="st7">
            <path class="st10" d="M481.7,154c-.3-.2-.5-.4-.6-.7-.2-.3-.2-.6-.2-1s0-.7.2-1c.1-.3.3-.5.6-.7.3-.2.6-.3.9-.3s.7,0,.9.2.5.4.6.6.2.6.2.9,0,.1,0,.2h-2.8c0,.3,0,.5.2.7.1.2.3.3.4.4.2,0,.4.1.6.1.5,0,.8-.2,1.1-.6l.5.2c-.2.3-.4.5-.6.7s-.6.3-1,.3-.6,0-.9-.2ZM483.6,152c0-.1,0-.3-.1-.4,0-.1-.2-.3-.4-.4s-.4-.2-.6-.2-.5,0-.7.3c-.2.2-.3.4-.4.7h2.2Z"/>
          </g>
          <g class="st7">
            <path class="st10" d="M487.3,154c-.3-.2-.5-.4-.6-.7-.2-.3-.2-.6-.2-1s0-.7.2-1c.2-.3.4-.5.6-.7.3-.2.6-.2.9-.2s.7,0,1,.3.5.4.6.7l-.5.2c0-.2-.2-.4-.4-.5s-.4-.2-.6-.2-.4,0-.6.2c-.2.1-.3.3-.4.5-.1.2-.2.4-.2.7s0,.5.2.7c.1.2.3.4.4.5.2.1.4.2.6.2s.5,0,.7-.2c.2-.1.3-.3.4-.5l.5.2c-.1.3-.3.5-.6.7-.3.2-.6.3-1,.3s-.7,0-.9-.2Z"/>
          </g>
          <g class="st7">
            <path class="st10" d="M491.1,154c-.3-.2-.5-.4-.7-.7-.2-.3-.2-.6-.2-1s0-.7.2-1,.4-.5.7-.7c.3-.2.6-.3.9-.3s.7,0,.9.3.5.4.7.7.2.6.2,1,0,.7-.2,1c-.2.3-.4.5-.7.7s-.6.3-.9.3-.7,0-.9-.3ZM492.6,153.6c.2-.1.3-.3.5-.5.1-.2.2-.4.2-.7s0-.5-.2-.7-.3-.4-.5-.5c-.2-.1-.4-.2-.6-.2s-.4,0-.6.2c-.2.1-.3.3-.5.5s-.2.4-.2.7,0,.5.2.7c.1.2.3.4.5.5.2.1.4.2.6.2s.4,0,.6-.2Z"/>
          </g>
          <g class="st7">
            <path class="st10" d="M495.2,154c-.3-.2-.5-.4-.6-.7s-.2-.6-.2-1,0-.7.2-1,.4-.5.6-.7c.3-.2.5-.2.9-.2s.5,0,.7.2c.2.1.4.3.5.5h0v-.5s0-1.5,0-1.5h.6v5h-.6v-.5h0c-.1.2-.3.3-.5.5-.2.1-.5.2-.7.2s-.6,0-.9-.2ZM496.7,153.6c.2-.1.3-.3.4-.5.1-.2.2-.4.2-.7s0-.5-.2-.7-.3-.4-.4-.5c-.2-.1-.4-.2-.6-.2s-.4,0-.6.2c-.2.1-.3.3-.4.5-.1.2-.2.4-.2.7s0,.5.2.7c.1.2.3.4.4.5.2.1.4.2.6.2s.4,0,.6-.2Z"/>
          </g>
          <g class="st7">
            <path class="st10" d="M499.4,154c-.3-.2-.5-.4-.6-.7-.2-.3-.2-.6-.2-1s0-.7.2-1c.1-.3.3-.5.6-.7s.6-.3.9-.3.7,0,.9.2c.3.2.5.4.6.6s.2.6.2.9,0,.1,0,.2h-2.8c0,.3,0,.5.2.7s.3.3.4.4c.2,0,.4.1.6.1.5,0,.8-.2,1.1-.6l.5.2c-.2.3-.4.5-.6.7s-.6.3-1,.3-.6,0-.9-.2ZM501.3,152c0-.1,0-.3-.1-.4,0-.1-.2-.3-.4-.4-.2-.1-.4-.2-.6-.2s-.5,0-.7.3c-.2.2-.3.4-.4.7h2.2Z"/>
            <path class="st10" d="M505.4,154.1c-.2-.1-.4-.3-.5-.5h0v.5h-.6v-5h.6v2s0,0,0,0c.1-.2.3-.3.5-.5.2-.1.5-.2.7-.2s.6,0,.9.2c.3.2.5.4.6.7s.2.6.2,1,0,.7-.2,1-.4.5-.6.7-.6.2-.9.2-.5,0-.7-.2ZM506.6,153.6c.2-.1.3-.3.4-.5.1-.2.2-.4.2-.7s0-.5-.2-.7c-.1-.2-.3-.4-.4-.5-.2-.1-.4-.2-.6-.2s-.4,0-.6.2c-.2.1-.3.3-.4.5s-.2.4-.2.7,0,.5.2.7c.1.2.3.4.4.5.2.1.4.2.6.2s.4,0,.6-.2Z"/>
          </g>
          <g class="st7">
            <path class="st10" d="M508.9,154.1c-.2-.1-.4-.2-.5-.4s-.2-.4-.2-.6c0-.4.1-.7.4-.9.3-.2.6-.3,1.1-.3s.4,0,.6,0,.3.1.4.2v-.2c0-.3,0-.5-.3-.6s-.4-.2-.7-.2-.4,0-.6.1-.3.2-.4.4l-.4-.3c.1-.2.3-.4.6-.5s.5-.2.8-.2c.5,0,.9.1,1.1.4.3.3.4.6.4,1v2.3h-.6v-.5h0c-.1.2-.3.3-.5.4-.2.1-.4.2-.7.2s-.5,0-.7-.2ZM510.3,153.6c.2-.1.3-.2.4-.4.1-.2.2-.4.2-.6-.1,0-.2-.1-.4-.2-.2,0-.3,0-.5,0-.3,0-.6,0-.7.2-.2.1-.2.3-.2.5s0,.4.2.5.3.2.6.2.4,0,.6-.2Z"/>
          </g>
          <g class="st7">
            <path class="st10" d="M512.5,154c-.3-.2-.4-.4-.5-.7l.5-.2c0,.2.2.4.4.5.2.1.4.2.6.2s.4,0,.6-.1c.2,0,.2-.2.2-.4s0-.3-.2-.4c-.1,0-.3-.2-.6-.2h-.4c-.3-.2-.5-.3-.7-.5s-.3-.4-.3-.7,0-.4.2-.5c.1-.2.3-.3.5-.4.2,0,.4-.1.7-.1s.6,0,.8.2c.2.1.4.3.5.6l-.5.2c-.2-.3-.4-.5-.8-.5s-.4,0-.5.1c-.1,0-.2.2-.2.3s0,.2.2.3c.1,0,.3.1.5.2h.5c.4.2.6.4.8.5.2.2.3.4.3.6s0,.4-.2.6-.3.3-.5.4c-.2,0-.5.1-.7.1-.4,0-.7,0-1-.3Z"/>
            <path class="st10" d="M516.2,154c-.3-.2-.5-.4-.6-.7s-.2-.6-.2-1,0-.7.2-1c.1-.3.3-.5.6-.7.3-.2.6-.3.9-.3s.7,0,.9.2c.3.2.5.4.6.6s.2.6.2.9,0,.1,0,.2h-2.8c0,.3,0,.5.2.7s.3.3.4.4c.2,0,.4.1.6.1.5,0,.8-.2,1.1-.6l.5.2c-.2.3-.4.5-.6.7s-.6.3-1,.3-.6,0-.9-.2ZM518.2,152c0-.1,0-.3-.1-.4,0-.1-.2-.3-.4-.4-.2-.1-.4-.2-.6-.2s-.5,0-.7.3-.3.4-.4.7h2.2Z"/>
          </g>
          <g class="st7">
            <path class="st10" d="M520.2,154c-.3-.2-.5-.4-.6-.7s-.2-.6-.2-1,0-.7.2-1,.4-.5.6-.7c.3-.2.5-.2.9-.2s.5,0,.7.2c.2.1.4.3.5.5h0v-.5s0-1.5,0-1.5h.6v5h-.6v-.5h0c-.1.2-.3.3-.5.5-.2.1-.5.2-.7.2s-.6,0-.9-.2ZM521.7,153.6c.2-.1.3-.3.4-.5.1-.2.2-.4.2-.7s0-.5-.2-.7-.3-.4-.4-.5c-.2-.1-.4-.2-.6-.2s-.4,0-.6.2c-.2.1-.3.3-.4.5-.1.2-.2.4-.2.7s0,.5.2.7c.1.2.3.4.4.5.2.1.4.2.6.2s.4,0,.6-.2Z"/>
          </g>
          <g class="st7">
            <path class="st10" d="M526.1,154c-.3-.2-.5-.4-.7-.7-.2-.3-.2-.6-.2-1s0-.7.2-1,.4-.5.7-.7.6-.3.9-.3.7,0,.9.3c.3.2.5.4.7.7s.2.6.2,1,0,.7-.2,1c-.2.3-.4.5-.7.7-.3.2-.6.3-.9.3s-.7,0-.9-.3ZM527.6,153.6c.2-.1.3-.3.5-.5.1-.2.2-.4.2-.7s0-.5-.2-.7-.3-.4-.5-.5-.4-.2-.6-.2-.4,0-.6.2-.3.3-.5.5c-.1.2-.2.4-.2.7s0,.5.2.7c.1.2.3.4.5.5.2.1.4.2.6.2s.4,0,.6-.2Z"/>
          </g>
          <g class="st7">
            <path class="st10" d="M529.5,150.6h.6v.5h0c0-.2.3-.3.5-.5.2-.1.4-.2.7-.2.4,0,.8.1,1,.4.2.2.3.6.3,1v2.3h-.6v-2.2c0-.3,0-.6-.2-.7-.2-.1-.4-.2-.7-.2s-.4,0-.5.2c-.2.1-.3.2-.4.4s-.1.4-.1.5v2h-.6v-3.6Z"/>
            <path class="st10" d="M533.4,149.2h.6v5h-.6v-5Z"/>
            <path class="st10" d="M535.9,154l-1.5-3.3h.6l1.1,2.7h0l1.1-2.7h.6l-2.2,5.1h-.6l.8-1.7Z"/>
          </g>
          <g class="st7">
            <path class="st10" d="M482.7,162.4c-.3-.2-.5-.4-.7-.7-.2-.3-.2-.6-.2-1s0-.7.2-1,.4-.5.7-.7c.3-.2.6-.3.9-.3s.7,0,.9.3.5.4.7.7.2.6.2,1,0,.7-.2,1c-.2.3-.4.5-.7.7s-.6.3-.9.3-.7,0-.9-.3ZM484.2,162c.2-.1.3-.3.5-.5.1-.2.2-.4.2-.7s0-.5-.2-.7-.3-.4-.5-.5c-.2-.1-.4-.2-.6-.2s-.4,0-.6.2c-.2.1-.3.3-.5.5s-.2.4-.2.7,0,.5.2.7c.1.2.3.4.5.5.2.1.4.2.6.2s.4,0,.6-.2Z"/>
          </g>
          <g class="st7">
            <path class="st10" d="M486.1,159h.6v.5h0c0-.2.3-.3.5-.5.2-.1.4-.2.7-.2.4,0,.8.1,1,.4.2.2.3.6.3,1v2.3h-.6v-2.2c0-.3,0-.6-.2-.7s-.4-.2-.7-.2-.4,0-.5.2c-.2.1-.3.2-.4.4s-.1.4-.1.5v2h-.6v-3.6Z"/>
          </g>
          <g class="st7">
            <path class="st10" d="M491.6,159h.6v.5h0c.1-.2.3-.3.5-.5.2-.1.5-.2.7-.2s.6,0,.9.2c.3.2.5.4.6.7s.2.6.2,1,0,.7-.2,1-.4.5-.6.7-.6.2-.9.2-.5,0-.7-.2c-.2-.1-.4-.3-.5-.5h0v.5s0,1.5,0,1.5h-.6v-5.1ZM493.9,162c.2-.1.3-.3.4-.5.1-.2.2-.4.2-.7s0-.5-.2-.7c-.1-.2-.3-.4-.4-.5-.2-.1-.4-.2-.6-.2s-.4,0-.6.2c-.2.1-.3.3-.4.5s-.2.4-.2.7,0,.5.2.7c.1.2.3.4.4.5.2.1.4.2.6.2s.4,0,.6-.2Z"/>
          </g>
          <g class="st7">
            <path class="st10" d="M495.8,159h.6v.6h0c0-.2.2-.4.4-.5.2-.1.4-.2.6-.2s.3,0,.4,0v.6c-.1,0-.3-.1-.5-.1s-.3,0-.5.1-.3.2-.3.4c0,.2-.1.3-.1.5v2h-.6v-3.6Z"/>
          </g>
          <g class="st7">
            <path class="st10" d="M498.9,162.4c-.3-.2-.5-.4-.7-.7-.2-.3-.2-.6-.2-1s0-.7.2-1,.4-.5.7-.7c.3-.2.6-.3.9-.3s.7,0,.9.3.5.4.7.7.2.6.2,1,0,.7-.2,1c-.2.3-.4.5-.7.7s-.6.3-.9.3-.7,0-.9-.3ZM500.4,162c.2-.1.3-.3.5-.5.1-.2.2-.4.2-.7s0-.5-.2-.7c-.1-.2-.3-.4-.5-.5-.2-.1-.4-.2-.6-.2s-.4,0-.6.2c-.2.1-.3.3-.5.5-.1.2-.2.4-.2.7s0,.5.2.7c.1.2.3.4.5.5.2.1.4.2.6.2s.4,0,.6-.2Z"/>
          </g>
          <g class="st7">
            <path class="st10" d="M502.3,159h.6v.5h0c.1-.2.3-.3.5-.5.2-.1.4-.2.7-.2s.5,0,.7.2.3.3.4.5c.1-.2.3-.4.5-.5.2-.1.4-.2.7-.2.4,0,.7.1.9.4.2.2.3.6.3,1v2.3h-.6v-2.2c0-.3,0-.6-.2-.7-.1-.1-.3-.2-.6-.2s-.3,0-.5.2-.3.2-.3.4c0,.2-.1.4-.1.6v2h-.6v-2.2c0-.3,0-.6-.2-.7-.1-.1-.3-.2-.6-.2s-.3,0-.5.2c-.1.1-.3.2-.3.4s-.1.4-.1.6v2h-.6v-3.6Z"/>
          </g>
          <g class="st7">
            <path class="st10" d="M508.4,159h.6v.5h0c.1-.2.3-.3.5-.5.2-.1.5-.2.7-.2s.6,0,.9.2c.3.2.5.4.6.7s.2.6.2,1,0,.7-.2,1-.4.5-.6.7c-.3.2-.6.2-.9.2s-.5,0-.7-.2c-.2-.1-.4-.3-.5-.5h0v.5s0,1.5,0,1.5h-.6v-5.1ZM510.7,162c.2-.1.3-.3.4-.5.1-.2.2-.4.2-.7s0-.5-.2-.7c-.1-.2-.3-.4-.4-.5-.2-.1-.4-.2-.6-.2s-.4,0-.6.2c-.2.1-.3.3-.4.5s-.2.4-.2.7,0,.5.2.7c.1.2.3.4.4.5.2.1.4.2.6.2s.4,0,.6-.2Z"/>
          </g>
          <g class="st7">
            <path class="st10" d="M513.4,162.6c-.1,0-.2-.1-.3-.2,0,0-.2-.2-.2-.3,0-.1,0-.3,0-.4v-2.1h-.6v-.5h.6v-1h.6v1h.9v.5h-.9v2c0,.2,0,.3.1.4,0,.1.2.2.4.2s.3,0,.4-.1v.6c0,0-.1,0-.2,0,0,0-.2,0-.3,0s-.3,0-.4,0Z"/>
          </g>
        </g>
      </g>
    </g>
  </g>
  <rect class="st0" x="232.8" y="124.1" width="100.8" height="52.2" rx="3.3" ry="3.3"/>
  <g class="st7">
    <g class="st7">
      <g class="st7">
        <g class="st7">
          <g class="st7">
            <path class="st10" d="M266.6,146.3h1.4l2.4,6.4h-1.3l-.5-1.5h-2.5l-.5,1.5h-1.3l2.4-6.4ZM268.1,150.1l-.6-1.6-.2-.8h0l-.2.8-.6,1.6h1.7Z"/>
            <path class="st10" d="M271.3,146.3h1.2v6.4h-1.2v-6.4Z"/>
            <path class="st10" d="M275.9,148.2h1.1v.6h0c.1-.2.3-.4.6-.5.2-.1.5-.2.8-.2s.6,0,.8.2c.2.2.4.3.5.6.1-.2.4-.4.6-.6.3-.2.6-.2.9-.2.5,0,.9.2,1.2.5.3.3.4.8.4,1.3v3h-1.2v-2.7c0-.3,0-.5-.2-.7-.1-.2-.3-.2-.6-.2s-.6.1-.7.4-.3.6-.3,1v2.3h-1.2v-2.7c0-.3,0-.5-.2-.7-.1-.2-.3-.2-.6-.2s-.5.1-.7.4c-.2.2-.3.6-.3,1v2.3h-1.2v-4.6Z"/>
            <path class="st10" d="M285,152.6c-.4-.2-.7-.5-.9-.9-.2-.4-.3-.8-.3-1.2s.1-.9.3-1.2c.2-.4.5-.7.9-.9.4-.2.8-.3,1.3-.3s.9.1,1.3.3.7.5.9.9.3.8.3,1.2-.1.9-.3,1.2-.5.7-.9.9-.8.3-1.3.3-.9-.1-1.3-.3ZM286.9,151.7c.2-.1.3-.3.5-.5s.2-.4.2-.7,0-.5-.2-.7-.3-.4-.5-.5c-.2-.1-.4-.2-.6-.2s-.4,0-.6.2c-.2.1-.3.3-.5.5s-.2.4-.2.7,0,.5.2.7.3.4.5.5c.2.1.4.2.6.2s.4,0,.6-.2Z"/>
          </g>
          <g class="st7">
            <path class="st10" d="M290.5,152.6c-.3-.2-.6-.5-.8-.9-.2-.4-.3-.8-.3-1.3s0-.9.3-1.3c.2-.4.5-.7.8-.9s.7-.3,1.1-.3.6,0,.8.2c.2.1.4.3.5.5h0v-.6c0,0,0-1.8,0-1.8h1.2v6.4h-1.1v-.5h0c-.1.2-.3.4-.5.5-.2.1-.5.2-.8.2s-.8-.1-1.1-.3ZM292.4,151.7c.2-.1.3-.3.5-.5.1-.2.2-.4.2-.7s0-.5-.2-.7c-.1-.2-.3-.4-.5-.5-.2-.1-.4-.2-.6-.2s-.4,0-.6.2c-.2.1-.3.3-.5.5-.1.2-.2.4-.2.7s0,.5.2.7c.1.2.3.4.5.5.2.1.4.2.6.2s.4,0,.6-.2Z"/>
          </g>
          <g class="st7">
            <path class="st10" d="M296.2,152.6c-.4-.2-.7-.5-.9-.9-.2-.4-.3-.8-.3-1.2s.1-.8.3-1.2c.2-.4.5-.7.8-.9.4-.2.8-.3,1.2-.3s.9.1,1.2.3.6.5.8.8c.2.4.3.7.3,1.2s0,.3,0,.4h-3.4c0,.4.2.6.4.8.2.2.5.3.8.3s.5,0,.7-.2c.2-.1.3-.3.5-.5l1,.5c-.5.8-1.2,1.2-2.1,1.2s-.9-.1-1.2-.3ZM298.5,149.9c0-.1,0-.3-.2-.4,0-.1-.2-.3-.4-.4-.2,0-.4-.1-.6-.1s-.5,0-.7.2-.3.4-.4.7h2.3Z"/>
            <path class="st10" d="M300.5,146.3h1.2v6.4h-1.2v-6.4Z"/>
          </g>
        </g>
      </g>
    </g>
  </g>
  <rect class="st5" x="17.9" y="124.1" width="100.8" height="52.2" rx="3.3" ry="3.3"/>
  <g class="st7">
    <g class="st7">
      <g class="st7">
        <g class="st7">
          <g class="st7">
            <path class="st10" d="M60.1,152.6c-.4-.2-.7-.5-.9-.9s-.3-.9-.3-1.4v-3.9h1.2v4c0,.4.1.8.3,1.1.2.3.5.4,1,.4s.7-.1,1-.4c.2-.3.3-.6.3-1.1v-4h1.2v3.9c0,.5-.1,1-.3,1.4-.2.4-.5.7-.9,1-.4.2-.8.3-1.3.3s-.9-.1-1.3-.3Z"/>
          </g>
          <g class="st7">
            <path class="st10" d="M65.6,152.6c-.3-.2-.6-.5-.7-.9l1.1-.5c0,.2.2.4.4.5.2.1.4.2.6.2s.4,0,.5-.1c.1,0,.2-.2.2-.3s0-.3-.2-.3c-.1,0-.3-.1-.6-.2h-.5c-.4-.2-.7-.4-.9-.6s-.4-.5-.4-.9,0-.5.2-.7c.2-.2.4-.4.6-.5.3-.1.6-.2.9-.2.9,0,1.6.3,1.9,1l-1,.4c-.2-.3-.5-.5-.9-.5s-.4,0-.5.1c-.1,0-.2.2-.2.3,0,.2.2.4.6.5l.7.2c.5.1.8.3,1,.5.2.2.3.5.3.9s0,.6-.3.8c-.2.2-.4.4-.7.5s-.6.2-1,.2c-.6,0-1-.1-1.4-.3Z"/>
          </g>
          <g class="st7">
            <path class="st10" d="M70.7,152.6c-.4-.2-.7-.5-.9-.9-.2-.4-.3-.8-.3-1.2s.1-.8.3-1.2.5-.7.8-.9c.4-.2.8-.3,1.2-.3s.9.1,1.2.3c.3.2.6.5.8.8s.3.7.3,1.2,0,.3,0,.4h-3.4c0,.4.2.6.4.8.2.2.5.3.8.3s.5,0,.7-.2c.2-.1.3-.3.5-.5l1,.5c-.5.8-1.2,1.2-2.1,1.2s-.9-.1-1.2-.3ZM73,149.9c0-.1,0-.3-.2-.4,0-.1-.2-.3-.4-.4-.2,0-.4-.1-.6-.1s-.5,0-.7.2c-.2.2-.3.4-.4.7h2.3Z"/>
            <path class="st10" d="M75,148.2h1.1v.6h0c.1-.2.3-.4.5-.5.2-.1.5-.2.8-.2s.4,0,.6.1v1.2c-.2,0-.3-.1-.4-.1-.1,0-.2,0-.4,0-.3,0-.6.1-.8.4s-.3.6-.3,1v2.3h-1.2v-4.6Z"/>
          </g>
        </g>
      </g>
    </g>
  </g>
</svg>