<svg width="2112" height="1188" viewBox="0 0 2112 1188" fill="none" xmlns="http://www.w3.org/2000/svg">
<g id="dora-core-model-v1.1.0" clip-path="url(#clip0_5_88)">
<rect width="2112" height="1188" fill="white"/>
<rect id="Rectangle 13" width="303" height="101" fill="#F5F5F5"/>
<g id="construct#technical-capabilities">
<rect id="Rectangle 1" x="82" y="253" width="500" height="916" rx="16" fill="#FCFCFC" stroke="#CCCCCC" stroke-width="2"/>
<text id="TECHNICAL CAPABILITIES" fill="#414042" xml:space="preserve" style="white-space: pre" font-family="Google Sans Text" font-size="24" font-weight="500" letter-spacing="0.225em"><tspan x="127.429" y="296.16">TECHNICAL CAPABILITIES</tspan></text>
</g>
<g id="construct#wellbeing">
<g id="Group 1">
<rect id="Rectangle 6" x="1677" y="663" width="382" height="279" rx="25" fill="#FCFCFC" stroke="#CCCCCC" stroke-width="2"/>
<path id="Rectangle 7" d="M1677 688C1677 674.193 1688.19 663 1702 663H2034C2047.81 663 2059 674.193 2059 688V738H1677V688Z" fill="#005E8D" stroke="#005E8D" stroke-width="2"/>
<g id="unclickable-entity.outcome.none#deployment-pain">
<rect id="entity-box" x="1695" y="758" width="348" height="42" rx="9" fill="#FCFCFC" stroke="#CCCCCC" stroke-width="2"/>
<text id="entity-name" fill="#414042" xml:space="preserve" style="white-space: pre" font-family="Google Sans Text" font-size="24" font-weight="500" letter-spacing="0.025em"><tspan x="1746" y="787.16">Less deployment pain</tspan></text>
<g id="icon-group">
<path id="icon-bg" d="M1739 759V758H1738H1704C1699.03 758 1695 762.029 1695 767V791C1695 795.971 1699.03 800 1704 800H1738H1739V799V759Z" fill="#005E8D" stroke="#005E8D" stroke-width="2"/>
<path id="icon" d="M1723.7 773.533L1714.8 782.43L1709.95 777.597L1708.05 779.5L1714.8 786.25L1725.6 775.45L1723.7 773.533ZM1717.5 766C1710.05 766 1704 772.048 1704 779.5C1704 786.952 1710.05 793 1717.5 793C1724.95 793 1731 786.952 1731 779.5C1731 772.048 1724.95 766 1717.5 766ZM1717.5 790.3C1711.53 790.3 1706.7 785.467 1706.7 779.5C1706.7 773.533 1711.53 768.7 1717.5 768.7C1723.47 768.7 1728.3 773.533 1728.3 779.5C1728.3 785.467 1723.47 790.3 1717.5 790.3Z" fill="#FCFCFC"/>
</g>
</g>
<g id="unclickable-entity.outcome.none#rework">
<rect id="entity-box_2" x="1695" y="819" width="348" height="42" rx="9" fill="#FCFCFC" stroke="#CCCCCC" stroke-width="2"/>
<text id="entity-name_2" fill="#414042" xml:space="preserve" style="white-space: pre" font-family="Google Sans Text" font-size="24" font-weight="500" letter-spacing="0.025em"><tspan x="1746" y="848.16">Less rework</tspan></text>
<g id="icon-group_2">
<path id="icon-bg_2" d="M1739 820V819H1738H1704C1699.03 819 1695 823.029 1695 828V852C1695 856.971 1699.03 861 1704 861H1738H1739V860V820Z" fill="#005E8D" stroke="#005E8D" stroke-width="2"/>
<path id="icon_2" d="M1723.7 834.533L1714.8 843.43L1709.95 838.597L1708.05 840.5L1714.8 847.25L1725.6 836.45L1723.7 834.533ZM1717.5 827C1710.05 827 1704 833.048 1704 840.5C1704 847.952 1710.05 854 1717.5 854C1724.95 854 1731 847.952 1731 840.5C1731 833.048 1724.95 827 1717.5 827ZM1717.5 851.3C1711.53 851.3 1706.7 846.467 1706.7 840.5C1706.7 834.533 1711.53 829.7 1717.5 829.7C1723.47 829.7 1728.3 834.533 1728.3 840.5C1728.3 846.467 1723.47 851.3 1717.5 851.3Z" fill="#FCFCFC"/>
</g>
</g>
<g id="unclickable-entity.outcome.none#burnout">
<rect id="entity-box_3" x="1695" y="879" width="348" height="42" rx="9" fill="#FCFCFC" stroke="#CCCCCC" stroke-width="2"/>
<text id="entity-name_3" fill="#414042" xml:space="preserve" style="white-space: pre" font-family="Google Sans Text" font-size="24" font-weight="500" letter-spacing="0.025em"><tspan x="1746" y="908.16">Less burnout</tspan></text>
<g id="icon-group_3">
<path id="icon-bg_3" d="M1739 880V879H1738H1704C1699.03 879 1695 883.029 1695 888V912C1695 916.971 1699.03 921 1704 921H1738H1739V920V880Z" fill="#005E8D" stroke="#005E8D" stroke-width="2"/>
<path id="icon_3" d="M1723.7 894.533L1714.8 903.43L1709.95 898.597L1708.05 900.5L1714.8 907.25L1725.6 896.45L1723.7 894.533ZM1717.5 887C1710.05 887 1704 893.048 1704 900.5C1704 907.952 1710.05 914 1717.5 914C1724.95 914 1731 907.952 1731 900.5C1731 893.048 1724.95 887 1717.5 887ZM1717.5 911.3C1711.53 911.3 1706.7 906.467 1706.7 900.5C1706.7 894.533 1711.53 889.7 1717.5 889.7C1723.47 889.7 1728.3 894.533 1728.3 900.5C1728.3 906.467 1723.47 911.3 1717.5 911.3Z" fill="#FCFCFC"/>
</g>
</g>
<text id="Wellbeing" fill="#FCFCFC" xml:space="preserve" style="white-space: pre" font-family="Google Sans Text" font-size="28" font-weight="500" letter-spacing="0em"><tspan x="1700" y="711.02">Wellbeing</tspan></text>
</g>
</g>
<g id="construct#measuring-and-improving">
<rect id="Rectangle 2" x="1147" y="267" width="404" height="366" rx="25" fill="#FCFCFC" stroke="#CCCCCC" stroke-width="2"/>
<path id="Rectangle 3" d="M1147 292C1147 278.193 1158.19 267 1172 267H1526C1539.81 267 1551 278.193 1551 292V365H1147V292Z" fill="#63A657" stroke="#63A657" stroke-width="2"/>
<g id="unclickable-entity.metric.none#change-lead-time">
<rect id="entity-box_4" x="1164" y="382" width="370" height="42" rx="9" fill="#FCFCFC" stroke="#CCCCCC" stroke-width="2"/>
<text id="entity-name_4" fill="#414042" xml:space="preserve" style="white-space: pre" font-family="Google Sans Text" font-size="24" font-weight="500" letter-spacing="0.015em"><tspan x="1215" y="411.16">Change lead time</tspan></text>
<g id="icon-group_4">
<path id="icon-bg_4" d="M1208 383V382H1207H1173C1168.03 382 1164 386.029 1164 391V415C1164 419.971 1168.03 424 1173 424H1207H1208V423V383Z" fill="#63A657" stroke="#63A657" stroke-width="2"/>
<path id="icon_4" d="M1172 397.4H1178V417H1172V397.4ZM1183.2 389H1188.8V417H1183.2V389ZM1194.4 405H1200V417H1194.4V405Z" fill="#FCFCFC"/>
</g>
</g>
<g id="unclickable-entity.metric.none#deployment-frequency">
<rect id="entity-box_5" x="1164" y="446" width="370" height="42" rx="9" fill="#FCFCFC" stroke="#CCCCCC" stroke-width="2"/>
<text id="entity-name_5" fill="#414042" xml:space="preserve" style="white-space: pre" font-family="Google Sans Text" font-size="24" font-weight="500" letter-spacing="0.015em"><tspan x="1215" y="475.16">Deployment frequency</tspan></text>
<g id="icon-group_5">
<path id="icon-bg_5" d="M1208 447V446H1207H1173C1168.03 446 1164 450.029 1164 455V479C1164 483.971 1168.03 488 1173 488H1207H1208V487V447Z" fill="#63A657" stroke="#63A657" stroke-width="2"/>
<path id="icon_5" d="M1172 461.4H1178V481H1172V461.4ZM1183.2 453H1188.8V481H1183.2V453ZM1194.4 469H1200V481H1194.4V469Z" fill="#FCFCFC"/>
</g>
</g>
<g id="unclickable-entity.metric.none#change-fail-rate">
<rect id="entity-box_6" x="1164" y="509" width="370" height="42" rx="9" fill="#FCFCFC" stroke="#CCCCCC" stroke-width="2"/>
<text id="entity-name_6" fill="#414042" xml:space="preserve" style="white-space: pre" font-family="Google Sans Text" font-size="24" font-weight="500" letter-spacing="0.015em"><tspan x="1215" y="538.16">Change fail rate</tspan></text>
<g id="icon-group_6">
<path id="icon-bg_6" d="M1208 510V509H1207H1173C1168.03 509 1164 513.029 1164 518V542C1164 546.971 1168.03 551 1173 551H1207H1208V550V510Z" fill="#63A657" stroke="#63A657" stroke-width="2"/>
<path id="icon_6" d="M1172 524.4H1178V544H1172V524.4ZM1183.2 516H1188.8V544H1183.2V516ZM1194.4 532H1200V544H1194.4V532Z" fill="#FCFCFC"/>
</g>
</g>
<text id="Software Delivery Performance" fill="#FCFCFC" xml:space="preserve" style="white-space: pre" font-family="Google Sans Text" font-size="28" font-weight="500" letter-spacing="0em"><tspan x="1165" y="311.02">Software Delivery&#10;</tspan><tspan x="1165" y="346.02">Performance</tspan></text>
<g id="unclickable-entity.metric.none#time-to-repair">
<rect id="entity-box_7" x="1164" y="572" width="370" height="42" rx="9" fill="#FCFCFC" stroke="#CCCCCC" stroke-width="2"/>
<text id="entity-name_7" fill="#414042" xml:space="preserve" style="white-space: pre" font-family="Google Sans Text" font-size="24" font-weight="500" letter-spacing="0.015em"><tspan x="1215" y="601.16">Time to restore service</tspan></text>
<g id="icon-group_7">
<path id="icon-bg_7" d="M1208 573V572H1207H1173C1168.03 572 1164 576.029 1164 581V605C1164 609.971 1168.03 614 1173 614H1207H1208V613V573Z" fill="#63A657" stroke="#63A657" stroke-width="2"/>
<path id="icon_7" d="M1172 587.4H1178V607H1172V587.4ZM1183.2 579H1188.8V607H1183.2V579ZM1194.4 595H1200V607H1194.4V595Z" fill="#FCFCFC"/>
</g>
</g>
</g>
<g id="entity.capability.technical#continuous-delivery">
<rect id="entity-box_8" x="679" y="576" width="311" height="110" rx="9" fill="#FCFCFC" stroke="#CCCCCC" stroke-width="2"/>
<text id="entity-name_8" fill="#414042" xml:space="preserve" style="white-space: pre" font-family="Google Sans Text" font-size="26" font-weight="500" letter-spacing="0.03em"><tspan x="755" y="623.84">Continuous&#10;</tspan><tspan x="755" y="655.84">delivery</tspan></text>
<g id="icon-group_8">
<path id="icon-bg_8" d="M740 577V576H739H688C683.029 576 679 580.029 679 585V677C679 681.971 683.029 686 688 686H739H740V685V577Z" fill="#33484F" stroke="#33484F" stroke-width="2"/>
<path id="icon_8" d="M724.351 631.958C724.432 631.333 724.473 630.688 724.473 630C724.473 629.333 724.432 628.667 724.331 628.042L728.44 624.75C728.804 624.458 728.905 623.896 728.683 623.479L724.797 616.562C724.554 616.104 724.048 615.958 723.602 616.104L718.765 618.104C717.753 617.312 716.68 616.646 715.486 616.146L714.758 610.854C714.677 610.354 714.272 610 713.786 610H706.014C705.528 610 705.144 610.354 705.063 610.854L704.334 616.146C703.14 616.646 702.047 617.333 701.055 618.104L696.218 616.104C695.773 615.937 695.267 616.104 695.024 616.562L691.158 623.479C690.915 623.917 690.996 624.458 691.401 624.75L695.509 628.042C695.408 628.667 695.327 629.354 695.327 630C695.327 630.646 695.368 631.333 695.469 631.958L691.36 635.25C690.996 635.542 690.895 636.104 691.117 636.521L695.003 643.438C695.246 643.896 695.752 644.042 696.198 643.896L701.035 641.896C702.047 642.687 703.12 643.354 704.314 643.854L705.042 649.146C705.144 649.646 705.528 650 706.014 650H713.786C714.272 650 714.677 649.646 714.737 649.146L715.466 643.854C716.66 643.354 717.753 642.687 718.745 641.896L723.582 643.896C724.027 644.062 724.533 643.896 724.776 643.438L728.662 636.521C728.905 636.062 728.804 635.542 728.419 635.25L724.351 631.958ZM709.9 637.5C705.893 637.5 702.614 634.125 702.614 630C702.614 625.875 705.893 622.5 709.9 622.5C713.907 622.5 717.186 625.875 717.186 630C717.186 634.125 713.907 637.5 709.9 637.5Z" fill="white"/>
</g>
</g>
<g id="entity.capability.technical#shifting-left-on-security">
<rect id="entity-box_9" x="679" y="395" width="311" height="110" rx="9" fill="#FCFCFC" stroke="#CCCCCC" stroke-width="2"/>
<text id="entity-name_9" fill="#414042" xml:space="preserve" style="white-space: pre" font-family="Google Sans Text" font-size="26" font-weight="500" letter-spacing="0.03em"><tspan x="755" y="442.84">Shift left&#10;</tspan><tspan x="755" y="474.84">on security</tspan></text>
<g id="icon-group_9">
<path id="icon-bg_9" d="M740 396V395H739H688C683.029 395 679 399.029 679 404V496C679 500.971 683.029 505 688 505H739H740V504V396Z" fill="#33484F" stroke="#33484F" stroke-width="2"/>
<path id="icon_9" d="M724.351 450.958C724.432 450.333 724.473 449.688 724.473 449C724.473 448.333 724.432 447.667 724.331 447.042L728.44 443.75C728.804 443.458 728.905 442.896 728.683 442.479L724.797 435.562C724.554 435.104 724.048 434.958 723.602 435.104L718.765 437.104C717.753 436.312 716.68 435.646 715.486 435.146L714.758 429.854C714.677 429.354 714.272 429 713.786 429H706.014C705.528 429 705.144 429.354 705.063 429.854L704.334 435.146C703.14 435.646 702.047 436.333 701.055 437.104L696.218 435.104C695.773 434.937 695.267 435.104 695.024 435.562L691.158 442.479C690.915 442.917 690.996 443.458 691.401 443.75L695.509 447.042C695.408 447.667 695.327 448.354 695.327 449C695.327 449.646 695.368 450.333 695.469 450.958L691.36 454.25C690.996 454.542 690.895 455.104 691.117 455.521L695.003 462.438C695.246 462.896 695.752 463.042 696.198 462.896L701.035 460.896C702.047 461.687 703.12 462.354 704.314 462.854L705.042 468.146C705.144 468.646 705.528 469 706.014 469H713.786C714.272 469 714.677 468.646 714.737 468.146L715.466 462.854C716.66 462.354 717.753 461.687 718.745 460.896L723.582 462.896C724.027 463.062 724.533 462.896 724.776 462.438L728.662 455.521C728.905 455.062 728.804 454.542 728.419 454.25L724.351 450.958ZM709.9 456.5C705.893 456.5 702.614 453.125 702.614 449C702.614 444.875 705.893 441.5 709.9 441.5C713.907 441.5 717.186 444.875 717.186 449C717.186 453.125 713.907 456.5 709.9 456.5Z" fill="white"/>
</g>
</g>
<g id="entity.capability.technical#streamlining-change-approval">
<rect id="entity-box_10" x="679" y="940" width="311" height="110" rx="9" fill="#FCFCFC" stroke="#CCCCCC" stroke-width="2"/>
<text id="entity-name_10" fill="#414042" xml:space="preserve" style="white-space: pre" font-family="Google Sans Text" font-size="26" font-weight="500" letter-spacing="0.03em"><tspan x="755" y="987.84">Streamlined&#10;</tspan><tspan x="755" y="1019.84">change approval</tspan></text>
<g id="icon-group_10">
<path id="icon-bg_10" d="M740 941V940H739H688C683.029 940 679 944.029 679 949V1041C679 1045.97 683.029 1050 688 1050H739H740V1049V941Z" fill="#33484F" stroke="#33484F" stroke-width="2"/>
<path id="icon_10" d="M724.351 995.958C724.432 995.333 724.473 994.688 724.473 994C724.473 993.333 724.432 992.667 724.331 992.042L728.44 988.75C728.804 988.458 728.905 987.896 728.683 987.479L724.797 980.562C724.554 980.104 724.048 979.958 723.602 980.104L718.765 982.104C717.753 981.312 716.68 980.646 715.486 980.146L714.758 974.854C714.677 974.354 714.272 974 713.786 974H706.014C705.528 974 705.144 974.354 705.063 974.854L704.334 980.146C703.14 980.646 702.047 981.333 701.055 982.104L696.218 980.104C695.773 979.937 695.267 980.104 695.024 980.562L691.158 987.479C690.915 987.917 690.996 988.458 691.401 988.75L695.509 992.042C695.408 992.667 695.327 993.354 695.327 994C695.327 994.646 695.368 995.333 695.469 995.958L691.36 999.25C690.996 999.542 690.895 1000.1 691.117 1000.52L695.003 1007.44C695.246 1007.9 695.752 1008.04 696.198 1007.9L701.035 1005.9C702.047 1006.69 703.12 1007.35 704.314 1007.85L705.042 1013.15C705.144 1013.65 705.528 1014 706.014 1014H713.786C714.272 1014 714.677 1013.65 714.737 1013.15L715.466 1007.85C716.66 1007.35 717.753 1006.69 718.745 1005.9L723.582 1007.9C724.027 1008.06 724.533 1007.9 724.776 1007.44L728.662 1000.52C728.905 1000.06 728.804 999.542 728.419 999.25L724.351 995.958ZM709.9 1001.5C705.893 1001.5 702.614 998.125 702.614 994C702.614 989.875 705.893 986.5 709.9 986.5C713.907 986.5 717.186 989.875 717.186 994C717.186 998.125 713.907 1001.5 709.9 1001.5Z" fill="white"/>
</g>
</g>
<g id="entity.capability.technical#generative-organizational-culture">
<rect id="entity-box_11" x="679" y="759" width="311" height="110" rx="9" fill="#FCFCFC" stroke="#CCCCCC" stroke-width="2"/>
<text id="entity-name_11" fill="#414042" xml:space="preserve" style="white-space: pre" font-family="Google Sans Text" font-size="26" font-weight="500" letter-spacing="0.03em"><tspan x="755" y="790.84">Generative&#10;</tspan><tspan x="755" y="822.84">organizational&#10;</tspan><tspan x="755" y="854.84">culture</tspan></text>
<g id="icon-group_11">
<path id="icon-bg_11" d="M740 760V759H739H688C683.029 759 679 763.029 679 768V860C679 864.971 683.029 869 688 869H739H740V868V760Z" fill="#33484F" stroke="#33484F" stroke-width="2"/>
<path id="icon_11" d="M724.351 814.958C724.432 814.333 724.473 813.688 724.473 813C724.473 812.333 724.432 811.667 724.331 811.042L728.44 807.75C728.804 807.458 728.905 806.896 728.683 806.479L724.797 799.562C724.554 799.104 724.048 798.958 723.602 799.104L718.765 801.104C717.753 800.312 716.68 799.646 715.486 799.146L714.758 793.854C714.677 793.354 714.272 793 713.786 793H706.014C705.528 793 705.144 793.354 705.063 793.854L704.334 799.146C703.14 799.646 702.047 800.333 701.055 801.104L696.218 799.104C695.773 798.937 695.267 799.104 695.024 799.562L691.158 806.479C690.915 806.917 690.996 807.458 691.401 807.75L695.509 811.042C695.408 811.667 695.327 812.354 695.327 813C695.327 813.646 695.368 814.333 695.469 814.958L691.36 818.25C690.996 818.542 690.895 819.104 691.117 819.521L695.003 826.438C695.246 826.896 695.752 827.042 696.198 826.896L701.035 824.896C702.047 825.687 703.12 826.354 704.314 826.854L705.042 832.146C705.144 832.646 705.528 833 706.014 833H713.786C714.272 833 714.677 832.646 714.737 832.146L715.466 826.854C716.66 826.354 717.753 825.687 718.745 824.896L723.582 826.896C724.027 827.062 724.533 826.896 724.776 826.438L728.662 819.521C728.905 819.062 728.804 818.542 728.419 818.25L724.351 814.958ZM709.9 820.5C705.893 820.5 702.614 817.125 702.614 813C702.614 808.875 705.893 805.5 709.9 805.5C713.907 805.5 717.186 808.875 717.186 813C717.186 817.125 713.907 820.5 709.9 820.5Z" fill="white"/>
</g>
</g>
<g id="entity.capability.technical#flexible-infrastructure">
<rect id="entity-box_12" x="38" y="141" width="285" height="75" rx="9" fill="#FCFCFC" stroke="#CCCCCC" stroke-width="2"/>
<text id="entity-name_12" fill="#414042" xml:space="preserve" style="white-space: pre" font-family="Google Sans Text" font-size="26" font-weight="500" letter-spacing="0.03em"><tspan x="114" y="173.84">Flexible&#10;</tspan><tspan x="114" y="201.84">infrastructure</tspan></text>
<g id="icon-group_12">
<path id="icon-bg_12" d="M99 142V141H98H47C42.0294 141 38 145.029 38 150V207C38 211.971 42.0294 216 47 216H98H99V215V142Z" fill="#33484F" stroke="#33484F" stroke-width="2"/>
<path id="icon_12" d="M83.3513 179.958C83.4322 179.333 83.4727 178.688 83.4727 178C83.4727 177.333 83.4322 176.667 83.331 176.042L87.4397 172.75C87.8041 172.458 87.9053 171.896 87.6826 171.479L83.7966 164.562C83.5537 164.104 83.0477 163.958 82.6024 164.104L77.7651 166.104C76.7531 165.312 75.6804 164.646 74.4862 164.146L73.7576 158.854C73.6766 158.354 73.2718 158 72.7861 158H65.0139C64.5282 158 64.1436 158.354 64.0627 158.854L63.334 164.146C62.1399 164.646 61.0469 165.333 60.0552 166.104L55.2178 164.104C54.7726 163.937 54.2666 164.104 54.0237 164.562L50.1579 171.479C49.915 171.917 49.996 172.458 50.4008 172.75L54.5094 176.042C54.4082 176.667 54.3273 177.354 54.3273 178C54.3273 178.646 54.3678 179.333 54.469 179.958L50.3603 183.25C49.996 183.542 49.8948 184.104 50.1174 184.521L54.0034 191.438C54.2463 191.896 54.7523 192.042 55.1976 191.896L60.0349 189.896C61.0469 190.687 62.1196 191.354 63.3138 191.854L64.0424 197.146C64.1436 197.646 64.5282 198 65.0139 198H72.7861C73.2718 198 73.6766 197.646 73.7373 197.146L74.466 191.854C75.6601 191.354 76.7531 190.687 77.7448 189.896L82.5822 191.896C83.0274 192.062 83.5334 191.896 83.7763 191.438L87.6624 184.521C87.9053 184.062 87.8041 183.542 87.4195 183.25L83.3513 179.958ZM68.9 185.5C64.8925 185.5 61.6136 182.125 61.6136 178C61.6136 173.875 64.8925 170.5 68.9 170.5C72.9075 170.5 76.1864 173.875 76.1864 178C76.1864 182.125 72.9075 185.5 68.9 185.5Z" fill="white"/>
</g>
</g>
<g id="entity.capability.technical#documentation-quality">
<rect id="entity-box_13" x="340" y="140" width="285" height="75" rx="9" fill="#FCFCFC" stroke="#CCCCCC" stroke-width="2"/>
<text id="entity-name_13" fill="#414042" xml:space="preserve" style="white-space: pre" font-family="Google Sans Text" font-size="26" font-weight="500" letter-spacing="0em"><tspan x="416" y="172.84">Documentation&#10;</tspan><tspan x="416" y="200.84">quality</tspan></text>
<g id="icon-group_13">
<path id="icon-bg_13" d="M401 141V140H400H349C344.029 140 340 144.029 340 149V206C340 210.971 344.029 215 349 215H400H401V214V141Z" fill="#33484F" stroke="#33484F" stroke-width="2"/>
<path id="icon_13" d="M385.351 178.958C385.432 178.333 385.473 177.688 385.473 177C385.473 176.333 385.432 175.667 385.331 175.042L389.44 171.75C389.804 171.458 389.905 170.896 389.683 170.479L385.797 163.562C385.554 163.104 385.048 162.958 384.602 163.104L379.765 165.104C378.753 164.312 377.68 163.646 376.486 163.146L375.758 157.854C375.677 157.354 375.272 157 374.786 157H367.014C366.528 157 366.144 157.354 366.063 157.854L365.334 163.146C364.14 163.646 363.047 164.333 362.055 165.104L357.218 163.104C356.773 162.937 356.267 163.104 356.024 163.562L352.158 170.479C351.915 170.917 351.996 171.458 352.401 171.75L356.509 175.042C356.408 175.667 356.327 176.354 356.327 177C356.327 177.646 356.368 178.333 356.469 178.958L352.36 182.25C351.996 182.542 351.895 183.104 352.117 183.521L356.003 190.438C356.246 190.896 356.752 191.042 357.198 190.896L362.035 188.896C363.047 189.687 364.12 190.354 365.314 190.854L366.042 196.146C366.144 196.646 366.528 197 367.014 197H374.786C375.272 197 375.677 196.646 375.737 196.146L376.466 190.854C377.66 190.354 378.753 189.687 379.745 188.896L384.582 190.896C385.027 191.062 385.533 190.896 385.776 190.438L389.662 183.521C389.905 183.062 389.804 182.542 389.419 182.25L385.351 178.958ZM370.9 184.5C366.893 184.5 363.614 181.125 363.614 177C363.614 172.875 366.893 169.5 370.9 169.5C374.907 169.5 378.186 172.875 378.186 177C378.186 181.125 374.907 184.5 370.9 184.5Z" fill="white"/>
</g>
</g>
<g id="footer">
<text fill="#999999" xml:space="preserve" style="white-space: pre" font-family="Google Sans Text" font-size="14" font-weight="500" letter-spacing="0em" text-decoration="underline"><tspan x="1964.09" y="1154.26"><a href="https://creativecommons.org/licenses/by-nc-sa/4.0/">CC BY-NC-SA 4.0</a></tspan></text>
<text fill="#999999" xml:space="preserve" style="white-space: pre" font-family="Google Sans Text" font-size="14" font-weight="500" letter-spacing="0em"><tspan x="1980.74" y="1133.26">version 1.1.0rc5&#10;</tspan><tspan x="1755.06" y="1154.26"> Licensed by Google LLC under </tspan><tspan x="2081" y="1154.26"> </tspan></text>
</g>
<g id="construct#organizational-performance">
<g id="Group 2">
<rect id="Rectangle 4" x="1677" y="328" width="382" height="244" rx="25" fill="#FCFCFC" stroke="#CCCCCC" stroke-width="2"/>
<path id="Rectangle 5" d="M1677 353C1677 339.193 1688.19 328 1702 328H2034C2047.81 328 2059 339.193 2059 353V426H1677V353Z" fill="#005E8D" stroke="#005E8D" stroke-width="2"/>
<g id="unclickable-entity.outcome.none#job-satisfaction">
<rect id="entity-box_14" x="1695" y="446" width="348" height="42" rx="9" fill="#FCFCFC" stroke="#CCCCCC" stroke-width="2"/>
<text id="entity-name_14" fill="#414042" xml:space="preserve" style="white-space: pre" font-family="Google Sans Text" font-size="24" font-weight="500" letter-spacing="0.025em"><tspan x="1746" y="475.16">Commercial</tspan></text>
<g id="icon-group_14">
<path id="icon-bg_14" d="M1739 447V446H1738H1704C1699.03 446 1695 450.029 1695 455V479C1695 483.971 1699.03 488 1704 488H1738H1739V487V447Z" fill="#005E8D" stroke="#005E8D" stroke-width="2"/>
<path id="icon_14" d="M1723.7 461.533L1714.8 470.43L1709.95 465.597L1708.05 467.5L1714.8 474.25L1725.6 463.45L1723.7 461.533ZM1717.5 454C1710.05 454 1704 460.048 1704 467.5C1704 474.952 1710.05 481 1717.5 481C1724.95 481 1731 474.952 1731 467.5C1731 460.048 1724.95 454 1717.5 454ZM1717.5 478.3C1711.53 478.3 1706.7 473.467 1706.7 467.5C1706.7 461.533 1711.53 456.7 1717.5 456.7C1723.47 456.7 1728.3 461.533 1728.3 467.5C1728.3 473.467 1723.47 478.3 1717.5 478.3Z" fill="#FCFCFC"/>
</g>
</g>
<g id="unclickable-entity.outcome.none#job-satisfaction_2">
<rect id="entity-box_15" x="1695" y="506" width="348" height="42" rx="9" fill="#FCFCFC" stroke="#CCCCCC" stroke-width="2"/>
<text id="entity-name_15" fill="#414042" xml:space="preserve" style="white-space: pre" font-family="Google Sans Text" font-size="24" font-weight="500" letter-spacing="0.025em"><tspan x="1746" y="535.16">Non-Commercial</tspan></text>
<g id="icon-group_15">
<path id="icon-bg_15" d="M1739 507V506H1738H1704C1699.03 506 1695 510.029 1695 515V539C1695 543.971 1699.03 548 1704 548H1738H1739V547V507Z" fill="#005E8D" stroke="#005E8D" stroke-width="2"/>
<path id="icon_15" d="M1723.7 521.533L1714.8 530.43L1709.95 525.597L1708.05 527.5L1714.8 534.25L1725.6 523.45L1723.7 521.533ZM1717.5 514C1710.05 514 1704 520.048 1704 527.5C1704 534.952 1710.05 541 1717.5 541C1724.95 541 1731 534.952 1731 527.5C1731 520.048 1724.95 514 1717.5 514ZM1717.5 538.3C1711.53 538.3 1706.7 533.467 1706.7 527.5C1706.7 521.533 1711.53 516.7 1717.5 516.7C1723.47 516.7 1728.3 521.533 1728.3 527.5C1728.3 533.467 1723.47 538.3 1717.5 538.3Z" fill="#FCFCFC"/>
</g>
</g>
</g>
<text id="Organizational Performance" fill="#FCFCFC" xml:space="preserve" style="white-space: pre" font-family="Google Sans Text" font-size="28" font-weight="500" letter-spacing="0em"><tspan x="1700" y="372.02">Organizational&#10;</tspan><tspan x="1700" y="407.02">Performance</tspan></text>
</g>
<g id="entity.capability.technical#loosely-coupled-architecture">
<rect id="entity-box_16" x="96" y="717" width="472" height="62" rx="9" fill="#FCFCFC" stroke="#CCCCCC" stroke-width="2"/>
<text id="entity-name_16" fill="#414042" xml:space="preserve" style="white-space: pre" font-family="Google Sans Text" font-size="26" font-weight="500" letter-spacing="0.03em"><tspan x="172" y="756.84">Loosely coupled architecture</tspan></text>
<g id="icon-group_16">
<path id="icon-bg_16" d="M157 718V717H156H105C100.029 717 96 721.029 96 726V770C96 774.971 100.029 779 105 779H156H157V778V718Z" fill="#33484F" stroke="#33484F" stroke-width="2"/>
<path id="icon_16" d="M141.351 748.958C141.432 748.333 141.473 747.688 141.473 747C141.473 746.333 141.432 745.667 141.331 745.042L145.44 741.75C145.804 741.458 145.905 740.896 145.683 740.479L141.797 733.562C141.554 733.104 141.048 732.958 140.602 733.104L135.765 735.104C134.753 734.312 133.68 733.646 132.486 733.146L131.758 727.854C131.677 727.354 131.272 727 130.786 727H123.014C122.528 727 122.144 727.354 122.063 727.854L121.334 733.146C120.14 733.646 119.047 734.333 118.055 735.104L113.218 733.104C112.773 732.937 112.267 733.104 112.024 733.562L108.158 740.479C107.915 740.917 107.996 741.458 108.401 741.75L112.509 745.042C112.408 745.667 112.327 746.354 112.327 747C112.327 747.646 112.368 748.333 112.469 748.958L108.36 752.25C107.996 752.542 107.895 753.104 108.117 753.521L112.003 760.438C112.246 760.896 112.752 761.042 113.198 760.896L118.035 758.896C119.047 759.687 120.12 760.354 121.314 760.854L122.042 766.146C122.144 766.646 122.528 767 123.014 767H130.786C131.272 767 131.677 766.646 131.737 766.146L132.466 760.854C133.66 760.354 134.753 759.687 135.745 758.896L140.582 760.896C141.027 761.062 141.533 760.896 141.776 760.438L145.662 753.521C145.905 753.062 145.804 752.542 145.419 752.25L141.351 748.958ZM126.9 754.5C122.893 754.5 119.614 751.125 119.614 747C119.614 742.875 122.893 739.5 126.9 739.5C130.907 739.5 134.186 742.875 134.186 747C134.186 751.125 130.907 754.5 126.9 754.5Z" fill="white"/>
</g>
</g>
<g id="entity.capability.technical#monitoring-and-observability">
<rect id="entity-box_17" x="96" y="792" width="472" height="62" rx="9" fill="#FCFCFC" stroke="#CCCCCC" stroke-width="2"/>
<text id="entity-name_17" fill="#414042" xml:space="preserve" style="white-space: pre" font-family="Google Sans Text" font-size="26" font-weight="500" letter-spacing="0.03em"><tspan x="172" y="831.84">Monitoring and observability</tspan></text>
<g id="icon-group_17">
<path id="icon-bg_17" d="M157 793V792H156H105C100.029 792 96 796.029 96 801V845C96 849.971 100.029 854 105 854H156H157V853V793Z" fill="#33484F" stroke="#33484F" stroke-width="2"/>
<path id="icon_17" d="M141.351 823.958C141.432 823.333 141.473 822.688 141.473 822C141.473 821.333 141.432 820.667 141.331 820.042L145.44 816.75C145.804 816.458 145.905 815.896 145.683 815.479L141.797 808.562C141.554 808.104 141.048 807.958 140.602 808.104L135.765 810.104C134.753 809.312 133.68 808.646 132.486 808.146L131.758 802.854C131.677 802.354 131.272 802 130.786 802H123.014C122.528 802 122.144 802.354 122.063 802.854L121.334 808.146C120.14 808.646 119.047 809.333 118.055 810.104L113.218 808.104C112.773 807.937 112.267 808.104 112.024 808.562L108.158 815.479C107.915 815.917 107.996 816.458 108.401 816.75L112.509 820.042C112.408 820.667 112.327 821.354 112.327 822C112.327 822.646 112.368 823.333 112.469 823.958L108.36 827.25C107.996 827.542 107.895 828.104 108.117 828.521L112.003 835.438C112.246 835.896 112.752 836.042 113.198 835.896L118.035 833.896C119.047 834.687 120.12 835.354 121.314 835.854L122.042 841.146C122.144 841.646 122.528 842 123.014 842H130.786C131.272 842 131.677 841.646 131.737 841.146L132.466 835.854C133.66 835.354 134.753 834.687 135.745 833.896L140.582 835.896C141.027 836.062 141.533 835.896 141.776 835.438L145.662 828.521C145.905 828.062 145.804 827.542 145.419 827.25L141.351 823.958ZM126.9 829.5C122.893 829.5 119.614 826.125 119.614 822C119.614 817.875 122.893 814.5 126.9 814.5C130.907 814.5 134.186 817.875 134.186 822C134.186 826.125 130.907 829.5 126.9 829.5Z" fill="white"/>
</g>
</g>
<g id="entity.capability.technical#test-automation">
<rect id="entity-box_18" x="96" y="867" width="472" height="62" rx="9" fill="#FCFCFC" stroke="#CCCCCC" stroke-width="2"/>
<text id="entity-name_18" fill="#414042" xml:space="preserve" style="white-space: pre" font-family="Google Sans Text" font-size="26" font-weight="500" letter-spacing="0.03em"><tspan x="172" y="906.84">Test automation</tspan></text>
<g id="icon-group_18">
<path id="icon-bg_18" d="M157 868V867H156H105C100.029 867 96 871.029 96 876V920C96 924.971 100.029 929 105 929H156H157V928V868Z" fill="#33484F" stroke="#33484F" stroke-width="2"/>
<path id="icon_18" d="M141.351 898.958C141.432 898.333 141.473 897.688 141.473 897C141.473 896.333 141.432 895.667 141.331 895.042L145.44 891.75C145.804 891.458 145.905 890.896 145.683 890.479L141.797 883.562C141.554 883.104 141.048 882.958 140.602 883.104L135.765 885.104C134.753 884.312 133.68 883.646 132.486 883.146L131.758 877.854C131.677 877.354 131.272 877 130.786 877H123.014C122.528 877 122.144 877.354 122.063 877.854L121.334 883.146C120.14 883.646 119.047 884.333 118.055 885.104L113.218 883.104C112.773 882.937 112.267 883.104 112.024 883.562L108.158 890.479C107.915 890.917 107.996 891.458 108.401 891.75L112.509 895.042C112.408 895.667 112.327 896.354 112.327 897C112.327 897.646 112.368 898.333 112.469 898.958L108.36 902.25C107.996 902.542 107.895 903.104 108.117 903.521L112.003 910.438C112.246 910.896 112.752 911.042 113.198 910.896L118.035 908.896C119.047 909.687 120.12 910.354 121.314 910.854L122.042 916.146C122.144 916.646 122.528 917 123.014 917H130.786C131.272 917 131.677 916.646 131.737 916.146L132.466 910.854C133.66 910.354 134.753 909.687 135.745 908.896L140.582 910.896C141.027 911.062 141.533 910.896 141.776 910.438L145.662 903.521C145.905 903.062 145.804 902.542 145.419 902.25L141.351 898.958ZM126.9 904.5C122.893 904.5 119.614 901.125 119.614 897C119.614 892.875 122.893 889.5 126.9 889.5C130.907 889.5 134.186 892.875 134.186 897C134.186 901.125 130.907 904.5 126.9 904.5Z" fill="white"/>
</g>
</g>
<g id="entity.capability.technical#test-data-management">
<rect id="entity-box_19" x="96" y="942" width="472" height="62" rx="9" fill="#FCFCFC" stroke="#CCCCCC" stroke-width="2"/>
<text id="entity-name_19" fill="#414042" xml:space="preserve" style="white-space: pre" font-family="Google Sans Text" font-size="26" font-weight="500" letter-spacing="0.03em"><tspan x="172" y="981.84">Test data management</tspan></text>
<g id="icon-group_19">
<path id="icon-bg_19" d="M157 943V942H156H105C100.029 942 96 946.029 96 951V995C96 999.971 100.029 1004 105 1004H156H157V1003V943Z" fill="#33484F" stroke="#33484F" stroke-width="2"/>
<path id="icon_19" d="M141.351 973.958C141.432 973.333 141.473 972.688 141.473 972C141.473 971.333 141.432 970.667 141.331 970.042L145.44 966.75C145.804 966.458 145.905 965.896 145.683 965.479L141.797 958.562C141.554 958.104 141.048 957.958 140.602 958.104L135.765 960.104C134.753 959.312 133.68 958.646 132.486 958.146L131.758 952.854C131.677 952.354 131.272 952 130.786 952H123.014C122.528 952 122.144 952.354 122.063 952.854L121.334 958.146C120.14 958.646 119.047 959.333 118.055 960.104L113.218 958.104C112.773 957.937 112.267 958.104 112.024 958.562L108.158 965.479C107.915 965.917 107.996 966.458 108.401 966.75L112.509 970.042C112.408 970.667 112.327 971.354 112.327 972C112.327 972.646 112.368 973.333 112.469 973.958L108.36 977.25C107.996 977.542 107.895 978.104 108.117 978.521L112.003 985.438C112.246 985.896 112.752 986.042 113.198 985.896L118.035 983.896C119.047 984.687 120.12 985.354 121.314 985.854L122.042 991.146C122.144 991.646 122.528 992 123.014 992H130.786C131.272 992 131.677 991.646 131.737 991.146L132.466 985.854C133.66 985.354 134.753 984.687 135.745 983.896L140.582 985.896C141.027 986.062 141.533 985.896 141.776 985.438L145.662 978.521C145.905 978.062 145.804 977.542 145.419 977.25L141.351 973.958ZM126.9 979.5C122.893 979.5 119.614 976.125 119.614 972C119.614 967.875 122.893 964.5 126.9 964.5C130.907 964.5 134.186 967.875 134.186 972C134.186 976.125 130.907 979.5 126.9 979.5Z" fill="white"/>
</g>
</g>
<g id="entity.capability.technical#trunk-based-development">
<rect id="entity-box_20" x="96" y="1017" width="472" height="62" rx="9" fill="#FCFCFC" stroke="#CCCCCC" stroke-width="2"/>
<text id="entity-name_20" fill="#414042" xml:space="preserve" style="white-space: pre" font-family="Google Sans Text" font-size="26" font-weight="500" letter-spacing="0.03em"><tspan x="172" y="1056.84">Trunk-based development</tspan></text>
<g id="icon-group_20">
<path id="icon-bg_20" d="M157 1018V1017H156H105C100.029 1017 96 1021.03 96 1026V1070C96 1074.97 100.029 1079 105 1079H156H157V1078V1018Z" fill="#33484F" stroke="#33484F" stroke-width="2"/>
<path id="icon_20" d="M141.351 1048.96C141.432 1048.33 141.473 1047.69 141.473 1047C141.473 1046.33 141.432 1045.67 141.331 1045.04L145.44 1041.75C145.804 1041.46 145.905 1040.9 145.683 1040.48L141.797 1033.56C141.554 1033.1 141.048 1032.96 140.602 1033.1L135.765 1035.1C134.753 1034.31 133.68 1033.65 132.486 1033.15L131.758 1027.85C131.677 1027.35 131.272 1027 130.786 1027H123.014C122.528 1027 122.144 1027.35 122.063 1027.85L121.334 1033.15C120.14 1033.65 119.047 1034.33 118.055 1035.1L113.218 1033.1C112.773 1032.94 112.267 1033.1 112.024 1033.56L108.158 1040.48C107.915 1040.92 107.996 1041.46 108.401 1041.75L112.509 1045.04C112.408 1045.67 112.327 1046.35 112.327 1047C112.327 1047.65 112.368 1048.33 112.469 1048.96L108.36 1052.25C107.996 1052.54 107.895 1053.1 108.117 1053.52L112.003 1060.44C112.246 1060.9 112.752 1061.04 113.198 1060.9L118.035 1058.9C119.047 1059.69 120.12 1060.35 121.314 1060.85L122.042 1066.15C122.144 1066.65 122.528 1067 123.014 1067H130.786C131.272 1067 131.677 1066.65 131.737 1066.15L132.466 1060.85C133.66 1060.35 134.753 1059.69 135.745 1058.9L140.582 1060.9C141.027 1061.06 141.533 1060.9 141.776 1060.44L145.662 1053.52C145.905 1053.06 145.804 1052.54 145.419 1052.25L141.351 1048.96ZM126.9 1054.5C122.893 1054.5 119.614 1051.12 119.614 1047C119.614 1042.88 122.893 1039.5 126.9 1039.5C130.907 1039.5 134.186 1042.88 134.186 1047C134.186 1051.12 130.907 1054.5 126.9 1054.5Z" fill="white"/>
</g>
</g>
<g id="entity.capability.technical#version-control">
<rect id="entity-box_21" x="96" y="1092" width="472" height="62" rx="9" fill="#FCFCFC" stroke="#CCCCCC" stroke-width="2"/>
<text id="entity-name_21" fill="#414042" xml:space="preserve" style="white-space: pre" font-family="Google Sans Text" font-size="26" font-weight="500" letter-spacing="0.03em"><tspan x="172" y="1131.84">Version control</tspan></text>
<g id="icon-group_21">
<path id="icon-bg_21" d="M157 1093V1092H156H105C100.029 1092 96 1096.03 96 1101V1145C96 1149.97 100.029 1154 105 1154H156H157V1153V1093Z" fill="#33484F" stroke="#33484F" stroke-width="2"/>
<path id="icon_21" d="M141.351 1123.96C141.432 1123.33 141.473 1122.69 141.473 1122C141.473 1121.33 141.432 1120.67 141.331 1120.04L145.44 1116.75C145.804 1116.46 145.905 1115.9 145.683 1115.48L141.797 1108.56C141.554 1108.1 141.048 1107.96 140.602 1108.1L135.765 1110.1C134.753 1109.31 133.68 1108.65 132.486 1108.15L131.758 1102.85C131.677 1102.35 131.272 1102 130.786 1102H123.014C122.528 1102 122.144 1102.35 122.063 1102.85L121.334 1108.15C120.14 1108.65 119.047 1109.33 118.055 1110.1L113.218 1108.1C112.773 1107.94 112.267 1108.1 112.024 1108.56L108.158 1115.48C107.915 1115.92 107.996 1116.46 108.401 1116.75L112.509 1120.04C112.408 1120.67 112.327 1121.35 112.327 1122C112.327 1122.65 112.368 1123.33 112.469 1123.96L108.36 1127.25C107.996 1127.54 107.895 1128.1 108.117 1128.52L112.003 1135.44C112.246 1135.9 112.752 1136.04 113.198 1135.9L118.035 1133.9C119.047 1134.69 120.12 1135.35 121.314 1135.85L122.042 1141.15C122.144 1141.65 122.528 1142 123.014 1142H130.786C131.272 1142 131.677 1141.65 131.737 1141.15L132.466 1135.85C133.66 1135.35 134.753 1134.69 135.745 1133.9L140.582 1135.9C141.027 1136.06 141.533 1135.9 141.776 1135.44L145.662 1128.52C145.905 1128.06 145.804 1127.54 145.419 1127.25L141.351 1123.96ZM126.9 1129.5C122.893 1129.5 119.614 1126.12 119.614 1122C119.614 1117.88 122.893 1114.5 126.9 1114.5C130.907 1114.5 134.186 1117.88 134.186 1122C134.186 1126.12 130.907 1129.5 126.9 1129.5Z" fill="white"/>
</g>
</g>
<g id="entity.capability.technical#code-maintainability">
<rect id="entity-box_22" x="96" y="318" width="472" height="62" rx="9" fill="#FCFCFC" stroke="#CCCCCC" stroke-width="2"/>
<text id="entity-name_22" fill="#414042" xml:space="preserve" style="white-space: pre" font-family="Google Sans Text" font-size="26" font-weight="500" letter-spacing="0.03em"><tspan x="172" y="357.84">Code maintainability</tspan></text>
<g id="icon-group_22">
<path id="icon-bg_22" d="M157 319V318H156H105C100.029 318 96 322.029 96 327V371C96 375.971 100.029 380 105 380H156H157V379V319Z" fill="#33484F" stroke="#33484F" stroke-width="2"/>
<path id="icon_22" d="M141.351 349.958C141.432 349.333 141.473 348.688 141.473 348C141.473 347.333 141.432 346.667 141.331 346.042L145.44 342.75C145.804 342.458 145.905 341.896 145.683 341.479L141.797 334.562C141.554 334.104 141.048 333.958 140.602 334.104L135.765 336.104C134.753 335.312 133.68 334.646 132.486 334.146L131.758 328.854C131.677 328.354 131.272 328 130.786 328H123.014C122.528 328 122.144 328.354 122.063 328.854L121.334 334.146C120.14 334.646 119.047 335.333 118.055 336.104L113.218 334.104C112.773 333.937 112.267 334.104 112.024 334.562L108.158 341.479C107.915 341.917 107.996 342.458 108.401 342.75L112.509 346.042C112.408 346.667 112.327 347.354 112.327 348C112.327 348.646 112.368 349.333 112.469 349.958L108.36 353.25C107.996 353.542 107.895 354.104 108.117 354.521L112.003 361.438C112.246 361.896 112.752 362.042 113.198 361.896L118.035 359.896C119.047 360.687 120.12 361.354 121.314 361.854L122.042 367.146C122.144 367.646 122.528 368 123.014 368H130.786C131.272 368 131.677 367.646 131.737 367.146L132.466 361.854C133.66 361.354 134.753 360.687 135.745 359.896L140.582 361.896C141.027 362.062 141.533 361.896 141.776 361.438L145.662 354.521C145.905 354.062 145.804 353.542 145.419 353.25L141.351 349.958ZM126.9 355.5C122.893 355.5 119.614 352.125 119.614 348C119.614 343.875 122.893 340.5 126.9 340.5C130.907 340.5 134.186 343.875 134.186 348C134.186 352.125 130.907 355.5 126.9 355.5Z" fill="white"/>
</g>
</g>
<g id="entity.capability.technical#continuous-integration">
<rect id="entity-box_23" x="96" y="393" width="472" height="62" rx="9" fill="#FCFCFC" stroke="#CCCCCC" stroke-width="2"/>
<text id="entity-name_23" fill="#414042" xml:space="preserve" style="white-space: pre" font-family="Google Sans Text" font-size="26" font-weight="500" letter-spacing="0.03em"><tspan x="172" y="432.84">Continuous integration</tspan></text>
<g id="icon-group_23">
<path id="icon-bg_23" d="M157 394V393H156H105C100.029 393 96 397.029 96 402V446C96 450.971 100.029 455 105 455H156H157V454V394Z" fill="#33484F" stroke="#33484F" stroke-width="2"/>
<path id="icon_23" d="M141.351 424.958C141.432 424.333 141.473 423.688 141.473 423C141.473 422.333 141.432 421.667 141.331 421.042L145.44 417.75C145.804 417.458 145.905 416.896 145.683 416.479L141.797 409.562C141.554 409.104 141.048 408.958 140.602 409.104L135.765 411.104C134.753 410.312 133.68 409.646 132.486 409.146L131.758 403.854C131.677 403.354 131.272 403 130.786 403H123.014C122.528 403 122.144 403.354 122.063 403.854L121.334 409.146C120.14 409.646 119.047 410.333 118.055 411.104L113.218 409.104C112.773 408.937 112.267 409.104 112.024 409.562L108.158 416.479C107.915 416.917 107.996 417.458 108.401 417.75L112.509 421.042C112.408 421.667 112.327 422.354 112.327 423C112.327 423.646 112.368 424.333 112.469 424.958L108.36 428.25C107.996 428.542 107.895 429.104 108.117 429.521L112.003 436.438C112.246 436.896 112.752 437.042 113.198 436.896L118.035 434.896C119.047 435.687 120.12 436.354 121.314 436.854L122.042 442.146C122.144 442.646 122.528 443 123.014 443H130.786C131.272 443 131.677 442.646 131.737 442.146L132.466 436.854C133.66 436.354 134.753 435.687 135.745 434.896L140.582 436.896C141.027 437.062 141.533 436.896 141.776 436.438L145.662 429.521C145.905 429.062 145.804 428.542 145.419 428.25L141.351 424.958ZM126.9 430.5C122.893 430.5 119.614 427.125 119.614 423C119.614 418.875 122.893 415.5 126.9 415.5C130.907 415.5 134.186 418.875 134.186 423C134.186 427.125 130.907 430.5 126.9 430.5Z" fill="white"/>
</g>
</g>
<g id="entity.capability.technical#database-change-management">
<rect id="entity-box_24" x="96" y="468" width="472" height="74" rx="9" fill="#FCFCFC" stroke="#CCCCCC" stroke-width="2"/>
<text id="entity-name_24" fill="#414042" xml:space="preserve" style="white-space: pre" font-family="Google Sans Text" font-size="26" font-weight="500" letter-spacing="0.03em"><tspan x="172" y="499.84">Database change </tspan><tspan x="172" y="527.84">management</tspan></text>
<g id="icon-group_24">
<path id="icon-bg_24" d="M157 469V468H156H105C100.029 468 96 472.029 96 477V533C96 537.971 100.029 542 105 542H156H157V541V469Z" fill="#33484F" stroke="#33484F" stroke-width="2"/>
<path id="icon_24" d="M141.351 505.958C141.432 505.333 141.473 504.688 141.473 504C141.473 503.333 141.432 502.667 141.331 502.042L145.44 498.75C145.804 498.458 145.905 497.896 145.683 497.479L141.797 490.562C141.554 490.104 141.048 489.958 140.602 490.104L135.765 492.104C134.753 491.312 133.68 490.646 132.486 490.146L131.758 484.854C131.677 484.354 131.272 484 130.786 484H123.014C122.528 484 122.144 484.354 122.063 484.854L121.334 490.146C120.14 490.646 119.047 491.333 118.055 492.104L113.218 490.104C112.773 489.937 112.267 490.104 112.024 490.562L108.158 497.479C107.915 497.917 107.996 498.458 108.401 498.75L112.509 502.042C112.408 502.667 112.327 503.354 112.327 504C112.327 504.646 112.368 505.333 112.469 505.958L108.36 509.25C107.996 509.542 107.895 510.104 108.117 510.521L112.003 517.438C112.246 517.896 112.752 518.042 113.198 517.896L118.035 515.896C119.047 516.687 120.12 517.354 121.314 517.854L122.042 523.146C122.144 523.646 122.528 524 123.014 524H130.786C131.272 524 131.677 523.646 131.737 523.146L132.466 517.854C133.66 517.354 134.753 516.687 135.745 515.896L140.582 517.896C141.027 518.062 141.533 517.896 141.776 517.438L145.662 510.521C145.905 510.062 145.804 509.542 145.419 509.25L141.351 505.958ZM126.9 511.5C122.893 511.5 119.614 508.125 119.614 504C119.614 499.875 122.893 496.5 126.9 496.5C130.907 496.5 134.186 499.875 134.186 504C134.186 508.125 130.907 511.5 126.9 511.5Z" fill="white"/>
</g>
</g>
<g id="entity.capability.technical#deployment-automation">
<rect id="entity-box_25" x="96" y="555" width="472" height="62" rx="9" fill="#FCFCFC" stroke="#CCCCCC" stroke-width="2"/>
<text id="entity-name_25" fill="#414042" xml:space="preserve" style="white-space: pre" font-family="Google Sans Text" font-size="26" font-weight="500" letter-spacing="0.03em"><tspan x="172" y="594.84">Deployment automation</tspan></text>
<g id="icon-group_25">
<path id="icon-bg_25" d="M157 556V555H156H105C100.029 555 96 559.029 96 564V608C96 612.971 100.029 617 105 617H156H157V616V556Z" fill="#33484F" stroke="#33484F" stroke-width="2"/>
<path id="icon_25" d="M141.351 586.958C141.432 586.333 141.473 585.688 141.473 585C141.473 584.333 141.432 583.667 141.331 583.042L145.44 579.75C145.804 579.458 145.905 578.896 145.683 578.479L141.797 571.562C141.554 571.104 141.048 570.958 140.602 571.104L135.765 573.104C134.753 572.312 133.68 571.646 132.486 571.146L131.758 565.854C131.677 565.354 131.272 565 130.786 565H123.014C122.528 565 122.144 565.354 122.063 565.854L121.334 571.146C120.14 571.646 119.047 572.333 118.055 573.104L113.218 571.104C112.773 570.937 112.267 571.104 112.024 571.562L108.158 578.479C107.915 578.917 107.996 579.458 108.401 579.75L112.509 583.042C112.408 583.667 112.327 584.354 112.327 585C112.327 585.646 112.368 586.333 112.469 586.958L108.36 590.25C107.996 590.542 107.895 591.104 108.117 591.521L112.003 598.438C112.246 598.896 112.752 599.042 113.198 598.896L118.035 596.896C119.047 597.687 120.12 598.354 121.314 598.854L122.042 604.146C122.144 604.646 122.528 605 123.014 605H130.786C131.272 605 131.677 604.646 131.737 604.146L132.466 598.854C133.66 598.354 134.753 597.687 135.745 596.896L140.582 598.896C141.027 599.062 141.533 598.896 141.776 598.438L145.662 591.521C145.905 591.062 145.804 590.542 145.419 590.25L141.351 586.958ZM126.9 592.5C122.893 592.5 119.614 589.125 119.614 585C119.614 580.875 122.893 577.5 126.9 577.5C130.907 577.5 134.186 580.875 134.186 585C134.186 589.125 130.907 592.5 126.9 592.5Z" fill="white"/>
</g>
</g>
<g id="entity.capability.technical#teams-empowered-to-choose-tools">
<rect id="entity-box_26" x="96" y="630" width="472" height="74" rx="9" fill="#FCFCFC" stroke="#CCCCCC" stroke-width="2"/>
<text id="entity-name_26" fill="#414042" xml:space="preserve" style="white-space: pre" font-family="Google Sans Text" font-size="26" font-weight="500" letter-spacing="0.03em"><tspan x="172" y="661.84">Empowering teams&#10;</tspan><tspan x="172" y="689.84">to choose tools</tspan></text>
<g id="icon-group_26">
<path id="icon-bg_26" d="M157 631V630H156H105C100.029 630 96 634.029 96 639V695C96 699.971 100.029 704 105 704H156H157V703V631Z" fill="#33484F" stroke="#33484F" stroke-width="2"/>
<path id="icon_26" d="M141.351 667.958C141.432 667.333 141.473 666.688 141.473 666C141.473 665.333 141.432 664.667 141.331 664.042L145.44 660.75C145.804 660.458 145.905 659.896 145.683 659.479L141.797 652.562C141.554 652.104 141.048 651.958 140.602 652.104L135.765 654.104C134.753 653.312 133.68 652.646 132.486 652.146L131.758 646.854C131.677 646.354 131.272 646 130.786 646H123.014C122.528 646 122.144 646.354 122.063 646.854L121.334 652.146C120.14 652.646 119.047 653.333 118.055 654.104L113.218 652.104C112.773 651.937 112.267 652.104 112.024 652.562L108.158 659.479C107.915 659.917 107.996 660.458 108.401 660.75L112.509 664.042C112.408 664.667 112.327 665.354 112.327 666C112.327 666.646 112.368 667.333 112.469 667.958L108.36 671.25C107.996 671.542 107.895 672.104 108.117 672.521L112.003 679.438C112.246 679.896 112.752 680.042 113.198 679.896L118.035 677.896C119.047 678.687 120.12 679.354 121.314 679.854L122.042 685.146C122.144 685.646 122.528 686 123.014 686H130.786C131.272 686 131.677 685.646 131.737 685.146L132.466 679.854C133.66 679.354 134.753 678.687 135.745 677.896L140.582 679.896C141.027 680.062 141.533 679.896 141.776 679.438L145.662 672.521C145.905 672.062 145.804 671.542 145.419 671.25L141.351 667.958ZM126.9 673.5C122.893 673.5 119.614 670.125 119.614 666C119.614 661.875 122.893 658.5 126.9 658.5C130.907 658.5 134.186 661.875 134.186 666C134.186 670.125 130.907 673.5 126.9 673.5Z" fill="white"/>
</g>
</g>
<g id="page-heading">
<g id="logo">
<g id="Core Model">
<path d="M137.284 58.384C136.02 58.384 134.836 58.16 133.732 57.712C132.644 57.248 131.692 56.608 130.876 55.792C130.06 54.976 129.42 54.024 128.956 52.936C128.508 51.848 128.284 50.672 128.284 49.408C128.284 48.144 128.508 46.968 128.956 45.88C129.42 44.792 130.06 43.84 130.876 43.024C131.692 42.208 132.644 41.576 133.732 41.128C134.836 40.664 136.02 40.432 137.284 40.432C138.196 40.432 139.036 40.544 139.804 40.768C140.572 40.976 141.276 41.288 141.916 41.704C142.572 42.12 143.172 42.632 143.716 43.24L141.436 45.448C141.1 45.048 140.724 44.704 140.308 44.416C139.908 44.128 139.46 43.904 138.964 43.744C138.468 43.584 137.916 43.504 137.308 43.504C136.236 43.504 135.26 43.752 134.38 44.248C133.516 44.728 132.828 45.408 132.316 46.288C131.804 47.168 131.548 48.208 131.548 49.408C131.548 50.592 131.804 51.632 132.316 52.528C132.828 53.408 133.516 54.096 134.38 54.592C135.26 55.072 136.236 55.312 137.308 55.312C137.948 55.312 138.54 55.224 139.084 55.048C139.628 54.872 140.124 54.616 140.572 54.28C141.036 53.928 141.46 53.52 141.844 53.056L144.148 55.24C143.588 55.912 142.956 56.488 142.252 56.968C141.548 57.432 140.78 57.784 139.948 58.024C139.116 58.264 138.228 58.384 137.284 58.384Z" fill="#414042"/>
<path d="M152.103 58.384C150.823 58.384 149.687 58.104 148.695 57.544C147.719 56.968 146.951 56.192 146.391 55.216C145.847 54.224 145.575 53.112 145.575 51.88C145.575 50.648 145.847 49.544 146.391 48.568C146.951 47.576 147.719 46.8 148.695 46.24C149.687 45.664 150.823 45.376 152.103 45.376C153.383 45.376 154.511 45.664 155.487 46.24C156.463 46.816 157.223 47.592 157.767 48.568C158.327 49.544 158.607 50.648 158.607 51.88C158.607 53.112 158.327 54.224 157.767 55.216C157.223 56.192 156.463 56.968 155.487 57.544C154.511 58.104 153.383 58.384 152.103 58.384ZM152.103 55.456C152.711 55.456 153.263 55.32 153.759 55.048C154.271 54.76 154.679 54.352 154.983 53.824C155.303 53.28 155.463 52.632 155.463 51.88C155.463 51.128 155.303 50.488 154.983 49.96C154.679 49.432 154.271 49.024 153.759 48.736C153.263 48.448 152.719 48.304 152.127 48.304C151.519 48.304 150.951 48.448 150.423 48.736C149.911 49.024 149.495 49.432 149.175 49.96C148.871 50.488 148.719 51.128 148.719 51.88C148.719 52.632 148.871 53.28 149.175 53.824C149.495 54.352 149.911 54.76 150.423 55.048C150.951 55.32 151.511 55.456 152.103 55.456Z" fill="#414042"/>
<path d="M160.778 58V45.76H163.73V47.392H163.922C164.13 47.008 164.402 46.672 164.738 46.384C165.09 46.08 165.498 45.84 165.962 45.664C166.426 45.488 166.922 45.4 167.45 45.4C167.77 45.4 168.058 45.424 168.314 45.472C168.57 45.52 168.794 45.584 168.986 45.664V48.808C168.65 48.68 168.314 48.576 167.978 48.496C167.658 48.4 167.314 48.352 166.946 48.352C166.322 48.352 165.778 48.512 165.314 48.832C164.866 49.136 164.522 49.56 164.282 50.104C164.042 50.632 163.922 51.232 163.922 51.904V58H160.778Z" fill="#414042"/>
<path d="M176.03 58.384C174.798 58.384 173.694 58.104 172.718 57.544C171.758 56.984 170.998 56.216 170.438 55.24C169.894 54.264 169.622 53.152 169.622 51.904C169.622 50.736 169.894 49.656 170.438 48.664C170.982 47.672 171.726 46.88 172.67 46.288C173.614 45.68 174.694 45.376 175.91 45.376C177.222 45.376 178.326 45.656 179.222 46.216C180.118 46.776 180.798 47.528 181.262 48.472C181.726 49.4 181.958 50.432 181.958 51.568C181.958 51.824 181.95 52.048 181.934 52.24C181.918 52.416 181.902 52.544 181.886 52.624H172.718C172.782 53.088 172.91 53.496 173.102 53.848C173.406 54.424 173.814 54.864 174.326 55.168C174.854 55.456 175.438 55.6 176.078 55.6C176.83 55.6 177.462 55.44 177.974 55.12C178.486 54.784 178.886 54.368 179.174 53.872L181.718 55.12C181.142 56.128 180.39 56.928 179.462 57.52C178.534 58.096 177.39 58.384 176.03 58.384ZM172.838 50.392H178.934C178.918 50.12 178.838 49.84 178.694 49.552C178.55 49.264 178.35 49 178.094 48.76C177.838 48.52 177.526 48.328 177.158 48.184C176.806 48.024 176.398 47.944 175.934 47.944C175.326 47.944 174.766 48.104 174.254 48.424C173.758 48.744 173.366 49.184 173.078 49.744C172.982 49.952 172.902 50.168 172.838 50.392Z" fill="#414042"/>
<path d="M190.437 58V40.816H194.613L199.173 52.888H199.365L203.925 40.816H208.125V58H204.909V49.528L205.101 46.672H204.909L200.541 58H198.021L193.629 46.672H193.437L193.629 49.528V58H190.437Z" fill="#414042"/>
<path d="M217.259 58.384C215.979 58.384 214.843 58.104 213.851 57.544C212.875 56.968 212.107 56.192 211.547 55.216C211.003 54.224 210.731 53.112 210.731 51.88C210.731 50.648 211.003 49.544 211.547 48.568C212.107 47.576 212.875 46.8 213.851 46.24C214.843 45.664 215.979 45.376 217.259 45.376C218.539 45.376 219.667 45.664 220.643 46.24C221.619 46.816 222.379 47.592 222.923 48.568C223.483 49.544 223.763 50.648 223.763 51.88C223.763 53.112 223.483 54.224 222.923 55.216C222.379 56.192 221.619 56.968 220.643 57.544C219.667 58.104 218.539 58.384 217.259 58.384ZM217.259 55.456C217.867 55.456 218.419 55.32 218.915 55.048C219.427 54.76 219.835 54.352 220.139 53.824C220.459 53.28 220.619 52.632 220.619 51.88C220.619 51.128 220.459 50.488 220.139 49.96C219.835 49.432 219.427 49.024 218.915 48.736C218.419 48.448 217.875 48.304 217.283 48.304C216.675 48.304 216.107 48.448 215.579 48.736C215.067 49.024 214.651 49.432 214.331 49.96C214.027 50.488 213.875 51.128 213.875 51.88C213.875 52.632 214.027 53.28 214.331 53.824C214.651 54.352 215.067 54.76 215.579 55.048C216.107 55.32 216.667 55.456 217.259 55.456Z" fill="#414042"/>
<path d="M231.425 58.384C230.305 58.384 229.297 58.112 228.401 57.568C227.505 57.008 226.793 56.24 226.265 55.264C225.753 54.288 225.497 53.16 225.497 51.88C225.497 50.6 225.753 49.472 226.265 48.496C226.793 47.52 227.505 46.76 228.401 46.216C229.297 45.656 230.305 45.376 231.425 45.376C232.017 45.376 232.553 45.464 233.033 45.64C233.513 45.816 233.929 46.048 234.281 46.336C234.633 46.624 234.905 46.928 235.097 47.248H235.289L235.097 45.52V40.816H238.217V58H235.289V56.536H235.097C234.905 56.856 234.633 57.16 234.281 57.448C233.929 57.72 233.513 57.944 233.033 58.12C232.553 58.296 232.017 58.384 231.425 58.384ZM231.953 55.48C232.545 55.48 233.089 55.328 233.585 55.024C234.097 54.72 234.505 54.304 234.809 53.776C235.129 53.232 235.289 52.6 235.289 51.88C235.289 51.16 235.129 50.536 234.809 50.008C234.505 49.464 234.097 49.048 233.585 48.76C233.089 48.456 232.545 48.304 231.953 48.304C231.377 48.304 230.833 48.456 230.321 48.76C229.825 49.048 229.417 49.456 229.097 49.984C228.793 50.512 228.641 51.144 228.641 51.88C228.641 52.6 228.793 53.232 229.097 53.776C229.417 54.32 229.825 54.744 230.321 55.048C230.833 55.336 231.377 55.48 231.953 55.48Z" fill="#414042"/>
<path d="M246.928 58.384C245.696 58.384 244.592 58.104 243.616 57.544C242.656 56.984 241.896 56.216 241.336 55.24C240.792 54.264 240.52 53.152 240.52 51.904C240.52 50.736 240.792 49.656 241.336 48.664C241.88 47.672 242.624 46.88 243.568 46.288C244.512 45.68 245.592 45.376 246.808 45.376C248.12 45.376 249.224 45.656 250.12 46.216C251.016 46.776 251.696 47.528 252.16 48.472C252.624 49.4 252.856 50.432 252.856 51.568C252.856 51.824 252.848 52.048 252.832 52.24C252.816 52.416 252.8 52.544 252.784 52.624H243.616C243.68 53.088 243.808 53.496 244 53.848C244.304 54.424 244.712 54.864 245.224 55.168C245.752 55.456 246.336 55.6 246.976 55.6C247.728 55.6 248.36 55.44 248.872 55.12C249.384 54.784 249.784 54.368 250.072 53.872L252.616 55.12C252.04 56.128 251.288 56.928 250.36 57.52C249.432 58.096 248.288 58.384 246.928 58.384ZM243.736 50.392H249.832C249.816 50.12 249.736 49.84 249.592 49.552C249.448 49.264 249.248 49 248.992 48.76C248.736 48.52 248.424 48.328 248.056 48.184C247.704 48.024 247.296 47.944 246.832 47.944C246.224 47.944 245.664 48.104 245.152 48.424C244.656 48.744 244.264 49.184 243.976 49.744C243.88 49.952 243.8 50.168 243.736 50.392Z" fill="#414042"/>
<path d="M255.302 58V40.816H258.446V58H255.302Z" fill="#414042"/>
</g>
<g id="dora-logo">
<path id="Vector" d="M82.5 20.9285L50.55 35.7853V80.0715L82.5 65.2148L114.45 80.0715V35.7853L82.5 20.9285Z" fill="#005E8D"/>
<path id="Vector_2" d="M109.778 56.9148H106.242L105.366 53.5068H100.871L99.9944 56.9148H96.4586L101.191 41.0641H105.124L109.778 56.9148ZM101.745 50.2621H104.528L103.147 44.8413L101.745 50.2621Z" fill="white"/>
<path id="Vector_3" d="M77.5442 56.9148H73.5966C71.6299 56.9148 70.0324 55.2818 70.0324 53.2761V44.7028C70.0324 42.6971 71.6299 41.0641 73.5966 41.0641H77.5442C79.5109 41.0641 81.1084 42.6971 81.1084 44.7028V53.2761C81.1084 55.2818 79.5109 56.9148 77.5442 56.9148ZM74.2569 44.3372C73.7209 44.3372 73.2842 44.7916 73.2842 45.3525V52.6229C73.2842 53.1838 73.7209 53.6382 74.2569 53.6382H76.8839C77.42 53.6382 77.8602 53.1838 77.8602 52.6229V45.3525C77.8602 44.7916 77.4235 44.3372 76.8839 44.3372H74.2569Z" fill="white"/>
<path id="Vector_4" d="M95.0741 56.9148H91.6377L89.49 51.8987H87.1612V56.9148H83.9662V41.0605H91.1336C93.0932 41.0605 94.6872 42.6935 94.6872 44.6993V48.2599C94.6872 49.6267 93.9452 50.8621 92.7737 51.4833L95.0706 56.9113L95.0741 56.9148ZM87.1683 48.6256H90.5017C91.0484 48.6256 91.4957 48.1676 91.4957 47.6067V45.3489C91.4957 44.788 91.052 44.3336 90.5017 44.3336H87.1683V48.6256Z" fill="white"/>
<path id="Vector_5" d="M62.9963 41.0605H56.0631V56.9113H62.9963C65.2718 56.9113 67.1178 55.0653 67.1178 52.7897V45.1856C67.1178 42.9101 65.2718 41.0641 62.9963 41.0641V41.0605ZM63.9122 52.2182C63.9122 53.0027 63.2767 53.6382 62.4922 53.6382H59.2688V44.3336H62.4922C63.2767 44.3336 63.9122 44.9691 63.9122 45.7536V52.2182Z" fill="white"/>
</g>
</g>
</g>
<g id="legend#capabilities">
<path id="Rectangle 8" d="M741 49.7068C741 38.8635 749.79 30.0733 760.634 30.0733H908.866C919.71 30.0733 928.5 38.8635 928.5 49.7068V49.7068C928.5 60.5501 919.71 69.3403 908.866 69.3403H760.634C749.79 69.3403 741 60.5501 741 49.7068V49.7068Z" fill="#33484F"/>
<text id="capabilities" fill="white" xml:space="preserve" style="white-space: pre" font-family="Google Sans Text" font-size="25" font-weight="500" letter-spacing="0em"><tspan x="765.114" y="57.3233">capabilities</tspan></text>
</g>
<g id="legend#performance">
<path id="Rectangle 9" d="M1244 49.7068C1244 38.8635 1252.79 30.0733 1263.63 30.0733H1411.87C1422.71 30.0733 1431.5 38.8635 1431.5 49.7068V49.7068C1431.5 60.5501 1422.71 69.3403 1411.87 69.3403H1263.63C1252.79 69.3403 1244 60.5501 1244 49.7068V49.7068Z" fill="#63A657"/>
<text id="performance" fill="white" xml:space="preserve" style="white-space: pre" font-family="Google Sans Text" font-size="25" font-weight="500" letter-spacing="0em"><tspan x="1261.48" y="56.0733">performance</tspan></text>
</g>
<g id="legend#outcomes">
<path id="Rectangle 10" d="M1775 49.7068C1775 38.8635 1783.79 30.0733 1794.63 30.0733H1942.87C1953.71 30.0733 1962.5 38.8635 1962.5 49.7068V49.7068C1962.5 60.5501 1953.71 69.3403 1942.87 69.3403H1794.63C1783.79 69.3403 1775 60.5501 1775 49.7068V49.7068Z" fill="#005E8D"/>
<text id="outcomes" fill="white" xml:space="preserve" style="white-space: pre" font-family="Google Sans Text" font-size="25" font-weight="500" letter-spacing="0em"><tspan x="1810.52" y="57.3233">outcomes</tspan></text>
</g>
<line id="Line 1" y1="100.5" x2="2112" y2="100.5" stroke="#CCCCCC"/>
<text id="url" fill="#33484F" xml:space="preserve" style="white-space: pre" font-family="Google Sans Text" font-size="18" letter-spacing="0em"><tspan x="353" y="56.62">dora.dev/core</tspan></text>
<path id="entity.capability.technical#continuous-delivery --&#62; entity.capability.technical#generative-organizational-culture" d="M834.5 685V760" stroke="#999999" stroke-width="2"/>
<path id="entity.capability.technical#generative-organizational-culture --&#62; construct#software-delivery-performance" d="M1146 450L1135.07 446.282L1137.31 457.608L1146 450ZM989 815C998.848 815 1007.4 809.521 1014.94 800.178C1022.48 790.842 1029.1 777.532 1035.1 761.576C1047.11 729.659 1056.74 686.853 1066.18 643.289C1075.63 599.685 1084.89 555.312 1096.14 520.133C1101.77 502.545 1107.88 487.305 1114.73 475.632C1121.6 463.938 1129.13 455.96 1137.55 452.68L1136.82 450.817C1127.78 454.339 1119.96 462.782 1113.01 474.619C1106.04 486.477 1099.88 501.876 1094.24 519.524C1082.95 554.818 1073.67 599.308 1064.23 642.865C1054.78 686.463 1045.17 729.118 1033.23 760.872C1027.26 776.752 1020.73 789.83 1013.39 798.922C1006.05 808.009 998.013 813 989 813V815Z" fill="#999999"/>
<path id="construct#software-delivery-performance --&#62; construct#organizational-performance" d="M1676 450L1666 444.226V455.774L1676 450ZM1552 451H1667V449H1552V451Z" fill="#999999"/>
<path id="entity.capability.technical#shifting-left-on-security --&#62; construct#software-delivery-performance" d="M1146 450L1136 444.226V455.774L1146 450ZM989 451H1137V449H989V451Z" fill="#999999"/>
<path id="entity.capability.technical#flexible-infrastructure --&#62; construct#technical-capabilities" d="M332 254L325.096 244.745L320.532 255.352L332 254ZM179.5 215C179.5 217.793 181.411 220.069 184.314 221.942C187.238 223.829 191.401 225.466 196.432 226.938C206.508 229.885 220.365 232.252 235.522 234.54C265.932 239.131 301.587 243.416 323.392 251.384L324.078 249.505C302.026 241.447 266.063 237.128 235.82 232.562C220.651 230.272 206.922 227.922 196.994 225.018C192.023 223.564 188.079 221.992 185.398 220.261C182.694 218.517 181.5 216.766 181.5 215H179.5Z" fill="#999999"/>
<path id="entity.capability.technical#documentation-quality --&#62; construct#technical-capabilities" d="M332 254L343.279 251.527L335.498 242.996L332 254ZM481.5 214C481.5 215.627 480.177 217.343 477.035 219.097C473.959 220.815 469.47 222.378 463.897 223.824C452.767 226.712 437.591 229.063 421.437 231.31C405.31 233.553 388.216 235.692 373.338 238.155C358.495 240.613 345.696 243.416 338.213 247.036L339.084 248.836C346.269 245.361 358.786 242.592 373.665 240.129C388.509 237.671 405.545 235.54 421.713 233.291C437.855 231.045 453.141 228.681 464.4 225.76C470.021 224.302 474.708 222.687 478.01 220.843C481.245 219.037 483.5 216.809 483.5 214H481.5Z" fill="#999999"/>
<path id="construct#technical-capabilities --&#62; entity.capability.technical#shifting-left-on-security" d="M680 450L668.63 447.988L672.572 458.841L680 450ZM581 712C587.275 712 592.667 708.134 597.359 701.71C602.056 695.281 606.181 686.125 609.916 675.146C617.39 653.18 623.401 623.62 629.233 593.226C635.072 562.796 640.733 531.519 647.508 506.007C650.895 493.252 654.552 481.977 658.631 472.992C662.723 463.981 667.185 457.399 672.117 453.889L670.958 452.259C665.586 456.082 660.944 463.061 656.81 472.165C652.664 481.296 648.975 492.692 645.575 505.493C638.777 531.092 633.099 562.463 627.269 592.849C621.432 623.269 615.444 652.69 608.023 674.502C604.311 685.413 600.264 694.344 595.744 700.53C591.221 706.723 586.351 710 581 710V712Z" fill="#999999"/>
<path id="construct#technical-capabilities --&#62; entity.capability.technical#continuous-delivery" d="M680 631L669.282 626.705L670.921 638.135L680 631ZM581 712C604.777 712 617.368 694.404 628.969 676.071C634.81 666.84 640.402 657.41 647.079 649.613C653.739 641.837 661.407 635.777 671.336 633.247L670.842 631.309C660.375 633.976 652.377 640.353 645.56 648.312C638.762 656.25 633.069 665.851 627.279 675.001C615.617 693.431 603.559 710 581 710V712Z" fill="#999999"/>
<path id="entity.capability.technical#continuous-delivery --&#62; construct#software-delivery-performance" d="M1146 450L1135.44 445.332L1136.68 456.812L1146 450ZM989 632C1008.28 632 1022.87 621.375 1034.94 605.475C1047 589.598 1056.66 568.315 1066.09 546.718C1075.54 525.069 1084.77 503.099 1095.97 485.637C1107.17 468.174 1120.23 455.42 1137.26 451.944L1136.86 449.984C1119.04 453.622 1105.6 466.931 1094.29 484.557C1082.98 502.186 1073.68 524.336 1064.26 545.918C1054.81 567.551 1045.23 588.609 1033.35 604.266C1021.48 619.899 1007.42 630 989 630V632Z" fill="#999999"/>
<path id="construct#job-satisfaction --&#62; construct#organizational-performance" d="M1868 573L1862.23 583H1873.77L1868 573ZM1869 662V582H1867V662H1869Z" fill="#999999"/>
<path id="entity.capability.technical#generative-organizational-culture --&#62; construct#job-satisfaction" d="M1676 802.5L1665.99 796.738L1666.01 808.285L1676 802.5ZM989 815C1159.25 815 1245.13 812.247 1330.26 809.434C1415.37 806.621 1499.74 803.749 1666.97 803.51L1666.97 801.51C1499.71 801.749 1415.32 804.622 1330.19 807.435C1245.07 810.247 1159.22 813 989 813V815Z" fill="#999999"/>
<path id="entity.capability.technical#streamlining-change-approval --&#62; construct#job-satisfaction" d="M1676 802.5L1665.97 796.785L1666.03 808.331L1676 802.5ZM989 996C1159.48 996 1245.53 948.7 1330.71 901.007C1415.79 853.374 1499.99 805.36 1666.98 803.552L1666.96 801.552C1499.46 803.366 1414.9 851.576 1329.73 899.262C1244.67 946.887 1158.98 994 989 994V996Z" fill="#999999"/>
<path id="entity.capability.technical#continuous-delivery --&#62; construct#job-satisfaction" d="M1676 802.5L1666.81 795.503L1665.35 806.956L1676 802.5ZM989 632C1159.08 632 1244.81 663.554 1329.85 700.606C1414.98 737.698 1499.49 780.342 1666.94 802.348L1667.2 800.365C1500.06 778.4 1415.78 735.867 1330.65 698.773C1245.42 661.639 1159.42 630 989 630V632Z" fill="#999999"/>
<path id="entity.capability.technical#streamlining-change-approval --&#62; construct#software-delivery-performance" d="M1146 450L1134.8 447.181L1137.96 458.288L1146 450ZM989 996C999.046 996 1007.6 987.65 1015.06 973.786C1022.56 959.845 1029.17 939.947 1035.16 916.04C1047.16 868.211 1056.79 804.052 1066.24 738.722C1075.69 673.363 1084.96 606.824 1096.24 554.147C1101.88 527.807 1108.01 504.976 1114.9 487.51C1118.35 478.778 1121.97 471.414 1125.8 465.634C1129.64 459.846 1133.64 455.702 1137.82 453.334L1136.84 451.594C1132.28 454.175 1128.06 458.599 1124.13 464.529C1120.2 470.466 1116.52 477.967 1113.04 486.776C1106.09 504.393 1099.93 527.35 1094.29 553.728C1082.99 606.488 1073.71 673.11 1064.26 738.436C1054.81 803.791 1045.19 867.842 1033.22 915.553C1027.24 939.415 1020.68 959.12 1013.3 972.838C1005.88 986.633 997.829 994 989 994V996Z" fill="#999999"/>
<path id="legend#capabilities --&#62; legend#performance" d="M1244 49.7068L1234 43.9333V55.4804L1244 49.7068ZM928.5 50.7068H1235V48.7068H928.5V50.7068Z" fill="#999999"/>
<path id="legend#performance --&#62; legend#outcomes" d="M1775 49.7068L1765 43.9333V55.4804L1775 49.7068ZM1431.5 50.7068H1766V48.7068H1431.5V50.7068Z" fill="#999999"/>
<g id="legend#predict">
<rect id="Rectangle 11" x="1026.25" y="35" width="119.143" height="30" rx="5" fill="white" stroke="#999999" stroke-width="2.5"/>
<text id="predict" fill="#414042" xml:space="preserve" style="white-space: pre" font-family="Google Sans Text" font-size="20" font-weight="500" letter-spacing="0em"><tspan x="1051.85" y="55.55">predict</tspan></text>
</g>
<g id="legend#predicts">
<rect id="Rectangle 12" x="1543.25" y="35" width="119.143" height="30" rx="5" fill="white" stroke="#999999" stroke-width="2.5"/>
<text id="predicts" fill="#414042" xml:space="preserve" style="white-space: pre" font-family="Google Sans Text" font-size="20" font-weight="500" letter-spacing="0em"><tspan x="1563.69" y="55.55">predicts</tspan></text>
</g>
</g>
<defs>
<clipPath id="clip0_5_88">
<rect width="2112" height="1188" fill="white"/>
</clipPath>
</defs>
</svg>
