<svg width="683" height="377" viewBox="0 0 683 377" fill="none" xmlns="http://www.w3.org/2000/svg">
<line x1="108.5" y1="52" x2="108.5" y2="312" stroke="black"/>
<line x1="295.5" y1="52" x2="295.5" y2="312" stroke="black"/>
<line x1="483.5" y1="52" x2="483.5" y2="312" stroke="black"/>
<line x1="670.5" y1="52" x2="670.5" y2="312" stroke="black"/>
<path d="M113.69 29V9.95H107.66V7.52H122.24V9.95H116.24V29H113.69ZM129.709 29.48C128.169 29.48 126.809 29.12 125.629 28.4C124.449 27.68 123.519 26.71 122.839 25.49C122.179 24.25 121.849 22.87 121.849 21.35C121.849 19.83 122.179 18.46 122.839 17.24C123.519 16 124.449 15.02 125.629 14.3C126.809 13.58 128.169 13.22 129.709 13.22C131.249 13.22 132.609 13.59 133.789 14.33C134.969 15.05 135.889 16.03 136.549 17.27C137.229 18.49 137.569 19.85 137.569 21.35C137.569 22.87 137.229 24.25 136.549 25.49C135.889 26.71 134.969 27.68 133.789 28.4C132.609 29.12 131.249 29.48 129.709 29.48ZM129.709 27.17C130.629 27.17 131.489 26.94 132.289 26.48C133.109 26.02 133.769 25.36 134.269 24.5C134.769 23.62 135.019 22.57 135.019 21.35C135.019 20.13 134.769 19.09 134.269 18.23C133.769 17.35 133.109 16.68 132.289 16.22C131.489 15.76 130.629 15.53 129.709 15.53C128.789 15.53 127.919 15.76 127.099 16.22C126.279 16.68 125.619 17.35 125.119 18.23C124.619 19.09 124.369 20.13 124.369 21.35C124.369 22.57 124.619 23.62 125.119 24.5C125.619 25.36 126.279 26.02 127.099 26.48C127.919 26.94 128.789 27.17 129.709 27.17ZM140.471 35.48V13.7H142.901V15.98H143.021C143.301 15.5 143.691 15.05 144.191 14.63C144.711 14.21 145.311 13.87 145.991 13.61C146.671 13.35 147.421 13.22 148.241 13.22C149.641 13.22 150.891 13.57 151.991 14.27C153.091 14.97 153.961 15.93 154.601 17.15C155.241 18.37 155.561 19.77 155.561 21.35C155.561 22.93 155.241 24.33 154.601 25.55C153.961 26.77 153.091 27.73 151.991 28.43C150.891 29.13 149.641 29.48 148.241 29.48C147.021 29.48 145.951 29.2 145.031 28.64C144.111 28.08 143.441 27.45 143.021 26.75H142.901L143.021 28.85V35.48H140.471ZM147.971 27.17C148.851 27.17 149.671 26.94 150.431 26.48C151.211 26 151.831 25.32 152.291 24.44C152.771 23.56 153.011 22.53 153.011 21.35C153.011 20.15 152.771 19.12 152.291 18.26C151.831 17.38 151.211 16.71 150.431 16.25C149.671 15.77 148.851 15.53 147.971 15.53C147.091 15.53 146.261 15.77 145.481 16.25C144.721 16.71 144.101 17.38 143.621 18.26C143.141 19.12 142.901 20.15 142.901 21.35C142.901 22.55 143.141 23.59 143.621 24.47C144.101 25.33 144.721 26 145.481 26.48C146.261 26.94 147.091 27.17 147.971 27.17ZM164.322 16.01V13.7H167.022V9.38H169.572V13.7H173.322V16.01H169.572V24.35C169.572 25.21 169.742 25.85 170.082 26.27C170.442 26.67 170.972 26.87 171.672 26.87C171.992 26.87 172.292 26.83 172.572 26.75C172.852 26.65 173.122 26.52 173.382 26.36V28.85C173.062 28.97 172.732 29.06 172.392 29.12C172.052 29.2 171.682 29.24 171.282 29.24C170.002 29.24 168.972 28.86 168.192 28.1C167.412 27.32 167.022 26.28 167.022 24.98V16.01H164.322ZM176.36 29V7.52H178.91V13.85L178.79 15.95H178.91C179.31 15.19 179.96 14.55 180.86 14.03C181.78 13.49 182.79 13.22 183.89 13.22C185.19 13.22 186.26 13.48 187.1 14C187.94 14.52 188.57 15.23 188.99 16.13C189.41 17.01 189.62 18.03 189.62 19.19V29H187.07V19.58C187.07 18.6 186.89 17.82 186.53 17.24C186.19 16.64 185.73 16.21 185.15 15.95C184.59 15.67 183.97 15.53 183.29 15.53C182.45 15.53 181.7 15.77 181.04 16.25C180.38 16.73 179.86 17.35 179.48 18.11C179.1 18.87 178.91 19.66 178.91 20.48V29H176.36ZM193.206 29V13.7H195.636V16.16H195.756C195.956 15.58 196.286 15.08 196.746 14.66C197.226 14.22 197.766 13.88 198.366 13.64C198.986 13.38 199.596 13.25 200.196 13.25C200.656 13.25 201.016 13.28 201.276 13.34C201.536 13.38 201.776 13.45 201.996 13.55V16.31C201.676 16.15 201.326 16.03 200.946 15.95C200.586 15.87 200.216 15.83 199.836 15.83C199.096 15.83 198.416 16.04 197.796 16.46C197.176 16.88 196.676 17.44 196.296 18.14C195.936 18.84 195.756 19.61 195.756 20.45V29H193.206ZM210.533 29.48C209.053 29.48 207.733 29.13 206.573 28.43C205.433 27.73 204.533 26.77 203.873 25.55C203.233 24.33 202.913 22.94 202.913 21.38C202.913 19.92 203.213 18.57 203.813 17.33C204.433 16.09 205.293 15.1 206.393 14.36C207.513 13.6 208.823 13.22 210.323 13.22C211.843 13.22 213.143 13.56 214.223 14.24C215.323 14.9 216.163 15.82 216.743 17C217.343 18.18 217.643 19.53 217.643 21.05C217.643 21.19 217.633 21.33 217.613 21.47C217.613 21.61 217.603 21.73 217.583 21.83H205.463C205.523 22.93 205.773 23.86 206.213 24.62C206.713 25.48 207.353 26.12 208.133 26.54C208.933 26.96 209.763 27.17 210.623 27.17C211.743 27.17 212.663 26.91 213.383 26.39C214.123 25.85 214.713 25.19 215.153 24.41L217.313 25.46C216.713 26.62 215.853 27.58 214.733 28.34C213.613 29.1 212.213 29.48 210.533 29.48ZM205.613 19.73H214.943C214.923 19.31 214.823 18.86 214.643 18.38C214.483 17.88 214.213 17.42 213.833 17C213.473 16.56 213.003 16.21 212.423 15.95C211.863 15.67 211.163 15.53 210.323 15.53C209.323 15.53 208.453 15.79 207.713 16.31C206.993 16.81 206.443 17.5 206.063 18.38C205.863 18.8 205.713 19.25 205.613 19.73ZM227.35 29.48C225.87 29.48 224.55 29.13 223.39 28.43C222.25 27.73 221.35 26.77 220.69 25.55C220.05 24.33 219.73 22.94 219.73 21.38C219.73 19.92 220.03 18.57 220.63 17.33C221.25 16.09 222.11 15.1 223.21 14.36C224.33 13.6 225.64 13.22 227.14 13.22C228.66 13.22 229.96 13.56 231.04 14.24C232.14 14.9 232.98 15.82 233.56 17C234.16 18.18 234.46 19.53 234.46 21.05C234.46 21.19 234.45 21.33 234.43 21.47C234.43 21.61 234.42 21.73 234.4 21.83H222.28C222.34 22.93 222.59 23.86 223.03 24.62C223.53 25.48 224.17 26.12 224.95 26.54C225.75 26.96 226.58 27.17 227.44 27.17C228.56 27.17 229.48 26.91 230.2 26.39C230.94 25.85 231.53 25.19 231.97 24.41L234.13 25.46C233.53 26.62 232.67 27.58 231.55 28.34C230.43 29.1 229.03 29.48 227.35 29.48ZM222.43 19.73H231.76C231.74 19.31 231.64 18.86 231.46 18.38C231.3 17.88 231.03 17.42 230.65 17C230.29 16.56 229.82 16.21 229.24 15.95C228.68 15.67 227.98 15.53 227.14 15.53C226.14 15.53 225.27 15.79 224.53 16.31C223.81 16.81 223.26 17.5 222.88 18.38C222.68 18.8 222.53 19.25 222.43 19.73ZM249.879 29.48C247.999 29.48 246.579 28.93 245.619 27.83C244.679 26.73 244.209 25.23 244.209 23.33V13.7H246.759V22.94C246.759 24.46 247.109 25.55 247.809 26.21C248.509 26.85 249.379 27.17 250.419 27.17C251.319 27.17 252.099 26.94 252.759 26.48C253.419 26 253.929 25.39 254.289 24.65C254.649 23.91 254.829 23.14 254.829 22.34V13.7H257.379V29H254.949V26.78H254.829C254.569 27.26 254.179 27.71 253.659 28.13C253.159 28.53 252.579 28.85 251.919 29.09C251.279 29.35 250.599 29.48 249.879 29.48ZM266.427 29.48C265.287 29.48 264.277 29.3 263.397 28.94C262.537 28.56 261.817 28.06 261.237 27.44C260.677 26.8 260.257 26.11 259.977 25.37L262.257 24.35C262.657 25.27 263.237 25.98 263.997 26.48C264.757 26.98 265.627 27.23 266.607 27.23C267.547 27.23 268.327 27.04 268.947 26.66C269.587 26.28 269.907 25.72 269.907 24.98C269.907 24.52 269.777 24.14 269.517 23.84C269.257 23.52 268.877 23.25 268.377 23.03C267.877 22.81 267.267 22.61 266.547 22.43L264.687 21.95C263.967 21.75 263.287 21.47 262.647 21.11C262.007 20.75 261.487 20.29 261.087 19.73C260.707 19.15 260.517 18.45 260.517 17.63C260.517 16.71 260.787 15.92 261.327 15.26C261.867 14.6 262.577 14.1 263.457 13.76C264.337 13.4 265.277 13.22 266.277 13.22C267.157 13.22 267.977 13.35 268.737 13.61C269.517 13.85 270.197 14.22 270.777 14.72C271.357 15.2 271.797 15.8 272.097 16.52L269.877 17.54C269.497 16.78 268.987 16.25 268.347 15.95C267.707 15.65 266.997 15.5 266.217 15.5C265.377 15.5 264.647 15.69 264.027 16.07C263.407 16.43 263.097 16.93 263.097 17.57C263.097 18.21 263.347 18.69 263.847 19.01C264.367 19.33 264.997 19.59 265.737 19.79L267.957 20.36C269.457 20.74 270.587 21.31 271.347 22.07C272.107 22.81 272.487 23.72 272.487 24.8C272.487 25.76 272.217 26.59 271.677 27.29C271.137 27.99 270.407 28.53 269.487 28.91C268.567 29.29 267.547 29.48 266.427 29.48ZM282.018 29.48C280.538 29.48 279.218 29.13 278.058 28.43C276.918 27.73 276.018 26.77 275.358 25.55C274.718 24.33 274.398 22.94 274.398 21.38C274.398 19.92 274.698 18.57 275.298 17.33C275.918 16.09 276.778 15.1 277.878 14.36C278.998 13.6 280.308 13.22 281.808 13.22C283.328 13.22 284.628 13.56 285.708 14.24C286.808 14.9 287.648 15.82 288.228 17C288.828 18.18 289.128 19.53 289.128 21.05C289.128 21.19 289.118 21.33 289.098 21.47C289.098 21.61 289.088 21.73 289.068 21.83H276.948C277.008 22.93 277.258 23.86 277.698 24.62C278.198 25.48 278.838 26.12 279.618 26.54C280.418 26.96 281.248 27.17 282.108 27.17C283.228 27.17 284.148 26.91 284.868 26.39C285.608 25.85 286.198 25.19 286.638 24.41L288.798 25.46C288.198 26.62 287.338 27.58 286.218 28.34C285.098 29.1 283.698 29.48 282.018 29.48ZM277.098 19.73H286.428C286.408 19.31 286.308 18.86 286.128 18.38C285.968 17.88 285.698 17.42 285.318 17C284.958 16.56 284.488 16.21 283.908 15.95C283.348 15.67 282.648 15.53 281.808 15.53C280.808 15.53 279.938 15.79 279.198 16.31C278.478 16.81 277.928 17.5 277.548 18.38C277.348 18.8 277.198 19.25 277.098 19.73ZM305.927 29.48C304.427 29.48 303.087 29.13 301.907 28.43C300.747 27.71 299.837 26.74 299.177 25.52C298.517 24.28 298.187 22.89 298.187 21.35C298.187 19.79 298.517 18.4 299.177 17.18C299.837 15.96 300.747 15 301.907 14.3C303.087 13.58 304.427 13.22 305.927 13.22C307.647 13.22 309.057 13.62 310.157 14.42C311.277 15.2 312.067 16.21 312.527 17.45L310.217 18.41C309.837 17.47 309.267 16.76 308.507 16.28C307.767 15.78 306.867 15.53 305.807 15.53C304.907 15.53 304.067 15.77 303.287 16.25C302.527 16.73 301.907 17.41 301.427 18.29C300.947 19.15 300.707 20.17 300.707 21.35C300.707 22.51 300.947 23.53 301.427 24.41C301.907 25.29 302.527 25.97 303.287 26.45C304.067 26.93 304.907 27.17 305.807 27.17C306.887 27.17 307.817 26.92 308.597 26.42C309.377 25.92 309.957 25.21 310.337 24.29L312.617 25.25C312.117 26.43 311.307 27.43 310.187 28.25C309.067 29.07 307.647 29.48 305.927 29.48ZM320.148 29.48C319.008 29.48 318.008 29.26 317.148 28.82C316.288 28.38 315.608 27.78 315.108 27.02C314.628 26.24 314.388 25.36 314.388 24.38C314.388 23.26 314.678 22.32 315.258 21.56C315.838 20.78 316.618 20.2 317.598 19.82C318.578 19.42 319.658 19.22 320.838 19.22C321.518 19.22 322.148 19.28 322.728 19.4C323.308 19.5 323.808 19.63 324.228 19.79C324.668 19.93 324.998 20.07 325.218 20.21V19.28C325.218 18.12 324.808 17.2 323.988 16.52C323.168 15.84 322.168 15.5 320.988 15.5C320.148 15.5 319.358 15.69 318.618 16.07C317.898 16.43 317.328 16.94 316.908 17.6L314.988 16.16C315.388 15.56 315.888 15.04 316.488 14.6C317.088 14.16 317.768 13.82 318.528 13.58C319.308 13.34 320.128 13.22 320.988 13.22C323.068 13.22 324.698 13.77 325.878 14.87C327.058 15.97 327.648 17.45 327.648 19.31V29H325.218V26.81H325.098C324.838 27.25 324.468 27.68 323.988 28.1C323.508 28.5 322.938 28.83 322.278 29.09C321.638 29.35 320.928 29.48 320.148 29.48ZM320.388 27.23C321.268 27.23 322.068 27.01 322.788 26.57C323.528 26.13 324.118 25.54 324.558 24.8C324.998 24.06 325.218 23.25 325.218 22.37C324.758 22.05 324.178 21.79 323.478 21.59C322.798 21.39 322.048 21.29 321.228 21.29C319.768 21.29 318.698 21.59 318.018 22.19C317.338 22.79 316.998 23.53 316.998 24.41C316.998 25.25 317.318 25.93 317.958 26.45C318.598 26.97 319.408 27.23 320.388 27.23ZM336.475 29.48C335.335 29.48 334.325 29.3 333.445 28.94C332.585 28.56 331.865 28.06 331.285 27.44C330.725 26.8 330.305 26.11 330.025 25.37L332.305 24.35C332.705 25.27 333.285 25.98 334.045 26.48C334.805 26.98 335.675 27.23 336.655 27.23C337.595 27.23 338.375 27.04 338.995 26.66C339.635 26.28 339.955 25.72 339.955 24.98C339.955 24.52 339.825 24.14 339.565 23.84C339.305 23.52 338.925 23.25 338.425 23.03C337.925 22.81 337.315 22.61 336.595 22.43L334.735 21.95C334.015 21.75 333.335 21.47 332.695 21.11C332.055 20.75 331.535 20.29 331.135 19.73C330.755 19.15 330.565 18.45 330.565 17.63C330.565 16.71 330.835 15.92 331.375 15.26C331.915 14.6 332.625 14.1 333.505 13.76C334.385 13.4 335.325 13.22 336.325 13.22C337.205 13.22 338.025 13.35 338.785 13.61C339.565 13.85 340.245 14.22 340.825 14.72C341.405 15.2 341.845 15.8 342.145 16.52L339.925 17.54C339.545 16.78 339.035 16.25 338.395 15.95C337.755 15.65 337.045 15.5 336.265 15.5C335.425 15.5 334.695 15.69 334.075 16.07C333.455 16.43 333.145 16.93 333.145 17.57C333.145 18.21 333.395 18.69 333.895 19.01C334.415 19.33 335.045 19.59 335.785 19.79L338.005 20.36C339.505 20.74 340.635 21.31 341.395 22.07C342.155 22.81 342.535 23.72 342.535 24.8C342.535 25.76 342.265 26.59 341.725 27.29C341.185 27.99 340.455 28.53 339.535 28.91C338.615 29.29 337.595 29.48 336.475 29.48ZM352.066 29.48C350.586 29.48 349.266 29.13 348.106 28.43C346.966 27.73 346.066 26.77 345.406 25.55C344.766 24.33 344.446 22.94 344.446 21.38C344.446 19.92 344.746 18.57 345.346 17.33C345.966 16.09 346.826 15.1 347.926 14.36C349.046 13.6 350.356 13.22 351.856 13.22C353.376 13.22 354.676 13.56 355.756 14.24C356.856 14.9 357.696 15.82 358.276 17C358.876 18.18 359.176 19.53 359.176 21.05C359.176 21.19 359.166 21.33 359.146 21.47C359.146 21.61 359.136 21.73 359.116 21.83H346.996C347.056 22.93 347.306 23.86 347.746 24.62C348.246 25.48 348.886 26.12 349.666 26.54C350.466 26.96 351.296 27.17 352.156 27.17C353.276 27.17 354.196 26.91 354.916 26.39C355.656 25.85 356.246 25.19 356.686 24.41L358.846 25.46C358.246 26.62 357.386 27.58 356.266 28.34C355.146 29.1 353.746 29.48 352.066 29.48ZM347.146 19.73H356.476C356.456 19.31 356.356 18.86 356.176 18.38C356.016 17.88 355.746 17.42 355.366 17C355.006 16.56 354.536 16.21 353.956 15.95C353.396 15.67 352.696 15.53 351.856 15.53C350.856 15.53 349.986 15.79 349.246 16.31C348.526 16.81 347.976 17.5 347.596 18.38C347.396 18.8 347.246 19.25 347.146 19.73ZM367.413 29.48C366.273 29.48 365.263 29.3 364.383 28.94C363.523 28.56 362.803 28.06 362.223 27.44C361.663 26.8 361.243 26.11 360.963 25.37L363.243 24.35C363.643 25.27 364.223 25.98 364.983 26.48C365.743 26.98 366.613 27.23 367.593 27.23C368.533 27.23 369.313 27.04 369.933 26.66C370.573 26.28 370.893 25.72 370.893 24.98C370.893 24.52 370.763 24.14 370.503 23.84C370.243 23.52 369.863 23.25 369.363 23.03C368.863 22.81 368.253 22.61 367.533 22.43L365.673 21.95C364.953 21.75 364.273 21.47 363.633 21.11C362.993 20.75 362.473 20.29 362.073 19.73C361.693 19.15 361.503 18.45 361.503 17.63C361.503 16.71 361.773 15.92 362.313 15.26C362.853 14.6 363.563 14.1 364.443 13.76C365.323 13.4 366.263 13.22 367.263 13.22C368.143 13.22 368.963 13.35 369.723 13.61C370.503 13.85 371.183 14.22 371.763 14.72C372.343 15.2 372.783 15.8 373.083 16.52L370.863 17.54C370.483 16.78 369.973 16.25 369.333 15.95C368.693 15.65 367.983 15.5 367.203 15.5C366.363 15.5 365.633 15.69 365.013 16.07C364.393 16.43 364.083 16.93 364.083 17.57C364.083 18.21 364.333 18.69 364.833 19.01C365.353 19.33 365.983 19.59 366.723 19.79L368.943 20.36C370.443 20.74 371.573 21.31 372.333 22.07C373.093 22.81 373.473 23.72 373.473 24.8C373.473 25.76 373.203 26.59 372.663 27.29C372.123 27.99 371.393 28.53 370.473 28.91C369.553 29.29 368.533 29.48 367.413 29.48ZM382.057 16.01V13.7H384.877V12.05C384.877 11.11 385.077 10.29 385.477 9.59C385.897 8.87 386.477 8.31 387.217 7.91C387.977 7.49 388.857 7.28 389.857 7.28C390.237 7.28 390.607 7.31 390.967 7.37C391.327 7.43 391.677 7.52 392.017 7.64V10.13C391.617 9.97 391.237 9.85 390.877 9.77C390.537 9.69 390.217 9.65 389.917 9.65C389.177 9.65 388.577 9.89 388.117 10.37C387.657 10.85 387.427 11.5 387.427 12.32V13.7H391.357V16.01H387.427V29H384.877V16.01H382.057ZM400.324 29.48C398.784 29.48 397.424 29.12 396.244 28.4C395.064 27.68 394.134 26.71 393.454 25.49C392.794 24.25 392.464 22.87 392.464 21.35C392.464 19.83 392.794 18.46 393.454 17.24C394.134 16 395.064 15.02 396.244 14.3C397.424 13.58 398.784 13.22 400.324 13.22C401.864 13.22 403.224 13.59 404.404 14.33C405.584 15.05 406.504 16.03 407.164 17.27C407.844 18.49 408.184 19.85 408.184 21.35C408.184 22.87 407.844 24.25 407.164 25.49C406.504 26.71 405.584 27.68 404.404 28.4C403.224 29.12 401.864 29.48 400.324 29.48ZM400.324 27.17C401.244 27.17 402.104 26.94 402.904 26.48C403.724 26.02 404.384 25.36 404.884 24.5C405.384 23.62 405.634 22.57 405.634 21.35C405.634 20.13 405.384 19.09 404.884 18.23C404.384 17.35 403.724 16.68 402.904 16.22C402.104 15.76 401.244 15.53 400.324 15.53C399.404 15.53 398.534 15.76 397.714 16.22C396.894 16.68 396.234 17.35 395.734 18.23C395.234 19.09 394.984 20.13 394.984 21.35C394.984 22.57 395.234 23.62 395.734 24.5C396.234 25.36 396.894 26.02 397.714 26.48C398.534 26.94 399.404 27.17 400.324 27.17ZM411.087 29V13.7H413.517V16.16H413.637C413.837 15.58 414.167 15.08 414.627 14.66C415.107 14.22 415.647 13.88 416.247 13.64C416.867 13.38 417.477 13.25 418.077 13.25C418.537 13.25 418.897 13.28 419.157 13.34C419.417 13.38 419.657 13.45 419.877 13.55V16.31C419.557 16.15 419.207 16.03 418.827 15.95C418.467 15.87 418.097 15.83 417.717 15.83C416.977 15.83 416.297 16.04 415.677 16.46C415.057 16.88 414.557 17.44 414.177 18.14C413.817 18.84 413.637 19.61 413.637 20.45V29H411.087ZM427.753 29L435.913 7.52H438.793L446.953 29H444.163L441.973 23.09H432.733L430.543 29H427.753ZM441.103 20.69L438.253 12.95L437.413 10.64H437.293L436.453 12.95L433.603 20.69H441.103ZM449.77 29V7.52H452.32V29H449.77Z" fill="black"/>
<path d="M120.815 331.24C120.185 331.24 119.62 331.095 119.12 330.805C118.62 330.515 118.19 330.115 117.83 329.605C117.47 329.095 117.195 328.5 117.005 327.82C116.815 327.14 116.72 326.41 116.72 325.63C116.72 324.85 116.815 324.12 117.005 323.44C117.195 322.76 117.47 322.165 117.83 321.655C118.19 321.135 118.62 320.735 119.12 320.455C119.62 320.165 120.185 320.02 120.815 320.02C121.445 320.02 122.01 320.165 122.51 320.455C123.02 320.735 123.455 321.135 123.815 321.655C124.175 322.165 124.45 322.76 124.64 323.44C124.83 324.12 124.925 324.85 124.925 325.63C124.925 326.41 124.83 327.14 124.64 327.82C124.45 328.5 124.175 329.095 123.815 329.605C123.455 330.115 123.02 330.515 122.51 330.805C122.01 331.095 121.445 331.24 120.815 331.24ZM120.815 330.025C121.395 330.025 121.895 329.83 122.315 329.44C122.735 329.05 123.055 328.525 123.275 327.865C123.505 327.195 123.62 326.45 123.62 325.63C123.62 324.8 123.505 324.055 123.275 323.395C123.055 322.735 122.735 322.21 122.315 321.82C121.895 321.43 121.395 321.235 120.815 321.235C120.235 321.235 119.735 321.43 119.315 321.82C118.905 322.21 118.585 322.735 118.355 323.395C118.135 324.055 118.025 324.8 118.025 325.63C118.025 326.45 118.135 327.195 118.355 327.865C118.585 328.525 118.905 329.05 119.315 329.44C119.735 329.83 120.235 330.025 120.815 330.025Z" fill="black"/>
<path d="M1.215 87V76.26H3.24V87H1.215ZM8.68313 87.24C7.98313 87.24 7.35313 87.07 6.79313 86.73C6.23313 86.38 5.78813 85.9 5.45813 85.29C5.13813 84.68 4.97813 83.975 4.97813 83.175C4.97813 82.375 5.13813 81.67 5.45813 81.06C5.78813 80.45 6.23313 79.975 6.79313 79.635C7.35313 79.285 7.98313 79.11 8.68313 79.11C9.05313 79.11 9.38813 79.165 9.68813 79.275C9.98813 79.385 10.2481 79.53 10.4681 79.71C10.6881 79.89 10.8581 80.08 10.9781 80.28H11.0981L10.9781 79.2V76.26H12.9281V87H11.0981V86.085H10.9781C10.8581 86.285 10.6881 86.475 10.4681 86.655C10.2481 86.825 9.98813 86.965 9.68813 87.075C9.38813 87.185 9.05313 87.24 8.68313 87.24ZM9.01313 85.425C9.38313 85.425 9.72313 85.33 10.0331 85.14C10.3531 84.95 10.6081 84.69 10.7981 84.36C10.9981 84.02 11.0981 83.625 11.0981 83.175C11.0981 82.725 10.9981 82.335 10.7981 82.005C10.6081 81.665 10.3531 81.405 10.0331 81.225C9.72313 81.035 9.38313 80.94 9.01313 80.94C8.65313 80.94 8.31313 81.035 7.99313 81.225C7.68313 81.405 7.42813 81.66 7.22813 81.99C7.03813 82.32 6.94313 82.715 6.94313 83.175C6.94313 83.625 7.03813 84.02 7.22813 84.36C7.42813 84.7 7.68313 84.965 7.99313 85.155C8.31313 85.335 8.65313 85.425 9.01313 85.425ZM18.4021 87.24C17.6321 87.24 16.9421 87.065 16.3321 86.715C15.7321 86.365 15.2571 85.885 14.9071 85.275C14.5671 84.665 14.3971 83.97 14.3971 83.19C14.3971 82.46 14.5671 81.785 14.9071 81.165C15.2471 80.545 15.7121 80.05 16.3021 79.68C16.8921 79.3 17.5671 79.11 18.3271 79.11C19.1471 79.11 19.8371 79.285 20.3971 79.635C20.9571 79.985 21.3821 80.455 21.6721 81.045C21.9621 81.625 22.1071 82.27 22.1071 82.98C22.1071 83.14 22.1021 83.28 22.0921 83.4C22.0821 83.51 22.0721 83.59 22.0621 83.64H16.3321C16.3721 83.93 16.4521 84.185 16.5721 84.405C16.7621 84.765 17.0171 85.04 17.3371 85.23C17.6671 85.41 18.0321 85.5 18.4321 85.5C18.9021 85.5 19.2971 85.4 19.6171 85.2C19.9371 84.99 20.1871 84.73 20.3671 84.42L21.9571 85.2C21.5971 85.83 21.1271 86.33 20.5471 86.7C19.9671 87.06 19.2521 87.24 18.4021 87.24ZM16.4071 82.245H20.2171C20.2071 82.075 20.1571 81.9 20.0671 81.72C19.9771 81.54 19.8521 81.375 19.6921 81.225C19.5321 81.075 19.3371 80.955 19.1071 80.865C18.8871 80.765 18.6321 80.715 18.3421 80.715C17.9621 80.715 17.6121 80.815 17.2921 81.015C16.9821 81.215 16.7371 81.49 16.5571 81.84C16.4971 81.97 16.4471 82.105 16.4071 82.245ZM23.5768 87V79.35H25.4218V80.31H25.5418C25.7718 79.94 26.0968 79.65 26.5168 79.44C26.9368 79.22 27.3918 79.11 27.8818 79.11C28.8218 79.11 29.5268 79.395 29.9968 79.965C30.4668 80.535 30.7018 81.295 30.7018 82.245V87H28.7368V82.485C28.7368 81.985 28.6068 81.605 28.3468 81.345C28.0968 81.075 27.7518 80.94 27.3118 80.94C26.9518 80.94 26.6368 81.04 26.3668 81.24C26.1068 81.43 25.9018 81.69 25.7518 82.02C25.6118 82.34 25.5418 82.7 25.5418 83.1V87H23.5768ZM31.7373 81.03V79.35H33.0723V77.19H35.0373V79.35H36.9123V81.03H35.0373V84.195C35.0373 84.565 35.1123 84.84 35.2623 85.02C35.4123 85.19 35.6573 85.275 35.9973 85.275C36.1573 85.275 36.3073 85.255 36.4473 85.215C36.5873 85.165 36.7623 85.075 36.9723 84.945V86.865C36.7523 86.945 36.5273 87.005 36.2973 87.045C36.0773 87.095 35.8473 87.12 35.6073 87.12C34.8173 87.12 34.1973 86.895 33.7473 86.445C33.2973 85.985 33.0723 85.355 33.0723 84.555V81.03H31.7373ZM38.5329 87V79.35H40.4979V87H38.5329ZM39.5229 78.51C39.1729 78.51 38.8729 78.385 38.6229 78.135C38.3729 77.885 38.2479 77.585 38.2479 77.235C38.2479 76.885 38.3729 76.59 38.6229 76.35C38.8729 76.1 39.1729 75.975 39.5229 75.975C39.8729 75.975 40.1679 76.1 40.4079 76.35C40.6579 76.59 40.7829 76.885 40.7829 77.235C40.7829 77.585 40.6579 77.885 40.4079 78.135C40.1679 78.385 39.8729 78.51 39.5229 78.51ZM41.8154 81.03V79.35H43.1804V78.93C43.1804 78.36 43.2954 77.865 43.5254 77.445C43.7654 77.025 44.0954 76.705 44.5154 76.485C44.9454 76.255 45.4504 76.14 46.0304 76.14C46.2304 76.14 46.4354 76.155 46.6454 76.185C46.8554 76.215 47.0554 76.255 47.2454 76.305V78.225C47.0754 78.145 46.9104 78.085 46.7504 78.045C46.5904 78.005 46.4304 77.985 46.2704 77.985C45.9304 77.985 45.6554 78.085 45.4454 78.285C45.2454 78.475 45.1454 78.745 45.1454 79.095V79.35H47.0204V81.03H45.1454V87H43.1804V81.03H41.8154ZM51.4492 89.895C51.4192 89.965 51.3892 90.025 51.3592 90.075C51.3392 90.135 51.3192 90.19 51.2992 90.24H49.1842C49.2242 90.16 49.2992 89.99 49.4092 89.73C49.5292 89.48 49.6292 89.265 49.7092 89.085C49.7692 88.965 49.8392 88.81 49.9192 88.62C49.9992 88.43 50.0792 88.24 50.1592 88.05C50.2492 87.87 50.3192 87.73 50.3692 87.63L50.8192 86.64L47.5942 79.35H49.8292L51.8092 84.105H51.9292L53.8342 79.35H56.0242L52.0792 88.44C51.9692 88.7 51.8692 88.925 51.7792 89.115C51.6992 89.305 51.6342 89.46 51.5842 89.58C51.5342 89.71 51.4892 89.815 51.4492 89.895ZM64.1495 87.24C63.3695 87.24 62.6745 87.07 62.0645 86.73C61.4645 86.38 60.9895 85.9 60.6395 85.29C60.2995 84.67 60.1295 83.965 60.1295 83.175C60.1295 82.385 60.2995 81.685 60.6395 81.075C60.9895 80.465 61.4645 79.985 62.0645 79.635C62.6745 79.285 63.3695 79.11 64.1495 79.11C64.9995 79.11 65.7295 79.29 66.3395 79.65C66.9495 80.01 67.3895 80.53 67.6595 81.21L65.8595 81.96C65.6995 81.61 65.4745 81.355 65.1845 81.195C64.8945 81.025 64.5495 80.94 64.1495 80.94C63.7595 80.94 63.4095 81.035 63.0995 81.225C62.7895 81.405 62.5445 81.66 62.3645 81.99C62.1845 82.32 62.0945 82.715 62.0945 83.175C62.0945 83.635 62.1845 84.035 62.3645 84.375C62.5445 84.705 62.7895 84.965 63.0995 85.155C63.4095 85.335 63.7595 85.425 64.1495 85.425C64.5895 85.425 64.9545 85.33 65.2445 85.14C65.5345 84.94 65.7695 84.67 65.9495 84.33L67.7045 85.11C67.4045 85.75 66.9495 86.265 66.3395 86.655C65.7295 87.045 64.9995 87.24 64.1495 87.24ZM72.5738 87.24C71.7738 87.24 71.0638 87.065 70.4438 86.715C69.8338 86.355 69.3538 85.87 69.0038 85.26C68.6638 84.64 68.4938 83.945 68.4938 83.175C68.4938 82.405 68.6638 81.715 69.0038 81.105C69.3538 80.485 69.8338 80 70.4438 79.65C71.0638 79.29 71.7738 79.11 72.5738 79.11C73.3738 79.11 74.0788 79.29 74.6888 79.65C75.2988 80.01 75.7738 80.495 76.1138 81.105C76.4638 81.715 76.6388 82.405 76.6388 83.175C76.6388 83.945 76.4638 84.64 76.1138 85.26C75.7738 85.87 75.2988 86.355 74.6888 86.715C74.0788 87.065 73.3738 87.24 72.5738 87.24ZM72.5738 85.41C72.9538 85.41 73.2988 85.325 73.6088 85.155C73.9288 84.975 74.1838 84.72 74.3738 84.39C74.5738 84.05 74.6738 83.645 74.6738 83.175C74.6738 82.705 74.5738 82.305 74.3738 81.975C74.1838 81.645 73.9288 81.39 73.6088 81.21C73.2988 81.03 72.9588 80.94 72.5888 80.94C72.2088 80.94 71.8538 81.03 71.5238 81.21C71.2038 81.39 70.9438 81.645 70.7438 81.975C70.5538 82.305 70.4588 82.705 70.4588 83.175C70.4588 83.645 70.5538 84.05 70.7438 84.39C70.9438 84.72 71.2038 84.975 71.5238 85.155C71.8538 85.325 72.2038 85.41 72.5738 85.41ZM81.398 87.24C80.698 87.24 80.068 87.07 79.508 86.73C78.948 86.38 78.503 85.9 78.173 85.29C77.853 84.68 77.693 83.975 77.693 83.175C77.693 82.375 77.853 81.67 78.173 81.06C78.503 80.45 78.948 79.975 79.508 79.635C80.068 79.285 80.698 79.11 81.398 79.11C81.768 79.11 82.103 79.165 82.403 79.275C82.703 79.385 82.963 79.53 83.183 79.71C83.403 79.89 83.573 80.08 83.693 80.28H83.813L83.693 79.2V76.26H85.643V87H83.813V86.085H83.693C83.573 86.285 83.403 86.475 83.183 86.655C82.963 86.825 82.703 86.965 82.403 87.075C82.103 87.185 81.768 87.24 81.398 87.24ZM81.728 85.425C82.098 85.425 82.438 85.33 82.748 85.14C83.068 84.95 83.323 84.69 83.513 84.36C83.713 84.02 83.813 83.625 83.813 83.175C83.813 82.725 83.713 82.335 83.513 82.005C83.323 81.665 83.068 81.405 82.748 81.225C82.438 81.035 82.098 80.94 81.728 80.94C81.368 80.94 81.028 81.035 80.708 81.225C80.398 81.405 80.143 81.66 79.943 81.99C79.753 82.32 79.658 82.715 79.658 83.175C79.658 83.625 79.753 84.02 79.943 84.36C80.143 84.7 80.398 84.965 80.708 85.155C81.028 85.335 81.368 85.425 81.728 85.425ZM91.1169 87.24C90.3469 87.24 89.6569 87.065 89.0469 86.715C88.4469 86.365 87.9719 85.885 87.6219 85.275C87.2819 84.665 87.1119 83.97 87.1119 83.19C87.1119 82.46 87.2819 81.785 87.6219 81.165C87.9619 80.545 88.4269 80.05 89.0169 79.68C89.6069 79.3 90.2819 79.11 91.0419 79.11C91.8619 79.11 92.5519 79.285 93.1119 79.635C93.6719 79.985 94.0969 80.455 94.3869 81.045C94.6769 81.625 94.8219 82.27 94.8219 82.98C94.8219 83.14 94.8169 83.28 94.8069 83.4C94.7969 83.51 94.7869 83.59 94.7769 83.64H89.0469C89.0869 83.93 89.1669 84.185 89.2869 84.405C89.4769 84.765 89.7319 85.04 90.0519 85.23C90.3819 85.41 90.7469 85.5 91.1469 85.5C91.6169 85.5 92.0119 85.4 92.3319 85.2C92.6519 84.99 92.9019 84.73 93.0819 84.42L94.6719 85.2C94.3119 85.83 93.8419 86.33 93.2619 86.7C92.6819 87.06 91.9669 87.24 91.1169 87.24ZM89.1219 82.245H92.9319C92.9219 82.075 92.8719 81.9 92.7819 81.72C92.6919 81.54 92.5669 81.375 92.4069 81.225C92.2469 81.075 92.0519 80.955 91.8219 80.865C91.6019 80.765 91.3469 80.715 91.0569 80.715C90.6769 80.715 90.3269 80.815 90.0069 81.015C89.6969 81.215 89.4519 81.49 89.2719 81.84C89.2119 81.97 89.1619 82.105 89.1219 82.245ZM4.53 106.24C3.76 106.24 3.07 106.065 2.46 105.715C1.86 105.365 1.385 104.885 1.035 104.275C0.695 103.665 0.525 102.97 0.525 102.19C0.525 101.46 0.695 100.785 1.035 100.165C1.375 99.545 1.84 99.05 2.43 98.68C3.02 98.3 3.695 98.11 4.455 98.11C5.275 98.11 5.965 98.285 6.525 98.635C7.085 98.985 7.51 99.455 7.8 100.045C8.09 100.625 8.235 101.27 8.235 101.98C8.235 102.14 8.23 102.28 8.22 102.4C8.21 102.51 8.2 102.59 8.19 102.64H2.46C2.5 102.93 2.58 103.185 2.7 103.405C2.89 103.765 3.145 104.04 3.465 104.23C3.795 104.41 4.16 104.5 4.56 104.5C5.03 104.5 5.425 104.4 5.745 104.2C6.065 103.99 6.315 103.73 6.495 103.42L8.085 104.2C7.725 104.83 7.255 105.33 6.675 105.7C6.095 106.06 5.38 106.24 4.53 106.24ZM2.535 101.245H6.345C6.335 101.075 6.285 100.9 6.195 100.72C6.105 100.54 5.98 100.375 5.82 100.225C5.66 100.075 5.465 99.955 5.235 99.865C5.015 99.765 4.76 99.715 4.47 99.715C4.09 99.715 3.74 99.815 3.42 100.015C3.11 100.215 2.865 100.49 2.685 100.84C2.625 100.97 2.575 101.105 2.535 101.245ZM9.70477 106V98.35H11.5498V99.37H11.6698C11.7998 99.13 11.9698 98.92 12.1798 98.74C12.3998 98.55 12.6548 98.4 12.9448 98.29C13.2348 98.18 13.5448 98.125 13.8748 98.125C14.0748 98.125 14.2548 98.14 14.4148 98.17C14.5748 98.2 14.7148 98.24 14.8348 98.29V100.255C14.6248 100.175 14.4148 100.11 14.2048 100.06C14.0048 100 13.7898 99.97 13.5598 99.97C13.1698 99.97 12.8298 100.07 12.5398 100.27C12.2598 100.46 12.0448 100.725 11.8948 101.065C11.7448 101.395 11.6698 101.77 11.6698 102.19V106H9.70477ZM16.0182 106V98.35H17.8632V99.37H17.9832C18.1132 99.13 18.2832 98.92 18.4932 98.74C18.7132 98.55 18.9682 98.4 19.2582 98.29C19.5482 98.18 19.8582 98.125 20.1882 98.125C20.3882 98.125 20.5682 98.14 20.7282 98.17C20.8882 98.2 21.0282 98.24 21.1482 98.29V100.255C20.9382 100.175 20.7282 100.11 20.5182 100.06C20.3182 100 20.1032 99.97 19.8732 99.97C19.4832 99.97 19.1432 100.07 18.8532 100.27C18.5732 100.46 18.3582 100.725 18.2082 101.065C18.0582 101.395 17.9832 101.77 17.9832 102.19V106H16.0182ZM25.6988 106.24C24.8988 106.24 24.1888 106.065 23.5688 105.715C22.9588 105.355 22.4788 104.87 22.1288 104.26C21.7888 103.64 21.6188 102.945 21.6188 102.175C21.6188 101.405 21.7888 100.715 22.1288 100.105C22.4788 99.485 22.9588 99 23.5688 98.65C24.1888 98.29 24.8988 98.11 25.6988 98.11C26.4988 98.11 27.2038 98.29 27.8138 98.65C28.4238 99.01 28.8988 99.495 29.2388 100.105C29.5888 100.715 29.7638 101.405 29.7638 102.175C29.7638 102.945 29.5888 103.64 29.2388 104.26C28.8988 104.87 28.4238 105.355 27.8138 105.715C27.2038 106.065 26.4988 106.24 25.6988 106.24ZM25.6988 104.41C26.0788 104.41 26.4238 104.325 26.7338 104.155C27.0538 103.975 27.3088 103.72 27.4988 103.39C27.6988 103.05 27.7988 102.645 27.7988 102.175C27.7988 101.705 27.6988 101.305 27.4988 100.975C27.3088 100.645 27.0538 100.39 26.7338 100.21C26.4238 100.03 26.0838 99.94 25.7138 99.94C25.3338 99.94 24.9788 100.03 24.6488 100.21C24.3288 100.39 24.0688 100.645 23.8688 100.975C23.6788 101.305 23.5838 101.705 23.5838 102.175C23.5838 102.645 23.6788 103.05 23.8688 103.39C24.0688 103.72 24.3288 103.975 24.6488 104.155C24.9788 104.325 25.3288 104.41 25.6988 104.41ZM31.238 106V98.35H33.083V99.37H33.203C33.333 99.13 33.503 98.92 33.713 98.74C33.933 98.55 34.188 98.4 34.478 98.29C34.768 98.18 35.078 98.125 35.408 98.125C35.608 98.125 35.788 98.14 35.948 98.17C36.108 98.2 36.248 98.24 36.368 98.29V100.255C36.158 100.175 35.948 100.11 35.738 100.06C35.538 100 35.323 99.97 35.093 99.97C34.703 99.97 34.363 100.07 34.073 100.27C33.793 100.46 33.578 100.725 33.428 101.065C33.278 101.395 33.203 101.77 33.203 102.19V106H31.238ZM40.1685 106.24C39.5085 106.24 38.9435 106.145 38.4735 105.955C38.0135 105.765 37.6385 105.515 37.3485 105.205C37.0585 104.895 36.8435 104.555 36.7035 104.185L38.4585 103.42C38.6285 103.78 38.8585 104.055 39.1485 104.245C39.4385 104.425 39.7785 104.515 40.1685 104.515C40.4885 104.515 40.7785 104.465 41.0385 104.365C41.2985 104.255 41.4285 104.06 41.4285 103.78C41.4285 103.58 41.3585 103.425 41.2185 103.315C41.0885 103.195 40.9235 103.105 40.7235 103.045C40.5235 102.975 40.3185 102.92 40.1085 102.88L39.2085 102.685C38.8385 102.605 38.4885 102.465 38.1585 102.265C37.8285 102.055 37.5585 101.795 37.3485 101.485C37.1485 101.165 37.0485 100.8 37.0485 100.39C37.0485 99.93 37.1785 99.53 37.4385 99.19C37.7085 98.85 38.0685 98.585 38.5185 98.395C38.9785 98.205 39.4835 98.11 40.0335 98.11C40.5435 98.11 41.0035 98.17 41.4135 98.29C41.8235 98.41 42.1785 98.595 42.4785 98.845C42.7785 99.085 43.0185 99.395 43.1985 99.775L41.5185 100.51C41.3585 100.21 41.1485 100 40.8885 99.88C40.6385 99.76 40.3685 99.7 40.0785 99.7C39.7385 99.7 39.4685 99.765 39.2685 99.895C39.0685 100.025 38.9685 100.18 38.9685 100.36C38.9685 100.55 39.0685 100.715 39.2685 100.855C39.4685 100.995 39.7085 101.1 39.9885 101.17L41.1135 101.44C41.8735 101.62 42.4435 101.91 42.8235 102.31C43.2135 102.71 43.4085 103.19 43.4085 103.75C43.4085 104.25 43.2635 104.69 42.9735 105.07C42.6835 105.44 42.2935 105.73 41.8035 105.94C41.3135 106.14 40.7685 106.24 40.1685 106.24Z" fill="black"/>
<path d="M1.215 167V156.26H8.025V158.18H3.24V160.79H7.545V162.71H3.24V167H1.215ZM9.36785 167V159.35H11.3329V167H9.36785ZM10.3579 158.51C10.0079 158.51 9.70785 158.385 9.45785 158.135C9.20785 157.885 9.08285 157.585 9.08285 157.235C9.08285 156.885 9.20785 156.59 9.45785 156.35C9.70785 156.1 10.0079 155.975 10.3579 155.975C10.7079 155.975 11.0029 156.1 11.2429 156.35C11.4929 156.59 11.6179 156.885 11.6179 157.235C11.6179 157.585 11.4929 157.885 11.2429 158.135C11.0029 158.385 10.7079 158.51 10.3579 158.51ZM12.3654 167L15.0204 163.115L12.3804 159.35H14.7054L16.2054 161.6L17.6154 159.35H20.0154L17.3304 163.115L20.0154 167H17.6904L16.1754 164.705L14.6904 167H12.3654ZM28.1729 167.24C27.3929 167.24 26.6979 167.07 26.0879 166.73C25.4879 166.38 25.0129 165.9 24.6629 165.29C24.3229 164.67 24.1529 163.965 24.1529 163.175C24.1529 162.385 24.3229 161.685 24.6629 161.075C25.0129 160.465 25.4879 159.985 26.0879 159.635C26.6979 159.285 27.3929 159.11 28.1729 159.11C29.0229 159.11 29.7529 159.29 30.3629 159.65C30.9729 160.01 31.4129 160.53 31.6829 161.21L29.8829 161.96C29.7229 161.61 29.4979 161.355 29.2079 161.195C28.9179 161.025 28.5729 160.94 28.1729 160.94C27.7829 160.94 27.4329 161.035 27.1229 161.225C26.8129 161.405 26.5679 161.66 26.3879 161.99C26.2079 162.32 26.1179 162.715 26.1179 163.175C26.1179 163.635 26.2079 164.035 26.3879 164.375C26.5679 164.705 26.8129 164.965 27.1229 165.155C27.4329 165.335 27.7829 165.425 28.1729 165.425C28.6129 165.425 28.9779 165.33 29.2679 165.14C29.5579 164.94 29.7929 164.67 29.9729 164.33L31.7279 165.11C31.4279 165.75 30.9729 166.265 30.3629 166.655C29.7529 167.045 29.0229 167.24 28.1729 167.24ZM36.5972 167.24C35.7972 167.24 35.0872 167.065 34.4672 166.715C33.8572 166.355 33.3772 165.87 33.0272 165.26C32.6872 164.64 32.5172 163.945 32.5172 163.175C32.5172 162.405 32.6872 161.715 33.0272 161.105C33.3772 160.485 33.8572 160 34.4672 159.65C35.0872 159.29 35.7972 159.11 36.5972 159.11C37.3972 159.11 38.1022 159.29 38.7122 159.65C39.3222 160.01 39.7972 160.495 40.1372 161.105C40.4872 161.715 40.6622 162.405 40.6622 163.175C40.6622 163.945 40.4872 164.64 40.1372 165.26C39.7972 165.87 39.3222 166.355 38.7122 166.715C38.1022 167.065 37.3972 167.24 36.5972 167.24ZM36.5972 165.41C36.9772 165.41 37.3222 165.325 37.6322 165.155C37.9522 164.975 38.2072 164.72 38.3972 164.39C38.5972 164.05 38.6972 163.645 38.6972 163.175C38.6972 162.705 38.5972 162.305 38.3972 161.975C38.2072 161.645 37.9522 161.39 37.6322 161.21C37.3222 161.03 36.9822 160.94 36.6122 160.94C36.2322 160.94 35.8772 161.03 35.5472 161.21C35.2272 161.39 34.9672 161.645 34.7672 161.975C34.5772 162.305 34.4822 162.705 34.4822 163.175C34.4822 163.645 34.5772 164.05 34.7672 164.39C34.9672 164.72 35.2272 164.975 35.5472 165.155C35.8772 165.325 36.2272 165.41 36.5972 165.41ZM45.4214 167.24C44.7214 167.24 44.0914 167.07 43.5314 166.73C42.9714 166.38 42.5264 165.9 42.1964 165.29C41.8764 164.68 41.7164 163.975 41.7164 163.175C41.7164 162.375 41.8764 161.67 42.1964 161.06C42.5264 160.45 42.9714 159.975 43.5314 159.635C44.0914 159.285 44.7214 159.11 45.4214 159.11C45.7914 159.11 46.1264 159.165 46.4264 159.275C46.7264 159.385 46.9864 159.53 47.2064 159.71C47.4264 159.89 47.5964 160.08 47.7164 160.28H47.8364L47.7164 159.2V156.26H49.6664V167H47.8364V166.085H47.7164C47.5964 166.285 47.4264 166.475 47.2064 166.655C46.9864 166.825 46.7264 166.965 46.4264 167.075C46.1264 167.185 45.7914 167.24 45.4214 167.24ZM45.7514 165.425C46.1214 165.425 46.4614 165.33 46.7714 165.14C47.0914 164.95 47.3464 164.69 47.5364 164.36C47.7364 164.02 47.8364 163.625 47.8364 163.175C47.8364 162.725 47.7364 162.335 47.5364 162.005C47.3464 161.665 47.0914 161.405 46.7714 161.225C46.4614 161.035 46.1214 160.94 45.7514 160.94C45.3914 160.94 45.0514 161.035 44.7314 161.225C44.4214 161.405 44.1664 161.66 43.9664 161.99C43.7764 162.32 43.6814 162.715 43.6814 163.175C43.6814 163.625 43.7764 164.02 43.9664 164.36C44.1664 164.7 44.4214 164.965 44.7314 165.155C45.0514 165.335 45.3914 165.425 45.7514 165.425ZM55.1404 167.24C54.3704 167.24 53.6804 167.065 53.0704 166.715C52.4704 166.365 51.9954 165.885 51.6454 165.275C51.3054 164.665 51.1354 163.97 51.1354 163.19C51.1354 162.46 51.3054 161.785 51.6454 161.165C51.9854 160.545 52.4504 160.05 53.0404 159.68C53.6304 159.3 54.3054 159.11 55.0654 159.11C55.8854 159.11 56.5754 159.285 57.1354 159.635C57.6954 159.985 58.1204 160.455 58.4104 161.045C58.7004 161.625 58.8454 162.27 58.8454 162.98C58.8454 163.14 58.8404 163.28 58.8304 163.4C58.8204 163.51 58.8104 163.59 58.8004 163.64H53.0704C53.1104 163.93 53.1904 164.185 53.3104 164.405C53.5004 164.765 53.7554 165.04 54.0754 165.23C54.4054 165.41 54.7704 165.5 55.1704 165.5C55.6404 165.5 56.0354 165.4 56.3554 165.2C56.6754 164.99 56.9254 164.73 57.1054 164.42L58.6954 165.2C58.3354 165.83 57.8654 166.33 57.2854 166.7C56.7054 167.06 55.9904 167.24 55.1404 167.24ZM53.1454 162.245H56.9554C56.9454 162.075 56.8954 161.9 56.8054 161.72C56.7154 161.54 56.5904 161.375 56.4304 161.225C56.2704 161.075 56.0754 160.955 55.8454 160.865C55.6254 160.765 55.3704 160.715 55.0804 160.715C54.7004 160.715 54.3504 160.815 54.0304 161.015C53.7204 161.215 53.4754 161.49 53.2954 161.84C53.2354 161.97 53.1854 162.105 53.1454 162.245ZM4.53 186.24C3.76 186.24 3.07 186.065 2.46 185.715C1.86 185.365 1.385 184.885 1.035 184.275C0.695 183.665 0.525 182.97 0.525 182.19C0.525 181.46 0.695 180.785 1.035 180.165C1.375 179.545 1.84 179.05 2.43 178.68C3.02 178.3 3.695 178.11 4.455 178.11C5.275 178.11 5.965 178.285 6.525 178.635C7.085 178.985 7.51 179.455 7.8 180.045C8.09 180.625 8.235 181.27 8.235 181.98C8.235 182.14 8.23 182.28 8.22 182.4C8.21 182.51 8.2 182.59 8.19 182.64H2.46C2.5 182.93 2.58 183.185 2.7 183.405C2.89 183.765 3.145 184.04 3.465 184.23C3.795 184.41 4.16 184.5 4.56 184.5C5.03 184.5 5.425 184.4 5.745 184.2C6.065 183.99 6.315 183.73 6.495 183.42L8.085 184.2C7.725 184.83 7.255 185.33 6.675 185.7C6.095 186.06 5.38 186.24 4.53 186.24ZM2.535 181.245H6.345C6.335 181.075 6.285 180.9 6.195 180.72C6.105 180.54 5.98 180.375 5.82 180.225C5.66 180.075 5.465 179.955 5.235 179.865C5.015 179.765 4.76 179.715 4.47 179.715C4.09 179.715 3.74 179.815 3.42 180.015C3.11 180.215 2.865 180.49 2.685 180.84C2.625 180.97 2.575 181.105 2.535 181.245ZM9.70477 186V178.35H11.5498V179.37H11.6698C11.7998 179.13 11.9698 178.92 12.1798 178.74C12.3998 178.55 12.6548 178.4 12.9448 178.29C13.2348 178.18 13.5448 178.125 13.8748 178.125C14.0748 178.125 14.2548 178.14 14.4148 178.17C14.5748 178.2 14.7148 178.24 14.8348 178.29V180.255C14.6248 180.175 14.4148 180.11 14.2048 180.06C14.0048 180 13.7898 179.97 13.5598 179.97C13.1698 179.97 12.8298 180.07 12.5398 180.27C12.2598 180.46 12.0448 180.725 11.8948 181.065C11.7448 181.395 11.6698 181.77 11.6698 182.19V186H9.70477ZM16.0182 186V178.35H17.8632V179.37H17.9832C18.1132 179.13 18.2832 178.92 18.4932 178.74C18.7132 178.55 18.9682 178.4 19.2582 178.29C19.5482 178.18 19.8582 178.125 20.1882 178.125C20.3882 178.125 20.5682 178.14 20.7282 178.17C20.8882 178.2 21.0282 178.24 21.1482 178.29V180.255C20.9382 180.175 20.7282 180.11 20.5182 180.06C20.3182 180 20.1032 179.97 19.8732 179.97C19.4832 179.97 19.1432 180.07 18.8532 180.27C18.5732 180.46 18.3582 180.725 18.2082 181.065C18.0582 181.395 17.9832 181.77 17.9832 182.19V186H16.0182ZM25.6988 186.24C24.8988 186.24 24.1888 186.065 23.5688 185.715C22.9588 185.355 22.4788 184.87 22.1288 184.26C21.7888 183.64 21.6188 182.945 21.6188 182.175C21.6188 181.405 21.7888 180.715 22.1288 180.105C22.4788 179.485 22.9588 179 23.5688 178.65C24.1888 178.29 24.8988 178.11 25.6988 178.11C26.4988 178.11 27.2038 178.29 27.8138 178.65C28.4238 179.01 28.8988 179.495 29.2388 180.105C29.5888 180.715 29.7638 181.405 29.7638 182.175C29.7638 182.945 29.5888 183.64 29.2388 184.26C28.8988 184.87 28.4238 185.355 27.8138 185.715C27.2038 186.065 26.4988 186.24 25.6988 186.24ZM25.6988 184.41C26.0788 184.41 26.4238 184.325 26.7338 184.155C27.0538 183.975 27.3088 183.72 27.4988 183.39C27.6988 183.05 27.7988 182.645 27.7988 182.175C27.7988 181.705 27.6988 181.305 27.4988 180.975C27.3088 180.645 27.0538 180.39 26.7338 180.21C26.4238 180.03 26.0838 179.94 25.7138 179.94C25.3338 179.94 24.9788 180.03 24.6488 180.21C24.3288 180.39 24.0688 180.645 23.8688 180.975C23.6788 181.305 23.5838 181.705 23.5838 182.175C23.5838 182.645 23.6788 183.05 23.8688 183.39C24.0688 183.72 24.3288 183.975 24.6488 184.155C24.9788 184.325 25.3288 184.41 25.6988 184.41ZM31.238 186V178.35H33.083V179.37H33.203C33.333 179.13 33.503 178.92 33.713 178.74C33.933 178.55 34.188 178.4 34.478 178.29C34.768 178.18 35.078 178.125 35.408 178.125C35.608 178.125 35.788 178.14 35.948 178.17C36.108 178.2 36.248 178.24 36.368 178.29V180.255C36.158 180.175 35.948 180.11 35.738 180.06C35.538 180 35.323 179.97 35.093 179.97C34.703 179.97 34.363 180.07 34.073 180.27C33.793 180.46 33.578 180.725 33.428 181.065C33.278 181.395 33.203 181.77 33.203 182.19V186H31.238ZM40.1685 186.24C39.5085 186.24 38.9435 186.145 38.4735 185.955C38.0135 185.765 37.6385 185.515 37.3485 185.205C37.0585 184.895 36.8435 184.555 36.7035 184.185L38.4585 183.42C38.6285 183.78 38.8585 184.055 39.1485 184.245C39.4385 184.425 39.7785 184.515 40.1685 184.515C40.4885 184.515 40.7785 184.465 41.0385 184.365C41.2985 184.255 41.4285 184.06 41.4285 183.78C41.4285 183.58 41.3585 183.425 41.2185 183.315C41.0885 183.195 40.9235 183.105 40.7235 183.045C40.5235 182.975 40.3185 182.92 40.1085 182.88L39.2085 182.685C38.8385 182.605 38.4885 182.465 38.1585 182.265C37.8285 182.055 37.5585 181.795 37.3485 181.485C37.1485 181.165 37.0485 180.8 37.0485 180.39C37.0485 179.93 37.1785 179.53 37.4385 179.19C37.7085 178.85 38.0685 178.585 38.5185 178.395C38.9785 178.205 39.4835 178.11 40.0335 178.11C40.5435 178.11 41.0035 178.17 41.4135 178.29C41.8235 178.41 42.1785 178.595 42.4785 178.845C42.7785 179.085 43.0185 179.395 43.1985 179.775L41.5185 180.51C41.3585 180.21 41.1485 180 40.8885 179.88C40.6385 179.76 40.3685 179.7 40.0785 179.7C39.7385 179.7 39.4685 179.765 39.2685 179.895C39.0685 180.025 38.9685 180.18 38.9685 180.36C38.9685 180.55 39.0685 180.715 39.2685 180.855C39.4685 180.995 39.7085 181.1 39.9885 181.17L41.1135 181.44C41.8735 181.62 42.4435 181.91 42.8235 182.31C43.2135 182.71 43.4085 183.19 43.4085 183.75C43.4085 184.25 43.2635 184.69 42.9735 185.07C42.6835 185.44 42.2935 185.73 41.8035 185.94C41.3135 186.14 40.7685 186.24 40.1685 186.24Z" fill="black"/>
<path d="M1.215 247V236.26H8.025V238.18H3.24V240.67H7.545V242.59H3.24V245.08H8.025V247H1.215ZM8.65934 247L11.3143 243.115L8.67434 239.35H10.9993L12.4993 241.6L13.9093 239.35H16.3093L13.6243 243.115L16.3093 247H13.9843L12.4693 244.705L10.9843 247H8.65934ZM17.3513 250.24V239.35H19.1963V240.28H19.3163C19.4463 240.08 19.6163 239.89 19.8263 239.71C20.0463 239.53 20.3063 239.385 20.6063 239.275C20.9063 239.165 21.2413 239.11 21.6113 239.11C22.3113 239.11 22.9363 239.285 23.4863 239.635C24.0463 239.975 24.4862 240.45 24.8063 241.06C25.1363 241.67 25.3013 242.375 25.3013 243.175C25.3013 243.975 25.1363 244.68 24.8063 245.29C24.4862 245.9 24.0463 246.38 23.4863 246.73C22.9363 247.07 22.3113 247.24 21.6113 247.24C21.0613 247.24 20.5863 247.125 20.1863 246.895C19.7963 246.655 19.5063 246.385 19.3163 246.085H19.1963L19.3163 247.165V250.24H17.3513ZM21.2663 245.425C21.6363 245.425 21.9763 245.335 22.2863 245.155C22.6063 244.965 22.8613 244.7 23.0513 244.36C23.2513 244.02 23.3513 243.625 23.3513 243.175C23.3513 242.715 23.2513 242.32 23.0513 241.99C22.8613 241.66 22.6063 241.405 22.2863 241.225C21.9763 241.035 21.6363 240.94 21.2663 240.94C20.9063 240.94 20.5663 241.035 20.2463 241.225C19.9363 241.405 19.6813 241.665 19.4813 242.005C19.2913 242.335 19.1963 242.725 19.1963 243.175C19.1963 243.625 19.2913 244.02 19.4813 244.36C19.6813 244.69 19.9363 244.95 20.2463 245.14C20.5663 245.33 20.9063 245.425 21.2663 245.425ZM26.7702 247V236.26H28.7352V247H26.7702ZM32.9777 247.24C32.4377 247.24 31.9577 247.135 31.5377 246.925C31.1277 246.705 30.8027 246.4 30.5627 246.01C30.3227 245.62 30.2027 245.17 30.2027 244.66C30.2027 244.13 30.3377 243.675 30.6077 243.295C30.8877 242.915 31.2577 242.62 31.7177 242.41C32.1877 242.2 32.7077 242.095 33.2777 242.095C33.5877 242.095 33.8677 242.115 34.1177 242.155C34.3777 242.185 34.6077 242.225 34.8077 242.275C35.0077 242.325 35.1727 242.38 35.3027 242.44V242.11C35.3027 241.7 35.1477 241.365 34.8377 241.105C34.5277 240.835 34.1027 240.7 33.5627 240.7C33.2027 240.7 32.8527 240.785 32.5127 240.955C32.1827 241.115 31.9077 241.33 31.6877 241.6L30.4277 240.61C30.6777 240.29 30.9677 240.02 31.2977 239.8C31.6277 239.57 31.9927 239.4 32.3927 239.29C32.7927 239.17 33.2127 239.11 33.6527 239.11C34.8227 239.11 35.7127 239.38 36.3227 239.92C36.9327 240.46 37.2377 241.25 37.2377 242.29V247H35.3027V246.22H35.1827C35.0427 246.4 34.8677 246.57 34.6577 246.73C34.4477 246.88 34.2027 247 33.9227 247.09C33.6427 247.19 33.3277 247.24 32.9777 247.24ZM33.4427 245.71C33.8427 245.71 34.1777 245.625 34.4477 245.455C34.7277 245.275 34.9377 245.045 35.0777 244.765C35.2277 244.485 35.3027 244.19 35.3027 243.88C35.0827 243.77 34.8327 243.685 34.5527 243.625C34.2727 243.555 33.9877 243.52 33.6977 243.52C33.1177 243.52 32.7177 243.63 32.4977 243.85C32.2777 244.07 32.1677 244.34 32.1677 244.66C32.1677 244.96 32.2727 245.21 32.4827 245.41C32.7027 245.61 33.0227 245.71 33.4427 245.71ZM39.0163 247V239.35H40.9813V247H39.0163ZM40.0063 238.51C39.6563 238.51 39.3563 238.385 39.1063 238.135C38.8563 237.885 38.7313 237.585 38.7313 237.235C38.7313 236.885 38.8563 236.59 39.1063 236.35C39.3563 236.1 39.6563 235.975 40.0063 235.975C40.3563 235.975 40.6513 236.1 40.8913 236.35C41.1413 236.59 41.2663 236.885 41.2663 237.235C41.2663 237.585 41.1413 237.885 40.8913 238.135C40.6513 238.385 40.3563 238.51 40.0063 238.51ZM42.8688 247V239.35H44.7138V240.31H44.8338C45.0638 239.94 45.3888 239.65 45.8088 239.44C46.2288 239.22 46.6838 239.11 47.1738 239.11C48.1138 239.11 48.8188 239.395 49.2888 239.965C49.7588 240.535 49.9938 241.295 49.9938 242.245V247H48.0288V242.485C48.0288 241.985 47.8988 241.605 47.6388 241.345C47.3888 241.075 47.0438 240.94 46.6038 240.94C46.2438 240.94 45.9288 241.04 45.6588 241.24C45.3988 241.43 45.1938 241.69 45.0438 242.02C44.9038 242.34 44.8338 242.7 44.8338 243.1V247H42.8688ZM55.3346 247V239.35H57.1796V240.31H57.2996C57.5296 239.94 57.8546 239.65 58.2746 239.44C58.6946 239.22 59.1496 239.11 59.6396 239.11C60.5796 239.11 61.2846 239.395 61.7546 239.965C62.2246 240.535 62.4596 241.295 62.4596 242.245V247H60.4946V242.485C60.4946 241.985 60.3646 241.605 60.1046 241.345C59.8546 241.075 59.5096 240.94 59.0696 240.94C58.7096 240.94 58.3946 241.04 58.1246 241.24C57.8646 241.43 57.6596 241.69 57.5096 242.02C57.3696 242.34 57.2996 242.7 57.2996 243.1V247H55.3346ZM67.8698 247.24C67.0998 247.24 66.4098 247.065 65.7998 246.715C65.1998 246.365 64.7248 245.885 64.3748 245.275C64.0348 244.665 63.8648 243.97 63.8648 243.19C63.8648 242.46 64.0348 241.785 64.3748 241.165C64.7148 240.545 65.1798 240.05 65.7698 239.68C66.3598 239.3 67.0348 239.11 67.7948 239.11C68.6148 239.11 69.3048 239.285 69.8648 239.635C70.4248 239.985 70.8498 240.455 71.1398 241.045C71.4298 241.625 71.5748 242.27 71.5748 242.98C71.5748 243.14 71.5698 243.28 71.5598 243.4C71.5498 243.51 71.5398 243.59 71.5298 243.64H65.7998C65.8398 243.93 65.9198 244.185 66.0398 244.405C66.2298 244.765 66.4848 245.04 66.8048 245.23C67.1348 245.41 67.4998 245.5 67.8998 245.5C68.3698 245.5 68.7648 245.4 69.0848 245.2C69.4048 244.99 69.6548 244.73 69.8348 244.42L71.4248 245.2C71.0648 245.83 70.5948 246.33 70.0148 246.7C69.4348 247.06 68.7198 247.24 67.8698 247.24ZM65.8748 242.245H69.6848C69.6748 242.075 69.6248 241.9 69.5348 241.72C69.4448 241.54 69.3198 241.375 69.1598 241.225C68.9998 241.075 68.8048 240.955 68.5748 240.865C68.3548 240.765 68.0998 240.715 67.8098 240.715C67.4298 240.715 67.0798 240.815 66.7598 241.015C66.4498 241.215 66.2048 241.49 66.0248 241.84C65.9648 241.97 65.9148 242.105 65.8748 242.245ZM74.6196 247L72.1896 239.35H74.3946L75.7146 244.315H75.8196L77.3496 239.35H79.3596L80.8896 244.315H80.9946L82.3146 239.35H84.4896L82.0446 247H79.9296L78.3696 242.05H78.2646L76.7196 247H74.6196ZM0.945 269.24V258.35H2.79V259.28H2.91C3.04 259.08 3.21 258.89 3.42 258.71C3.64 258.53 3.9 258.385 4.2 258.275C4.5 258.165 4.835 258.11 5.205 258.11C5.905 258.11 6.53 258.285 7.08 258.635C7.64 258.975 8.08 259.45 8.4 260.06C8.73 260.67 8.895 261.375 8.895 262.175C8.895 262.975 8.73 263.68 8.4 264.29C8.08 264.9 7.64 265.38 7.08 265.73C6.53 266.07 5.905 266.24 5.205 266.24C4.655 266.24 4.18 266.125 3.78 265.895C3.39 265.655 3.1 265.385 2.91 265.085H2.79L2.91 266.165V269.24H0.945ZM4.86 264.425C5.23 264.425 5.57 264.335 5.88 264.155C6.2 263.965 6.455 263.7 6.645 263.36C6.845 263.02 6.945 262.625 6.945 262.175C6.945 261.715 6.845 261.32 6.645 260.99C6.455 260.66 6.2 260.405 5.88 260.225C5.57 260.035 5.23 259.94 4.86 259.94C4.5 259.94 4.16 260.035 3.84 260.225C3.53 260.405 3.275 260.665 3.075 261.005C2.885 261.335 2.79 261.725 2.79 262.175C2.79 262.625 2.885 263.02 3.075 263.36C3.275 263.69 3.53 263.95 3.84 264.14C4.16 264.33 4.5 264.425 4.86 264.425ZM10.3639 266V258.35H12.2089V259.37H12.3289C12.4589 259.13 12.6289 258.92 12.8389 258.74C13.0589 258.55 13.3139 258.4 13.6039 258.29C13.8939 258.18 14.2039 258.125 14.5339 258.125C14.7339 258.125 14.9139 258.14 15.0739 258.17C15.2339 258.2 15.3739 258.24 15.4939 258.29V260.255C15.2839 260.175 15.0739 260.11 14.8639 260.06C14.6639 260 14.4489 259.97 14.2189 259.97C13.8289 259.97 13.4889 260.07 13.1989 260.27C12.9189 260.46 12.7039 260.725 12.5539 261.065C12.4039 261.395 12.3289 261.77 12.3289 262.19V266H10.3639ZM20.0445 266.24C19.2445 266.24 18.5345 266.065 17.9145 265.715C17.3045 265.355 16.8245 264.87 16.4745 264.26C16.1345 263.64 15.9645 262.945 15.9645 262.175C15.9645 261.405 16.1345 260.715 16.4745 260.105C16.8245 259.485 17.3045 259 17.9145 258.65C18.5345 258.29 19.2445 258.11 20.0445 258.11C20.8445 258.11 21.5495 258.29 22.1595 258.65C22.7695 259.01 23.2445 259.495 23.5845 260.105C23.9345 260.715 24.1095 261.405 24.1095 262.175C24.1095 262.945 23.9345 263.64 23.5845 264.26C23.2445 264.87 22.7695 265.355 22.1595 265.715C21.5495 266.065 20.8445 266.24 20.0445 266.24ZM20.0445 264.41C20.4245 264.41 20.7695 264.325 21.0795 264.155C21.3995 263.975 21.6545 263.72 21.8445 263.39C22.0445 263.05 22.1445 262.645 22.1445 262.175C22.1445 261.705 22.0445 261.305 21.8445 260.975C21.6545 260.645 21.3995 260.39 21.0795 260.21C20.7695 260.03 20.4295 259.94 20.0595 259.94C19.6795 259.94 19.3245 260.03 18.9945 260.21C18.6745 260.39 18.4145 260.645 18.2145 260.975C18.0245 261.305 17.9295 261.705 17.9295 262.175C17.9295 262.645 18.0245 263.05 18.2145 263.39C18.4145 263.72 18.6745 263.975 18.9945 264.155C19.3245 264.325 19.6745 264.41 20.0445 264.41ZM29.1087 269.48C28.4187 269.48 27.8187 269.37 27.3087 269.15C26.8087 268.94 26.3987 268.665 26.0787 268.325C25.7587 267.985 25.5337 267.63 25.4037 267.26L27.2487 266.51C27.4087 266.88 27.6487 267.175 27.9687 267.395C28.2987 267.625 28.6787 267.74 29.1087 267.74C29.7187 267.74 30.2087 267.55 30.5787 267.17C30.9487 266.8 31.1337 266.26 31.1337 265.55V264.95H31.0137C30.7737 265.29 30.4587 265.55 30.0687 265.73C29.6787 265.91 29.2337 266 28.7337 266C28.1137 266 27.5287 265.84 26.9787 265.52C26.4387 265.2 25.9987 264.745 25.6587 264.155C25.3287 263.565 25.1637 262.865 25.1637 262.055C25.1637 261.235 25.3287 260.535 25.6587 259.955C25.9987 259.365 26.4387 258.91 26.9787 258.59C27.5287 258.27 28.1137 258.11 28.7337 258.11C29.2337 258.11 29.6787 258.2 30.0687 258.38C30.4587 258.55 30.7737 258.81 31.0137 259.16H31.1337V258.35H33.0237V265.475C33.0237 266.295 32.8637 267.005 32.5437 267.605C32.2237 268.205 31.7687 268.665 31.1787 268.985C30.5987 269.315 29.9087 269.48 29.1087 269.48ZM29.1387 264.215C29.4887 264.215 29.8137 264.135 30.1137 263.975C30.4237 263.805 30.6687 263.56 30.8487 263.24C31.0387 262.91 31.1337 262.515 31.1337 262.055C31.1337 261.575 31.0387 261.175 30.8487 260.855C30.6687 260.535 30.4237 260.295 30.1137 260.135C29.8137 259.975 29.4887 259.895 29.1387 259.895C28.7887 259.895 28.4587 259.975 28.1487 260.135C27.8387 260.295 27.5887 260.535 27.3987 260.855C27.2187 261.175 27.1287 261.575 27.1287 262.055C27.1287 262.525 27.2187 262.925 27.3987 263.255C27.5887 263.575 27.8387 263.815 28.1487 263.975C28.4587 264.135 28.7887 264.215 29.1387 264.215ZM34.9147 266V258.35H36.7597V259.37H36.8797C37.0097 259.13 37.1797 258.92 37.3897 258.74C37.6097 258.55 37.8647 258.4 38.1547 258.29C38.4447 258.18 38.7547 258.125 39.0847 258.125C39.2847 258.125 39.4647 258.14 39.6247 258.17C39.7847 258.2 39.9247 258.24 40.0447 258.29V260.255C39.8347 260.175 39.6247 260.11 39.4147 260.06C39.2147 260 38.9997 259.97 38.7697 259.97C38.3797 259.97 38.0397 260.07 37.7497 260.27C37.4697 260.46 37.2547 260.725 37.1047 261.065C36.9547 261.395 36.8797 261.77 36.8797 262.19V266H34.9147ZM43.3635 266.24C42.8235 266.24 42.3435 266.135 41.9235 265.925C41.5135 265.705 41.1885 265.4 40.9485 265.01C40.7085 264.62 40.5885 264.17 40.5885 263.66C40.5885 263.13 40.7235 262.675 40.9935 262.295C41.2735 261.915 41.6435 261.62 42.1035 261.41C42.5735 261.2 43.0935 261.095 43.6635 261.095C43.9735 261.095 44.2535 261.115 44.5035 261.155C44.7635 261.185 44.9935 261.225 45.1935 261.275C45.3935 261.325 45.5585 261.38 45.6885 261.44V261.11C45.6885 260.7 45.5335 260.365 45.2235 260.105C44.9135 259.835 44.4885 259.7 43.9485 259.7C43.5885 259.7 43.2385 259.785 42.8985 259.955C42.5685 260.115 42.2935 260.33 42.0735 260.6L40.8135 259.61C41.0635 259.29 41.3535 259.02 41.6835 258.8C42.0135 258.57 42.3785 258.4 42.7785 258.29C43.1785 258.17 43.5985 258.11 44.0385 258.11C45.2085 258.11 46.0985 258.38 46.7085 258.92C47.3185 259.46 47.6235 260.25 47.6235 261.29V266H45.6885V265.22H45.5685C45.4285 265.4 45.2535 265.57 45.0435 265.73C44.8335 265.88 44.5885 266 44.3085 266.09C44.0285 266.19 43.7135 266.24 43.3635 266.24ZM43.8285 264.71C44.2285 264.71 44.5635 264.625 44.8335 264.455C45.1135 264.275 45.3235 264.045 45.4635 263.765C45.6135 263.485 45.6885 263.19 45.6885 262.88C45.4685 262.77 45.2185 262.685 44.9385 262.625C44.6585 262.555 44.3735 262.52 44.0835 262.52C43.5035 262.52 43.1035 262.63 42.8835 262.85C42.6635 263.07 42.5535 263.34 42.5535 263.66C42.5535 263.96 42.6585 264.21 42.8685 264.41C43.0885 264.61 43.4085 264.71 43.8285 264.71ZM49.402 266V258.35H51.247V259.31H51.367C51.527 259.07 51.722 258.86 51.952 258.68C52.182 258.5 52.442 258.36 52.732 258.26C53.032 258.16 53.352 258.11 53.692 258.11C54.252 258.11 54.727 258.24 55.117 258.5C55.517 258.76 55.797 259.08 55.957 259.46C56.187 259.09 56.512 258.775 56.932 258.515C57.362 258.245 57.892 258.11 58.522 258.11C59.412 258.11 60.077 258.38 60.517 258.92C60.967 259.46 61.192 260.18 61.192 261.08V266H59.242V261.44C59.242 260.95 59.127 260.58 58.897 260.33C58.667 260.07 58.357 259.94 57.967 259.94C57.627 259.94 57.327 260.035 57.067 260.225C56.817 260.405 56.622 260.66 56.482 260.99C56.352 261.32 56.287 261.705 56.287 262.145V266H54.322V261.44C54.322 260.95 54.202 260.58 53.962 260.33C53.732 260.07 53.402 259.94 52.972 259.94C52.652 259.94 52.367 260.035 52.117 260.225C51.877 260.405 51.692 260.66 51.562 260.99C51.432 261.32 51.367 261.705 51.367 262.145V266H49.402ZM63.0251 266V258.35H64.8701V259.31H64.9901C65.1501 259.07 65.3451 258.86 65.5751 258.68C65.8051 258.5 66.0651 258.36 66.3551 258.26C66.6551 258.16 66.9751 258.11 67.3151 258.11C67.8751 258.11 68.3501 258.24 68.7401 258.5C69.1401 258.76 69.4201 259.08 69.5801 259.46C69.8101 259.09 70.1351 258.775 70.5551 258.515C70.9851 258.245 71.5151 258.11 72.1451 258.11C73.0351 258.11 73.7001 258.38 74.1401 258.92C74.5901 259.46 74.8151 260.18 74.8151 261.08V266H72.8651V261.44C72.8651 260.95 72.7501 260.58 72.5201 260.33C72.2901 260.07 71.9801 259.94 71.5901 259.94C71.2501 259.94 70.9501 260.035 70.6901 260.225C70.4401 260.405 70.2451 260.66 70.1051 260.99C69.9751 261.32 69.9101 261.705 69.9101 262.145V266H67.9451V261.44C67.9451 260.95 67.8251 260.58 67.5851 260.33C67.3551 260.07 67.0251 259.94 66.5951 259.94C66.2751 259.94 65.9901 260.035 65.7401 260.225C65.5001 260.405 65.3151 260.66 65.1851 260.99C65.0551 261.32 64.9901 261.705 64.9901 262.145V266H63.0251ZM76.6481 266V258.35H78.6131V266H76.6481ZM77.6381 257.51C77.2881 257.51 76.9881 257.385 76.7381 257.135C76.4881 256.885 76.3631 256.585 76.3631 256.235C76.3631 255.885 76.4881 255.59 76.7381 255.35C76.9881 255.1 77.2881 254.975 77.6381 254.975C77.9881 254.975 78.2831 255.1 78.5231 255.35C78.7731 255.59 78.8981 255.885 78.8981 256.235C78.8981 256.585 78.7731 256.885 78.5231 257.135C78.2831 257.385 77.9881 257.51 77.6381 257.51ZM80.5007 266V258.35H82.3457V259.31H82.4657C82.6957 258.94 83.0207 258.65 83.4407 258.44C83.8607 258.22 84.3157 258.11 84.8057 258.11C85.7457 258.11 86.4507 258.395 86.9207 258.965C87.3907 259.535 87.6257 260.295 87.6257 261.245V266H85.6607V261.485C85.6607 260.985 85.5307 260.605 85.2707 260.345C85.0207 260.075 84.6757 259.94 84.2357 259.94C83.8757 259.94 83.5607 260.04 83.2907 260.24C83.0307 260.43 82.8257 260.69 82.6757 261.02C82.5357 261.34 82.4657 261.7 82.4657 262.1V266H80.5007ZM92.9759 269.48C92.2859 269.48 91.6859 269.37 91.1759 269.15C90.6759 268.94 90.2659 268.665 89.9459 268.325C89.6259 267.985 89.4009 267.63 89.2709 267.26L91.1159 266.51C91.2759 266.88 91.5159 267.175 91.8359 267.395C92.1659 267.625 92.5459 267.74 92.9759 267.74C93.5859 267.74 94.0759 267.55 94.4459 267.17C94.8159 266.8 95.0009 266.26 95.0009 265.55V264.95H94.8809C94.6409 265.29 94.3259 265.55 93.9359 265.73C93.5459 265.91 93.1009 266 92.6009 266C91.9809 266 91.3959 265.84 90.8459 265.52C90.3059 265.2 89.8659 264.745 89.5259 264.155C89.1959 263.565 89.0309 262.865 89.0309 262.055C89.0309 261.235 89.1959 260.535 89.5259 259.955C89.8659 259.365 90.3059 258.91 90.8459 258.59C91.3959 258.27 91.9809 258.11 92.6009 258.11C93.1009 258.11 93.5459 258.2 93.9359 258.38C94.3259 258.55 94.6409 258.81 94.8809 259.16H95.0009V258.35H96.8909V265.475C96.8909 266.295 96.7309 267.005 96.4109 267.605C96.0909 268.205 95.6359 268.665 95.0459 268.985C94.4659 269.315 93.7759 269.48 92.9759 269.48ZM93.0059 264.215C93.3559 264.215 93.6809 264.135 93.9809 263.975C94.2909 263.805 94.5359 263.56 94.7159 263.24C94.9059 262.91 95.0009 262.515 95.0009 262.055C95.0009 261.575 94.9059 261.175 94.7159 260.855C94.5359 260.535 94.2909 260.295 93.9809 260.135C93.6809 259.975 93.3559 259.895 93.0059 259.895C92.6559 259.895 92.3259 259.975 92.0159 260.135C91.7059 260.295 91.4559 260.535 91.2659 260.855C91.0859 261.175 90.9959 261.575 90.9959 262.055C90.9959 262.525 91.0859 262.925 91.2659 263.255C91.4559 263.575 91.7059 263.815 92.0159 263.975C92.3259 264.135 92.6559 264.215 93.0059 264.215ZM4.545 285.24C3.765 285.24 3.07 285.07 2.46 284.73C1.86 284.38 1.385 283.9 1.035 283.29C0.695 282.67 0.525 281.965 0.525 281.175C0.525 280.385 0.695 279.685 1.035 279.075C1.385 278.465 1.86 277.985 2.46 277.635C3.07 277.285 3.765 277.11 4.545 277.11C5.395 277.11 6.125 277.29 6.735 277.65C7.345 278.01 7.785 278.53 8.055 279.21L6.255 279.96C6.095 279.61 5.87 279.355 5.58 279.195C5.29 279.025 4.945 278.94 4.545 278.94C4.155 278.94 3.805 279.035 3.495 279.225C3.185 279.405 2.94 279.66 2.76 279.99C2.58 280.32 2.49 280.715 2.49 281.175C2.49 281.635 2.58 282.035 2.76 282.375C2.94 282.705 3.185 282.965 3.495 283.155C3.805 283.335 4.155 283.425 4.545 283.425C4.985 283.425 5.35 283.33 5.64 283.14C5.93 282.94 6.165 282.67 6.345 282.33L8.1 283.11C7.8 283.75 7.345 284.265 6.735 284.655C6.125 285.045 5.395 285.24 4.545 285.24ZM12.9693 285.24C12.1693 285.24 11.4593 285.065 10.8393 284.715C10.2293 284.355 9.74926 283.87 9.39926 283.26C9.05926 282.64 8.88926 281.945 8.88926 281.175C8.88926 280.405 9.05926 279.715 9.39926 279.105C9.74926 278.485 10.2293 278 10.8393 277.65C11.4593 277.29 12.1693 277.11 12.9693 277.11C13.7693 277.11 14.4743 277.29 15.0843 277.65C15.6943 278.01 16.1693 278.495 16.5093 279.105C16.8593 279.715 17.0343 280.405 17.0343 281.175C17.0343 281.945 16.8593 282.64 16.5093 283.26C16.1693 283.87 15.6943 284.355 15.0843 284.715C14.4743 285.065 13.7693 285.24 12.9693 285.24ZM12.9693 283.41C13.3493 283.41 13.6943 283.325 14.0043 283.155C14.3243 282.975 14.5793 282.72 14.7693 282.39C14.9693 282.05 15.0693 281.645 15.0693 281.175C15.0693 280.705 14.9693 280.305 14.7693 279.975C14.5793 279.645 14.3243 279.39 14.0043 279.21C13.6943 279.03 13.3543 278.94 12.9843 278.94C12.6043 278.94 12.2493 279.03 11.9193 279.21C11.5993 279.39 11.3393 279.645 11.1393 279.975C10.9493 280.305 10.8543 280.705 10.8543 281.175C10.8543 281.645 10.9493 282.05 11.1393 282.39C11.3393 282.72 11.5993 282.975 11.9193 283.155C12.2493 283.325 12.5993 283.41 12.9693 283.41ZM18.5085 285V277.35H20.3535V278.31H20.4735C20.7035 277.94 21.0285 277.65 21.4485 277.44C21.8685 277.22 22.3235 277.11 22.8135 277.11C23.7535 277.11 24.4585 277.395 24.9285 277.965C25.3985 278.535 25.6335 279.295 25.6335 280.245V285H23.6685V280.485C23.6685 279.985 23.5385 279.605 23.2785 279.345C23.0285 279.075 22.6835 278.94 22.2435 278.94C21.8835 278.94 21.5685 279.04 21.2985 279.24C21.0385 279.43 20.8335 279.69 20.6835 280.02C20.5435 280.34 20.4735 280.7 20.4735 281.1V285H18.5085ZM31.0587 285.24C30.2787 285.24 29.5837 285.07 28.9737 284.73C28.3737 284.38 27.8987 283.9 27.5487 283.29C27.2087 282.67 27.0387 281.965 27.0387 281.175C27.0387 280.385 27.2087 279.685 27.5487 279.075C27.8987 278.465 28.3737 277.985 28.9737 277.635C29.5837 277.285 30.2787 277.11 31.0587 277.11C31.9087 277.11 32.6387 277.29 33.2487 277.65C33.8587 278.01 34.2987 278.53 34.5687 279.21L32.7687 279.96C32.6087 279.61 32.3837 279.355 32.0937 279.195C31.8037 279.025 31.4587 278.94 31.0587 278.94C30.6687 278.94 30.3187 279.035 30.0087 279.225C29.6987 279.405 29.4537 279.66 29.2737 279.99C29.0937 280.32 29.0037 280.715 29.0037 281.175C29.0037 281.635 29.0937 282.035 29.2737 282.375C29.4537 282.705 29.6987 282.965 30.0087 283.155C30.3187 283.335 30.6687 283.425 31.0587 283.425C31.4987 283.425 31.8637 283.33 32.1537 283.14C32.4437 282.94 32.6787 282.67 32.8587 282.33L34.6137 283.11C34.3137 283.75 33.8587 284.265 33.2487 284.655C32.6387 285.045 31.9087 285.24 31.0587 285.24ZM39.4079 285.24C38.6379 285.24 37.9479 285.065 37.3379 284.715C36.7379 284.365 36.2629 283.885 35.9129 283.275C35.5729 282.665 35.4029 281.97 35.4029 281.19C35.4029 280.46 35.5729 279.785 35.9129 279.165C36.2529 278.545 36.7179 278.05 37.3079 277.68C37.8979 277.3 38.5729 277.11 39.3329 277.11C40.1529 277.11 40.8429 277.285 41.4029 277.635C41.9629 277.985 42.3879 278.455 42.6779 279.045C42.9679 279.625 43.1129 280.27 43.1129 280.98C43.1129 281.14 43.1079 281.28 43.0979 281.4C43.0879 281.51 43.0779 281.59 43.0679 281.64H37.3379C37.3779 281.93 37.4579 282.185 37.5779 282.405C37.7679 282.765 38.0229 283.04 38.3429 283.23C38.6729 283.41 39.0379 283.5 39.4379 283.5C39.9079 283.5 40.3029 283.4 40.6229 283.2C40.9429 282.99 41.1929 282.73 41.3729 282.42L42.9629 283.2C42.6029 283.83 42.1329 284.33 41.5529 284.7C40.9729 285.06 40.2579 285.24 39.4079 285.24ZM37.4129 280.245H41.2229C41.2129 280.075 41.1629 279.9 41.0729 279.72C40.9829 279.54 40.8579 279.375 40.6979 279.225C40.5379 279.075 40.3429 278.955 40.1129 278.865C39.8929 278.765 39.6379 278.715 39.3479 278.715C38.9679 278.715 38.6179 278.815 38.2979 279.015C37.9879 279.215 37.7429 279.49 37.5629 279.84C37.5029 279.97 37.4529 280.105 37.4129 280.245ZM44.5827 288.24V277.35H46.4277V278.28H46.5477C46.6777 278.08 46.8477 277.89 47.0577 277.71C47.2777 277.53 47.5377 277.385 47.8377 277.275C48.1377 277.165 48.4727 277.11 48.8427 277.11C49.5427 277.11 50.1677 277.285 50.7177 277.635C51.2777 277.975 51.7177 278.45 52.0377 279.06C52.3677 279.67 52.5327 280.375 52.5327 281.175C52.5327 281.975 52.3677 282.68 52.0377 283.29C51.7177 283.9 51.2777 284.38 50.7177 284.73C50.1677 285.07 49.5427 285.24 48.8427 285.24C48.2927 285.24 47.8177 285.125 47.4177 284.895C47.0277 284.655 46.7377 284.385 46.5477 284.085H46.4277L46.5477 285.165V288.24H44.5827ZM48.4977 283.425C48.8677 283.425 49.2077 283.335 49.5177 283.155C49.8377 282.965 50.0927 282.7 50.2827 282.36C50.4827 282.02 50.5827 281.625 50.5827 281.175C50.5827 280.715 50.4827 280.32 50.2827 279.99C50.0927 279.66 49.8377 279.405 49.5177 279.225C49.2077 279.035 48.8677 278.94 48.4977 278.94C48.1377 278.94 47.7977 279.035 47.4777 279.225C47.1677 279.405 46.9127 279.665 46.7127 280.005C46.5227 280.335 46.4277 280.725 46.4277 281.175C46.4277 281.625 46.5227 282.02 46.7127 282.36C46.9127 282.69 47.1677 282.95 47.4777 283.14C47.7977 283.33 48.1377 283.425 48.4977 283.425ZM53.1387 279.03V277.35H54.4737V275.19H56.4387V277.35H58.3137V279.03H56.4387V282.195C56.4387 282.565 56.5137 282.84 56.6637 283.02C56.8137 283.19 57.0587 283.275 57.3987 283.275C57.5587 283.275 57.7087 283.255 57.8487 283.215C57.9887 283.165 58.1637 283.075 58.3737 282.945V284.865C58.1537 284.945 57.9287 285.005 57.6987 285.045C57.4787 285.095 57.2487 285.12 57.0087 285.12C56.2187 285.12 55.5987 284.895 55.1487 284.445C54.6987 283.985 54.4737 283.355 54.4737 282.555V279.03H53.1387ZM62.6245 285.24C61.9645 285.24 61.3995 285.145 60.9295 284.955C60.4695 284.765 60.0945 284.515 59.8045 284.205C59.5145 283.895 59.2995 283.555 59.1595 283.185L60.9145 282.42C61.0845 282.78 61.3145 283.055 61.6045 283.245C61.8945 283.425 62.2345 283.515 62.6245 283.515C62.9445 283.515 63.2345 283.465 63.4945 283.365C63.7545 283.255 63.8845 283.06 63.8845 282.78C63.8845 282.58 63.8145 282.425 63.6745 282.315C63.5445 282.195 63.3795 282.105 63.1795 282.045C62.9795 281.975 62.7745 281.92 62.5645 281.88L61.6645 281.685C61.2945 281.605 60.9445 281.465 60.6145 281.265C60.2845 281.055 60.0145 280.795 59.8045 280.485C59.6045 280.165 59.5045 279.8 59.5045 279.39C59.5045 278.93 59.6345 278.53 59.8945 278.19C60.1645 277.85 60.5245 277.585 60.9745 277.395C61.4345 277.205 61.9395 277.11 62.4895 277.11C62.9995 277.11 63.4595 277.17 63.8695 277.29C64.2795 277.41 64.6345 277.595 64.9345 277.845C65.2345 278.085 65.4745 278.395 65.6545 278.775L63.9745 279.51C63.8145 279.21 63.6045 279 63.3445 278.88C63.0945 278.76 62.8245 278.7 62.5345 278.7C62.1945 278.7 61.9245 278.765 61.7245 278.895C61.5245 279.025 61.4245 279.18 61.4245 279.36C61.4245 279.55 61.5245 279.715 61.7245 279.855C61.9245 279.995 62.1645 280.1 62.4445 280.17L63.5695 280.44C64.3295 280.62 64.8995 280.91 65.2795 281.31C65.6695 281.71 65.8645 282.19 65.8645 282.75C65.8645 283.25 65.7195 283.69 65.4295 284.07C65.1395 284.44 64.7495 284.73 64.2595 284.94C63.7695 285.14 63.2245 285.24 62.6245 285.24Z" fill="black"/>
<path d="M314.728 373V362.26H316.288L321.673 370.81H321.733L321.673 368.74V362.26H322.948V373H321.628L316.003 364.045H315.943L316.003 366.115V373H314.728ZM327.839 373.24C326.899 373.24 326.189 372.965 325.709 372.415C325.239 371.865 325.004 371.115 325.004 370.165V365.35H326.279V369.97C326.279 370.73 326.454 371.275 326.804 371.605C327.154 371.925 327.589 372.085 328.109 372.085C328.559 372.085 328.949 371.97 329.279 371.74C329.609 371.5 329.864 371.195 330.044 370.825C330.224 370.455 330.314 370.07 330.314 369.67V365.35H331.589V373H330.374V371.89H330.314C330.184 372.13 329.989 372.355 329.729 372.565C329.479 372.765 329.189 372.925 328.859 373.045C328.539 373.175 328.199 373.24 327.839 373.24ZM333.443 373V365.35H334.658V366.475H334.718C334.858 366.225 335.048 366 335.288 365.8C335.538 365.59 335.818 365.425 336.128 365.305C336.448 365.175 336.773 365.11 337.103 365.11C337.673 365.11 338.163 365.25 338.573 365.53C338.983 365.8 339.278 366.155 339.458 366.595C339.718 366.165 340.068 365.81 340.508 365.53C340.948 365.25 341.473 365.11 342.083 365.11C342.993 365.11 343.663 365.385 344.093 365.935C344.523 366.485 344.738 367.205 344.738 368.095V373H343.478V368.29C343.478 367.55 343.328 367.03 343.028 366.73C342.728 366.42 342.303 366.265 341.753 366.265C341.363 366.265 341.013 366.38 340.703 366.61C340.403 366.83 340.163 367.125 339.983 367.495C339.813 367.855 339.728 368.25 339.728 368.68V373H338.453V368.305C338.453 367.565 338.303 367.04 338.003 366.73C337.703 366.42 337.283 366.265 336.743 366.265C336.353 366.265 336.003 366.38 335.693 366.61C335.393 366.84 335.153 367.14 334.973 367.51C334.803 367.88 334.718 368.28 334.718 368.71V373H333.443ZM350.424 373.24C350.014 373.24 349.639 373.175 349.299 373.045C348.959 372.915 348.659 372.745 348.399 372.535C348.149 372.325 347.954 372.105 347.814 371.875H347.754V373H346.539V362.26H347.814V365.425L347.754 366.49H347.814C347.954 366.25 348.149 366.025 348.399 365.815C348.659 365.605 348.959 365.435 349.299 365.305C349.639 365.175 350.014 365.11 350.424 365.11C351.124 365.11 351.749 365.285 352.299 365.635C352.849 365.985 353.284 366.465 353.604 367.075C353.924 367.685 354.084 368.385 354.084 369.175C354.084 369.965 353.924 370.665 353.604 371.275C353.284 371.885 352.849 372.365 352.299 372.715C351.749 373.065 351.124 373.24 350.424 373.24ZM350.289 372.085C350.729 372.085 351.139 371.97 351.519 371.74C351.909 371.5 352.219 371.16 352.449 370.72C352.689 370.28 352.809 369.765 352.809 369.175C352.809 368.575 352.689 368.06 352.449 367.63C352.219 367.19 351.909 366.855 351.519 366.625C351.139 366.385 350.729 366.265 350.289 366.265C349.849 366.265 349.434 366.385 349.044 366.625C348.664 366.855 348.354 367.19 348.114 367.63C347.874 368.06 347.754 368.575 347.754 369.175C347.754 369.775 347.874 370.295 348.114 370.735C348.354 371.165 348.664 371.5 349.044 371.74C349.434 371.97 349.849 372.085 350.289 372.085ZM358.938 373.24C358.198 373.24 357.538 373.065 356.958 372.715C356.388 372.365 355.938 371.885 355.608 371.275C355.288 370.665 355.128 369.97 355.128 369.19C355.128 368.46 355.278 367.785 355.578 367.165C355.888 366.545 356.318 366.05 356.868 365.68C357.428 365.3 358.083 365.11 358.833 365.11C359.593 365.11 360.243 365.28 360.783 365.62C361.333 365.95 361.753 366.41 362.043 367C362.343 367.59 362.493 368.265 362.493 369.025C362.493 369.095 362.488 369.165 362.478 369.235C362.478 369.305 362.473 369.365 362.463 369.415H356.403C356.433 369.965 356.558 370.43 356.778 370.81C357.028 371.24 357.348 371.56 357.738 371.77C358.138 371.98 358.553 372.085 358.983 372.085C359.543 372.085 360.003 371.955 360.363 371.695C360.733 371.425 361.028 371.095 361.248 370.705L362.328 371.23C362.028 371.81 361.598 372.29 361.038 372.67C360.478 373.05 359.778 373.24 358.938 373.24ZM356.478 368.365H361.143C361.133 368.155 361.083 367.93 360.993 367.69C360.913 367.44 360.778 367.21 360.588 367C360.408 366.78 360.173 366.605 359.883 366.475C359.603 366.335 359.253 366.265 358.833 366.265C358.333 366.265 357.898 366.395 357.528 366.655C357.168 366.905 356.893 367.25 356.703 367.69C356.603 367.9 356.528 368.125 356.478 368.365ZM363.941 373V365.35H365.156V366.58H365.216C365.316 366.29 365.481 366.04 365.711 365.83C365.951 365.61 366.221 365.44 366.521 365.32C366.831 365.19 367.136 365.125 367.436 365.125C367.666 365.125 367.846 365.14 367.976 365.17C368.106 365.19 368.226 365.225 368.336 365.275V366.655C368.176 366.575 368.001 366.515 367.811 366.475C367.631 366.435 367.446 366.415 367.256 366.415C366.886 366.415 366.546 366.52 366.236 366.73C365.926 366.94 365.676 367.22 365.486 367.57C365.306 367.92 365.216 368.305 365.216 368.725V373H363.941ZM376.504 373.24C375.734 373.24 375.054 373.06 374.464 372.7C373.874 372.34 373.409 371.855 373.069 371.245C372.739 370.625 372.574 369.935 372.574 369.175C372.574 368.415 372.739 367.73 373.069 367.12C373.409 366.5 373.874 366.01 374.464 365.65C375.054 365.29 375.734 365.11 376.504 365.11C377.274 365.11 377.954 365.295 378.544 365.665C379.134 366.025 379.594 366.515 379.924 367.135C380.264 367.745 380.434 368.425 380.434 369.175C380.434 369.935 380.264 370.625 379.924 371.245C379.594 371.855 379.134 372.34 378.544 372.7C377.954 373.06 377.274 373.24 376.504 373.24ZM376.504 372.085C376.964 372.085 377.394 371.97 377.794 371.74C378.204 371.51 378.534 371.18 378.784 370.75C379.034 370.31 379.159 369.785 379.159 369.175C379.159 368.565 379.034 368.045 378.784 367.615C378.534 367.175 378.204 366.84 377.794 366.61C377.394 366.38 376.964 366.265 376.504 366.265C376.044 366.265 375.609 366.38 375.199 366.61C374.789 366.84 374.459 367.175 374.209 367.615C373.959 368.045 373.834 368.565 373.834 369.175C373.834 369.785 373.959 370.31 374.209 370.75C374.459 371.18 374.789 371.51 375.199 371.74C375.609 371.97 376.044 372.085 376.504 372.085ZM381.038 366.505V365.35H382.448V364.525C382.448 364.055 382.548 363.645 382.748 363.295C382.958 362.935 383.248 362.655 383.618 362.455C383.998 362.245 384.438 362.14 384.938 362.14C385.128 362.14 385.313 362.155 385.493 362.185C385.673 362.215 385.848 362.26 386.018 362.32V363.565C385.818 363.485 385.628 363.425 385.448 363.385C385.278 363.345 385.118 363.325 384.968 363.325C384.598 363.325 384.298 363.445 384.068 363.685C383.838 363.925 383.723 364.25 383.723 364.66V365.35H385.688V366.505H383.723V373H382.448V366.505H381.038ZM390.513 373V365.35H391.728V366.58H391.788C391.888 366.29 392.053 366.04 392.283 365.83C392.523 365.61 392.793 365.44 393.093 365.32C393.403 365.19 393.708 365.125 394.008 365.125C394.238 365.125 394.418 365.14 394.548 365.17C394.678 365.19 394.798 365.225 394.908 365.275V366.655C394.748 366.575 394.573 366.515 394.383 366.475C394.203 366.435 394.018 366.415 393.828 366.415C393.458 366.415 393.118 366.52 392.808 366.73C392.498 366.94 392.248 367.22 392.058 367.57C391.878 367.92 391.788 368.305 391.788 368.725V373H390.513ZM399.177 373.24C398.437 373.24 397.777 373.065 397.197 372.715C396.627 372.365 396.177 371.885 395.847 371.275C395.527 370.665 395.367 369.97 395.367 369.19C395.367 368.46 395.517 367.785 395.817 367.165C396.127 366.545 396.557 366.05 397.107 365.68C397.667 365.3 398.322 365.11 399.072 365.11C399.832 365.11 400.482 365.28 401.022 365.62C401.572 365.95 401.992 366.41 402.282 367C402.582 367.59 402.732 368.265 402.732 369.025C402.732 369.095 402.727 369.165 402.717 369.235C402.717 369.305 402.712 369.365 402.702 369.415H396.642C396.672 369.965 396.797 370.43 397.017 370.81C397.267 371.24 397.587 371.56 397.977 371.77C398.377 371.98 398.792 372.085 399.222 372.085C399.782 372.085 400.242 371.955 400.602 371.695C400.972 371.425 401.267 371.095 401.487 370.705L402.567 371.23C402.267 371.81 401.837 372.29 401.277 372.67C400.717 373.05 400.017 373.24 399.177 373.24ZM396.717 368.365H401.382C401.372 368.155 401.322 367.93 401.232 367.69C401.152 367.44 401.017 367.21 400.827 367C400.647 366.78 400.412 366.605 400.122 366.475C399.842 366.335 399.492 366.265 399.072 366.265C398.572 366.265 398.137 366.395 397.767 366.655C397.407 366.905 397.132 367.25 396.942 367.69C396.842 367.9 396.767 368.125 396.717 368.365ZM406.85 373.24C406.28 373.24 405.775 373.15 405.335 372.97C404.905 372.78 404.545 372.53 404.255 372.22C403.975 371.9 403.765 371.555 403.625 371.185L404.765 370.675C404.965 371.135 405.255 371.49 405.635 371.74C406.015 371.99 406.45 372.115 406.94 372.115C407.41 372.115 407.8 372.02 408.11 371.83C408.43 371.64 408.59 371.36 408.59 370.99C408.59 370.76 408.525 370.57 408.395 370.42C408.265 370.26 408.075 370.125 407.825 370.015C407.575 369.905 407.27 369.805 406.91 369.715L405.98 369.475C405.62 369.375 405.28 369.235 404.96 369.055C404.64 368.875 404.38 368.645 404.18 368.365C403.99 368.075 403.895 367.725 403.895 367.315C403.895 366.855 404.03 366.46 404.3 366.13C404.57 365.8 404.925 365.55 405.365 365.38C405.805 365.2 406.275 365.11 406.775 365.11C407.215 365.11 407.625 365.175 408.005 365.305C408.395 365.425 408.735 365.61 409.025 365.86C409.315 366.1 409.535 366.4 409.685 366.76L408.575 367.27C408.385 366.89 408.13 366.625 407.81 366.475C407.49 366.325 407.135 366.25 406.745 366.25C406.325 366.25 405.96 366.345 405.65 366.535C405.34 366.715 405.185 366.965 405.185 367.285C405.185 367.605 405.31 367.845 405.56 368.005C405.82 368.165 406.135 368.295 406.505 368.395L407.615 368.68C408.365 368.87 408.93 369.155 409.31 369.535C409.69 369.905 409.88 370.36 409.88 370.9C409.88 371.38 409.745 371.795 409.475 372.145C409.205 372.495 408.84 372.765 408.38 372.955C407.92 373.145 407.41 373.24 406.85 373.24ZM411.241 376.24V365.35H412.456V366.49H412.516C412.656 366.25 412.851 366.025 413.101 365.815C413.361 365.605 413.661 365.435 414.001 365.305C414.341 365.175 414.716 365.11 415.126 365.11C415.826 365.11 416.451 365.285 417.001 365.635C417.551 365.985 417.986 366.465 418.306 367.075C418.626 367.685 418.786 368.385 418.786 369.175C418.786 369.965 418.626 370.665 418.306 371.275C417.986 371.885 417.551 372.365 417.001 372.715C416.451 373.065 415.826 373.24 415.126 373.24C414.516 373.24 413.981 373.1 413.521 372.82C413.061 372.54 412.726 372.225 412.516 371.875H412.456L412.516 372.925V376.24H411.241ZM414.991 372.085C415.431 372.085 415.841 371.97 416.221 371.74C416.611 371.5 416.921 371.16 417.151 370.72C417.391 370.28 417.511 369.765 417.511 369.175C417.511 368.575 417.391 368.06 417.151 367.63C416.921 367.19 416.611 366.855 416.221 366.625C415.841 366.385 415.431 366.265 414.991 366.265C414.551 366.265 414.136 366.385 413.746 366.625C413.366 366.855 413.056 367.19 412.816 367.63C412.576 368.06 412.456 368.575 412.456 369.175C412.456 369.775 412.576 370.295 412.816 370.735C413.056 371.165 413.366 371.5 413.746 371.74C414.136 371.97 414.551 372.085 414.991 372.085ZM423.76 373.24C422.99 373.24 422.31 373.06 421.72 372.7C421.13 372.34 420.665 371.855 420.325 371.245C419.995 370.625 419.83 369.935 419.83 369.175C419.83 368.415 419.995 367.73 420.325 367.12C420.665 366.5 421.13 366.01 421.72 365.65C422.31 365.29 422.99 365.11 423.76 365.11C424.53 365.11 425.21 365.295 425.8 365.665C426.39 366.025 426.85 366.515 427.18 367.135C427.52 367.745 427.69 368.425 427.69 369.175C427.69 369.935 427.52 370.625 427.18 371.245C426.85 371.855 426.39 372.34 425.8 372.7C425.21 373.06 424.53 373.24 423.76 373.24ZM423.76 372.085C424.22 372.085 424.65 371.97 425.05 371.74C425.46 371.51 425.79 371.18 426.04 370.75C426.29 370.31 426.415 369.785 426.415 369.175C426.415 368.565 426.29 368.045 426.04 367.615C425.79 367.175 425.46 366.84 425.05 366.61C424.65 366.38 424.22 366.265 423.76 366.265C423.3 366.265 422.865 366.38 422.455 366.61C422.045 366.84 421.715 367.175 421.465 367.615C421.215 368.045 421.09 368.565 421.09 369.175C421.09 369.785 421.215 370.31 421.465 370.75C421.715 371.18 422.045 371.51 422.455 371.74C422.865 371.97 423.3 372.085 423.76 372.085ZM429.141 373V365.35H430.356V366.475H430.416C430.616 366.105 430.941 365.785 431.391 365.515C431.851 365.245 432.351 365.11 432.891 365.11C433.831 365.11 434.536 365.385 435.006 365.935C435.486 366.475 435.726 367.195 435.726 368.095V373H434.451V368.29C434.451 367.55 434.271 367.03 433.911 366.73C433.561 366.42 433.106 366.265 432.546 366.265C432.126 366.265 431.756 366.385 431.436 366.625C431.116 366.855 430.866 367.155 430.686 367.525C430.506 367.895 430.416 368.285 430.416 368.695V373H429.141ZM440.775 373.24C440.085 373.24 439.46 373.065 438.9 372.715C438.35 372.365 437.915 371.885 437.595 371.275C437.275 370.665 437.115 369.965 437.115 369.175C437.115 368.385 437.275 367.685 437.595 367.075C437.915 366.465 438.35 365.985 438.9 365.635C439.46 365.285 440.085 365.11 440.775 365.11C441.185 365.11 441.56 365.175 441.9 365.305C442.24 365.435 442.535 365.605 442.785 365.815C443.045 366.025 443.245 366.25 443.385 366.49H443.445L443.385 365.425V362.26H444.66V373H443.445V371.875H443.385C443.245 372.105 443.045 372.325 442.785 372.535C442.535 372.745 442.24 372.915 441.9 373.045C441.56 373.175 441.185 373.24 440.775 373.24ZM440.91 372.085C441.35 372.085 441.76 371.97 442.14 371.74C442.53 371.5 442.845 371.165 443.085 370.735C443.325 370.295 443.445 369.775 443.445 369.175C443.445 368.575 443.325 368.06 443.085 367.63C442.845 367.19 442.53 366.855 442.14 366.625C441.76 366.385 441.35 366.265 440.91 366.265C440.47 366.265 440.055 366.385 439.665 366.625C439.285 366.855 438.975 367.19 438.735 367.63C438.495 368.06 438.375 368.575 438.375 369.175C438.375 369.765 438.495 370.28 438.735 370.72C438.975 371.16 439.285 371.5 439.665 371.74C440.055 371.97 440.47 372.085 440.91 372.085ZM449.919 373.24C449.179 373.24 448.519 373.065 447.939 372.715C447.369 372.365 446.919 371.885 446.589 371.275C446.269 370.665 446.109 369.97 446.109 369.19C446.109 368.46 446.259 367.785 446.559 367.165C446.869 366.545 447.299 366.05 447.849 365.68C448.409 365.3 449.064 365.11 449.814 365.11C450.574 365.11 451.224 365.28 451.764 365.62C452.314 365.95 452.734 366.41 453.024 367C453.324 367.59 453.474 368.265 453.474 369.025C453.474 369.095 453.469 369.165 453.459 369.235C453.459 369.305 453.454 369.365 453.444 369.415H447.384C447.414 369.965 447.539 370.43 447.759 370.81C448.009 371.24 448.329 371.56 448.719 371.77C449.119 371.98 449.534 372.085 449.964 372.085C450.524 372.085 450.984 371.955 451.344 371.695C451.714 371.425 452.009 371.095 452.229 370.705L453.309 371.23C453.009 371.81 452.579 372.29 452.019 372.67C451.459 373.05 450.759 373.24 449.919 373.24ZM447.459 368.365H452.124C452.114 368.155 452.064 367.93 451.974 367.69C451.894 367.44 451.759 367.21 451.569 367C451.389 366.78 451.154 366.605 450.864 366.475C450.584 366.335 450.234 366.265 449.814 366.265C449.314 366.265 448.879 366.395 448.509 366.655C448.149 366.905 447.874 367.25 447.684 367.69C447.584 367.9 447.509 368.125 447.459 368.365ZM454.923 373V365.35H456.138V366.475H456.198C456.398 366.105 456.723 365.785 457.173 365.515C457.633 365.245 458.133 365.11 458.673 365.11C459.613 365.11 460.318 365.385 460.788 365.935C461.268 366.475 461.508 367.195 461.508 368.095V373H460.233V368.29C460.233 367.55 460.053 367.03 459.693 366.73C459.343 366.42 458.888 366.265 458.328 366.265C457.908 366.265 457.538 366.385 457.218 366.625C456.898 366.855 456.648 367.155 456.468 367.525C456.288 367.895 456.198 368.285 456.198 368.695V373H454.923ZM462.527 366.505V365.35H463.877V363.19H465.152V365.35H467.027V366.505H465.152V370.675C465.152 371.105 465.237 371.425 465.407 371.635C465.587 371.835 465.852 371.935 466.202 371.935C466.362 371.935 466.512 371.915 466.652 371.875C466.792 371.825 466.927 371.76 467.057 371.68V372.925C466.897 372.985 466.732 373.03 466.562 373.06C466.392 373.1 466.207 373.12 466.007 373.12C465.367 373.12 464.852 372.93 464.462 372.55C464.072 372.16 463.877 371.64 463.877 370.99V366.505H462.527ZM470.996 373.24C470.426 373.24 469.921 373.15 469.481 372.97C469.051 372.78 468.691 372.53 468.401 372.22C468.121 371.9 467.911 371.555 467.771 371.185L468.911 370.675C469.111 371.135 469.401 371.49 469.781 371.74C470.161 371.99 470.596 372.115 471.086 372.115C471.556 372.115 471.946 372.02 472.256 371.83C472.576 371.64 472.736 371.36 472.736 370.99C472.736 370.76 472.671 370.57 472.541 370.42C472.411 370.26 472.221 370.125 471.971 370.015C471.721 369.905 471.416 369.805 471.056 369.715L470.126 369.475C469.766 369.375 469.426 369.235 469.106 369.055C468.786 368.875 468.526 368.645 468.326 368.365C468.136 368.075 468.041 367.725 468.041 367.315C468.041 366.855 468.176 366.46 468.446 366.13C468.716 365.8 469.071 365.55 469.511 365.38C469.951 365.2 470.421 365.11 470.921 365.11C471.361 365.11 471.771 365.175 472.151 365.305C472.541 365.425 472.881 365.61 473.171 365.86C473.461 366.1 473.681 366.4 473.831 366.76L472.721 367.27C472.531 366.89 472.276 366.625 471.956 366.475C471.636 366.325 471.281 366.25 470.891 366.25C470.471 366.25 470.106 366.345 469.796 366.535C469.486 366.715 469.331 366.965 469.331 367.285C469.331 367.605 469.456 367.845 469.706 368.005C469.966 368.165 470.281 368.295 470.651 368.395L471.761 368.68C472.511 368.87 473.076 369.155 473.456 369.535C473.836 369.905 474.026 370.36 474.026 370.9C474.026 371.38 473.891 371.795 473.621 372.145C473.351 372.495 472.986 372.765 472.526 372.955C472.066 373.145 471.556 373.24 470.996 373.24Z" fill="black"/>
<path d="M298.66 331V329.725C298.69 329.695 298.78 329.6 298.93 329.44C299.08 329.27 299.27 329.06 299.5 328.81C299.73 328.55 299.975 328.275 300.235 327.985C300.505 327.685 300.775 327.385 301.045 327.085C301.315 326.785 301.565 326.51 301.795 326.26C302.025 326.01 302.21 325.81 302.35 325.66C302.82 325.15 303.165 324.7 303.385 324.31C303.615 323.91 303.73 323.49 303.73 323.05C303.73 322.72 303.65 322.42 303.49 322.15C303.33 321.87 303.1 321.65 302.8 321.49C302.51 321.32 302.17 321.235 301.78 321.235C301.41 321.235 301.085 321.315 300.805 321.475C300.535 321.635 300.315 321.83 300.145 322.06C299.985 322.29 299.88 322.515 299.83 322.735L298.675 322.27C298.735 322.06 298.84 321.83 298.99 321.58C299.15 321.32 299.36 321.07 299.62 320.83C299.88 320.59 300.195 320.395 300.565 320.245C300.935 320.095 301.36 320.02 301.84 320.02C302.51 320.02 303.08 320.165 303.55 320.455C304.03 320.745 304.4 321.12 304.66 321.58C304.92 322.03 305.05 322.515 305.05 323.035C305.05 323.485 304.955 323.925 304.765 324.355C304.575 324.785 304.345 325.185 304.075 325.555C303.805 325.915 303.545 326.225 303.295 326.485C303.165 326.615 302.985 326.805 302.755 327.055C302.535 327.295 302.295 327.56 302.035 327.85C301.775 328.13 301.52 328.405 301.27 328.675C301.02 328.945 300.8 329.18 300.61 329.38C300.43 329.58 300.305 329.715 300.235 329.785H305.14V331H298.66ZM310.681 331.24C310.051 331.24 309.486 331.095 308.986 330.805C308.486 330.515 308.056 330.115 307.696 329.605C307.336 329.095 307.061 328.5 306.871 327.82C306.681 327.14 306.586 326.41 306.586 325.63C306.586 324.85 306.681 324.12 306.871 323.44C307.061 322.76 307.336 322.165 307.696 321.655C308.056 321.135 308.486 320.735 308.986 320.455C309.486 320.165 310.051 320.02 310.681 320.02C311.311 320.02 311.876 320.165 312.376 320.455C312.886 320.735 313.321 321.135 313.681 321.655C314.041 322.165 314.316 322.76 314.506 323.44C314.696 324.12 314.791 324.85 314.791 325.63C314.791 326.41 314.696 327.14 314.506 327.82C314.316 328.5 314.041 329.095 313.681 329.605C313.321 330.115 312.886 330.515 312.376 330.805C311.876 331.095 311.311 331.24 310.681 331.24ZM310.681 330.025C311.261 330.025 311.761 329.83 312.181 329.44C312.601 329.05 312.921 328.525 313.141 327.865C313.371 327.195 313.486 326.45 313.486 325.63C313.486 324.8 313.371 324.055 313.141 323.395C312.921 322.735 312.601 322.21 312.181 321.82C311.761 321.43 311.261 321.235 310.681 321.235C310.101 321.235 309.601 321.43 309.181 321.82C308.771 322.21 308.451 322.735 308.221 323.395C308.001 324.055 307.891 324.8 307.891 325.63C307.891 326.45 308.001 327.195 308.221 327.865C308.451 328.525 308.771 329.05 309.181 329.44C309.601 329.83 310.101 330.025 310.681 330.025Z" fill="black"/>
<path d="M480.66 328.63V327.67L485.655 320.26H487.005V327.43H488.235V328.63H487.005V331H485.76V328.63H480.66ZM485.76 327.43V322.21H485.685L482.1 327.43H485.76ZM493.677 331.24C493.047 331.24 492.482 331.095 491.982 330.805C491.482 330.515 491.052 330.115 490.692 329.605C490.332 329.095 490.057 328.5 489.867 327.82C489.677 327.14 489.582 326.41 489.582 325.63C489.582 324.85 489.677 324.12 489.867 323.44C490.057 322.76 490.332 322.165 490.692 321.655C491.052 321.135 491.482 320.735 491.982 320.455C492.482 320.165 493.047 320.02 493.677 320.02C494.307 320.02 494.872 320.165 495.372 320.455C495.882 320.735 496.317 321.135 496.677 321.655C497.037 322.165 497.312 322.76 497.502 323.44C497.692 324.12 497.787 324.85 497.787 325.63C497.787 326.41 497.692 327.14 497.502 327.82C497.312 328.5 497.037 329.095 496.677 329.605C496.317 330.115 495.882 330.515 495.372 330.805C494.872 331.095 494.307 331.24 493.677 331.24ZM493.677 330.025C494.257 330.025 494.757 329.83 495.177 329.44C495.597 329.05 495.917 328.525 496.137 327.865C496.367 327.195 496.482 326.45 496.482 325.63C496.482 324.8 496.367 324.055 496.137 323.395C495.917 322.735 495.597 322.21 495.177 321.82C494.757 321.43 494.257 321.235 493.677 321.235C493.097 321.235 492.597 321.43 492.177 321.82C491.767 322.21 491.447 322.735 491.217 323.395C490.997 324.055 490.887 324.8 490.887 325.63C490.887 326.45 490.997 327.195 491.217 327.865C491.447 328.525 491.767 329.05 492.177 329.44C492.597 329.83 493.097 330.025 493.677 330.025Z" fill="black"/>
<path d="M627.245 67.24C626.785 67.24 626.315 67.14 625.835 66.94C625.355 66.74 624.925 66.43 624.545 66.01C624.175 65.59 623.91 65.055 623.75 64.405L624.875 63.955C625.035 64.565 625.315 65.065 625.715 65.455C626.115 65.835 626.61 66.025 627.2 66.025C627.88 66.025 628.435 65.815 628.865 65.395C629.295 64.965 629.51 64.415 629.51 63.745C629.51 63.295 629.415 62.895 629.225 62.545C629.035 62.195 628.765 61.92 628.415 61.72C628.075 61.52 627.68 61.42 627.23 61.42C626.86 61.42 626.505 61.51 626.165 61.69C625.825 61.86 625.555 62.09 625.355 62.38L624.065 61.87L624.77 56.26H630.125V57.475H625.805L625.37 60.91L625.445 60.925C625.685 60.725 625.975 60.56 626.315 60.43C626.655 60.3 627.04 60.235 627.47 60.235C628.07 60.235 628.625 60.385 629.135 60.685C629.645 60.985 630.05 61.395 630.35 61.915C630.66 62.435 630.815 63.035 630.815 63.715C630.815 64.375 630.66 64.97 630.35 65.5C630.04 66.03 629.615 66.455 629.075 66.775C628.545 67.085 627.935 67.24 627.245 67.24ZM633.205 67.24L632.065 66.655C632.595 65.685 633.135 64.685 633.685 63.655C634.245 62.615 634.795 61.575 635.335 60.535C635.885 59.485 636.415 58.465 636.925 57.475H631.585V56.26H638.26V57.565C637.86 58.335 637.45 59.13 637.03 59.95C636.61 60.76 636.185 61.58 635.755 62.41C635.325 63.24 634.895 64.06 634.465 64.87C634.045 65.68 633.625 66.47 633.205 67.24Z" fill="black"/>
<path d="M619.245 147.24C618.785 147.24 618.315 147.14 617.835 146.94C617.355 146.74 616.925 146.43 616.545 146.01C616.175 145.59 615.91 145.055 615.75 144.405L616.875 143.955C617.035 144.565 617.315 145.065 617.715 145.455C618.115 145.835 618.61 146.025 619.2 146.025C619.88 146.025 620.435 145.815 620.865 145.395C621.295 144.965 621.51 144.415 621.51 143.745C621.51 143.295 621.415 142.895 621.225 142.545C621.035 142.195 620.765 141.92 620.415 141.72C620.075 141.52 619.68 141.42 619.23 141.42C618.86 141.42 618.505 141.51 618.165 141.69C617.825 141.86 617.555 142.09 617.355 142.38L616.065 141.87L616.77 136.26H622.125V137.475H617.805L617.37 140.91L617.445 140.925C617.685 140.725 617.975 140.56 618.315 140.43C618.655 140.3 619.04 140.235 619.47 140.235C620.07 140.235 620.625 140.385 621.135 140.685C621.645 140.985 622.05 141.395 622.35 141.915C622.66 142.435 622.815 143.035 622.815 143.715C622.815 144.375 622.66 144.97 622.35 145.5C622.04 146.03 621.615 146.455 621.075 146.775C620.545 147.085 619.935 147.24 619.245 147.24ZM627.564 147.24C627.014 147.24 626.519 147.14 626.079 146.94C625.639 146.73 625.259 146.455 624.939 146.115C624.629 145.775 624.384 145.395 624.204 144.975C624.034 144.545 623.949 144.11 623.949 143.67C623.949 143.05 624.074 142.5 624.324 142.02C624.584 141.53 624.884 141.025 625.224 140.505C625.454 140.165 625.684 139.83 625.914 139.5C626.144 139.16 626.379 138.81 626.619 138.45C626.859 138.09 627.114 137.71 627.384 137.31C627.654 136.91 627.939 136.485 628.239 136.035L629.259 136.74C628.969 137.16 628.694 137.55 628.434 137.91C628.184 138.27 627.949 138.605 627.729 138.915C627.509 139.215 627.304 139.495 627.114 139.755C626.934 140.005 626.764 140.23 626.604 140.43L626.649 140.49C626.729 140.44 626.874 140.39 627.084 140.34C627.304 140.28 627.554 140.25 627.834 140.25C628.384 140.25 628.909 140.395 629.409 140.685C629.909 140.975 630.319 141.38 630.639 141.9C630.969 142.41 631.134 143 631.134 143.67C631.134 144.17 631.039 144.64 630.849 145.08C630.669 145.51 630.414 145.89 630.084 146.22C629.764 146.54 629.389 146.79 628.959 146.97C628.529 147.15 628.064 147.24 627.564 147.24ZM627.549 146.025C627.999 146.025 628.394 145.93 628.734 145.74C629.084 145.54 629.359 145.27 629.559 144.93C629.759 144.58 629.859 144.18 629.859 143.73C629.859 143.28 629.754 142.885 629.544 142.545C629.344 142.195 629.069 141.925 628.719 141.735C628.379 141.535 627.989 141.435 627.549 141.435C627.119 141.435 626.724 141.535 626.364 141.735C626.014 141.935 625.734 142.21 625.524 142.56C625.324 142.9 625.224 143.29 625.224 143.73C625.224 144.17 625.324 144.565 625.524 144.915C625.724 145.255 625.999 145.525 626.349 145.725C626.709 145.925 627.109 146.025 627.549 146.025Z" fill="black"/>
<path d="M545.66 225.63V224.67L550.655 217.26H552.005V224.43H553.235V225.63H552.005V228H550.76V225.63H545.66ZM550.76 224.43V219.21H550.685L547.1 224.43H550.76ZM558.047 228.24C557.497 228.24 557.002 228.14 556.562 227.94C556.122 227.73 555.742 227.455 555.422 227.115C555.112 226.775 554.867 226.395 554.687 225.975C554.517 225.545 554.432 225.11 554.432 224.67C554.432 224.05 554.557 223.5 554.807 223.02C555.067 222.53 555.367 222.025 555.707 221.505C555.937 221.165 556.167 220.83 556.397 220.5C556.627 220.16 556.862 219.81 557.102 219.45C557.342 219.09 557.597 218.71 557.867 218.31C558.137 217.91 558.422 217.485 558.722 217.035L559.742 217.74C559.452 218.16 559.177 218.55 558.917 218.91C558.667 219.27 558.432 219.605 558.212 219.915C557.992 220.215 557.787 220.495 557.597 220.755C557.417 221.005 557.247 221.23 557.087 221.43L557.132 221.49C557.212 221.44 557.357 221.39 557.567 221.34C557.787 221.28 558.037 221.25 558.317 221.25C558.867 221.25 559.392 221.395 559.892 221.685C560.392 221.975 560.802 222.38 561.122 222.9C561.452 223.41 561.617 224 561.617 224.67C561.617 225.17 561.522 225.64 561.332 226.08C561.152 226.51 560.897 226.89 560.567 227.22C560.247 227.54 559.872 227.79 559.442 227.97C559.012 228.15 558.547 228.24 558.047 228.24ZM558.032 227.025C558.482 227.025 558.877 226.93 559.217 226.74C559.567 226.54 559.842 226.27 560.042 225.93C560.242 225.58 560.342 225.18 560.342 224.73C560.342 224.28 560.237 223.885 560.027 223.545C559.827 223.195 559.552 222.925 559.202 222.735C558.862 222.535 558.472 222.435 558.032 222.435C557.602 222.435 557.207 222.535 556.847 222.735C556.497 222.935 556.217 223.21 556.007 223.56C555.807 223.9 555.707 224.29 555.707 224.73C555.707 225.17 555.807 225.565 556.007 225.915C556.207 226.255 556.482 226.525 556.832 226.725C557.192 226.925 557.592 227.025 558.032 227.025Z" fill="black"/>
<path d="M666.185 331.24C665.635 331.24 665.14 331.14 664.7 330.94C664.26 330.73 663.88 330.455 663.56 330.115C663.25 329.775 663.005 329.395 662.825 328.975C662.655 328.545 662.57 328.11 662.57 327.67C662.57 327.05 662.695 326.5 662.945 326.02C663.205 325.53 663.505 325.025 663.845 324.505C664.075 324.165 664.305 323.83 664.535 323.5C664.765 323.16 665 322.81 665.24 322.45C665.48 322.09 665.735 321.71 666.005 321.31C666.275 320.91 666.56 320.485 666.86 320.035L667.88 320.74C667.59 321.16 667.315 321.55 667.055 321.91C666.805 322.27 666.57 322.605 666.35 322.915C666.13 323.215 665.925 323.495 665.735 323.755C665.555 324.005 665.385 324.23 665.225 324.43L665.27 324.49C665.35 324.44 665.495 324.39 665.705 324.34C665.925 324.28 666.175 324.25 666.455 324.25C667.005 324.25 667.53 324.395 668.03 324.685C668.53 324.975 668.94 325.38 669.26 325.9C669.59 326.41 669.755 327 669.755 327.67C669.755 328.17 669.66 328.64 669.47 329.08C669.29 329.51 669.035 329.89 668.705 330.22C668.385 330.54 668.01 330.79 667.58 330.97C667.15 331.15 666.685 331.24 666.185 331.24ZM666.17 330.025C666.62 330.025 667.015 329.93 667.355 329.74C667.705 329.54 667.98 329.27 668.18 328.93C668.38 328.58 668.48 328.18 668.48 327.73C668.48 327.28 668.375 326.885 668.165 326.545C667.965 326.195 667.69 325.925 667.34 325.735C667 325.535 666.61 325.435 666.17 325.435C665.74 325.435 665.345 325.535 664.985 325.735C664.635 325.935 664.355 326.21 664.145 326.56C663.945 326.9 663.845 327.29 663.845 327.73C663.845 328.17 663.945 328.565 664.145 328.915C664.345 329.255 664.62 329.525 664.97 329.725C665.33 329.925 665.73 330.025 666.17 330.025ZM675.135 331.24C674.505 331.24 673.94 331.095 673.44 330.805C672.94 330.515 672.51 330.115 672.15 329.605C671.79 329.095 671.515 328.5 671.325 327.82C671.135 327.14 671.04 326.41 671.04 325.63C671.04 324.85 671.135 324.12 671.325 323.44C671.515 322.76 671.79 322.165 672.15 321.655C672.51 321.135 672.94 320.735 673.44 320.455C673.94 320.165 674.505 320.02 675.135 320.02C675.765 320.02 676.33 320.165 676.83 320.455C677.34 320.735 677.775 321.135 678.135 321.655C678.495 322.165 678.77 322.76 678.96 323.44C679.15 324.12 679.245 324.85 679.245 325.63C679.245 326.41 679.15 327.14 678.96 327.82C678.77 328.5 678.495 329.095 678.135 329.605C677.775 330.115 677.34 330.515 676.83 330.805C676.33 331.095 675.765 331.24 675.135 331.24ZM675.135 330.025C675.715 330.025 676.215 329.83 676.635 329.44C677.055 329.05 677.375 328.525 677.595 327.865C677.825 327.195 677.94 326.45 677.94 325.63C677.94 324.8 677.825 324.055 677.595 323.395C677.375 322.735 677.055 322.21 676.635 321.82C676.215 321.43 675.715 321.235 675.135 321.235C674.555 321.235 674.055 321.43 673.635 321.82C673.225 322.21 672.905 322.735 672.675 323.395C672.455 324.055 672.345 324.8 672.345 325.63C672.345 326.45 672.455 327.195 672.675 327.865C672.905 328.525 673.225 329.05 673.635 329.44C674.055 329.83 674.555 330.025 675.135 330.025Z" fill="black"/>
<path d="M108 72H634C639.523 72 644 76.4772 644 82V103C644 108.523 639.523 113 634 113H108V72Z" fill="url(#paint0_linear_1_27)"/>
<path d="M108 152H626C631.523 152 636 156.477 636 162V183C636 188.523 631.523 193 626 193H108V152Z" fill="url(#paint1_linear_1_27)"/>
<path d="M108 232H554C559.523 232 564 236.477 564 242V263C564 268.523 559.523 273 554 273H108V232Z" fill="url(#paint2_linear_1_27)"/>
<defs>
<linearGradient id="paint0_linear_1_27" x1="108" y1="92.5" x2="644" y2="92.5" gradientUnits="userSpaceOnUse">
<stop stop-color="#49A2EC"/>
</linearGradient>
<linearGradient id="paint1_linear_1_27" x1="108" y1="172.5" x2="636" y2="172.5" gradientUnits="userSpaceOnUse">
<stop offset="0.33" stop-color="#B8AFFE"/>
</linearGradient>
<linearGradient id="paint2_linear_1_27" x1="108" y1="252.5" x2="564" y2="252.5" gradientUnits="userSpaceOnUse">
<stop offset="0.69" stop-color="#F45C24"/>
</linearGradient>
</defs>
</svg>
