<?xml version="1.0" encoding="UTF-8"?>
<svg id="Layer_1" data-name="Layer 1" xmlns="http://www.w3.org/2000/svg" viewBox="0 0 200 200">
  <defs>
    <style>
      .cls-1 {
        fill: #005e8d;
      }

      .cls-2 {
        fill: #fff;
      }
    </style>
  </defs>
  <path class="cls-1" d="M100,16.7L10,58.55v124.75l90-41.85,90,41.85V58.55L100,16.7Z"/>
  <path class="cls-2" d="M176.84,118.07h-9.96l-2.47-9.6h-12.66l-2.47,9.6h-9.96l13.33-44.65h11.08l13.11,44.65Zm-22.63-18.74h7.84l-3.89-15.27-3.95,15.27Z"/>
  <path class="cls-2" d="M86.04,118.07h-11.12c-5.54,0-10.04-4.6-10.04-10.25v-24.15c0-5.65,4.5-10.25,10.04-10.25h11.12c5.54,0,10.04,4.6,10.04,10.25v24.15c0,5.65-4.5,10.25-10.04,10.25Zm-9.26-35.43c-1.51,0-2.74,1.28-2.74,2.86v20.48c0,1.58,1.23,2.86,2.74,2.86h7.4c1.51,0,2.75-1.28,2.75-2.86v-20.48c0-1.58-1.23-2.86-2.75-2.86h-7.4Z"/>
  <path class="cls-2" d="M135.42,118.07h-9.68l-6.05-14.13h-6.56v14.13h-9v-44.66h20.19c5.52,0,10.01,4.6,10.01,10.25v10.03c0,3.85-2.09,7.33-5.39,9.08l6.47,15.29Zm-22.27-23.35h9.39c1.54,0,2.8-1.29,2.8-2.87v-6.36c0-1.58-1.25-2.86-2.8-2.86h-9.39v12.09Z"/>
  <path class="cls-2" d="M45.06,73.41H25.53v44.65h19.53c6.41,0,11.61-5.2,11.61-11.61v-21.42c0-6.41-5.2-11.61-11.61-11.61Zm2.58,31.43c0,2.21-1.79,4-4,4h-9.08v-26.21h9.08c2.21,0,4,1.79,4,4v18.21Z"/>
</svg>