<?xml version="1.0" encoding="UTF-8"?>
<svg id="Layer_1" xmlns="http://www.w3.org/2000/svg" version="1.1" viewBox="0 0 200 200">
  <!-- Generator: Adobe Illustrator 29.0.0, SVG Export Plug-In . SVG Version: 2.1.0 Build 186)  -->
  <defs>
    <style>
      .st0 {
        fill: #fff;
      }

      .st1 {
        fill: #221e27;
      }
    </style>
  </defs>
  <path class="st0" d="M176.8,118.1h-10l-2.5-9.6h-12.7l-2.5,9.6h-10l13.3-44.7h11.1l13.1,44.7h0ZM154.2,99.3h7.8l-3.9-15.3-3.9,15.3Z"/>
  <path class="st0" d="M86,118.1h-11.1c-5.5,0-10-4.6-10-10.2v-24.2c0-5.7,4.5-10.2,10-10.2h11.1c5.5,0,10,4.6,10,10.2v24.2c0,5.7-4.5,10.2-10,10.2ZM76.8,82.6c-1.5,0-2.7,1.3-2.7,2.9v20.5c0,1.6,1.2,2.9,2.7,2.9h7.4c1.5,0,2.8-1.3,2.8-2.9v-20.5c0-1.6-1.2-2.9-2.8-2.9h-7.4Z"/>
  <path class="st0" d="M135.4,118.1h-9.7l-6.1-14.1h-6.6v14.1h-9v-44.7h20.2c5.5,0,10,4.6,10,10.2v10c0,3.8-2.1,7.3-5.4,9.1l6.5,15.3h0ZM113.1,94.7h9.4c1.5,0,2.8-1.3,2.8-2.9v-6.4c0-1.6-1.2-2.9-2.8-2.9h-9.4v12.1Z"/>
  <path class="st0" d="M45.1,73.4h-19.5v44.7h19.5c6.4,0,11.6-5.2,11.6-11.6v-21.4c0-6.4-5.2-11.6-11.6-11.6h0ZM47.6,104.8c0,2.2-1.8,4-4,4h-9.1v-26.2h9.1c2.2,0,4,1.8,4,4v18.2Z"/>
  <g>
    <path class="st1" d="M10.5,10.6h36.1c31.6,0,48,13.9,48,42.4v.9c0,28.8-17.1,43.9-47.9,43.9H10.5V10.6ZM45.6,73c11,0,15.1-4.9,15.1-18.4v-1c0-14.7-4.9-18.3-15.4-18.3h-2.3v37.7h2.6,0Z"/>
    <path class="st1" d="M10.5,103.6h38.3c26,0,38,10.5,38,29.4v.5c0,11.5-5,18.3-12.8,22.5l17.9,34.7h-33.8l-13.5-27.7h-1.8v27.7H10.5v-87.1h0ZM46.4,142.7c6.3,0,9.1-2.6,9.1-7.7v-.5c0-4.8-2.8-6.8-8.9-6.8h-3.9v15h3.7Z"/>
    <path class="st1" d="M122,103.6h41.8l26.7,87.1h-34.6l-2.9-11.6h-24.6l-2.9,11.6h-30.2l26.8-87.1h0ZM133.7,157.4h13.9l-6.8-27.8-7.1,27.8h0Z"/>
    <path class="st1" d="M98,54.4c0-24.9,20.2-45.1,45.1-45.1s45.1,20.2,45.1,45.1-20.2,45.1-45.1,45.1-45.1-20.2-45.1-45.1h0ZM143.1,37.2c-9.5,0-17.2,7.7-17.2,17.2s7.7,17.2,17.2,17.2,17.2-7.7,17.2-17.2-7.7-17.2-17.2-17.2Z"/>
  </g>
</svg>