<?xml version="1.0" encoding="UTF-8"?>
<svg id="Layer_1" xmlns="http://www.w3.org/2000/svg" version="1.1" viewBox="0 0 200 200">
  <!-- Generator: Adobe Illustrator 29.0.0, SVG Export Plug-In . SVG Version: 2.1.0 Build 186)  -->
  <defs>
    <style>
      .st0 {
        fill: #221e27;
      }
    </style>
  </defs>
  <path class="st0" d="M10,10.6h36.1c31.6,0,48,13.9,48,42.4v.9c0,28.8-17.1,43.9-47.9,43.9H10V10.6ZM45.1,73c11,0,15.1-4.9,15.1-18.4v-1c0-14.7-4.9-18.3-15.4-18.3h-2.3v37.7h2.6Z"/>
  <path class="st0" d="M10,103.6h38.3c26,0,38,10.5,38,29.4v.5c0,11.5-5,18.3-12.8,22.5l17.9,34.7h-33.8l-13.5-27.7h-1.8v27.7H10v-87.1h0ZM45.9,142.7c6.3,0,9.1-2.6,9.1-7.7v-.5c0-4.8-2.8-6.8-8.9-6.8h-3.9v15h3.7Z"/>
  <path class="st0" d="M121.5,103.6h41.8l26.7,87.1h-34.6l-2.9-11.6h-24.6l-2.9,11.6h-30.2l26.8-87.1h0ZM133.2,157.4h13.9l-6.8-27.8-7.1,27.8h0Z"/>
  <path class="st0" d="M97.5,54.4c0-24.9,20.2-45.1,45.1-45.1s45.1,20.2,45.1,45.1-20.2,45.1-45.1,45.1-45.1-20.2-45.1-45.1h0ZM142.6,37.2c-9.5,0-17.2,7.7-17.2,17.2s7.7,17.2,17.2,17.2,17.2-7.7,17.2-17.2-7.7-17.2-17.2-17.2Z"/>
</svg>