<?xml version="1.0" encoding="UTF-8"?>
<svg id="Layer_1" xmlns="http://www.w3.org/2000/svg" version="1.1" viewBox="0 0 1162.2 571">
  <!-- Generator: Adobe Illustrator 30.0.0, SVG Export Plug-In . SVG Version: 2.1.1 Build 123)  -->
  <defs>
    <style>
      .st0 {
        font-family: GoogleSans-Bold, 'Google Sans';
        font-weight: 700;
      }

      .st0, .st1, .st2, .st3 {
        isolation: isolate;
      }

      .st0, .st1, .st3 {
        font-size: 19.5px;
      }

      .st0, .st3 {
        fill: #231e28;
      }

      .st1, .st4 {
        fill: #fff;
      }

      .st1, .st3 {
        font-family: GoogleSans-Regular, 'Google Sans';
      }

      .st5 {
        fill: #231f20;
      }

      .st6 {
        stroke-width: 1.8px;
      }

      .st6, .st7 {
        fill: none;
        stroke: #231f20;
      }

      .st7 {
        stroke-width: 1.4px;
      }

      .st8 {
        fill: #72025b;
      }
    </style>
  </defs>
  <g>
    <rect class="st8" x="880.8" y="30.7" width="276.8" height="41.9" rx="4.9" ry="4.9"/>
    <rect class="st6" x="880.8" y="30.7" width="276.8" height="41.9" rx="4.9" ry="4.9"/>
    <g class="st2">
      <g class="st2">
        <text class="st1" transform="translate(934.9 57.2)"><tspan x="0" y="0">Team performance</tspan></text>
      </g>
    </g>
  </g>
  <g>
    <rect class="st8" x="880.8" y="109" width="276.8" height="41.9" rx="4.9" ry="4.9"/>
    <rect class="st6" x="880.8" y="109" width="276.8" height="41.9" rx="4.9" ry="4.9"/>
    <g class="st2">
      <g class="st2">
        <text class="st1" transform="translate(961.3 135.5)"><tspan x="0" y="0">Code quality</tspan></text>
      </g>
    </g>
  </g>
  <g>
    <rect class="st8" x="880.8" y="265.6" width="278.9" height="41.9" rx="4.9" ry="4.9"/>
    <rect class="st6" x="880.8" y="265.6" width="278.9" height="41.9" rx="4.9" ry="4.9"/>
    <g class="st2">
      <g class="st2">
        <text class="st1" transform="translate(924 292.1)"><tspan x="0" y="0">Product performance</tspan></text>
      </g>
    </g>
  </g>
  <g>
    <rect class="st8" x="880.8" y="187.3" width="278.9" height="41.9" rx="4.9" ry="4.9"/>
    <rect class="st6" x="880.8" y="187.3" width="278.9" height="41.9" rx="4.9" ry="4.9"/>
    <g class="st2">
      <g class="st2">
        <text class="st1" transform="translate(916.2 213.8)"><tspan x="0" y="0">Individual effectiveness</tspan></text>
      </g>
    </g>
  </g>
  <g>
    <rect class="st8" x="880.8" y="343.9" width="277.5" height="41.9" rx="4.9" ry="4.9"/>
    <rect class="st6" x="880.8" y="343.9" width="277.5" height="41.9" rx="4.9" ry="4.9"/>
    <g class="st2">
      <g class="st2">
        <text class="st1" transform="translate(946.1 370.4)"><tspan x="0" y="0">Reduced friction</tspan></text>
      </g>
    </g>
  </g>
  <g>
    <rect class="st8" x="880.8" y="422.2" width="277.5" height="41.9" rx="4.9" ry="4.9"/>
    <rect class="st6" x="880.8" y="422.2" width="277.5" height="41.9" rx="4.9" ry="4.9"/>
    <g class="st2">
      <g class="st2">
        <text class="st1" transform="translate(967.7 448.7)"><tspan x="0" y="0">Throughput</tspan></text>
      </g>
    </g>
  </g>
  <g>
    <rect class="st8" x="880.8" y="500.6" width="277.5" height="41.9" rx="4.9" ry="4.9"/>
    <rect class="st6" x="880.8" y="500.6" width="277.5" height="41.9" rx="4.9" ry="4.9"/>
    <g class="st2">
      <g class="st2">
        <text class="st1" transform="translate(894.8 527.1)"><tspan x="0" y="0">Organizational performance</tspan></text>
      </g>
    </g>
  </g>
  <g>
    <rect class="st4" x="273.7" y="30.7" width="324.8" height="41.9" rx="4.9" ry="4.9"/>
    <rect class="st6" x="273.7" y="30.7" width="324.8" height="41.9" rx="4.9" ry="4.9"/>
    <g class="st2">
      <g class="st2">
        <text class="st3" transform="translate(352 57.2)"><tspan x="0" y="0">User-centric focus</tspan></text>
      </g>
    </g>
  </g>
  <g>
    <rect class="st4" x="273.7" y="108.9" width="324.8" height="41.9" rx="4.9" ry="4.9"/>
    <rect class="st6" x="273.7" y="108.9" width="324.8" height="41.9" rx="4.9" ry="4.9"/>
    <g class="st2">
      <g class="st2">
        <text class="st3" transform="translate(291.6 135.4)"><tspan x="0" y="0">Strong version control practices</tspan></text>
      </g>
    </g>
  </g>
  <g>
    <rect class="st4" x="272.5" y="265.6" width="327.2" height="41.9" rx="4.9" ry="4.9"/>
    <rect class="st6" x="272.5" y="265.6" width="327.2" height="41.9" rx="4.9" ry="4.9"/>
    <g class="st2">
      <g class="st2">
        <text class="st3" transform="translate(325.7 292.1)"><tspan x="0" y="0">Working in small batches</tspan></text>
      </g>
    </g>
  </g>
  <g>
    <rect class="st4" x="2.8" y="265.6" width="175.2" height="41.9" rx="4.9" ry="4.9"/>
    <rect class="st6" x="2.8" y="265.6" width="175.2" height="41.9" rx="4.9" ry="4.9"/>
    <g class="st2">
      <g class="st2">
        <text class="st3" transform="translate(40 292.1)"><tspan x="0" y="0">AI adoption</tspan></text>
      </g>
    </g>
  </g>
  <g>
    <rect class="st4" x="211.9" y="265.1" width="33.3" height="41.9" rx="4.9" ry="4.9"/>
    <rect class="st6" x="211.9" y="265.1" width="33.3" height="41.9" rx="4.9" ry="4.9"/>
    <g class="st2">
      <g class="st2">
        <text class="st0" transform="translate(222.2 291.6)"><tspan x="0" y="0">×</tspan></text>
      </g>
    </g>
  </g>
  <g>
    <rect class="st4" x="272.5" y="187.3" width="327.2" height="41.9" rx="4.9" ry="4.9"/>
    <rect class="st6" x="272.5" y="187.3" width="327.2" height="41.9" rx="4.9" ry="4.9"/>
    <g class="st2">
      <g class="st2">
        <text class="st3" transform="translate(318.2 213.8)"><tspan x="0" y="0">AI-accessible internal data</tspan></text>
      </g>
    </g>
  </g>
  <g>
    <rect class="st4" x="273.3" y="344" width="325.6" height="41.9" rx="4.9" ry="4.9"/>
    <rect class="st6" x="273.3" y="344" width="325.6" height="41.9" rx="4.9" ry="4.9"/>
    <g class="st2">
      <g class="st2">
        <text class="st3" transform="translate(289.9 370.5)"><tspan x="0" y="0">Clear + communicated AI stance</tspan></text>
      </g>
    </g>
  </g>
  <g>
    <rect class="st4" x="273.3" y="422.2" width="325.6" height="41.9" rx="4.9" ry="4.9"/>
    <rect class="st6" x="273.3" y="422.2" width="325.6" height="41.9" rx="4.9" ry="4.9"/>
    <g class="st2">
      <g class="st2">
        <text class="st3" transform="translate(329.2 448.7)"><tspan x="0" y="0">Quality internal platform</tspan></text>
      </g>
    </g>
  </g>
  <g>
    <rect class="st4" x="273.3" y="500.6" width="325.6" height="41.9" rx="4.9" ry="4.9"/>
    <rect class="st6" x="273.3" y="500.6" width="325.6" height="41.9" rx="4.9" ry="4.9"/>
    <g class="st2">
      <g class="st2">
        <text class="st3" transform="translate(324.2 527.1)"><tspan x="0" y="0">Healthy data ecosystems</tspan></text>
      </g>
    </g>
  </g>
  <g>
    <g>
      <line class="st7" x1="627.4" y1="523.5" x2="857.6" y2="523.5"/>
      <path class="st5" d="M848.8,529.7c-.2-.3,0-.7.2-.9l8.3-5.3-8.3-5.3c-.3-.2-.4-.6-.2-.9.2-.3.6-.4.9-.2l9.2,5.9c.2,0,.3.3.3.5s0,.4-.3.5l-9.2,5.9h-.3c-.2,0-.4,0-.5-.3h-.1Z"/>
    </g>
    <g>
      <line class="st7" x1="627.4" y1="205.7" x2="857.6" y2="205.7"/>
      <path class="st5" d="M848.8,211.9c-.2-.3,0-.7.2-.9l8.3-5.3-8.3-5.3c-.3-.2-.4-.6-.2-.9.2-.3.6-.4.9-.2l9.2,5.9c.2.1.3.3.3.5s0,.4-.3.5l-9.2,5.9s-.2.1-.3.1c-.2,0-.4-.1-.5-.3h-.1Z"/>
    </g>
    <g>
      <line class="st7" x1="627.4" y1="119.6" x2="857.6" y2="62.1"/>
      <path class="st5" d="M850.6,70.3c-.3-.2-.3-.7,0-.9l6.8-7.2-9.4-3.1c-.3,0-.5-.5-.4-.8s.5-.5.8-.4l10.3,3.5c.2,0,.4.2.4.5s0,.4-.2.6l-7.5,7.9s-.2.2-.3.2c-.2,0-.4,0-.6-.2h.1Z"/>
    </g>
    <g>
      <line class="st7" x1="627.4" y1="197.3" x2="857.6" y2="139.8"/>
      <path class="st5" d="M850.6,148c-.3-.2-.3-.7,0-.9l6.8-7.2-9.4-3.1c-.3-.1-.5-.5-.4-.8s.5-.5.8-.4l10.3,3.5c.2,0,.4.2.4.5s0,.4-.2.6l-7.5,7.9s-.2.2-.3.2c-.2,0-.4,0-.6-.2h.1Z"/>
    </g>
    <g>
      <line class="st7" x1="627.4" y1="433.2" x2="857.6" y2="375.7"/>
      <path class="st5" d="M850.6,383.9c-.3-.2-.3-.7,0-.9l6.8-7.2-9.4-3.1c-.3-.1-.5-.5-.4-.8s.5-.5.8-.4l10.3,3.5c.2,0,.4.2.4.5s0,.4-.2.6l-7.5,7.9s-.2.2-.3.2c-.2,0-.4,0-.6-.2h.1Z"/>
    </g>
    <g>
      <line class="st7" x1="627.4" y1="345" x2="857.8" y2="232.3"/>
      <path class="st5" d="M852.5,241.7c-.3-.2-.4-.6-.2-.9l5.2-8.4-9.8-1.1c-.4,0-.6-.4-.6-.7s.4-.6.7-.6l10.8,1.2c.2,0,.4.2.5.4v.6l-5.7,9.3c0,.1-.2.2-.3.2h-.6Z"/>
    </g>
    <g>
      <line class="st7" x1="627.4" y1="381.7" x2="857.8" y2="494.4"/>
      <path class="st5" d="M847.1,496c0-.4.2-.7.6-.7l9.8-1.1-5.2-8.4c-.2-.3,0-.7.2-.9.3-.2.7,0,.9.2l5.7,9.3v.6c0,.2-.3.3-.5.4l-10.8,1.2h-.4c-.2,0-.3-.3-.4-.5h.1Z"/>
    </g>
    <g>
      <line class="st7" x1="627.4" y1="137.4" x2="857.6" y2="194.9"/>
      <path class="st5" d="M847.6,198.7c0-.3,0-.7.4-.8l9.4-3.1-6.8-7.2c-.2-.3-.2-.7,0-.9.3-.2.7-.2.9,0l7.5,7.9c.2.2.2.4.2.6s-.2.4-.4.5l-10.3,3.5h-.4c-.2,0-.4-.2-.5-.4h0Z"/>
    </g>
    <g>
      <line class="st7" x1="627.4" y1="214" x2="857.6" y2="271.5"/>
      <path class="st5" d="M847.6,275.4c0-.3,0-.7.4-.8l9.4-3.1-6.8-7.2c-.2-.3-.2-.7,0-.9.3-.2.7-.2.9,0l7.5,7.9c.2.2.2.4.2.6s-.2.4-.4.5l-10.3,3.5h-.4c-.2,0-.4-.2-.5-.4h0Z"/>
    </g>
    <g>
      <line class="st7" x1="627.4" y1="450.2" x2="857.6" y2="507.7"/>
      <path class="st5" d="M847.6,511.6c0-.3,0-.7.4-.8l9.4-3.1-6.8-7.2c-.2-.3-.2-.7,0-.9.3-.2.7-.2.9,0l7.5,7.9c.2.2.2.4.2.6s-.2.4-.4.5l-10.3,3.5h-.4c-.2,0-.4-.2-.5-.4h0Z"/>
    </g>
    <g>
      <line class="st7" x1="627.4" y1="48.3" x2="857.6" y2="48.3"/>
      <path class="st5" d="M848.8,54.5c-.2-.3,0-.7.2-.9l8.3-5.3-8.3-5.3c-.3-.2-.4-.6-.2-.9.2-.3.6-.4.9-.2l9.2,5.9c.2,0,.3.3.3.5s0,.4-.3.5l-9.2,5.9h-.3c-.2,0-.4,0-.5-.3h-.1Z"/>
    </g>
    <g>
      <line class="st7" x1="627.4" y1="283.8" x2="857.6" y2="283.8"/>
      <path class="st5" d="M848.8,290c-.2-.3,0-.7.2-.9l8.3-5.3-8.3-5.3c-.3-.2-.4-.6-.2-.9s.6-.4.9-.2l9.2,5.9c.2.1.3.3.3.5s0,.4-.3.5l-9.2,5.9s-.2.1-.3.1c-.2,0-.4-.1-.5-.3h-.1Z"/>
    </g>
    <g>
      <line class="st7" x1="627.4" y1="275.4" x2="857.6" y2="218"/>
      <path class="st5" d="M850.6,226.1c-.3-.2-.3-.7,0-.9l6.8-7.2-9.4-3.1c-.3-.1-.5-.5-.4-.8s.5-.5.8-.4l10.3,3.5c.2,0,.4.2.4.5s0,.4-.2.6l-7.5,7.9s-.2.2-.3.2c-.2,0-.4,0-.6-.2h.1Z"/>
    </g>
    <g>
      <line class="st7" x1="627.4" y1="292.2" x2="857.6" y2="349.6"/>
      <path class="st5" d="M847.6,353.5c0-.3,0-.7.4-.8l9.4-3.1-6.8-7.2c-.2-.3-.2-.7,0-.9.3-.2.7-.2.9,0l7.5,7.9c.2.2.2.4.2.6s-.2.4-.4.5l-10.3,3.5h-.4c-.2,0-.4-.2-.5-.4h0Z"/>
    </g>
    <g>
      <line class="st7" x1="627.4" y1="363.6" x2="857.6" y2="363.6"/>
      <path class="st5" d="M848.8,369.8c-.2-.3,0-.7.2-.9l8.3-5.3-8.3-5.3c-.3-.2-.4-.6-.2-.9s.6-.4.9-.2l9.2,5.9c.2.1.3.3.3.5s0,.4-.3.5l-9.2,5.9s-.2.1-.3.1c-.2,0-.4-.1-.5-.3h-.1Z"/>
    </g>
    <g>
      <line class="st7" x1="627.4" y1="355.2" x2="857.6" y2="297.7"/>
      <path class="st5" d="M850.6,305.9c-.3-.2-.3-.7,0-.9l6.8-7.2-9.4-3.1c-.3-.1-.5-.5-.4-.8s.5-.5.8-.4l10.3,3.5c.2,0,.4.2.4.5s0,.4-.2.6l-7.5,7.9s-.2.2-.3.2c-.2,0-.4,0-.6-.2h.1Z"/>
    </g>
    <g>
      <line class="st7" x1="627.4" y1="371.9" x2="857.6" y2="429.4"/>
      <path class="st5" d="M847.6,433.3c0-.3,0-.7.4-.8l9.4-3.1-6.8-7.2c-.2-.3-.2-.7,0-.9.3-.2.7-.2.9,0l7.5,7.9c.2.2.2.4.2.6s-.2.4-.4.5l-10.3,3.5h-.4c-.2,0-.4-.2-.5-.4h0Z"/>
    </g>
  </g>
</svg>